<?xml version="1.0" encoding="UTF-8"?>
<svg width="97px" height="78px" viewBox="0 0 97 78" version="1.1" xmlns="http://www.w3.org/2000/svg" xmlns:xlink="http://www.w3.org/1999/xlink">
    <!-- Generator: sketchtool 51 (57462) - http://www.bohemiancoding.com/sketch -->
    <title>0C37514F-7ED2-44F0-B763-9CDC36A2C2EA</title>
    <desc>Created with sketchtool.</desc>
    <defs>
        <path d="M8.69230769,47.077149 L8.69230769,33.2120349 C8.69230769,32.3454653 9.30421629,31.4788956 10.3240639,31.4788956 L78.8578264,31.4788956 L69.883167,47.077149 L8.69230769,47.077149 Z M15.8479845,45.0008079 C16.3485815,45.0008079 16.7929823,44.9382341 17.1812003,44.8130847 C17.5694184,44.6879353 17.9142121,44.5192582 18.2155919,44.3070484 C18.5169717,44.0948385 18.7774825,43.8445434 18.9971322,43.5561557 C19.2167819,43.2677679 19.4032259,42.9657815 19.5564699,42.6501874 L18.269227,41.6870859 C18.0342529,42.2420963 17.7175535,42.6773921 17.3191192,42.9929862 C16.9206849,43.3085803 16.4303116,43.466375 15.8479845,43.466375 C15.1634948,43.466375 14.5990547,43.2541684 14.1546472,42.8297487 C13.7102397,42.4053289 13.4165265,41.8176797 13.2734988,41.0667833 L17.0126328,41.0667833 L17.0126328,39.8098543 L13.1968772,39.8098543 L13.1968772,38.4060115 L17.0126328,38.4060115 L17.0126328,37.1490824 L13.2734988,37.1490824 C13.4165265,36.4199511 13.7102397,35.8377431 14.1546472,35.4024408 C14.5990547,34.9671385 15.1634948,34.7494907 15.8479845,34.7494907 C16.409879,34.7494907 16.8823742,34.896403 17.2654841,35.190232 C17.648594,35.484061 17.9474152,35.8921508 18.1619568,36.4145135 L19.4491996,35.4840596 C19.1120629,34.8202236 18.662554,34.2761039 18.1006595,33.8516842 C17.538765,33.4272645 16.7878808,33.2150578 15.8479845,33.2150578 C15.1634948,33.2150578 14.5454201,33.3456466 13.9937419,33.6068279 C13.4420636,33.8680093 12.9721225,34.2488931 12.5839045,34.7494907 C12.1956864,35.2500883 11.8968652,35.8649435 11.6874318,36.5940748 C11.4779983,37.3232061 11.3732832,38.1611504 11.3732832,39.1079329 C11.3732832,40.0547153 11.4779983,40.8926596 11.6874318,41.6217909 C11.8968652,42.3509222 12.1956864,42.9657774 12.5839045,43.466375 C12.9721225,43.9669727 13.4420636,44.3478564 13.9937419,44.6090378 C14.5454201,44.8702192 15.1634948,45.0008079 15.8479845,45.0008079 Z M101.410903,25.5988166 C101.404424,25.6099041 101.397732,25.6208657 101.39083,25.6316953 C101.094019,26.0974435 100.475842,26.2343939 100.010094,25.9375824 L91.4876848,20.5064324 C91.0393517,20.2207193 90.8929454,19.6341547 91.154429,19.1712715 L93.8329563,14.4296924 C93.8441273,14.4099173 93.8559687,14.3905285 93.86846,14.3715598 C94.1722065,13.9103044 94.7923631,13.7826183 95.2536184,14.0863648 L103.766328,19.6921657 C104.210233,19.9844869 104.347903,20.5729899 104.079731,21.0318884 L101.410903,25.5988166 Z M87.7159373,24.810264 C87.7246078,24.7951568 87.7336715,24.7802788 87.7431191,24.7656451 C88.0426743,24.3016567 88.6616485,24.1683573 89.1256369,24.4679124 L97.841665,30.0950601 C98.2901722,30.3846205 98.4321383,30.975421 98.1641615,31.4371485 L80.6964591,61.5342247 C80.4274773,61.9976838 80.039269,62.380638 79.5721879,62.64328 L72.91971,66.384 C72.6108158,66.5576927 72.2613173,66.6461919 71.9069847,66.6404401 C70.8025607,66.6225122 69.9217816,65.7126662 69.9397095,64.6082422 L70.0745789,56.2997984 C70.0828159,55.7923698 70.2196448,55.2953241 70.4722627,54.8551697 L87.7159373,24.810264 Z M79.1065026,68.3892217 C82.0115081,66.7779066 84.4139484,64.394113 86.0478496,61.5017505 L88.4443943,57.2593422 L88.4443943,88.8891338 C88.4443943,89.7557034 87.8324858,90.622273 86.8126381,90.622273 L10.3240639,90.622273 C9.50818582,90.622273 8.69230769,89.9723458 8.69230769,88.8891338 L8.69230769,51.6266396 L67.0275936,51.6266396 C66.0897853,53.3341975 65.5808338,55.2440185 65.5445198,57.1918172 L65.3535714,67.4338351 C65.3371648,68.3138464 65.553347,69.1825958 65.9802708,69.9522874 C67.3196996,72.3671149 70.3631256,73.2388978 72.777953,71.899469 L79.1065026,68.3892217 Z M60.9085077,84.3396432 C61.9283553,84.3396432 62.948203,83.4730736 62.7442334,82.1732191 C62.948203,80.8733647 62.1323248,79.5735102 60.9085077,79.3568678 L50.302092,77.6237286 C49.0782748,77.4070861 47.6504881,77.1904437 46.6306405,76.7571589 L46.4266709,76.5405165 C46.0187319,76.3238741 45.8147624,76.3238741 45.4068233,76.1072317 C44.5909452,75.8905893 43.9790366,75.6739469 43.367128,75.6739469 C42.9591889,75.6739469 42.7552194,75.4573045 42.3472803,75.4573045 C42.3472803,75.4573045 42.1433108,75.4573045 42.1433108,75.4573045 C41.9393413,74.8073773 41.7353717,74.3740924 41.1234631,73.9408076 C40.5115545,73.5075228 39.6956764,73.5075228 39.0837678,73.7241652 C37.6559811,74.3740924 36.2281944,75.0240197 34.5964381,75.6739469 C34.1884991,74.15745 33.9845295,72.6409532 33.9845295,70.9078139 C33.9845295,69.8246019 32.9646819,68.7413898 31.7408647,68.7413898 C30.5170475,68.7413898 29.4971999,69.6079595 29.4971999,70.9078139 C29.4971999,72.4243108 28.8852913,74.15745 28.0694131,75.2406621 C27.6614741,75.6739469 27.253535,76.1072317 26.6416264,76.5405165 L26.0297178,71.9910259 C26.0297178,71.1244563 25.8257483,69.6079595 24.6019311,68.5247474 C23.3781139,66.7916082 21.3384186,65.9250385 19.7066624,66.7916082 C18.4828452,67.4415354 17.8709366,68.7413898 17.4629975,69.3913171 C16.0352108,72.4243108 14.6074241,75.6739469 13.5875764,78.923583 C13.1796374,80.2234375 13.791546,81.5232919 15.0153632,81.9565767 C16.2391803,82.3898615 17.4629975,81.7399343 17.8709366,80.4400799 C18.8907842,77.6237286 19.9106319,74.8073773 21.3384186,71.9910259 C21.5423882,72.2076684 21.5423882,72.6409532 21.5423882,72.8575956 L22.5622358,80.2234375 C22.7662053,81.3066495 23.786053,82.1732191 25.0098702,82.1732191 C27.253535,81.9565767 29.2932303,80.8733647 30.9249866,79.1402254 C31.1289561,79.3568678 31.1289561,79.3568678 31.1289561,79.5735102 C31.1289561,80.006795 31.5368952,80.6567223 32.1488038,80.8733647 C32.5567428,81.3066495 33.1686514,81.3066495 33.78056,81.0900071 C35.6162858,80.4400799 37.248042,79.7901526 39.0837678,79.1402254 C39.6956764,79.7901526 40.5115545,80.2234375 41.3274327,80.4400799 C41.9393413,80.4400799 42.3472803,80.6567223 42.9591889,80.6567223 C43.367128,80.6567223 43.775067,80.8733647 43.9790366,80.8733647 C44.1830061,80.8733647 44.3869756,81.0900071 44.5909452,81.0900071 L44.9988842,81.3066495 C46.6306405,82.1732191 48.4663663,82.3898615 49.894153,82.6065039 L60.5005686,84.3396432 C60.7045381,84.3396432 60.7045381,84.3396432 60.9085077,84.3396432 Z" id="path-1"></path>
    </defs>
    <g id="Services" stroke="none" stroke-width="1" fill="none" fill-rule="evenodd">
        <g id="Desktop-/-Standart-Page-Template" transform="translate(-1136.000000, -2022.000000)">
            <g id="Stacked-Group">
                <g id="Section-4" transform="translate(0.000000, 1882.000000)">
                    <g id="Stacked-Group" transform="translate(574.000000, 126.662870)">
                        <g id="Group-14" transform="translate(524.000000, 0.000000)">
                            <g id="Standard-Page-/-Icons-/-Cheque" transform="translate(29.000000, 0.337130)">
                                <mask id="mask-2" fill="white">
                                    <use xlink:href="#path-1"></use>
                                </mask>
                                <use id="icon-/-additional-/-cheque" fill="#8594A3" fill-rule="nonzero" xlink:href="#path-1"></use>
                            </g>
                        </g>
                    </g>
                </g>
            </g>
        </g>
    </g>
</svg>