<?xml version="1.0" encoding="UTF-8"?>
<svg width="101px" height="94px" viewBox="0 0 101 94" version="1.1" xmlns="http://www.w3.org/2000/svg" xmlns:xlink="http://www.w3.org/1999/xlink">
    <!-- Generator: sketchtool 51 (57462) - http://www.bohemiancoding.com/sketch -->
    <title>8F3D55EC-DDDE-45B5-B3DA-544C2B208B6A</title>
    <desc>Created with sketchtool.</desc>
    <defs>
        <path d="M103.141659,67.9519169 C101.194639,67.8433496 97.1981261,70.1232635 96.1733791,70.6661002 C92.2793406,72.7288795 86.8481816,75.9858994 83.3640419,78.5915153 C83.1590925,78.80865 82.7491937,79.0257846 82.5442443,79.134352 C80.9046491,80.2200253 79.2650539,80.9799966 77.4205094,81.4142659 C67.0705649,83.6941798 52.109259,84.0198818 52.109259,84.0198818 L51.1869867,84.0198818 C50.5721385,84.0198818 49.9572903,83.5856125 49.8548156,82.9342085 C49.7523409,82.1742372 50.2647144,81.5228332 50.9820373,81.4142659 L73.3215215,79.134352 C75.7809142,78.80865 77.7279335,76.4201687 77.5229841,73.7059854 C77.21556,70.9918022 74.8586419,68.9290229 72.3992492,69.2547249 L52.5191578,69.0375902 C51.1869867,69.0375902 49.035018,68.7118882 47.7028469,68.2776189 C34.8935097,64.2606277 27.7202808,68.0604843 23.8262423,69.7975616 C23.0064447,68.2776189 21.3668496,67.300513 19.522305,67.4090803 L10.9144304,68.0604843 C8.04513882,68.2776189 5.89317016,70.7746675 6.09811956,73.7059854 L7.43029063,93.8995089 C7.63524003,96.8308268 10.0946328,99.0021734 12.9639243,98.7850388 L21.571799,98.1336348 C23.4163435,98.0250674 24.8509893,96.8308268 25.4658375,95.2023169 L63.0740517,96.9393941 C67.2755143,97.3736635 71.1695528,96.8308268 74.8586419,94.7680475 L75.8833889,94.2252109 L104.371355,76.6373034 C105.806001,75.7687647 106.728273,74.2488221 106.830748,72.6203121 C106.933222,70.3403982 105.908475,68.1690516 103.141659,67.9519169 Z M16.14064,93.7909416 C14.5010448,93.7909416 13.2713484,92.4881336 13.2713484,90.8596236 C13.2713484,89.2311137 14.6035195,87.9283057 16.14064,87.9283057 C17.7802351,87.9283057 19.0099315,89.2311137 19.0099315,90.8596236 C19.1124062,92.4881336 17.7802351,93.7909416 16.14064,93.7909416 Z M82.0318708,74.9002261 C82.0318708,74.3573894 82.0318708,73.8145528 82.0318708,73.1631488 C81.9293961,72.4031775 81.8269214,71.7517735 81.621972,71.1003695 C81.621972,71.1003695 81.621972,70.9918022 81.621972,70.9918022 C84.5937382,69.2547249 90.5372707,66.2148397 93.7139864,64.9120317 C95.3535815,64.2606277 96.890702,64.2606277 98.3253478,65.346301 C97.1981261,65.7805703 96.0709044,66.323407 95.0461574,66.8662436 C91.6644924,68.7118882 85.7209599,72.0774755 82.8516684,74.2488221 C82.646719,74.4659568 82.3392949,74.6830914 82.0318708,74.9002261 Z M90.6397454,62.9578197 C88.2828274,64.043493 83.8764153,65.672003 81.7244467,66.974811 L80.2898009,67.8433496 C80.1873262,67.9519169 79.9823768,68.0604843 79.8799021,68.1690516 C79.2650539,67.4090803 78.4452564,66.649109 77.6254588,66.1062723 C79.572478,65.020599 83.97889,63.5006564 85.9259093,62.6321178 C87.5655045,61.8721464 89.1026249,61.9807138 90.6397454,62.9578197 Z M29.6673001,49.1697688 C29.6673001,47.8669608 30.5895724,46.8898549 31.8192688,46.8898549 L85.6184852,46.8898549 C86.8481816,46.8898549 87.7704539,47.8669608 87.7704539,49.1697688 C87.7704539,50.4725768 86.8481816,51.4496827 85.6184852,51.4496827 L31.8192688,51.4496827 C30.6920471,51.4496827 29.6673001,50.4725768 29.6673001,49.1697688 Z M29.6673001,57.4208859 C29.6673001,56.1180779 30.5895724,55.140972 31.8192688,55.140972 L85.6184852,55.140972 C86.8481816,55.140972 87.7704539,56.1180779 87.7704539,57.4208859 C87.7704539,58.7236939 86.8481816,59.7007998 85.6184852,59.7007998 L31.8192688,59.7007998 C30.6920471,59.7007998 29.6673001,58.7236939 29.6673001,57.4208859 Z M77.8304082,24.1992828 C77.8304082,25.9363601 76.4982371,27.4563027 74.7561672,27.4563027 C73.1165721,27.4563027 71.6819263,26.0449274 71.6819263,24.1992828 C71.6819263,22.4622055 73.0140974,20.9422629 74.7561672,20.9422629 C76.4982371,20.9422629 77.8304082,22.4622055 77.8304082,24.1992828 Z M45.7558277,24.1992828 C45.7558277,25.9363601 44.4236566,27.4563027 42.6815867,27.4563027 C41.0419916,27.4563027 39.6073458,26.0449274 39.6073458,24.1992828 C39.6073458,22.4622055 40.9395169,20.9422629 42.6815867,20.9422629 C44.3211819,20.9422629 45.7558277,22.4622055 45.7558277,24.1992828 Z M82.7491937,5.2 L34.6885603,5.2 C31.9217435,5.2 29.6673001,7.58848127 29.6673001,10.5197992 L29.6673001,37.9873338 C29.6673001,40.9186517 31.9217435,43.3071329 34.6885603,43.3071329 L82.7491937,43.3071329 C85.5160105,43.3071329 87.7704539,40.9186517 87.7704539,37.9873338 L87.7704539,10.5197992 C87.7704539,7.58848127 85.5160105,5.2 82.7491937,5.2 Z M83.4665166,32.8846692 C83.0566178,32.7761019 82.646719,32.6675346 82.2368202,32.6675346 C79.4700033,32.6675346 77.1130853,35.0560158 77.1130853,38.0959011 C77.1130853,38.3130358 77.1130853,38.5301704 77.1130853,38.7473051 L39.9147699,38.7473051 C40.0172446,38.4216031 40.0172446,38.0959011 40.0172446,37.7701991 C40.0172446,34.8388812 37.7628012,32.3418326 34.8935097,32.3418326 C34.5860856,32.3418326 34.2786615,32.3418326 33.9712374,32.4503999 L33.9712374,16.056733 C34.2786615,16.1653004 34.5860856,16.1653004 34.8935097,16.1653004 C37.6603265,16.1653004 40.0172446,13.7768191 40.0172446,10.7369338 C40.0172446,10.4112319 40.0172446,10.0855299 39.9147699,9.75982787 L77.3180347,9.75982787 C77.21556,10.1940972 77.1130853,10.6283665 77.1130853,11.0626358 C77.1130853,13.9939538 79.3675286,16.4910024 82.2368202,16.4910024 C82.646719,16.4910024 83.0566178,16.382435 83.4665166,16.2738677 L83.4665166,32.8846692 Z M58.7701143,12.5825785 C52.7241072,12.5825785 47.7028469,17.7938103 47.7028469,24.3078501 C47.7028469,30.7133226 52.6216325,36.0331218 58.7701143,36.0331218 C64.8161215,36.0331218 69.8373817,30.82189 69.8373817,24.3078501 C69.734907,17.7938103 64.8161215,12.5825785 58.7701143,12.5825785 Z M58.7701143,31.0390246 C55.2859746,31.0390246 52.4166831,27.9991394 52.4166831,24.3078501 C52.4166831,20.6165609 55.2859746,17.5766757 58.7701143,17.5766757 C62.2542541,17.5766757 65.1235456,20.6165609 65.1235456,24.3078501 C65.1235456,27.9991394 62.2542541,31.0390246 58.7701143,31.0390246 Z" id="path-1"></path>
    </defs>
    <g id="Services" stroke="none" stroke-width="1" fill="none" fill-rule="evenodd">
        <g id="Desktop-/-Standart-Page-Template" transform="translate(-900.000000, -2014.000000)">
            <g id="Stacked-Group">
                <g id="Section-4" transform="translate(0.000000, 1882.000000)">
                    <g id="Stacked-Group" transform="translate(574.000000, 126.662870)">
                        <g id="Group-12" transform="translate(262.000000, 0.000000)">
                            <g id="noun_personal-finance_417227" transform="translate(58.000000, 0.000000)">
                                <g id="Standard-Page-/-Icons-/-Finances" transform="translate(0.000000, 0.337130)">
                                    <mask id="mask-2" fill="white">
                                        <use xlink:href="#path-1"></use>
                                    </mask>
                                    <use id="icon-/-additional-/-finances" fill="#8594A3" fill-rule="nonzero" xlink:href="#path-1"></use>
                                </g>
                            </g>
                        </g>
                    </g>
                </g>
            </g>
        </g>
    </g>
</svg>