<?xml version="1.0" encoding="UTF-8"?>
<svg width="100px" height="94px" viewBox="0 0 100 94" version="1.1" xmlns="http://www.w3.org/2000/svg" xmlns:xlink="http://www.w3.org/1999/xlink">
    <!-- Generator: sketchtool 51 (57462) - http://www.bohemiancoding.com/sketch -->
    <title>3FEA1EDD-0B25-4ECB-AAAC-ABF18820D3A1</title>
    <desc>Created with sketchtool.</desc>
    <defs>
        <path d="M43.5409423,96.0403363 C49.1111855,91.7266891 50.7026835,83.6914638 47.2013878,77.3478649 C46.9626631,76.840377 46.6443635,76.3328891 46.3260639,75.9099825 C45.2915902,74.3875187 45.1324403,73.0342176 46.0077643,71.3425913 C51.3392828,60.8545077 55.7159024,51.8043066 60.0129472,43.0924308 C64.0712672,34.8034616 68.2091622,26.2607484 73.1428062,16.4493154 C73.1428062,16.4493154 73.1428062,16.3647341 73.2223811,16.3647341 C74.5751544,13.6581319 75.9279278,10.9515297 77.1215513,8.32950879 C77.2011262,8.07576484 77.2807011,7.9066022 77.4398509,7.65285824 C77.6785756,7.22995165 77.5990007,6.5533011 77.4398509,6.13039451 C77.360276,5.79206923 77.2011262,5.53832527 76.8828266,5.45374396 C76.6441019,5.36916264 76.4053772,5.28458132 76.1666525,5.2 C75.8483529,5.2 75.4504783,5.2 75.1321787,5.36916264 L74.5751544,5.70748791 C71.7104579,7.48369561 68.9253363,9.34448462 65.9810649,11.2898549 C65.7423402,11.4590176 65.5036155,11.7127615 65.2648908,11.8819242 C64.8670163,12.3048308 64.3895668,12.643156 63.9916923,13.0660626 C62.0023198,14.9268517 60.3312468,17.1259659 58.8193236,19.4942429 C57.2278256,21.9471011 55.7159024,24.3999594 54.1244044,26.9373989 C51.2597079,31.5047901 48.3154365,36.0721813 45.45074,40.6395725 C45.0528654,41.2316418 44.7345658,41.823711 44.3366913,42.3311989 C42.7451933,44.8686385 41.0741203,47.4906594 39.1643226,50.4510055 C37.254525,53.495933 36.2996261,56.7100231 36.2996261,60.3470198 C36.2996261,62.7152967 35.9017516,65.2527363 35.583452,67.3672693 C35.3447273,69.0588956 34.3898285,69.9892902 32.5596057,70.4967781 C28.3421358,71.5117539 24.920415,74.4721 23.1697672,78.701166 C21.4191193,82.9302319 21.657844,87.5822044 23.8063664,91.6421077 L23.8859413,91.7266891 C25.795739,95.1945231 29.05831,97.6473814 32.7187555,98.4931946 C36.5383508,99.3390078 40.4375211,98.4086132 43.5409423,96.0403363 Z M40.8353956,59.9241132 C39.641772,57.8095803 40.3579462,55.0183967 42.3473187,53.8342583 C44.2571164,52.6501198 46.9626631,53.3267704 48.1562867,55.4413033 C49.3499102,57.471255 48.6337361,60.3470198 46.7239384,61.6157396 C44.6549909,62.7998781 42.0290191,62.0386462 40.8353956,59.9241132 Z M33.3553547,93.2491528 C31.1272574,92.6570836 29.2970347,91.1346198 28.182986,89.0200869 L28.182986,88.9355055 C25.795739,84.537277 27.1485123,79.0394913 31.2864072,76.5020517 C35.4243022,73.9646121 40.5966709,75.4024946 42.983918,79.8007231 L42.983918,79.8853044 C45.3711651,84.283533 43.9388168,89.6967374 39.8009219,92.3187583 C37.8115493,93.5874781 35.5038771,93.9258034 33.3553547,93.2491528 Z M36.379201,48.4210539 C34.6285532,51.2122374 33.5940794,54.1725835 33.11663,57.3866737 C32.5596057,56.7946044 31.9230065,56.3716978 31.3659822,55.8642099 C30.0132088,54.7646528 28.8195853,54.7646528 27.1485123,55.7796286 C23.4084919,58.0633242 18.9522973,58.3170682 14.9735522,56.4562792 C10.994807,54.5954901 8.20968542,50.9584934 7.25478658,46.4756835 L7.25478658,46.3911022 C6.45903755,42.5003616 7.25478658,38.3558769 9.48288386,35.0572055 C11.7109811,31.6739528 15.2122769,29.5594198 18.9522973,29.1365132 C25.8753139,28.2907 32.1617312,33.0272539 33.5940794,40.216666 C33.6736543,40.7241539 33.7532292,41.3162231 33.8328041,41.9082923 C33.9919539,43.7690813 34.787703,44.8686385 36.4587759,45.4607077 C36.9362254,45.6298704 37.4136748,45.799033 37.8911242,45.9681956 C37.4136748,46.8140088 36.9362254,47.5752407 36.379201,48.4210539 Z M22.2944432,52.2272132 C26.9893625,51.1276561 29.854059,46.3065209 28.8195853,41.3162231 L28.8195853,41.2316418 C27.7055366,36.241344 23.2493421,33.2809978 18.5544228,34.380555 C16.3263255,34.8880429 14.4165278,36.3259253 13.2229043,38.3558769 C12.0292808,40.3858286 11.6314062,42.8386868 12.1088557,45.2069638 L12.1088557,45.2915451 C13.1433294,50.2818429 17.6790989,53.3267704 22.2944432,52.2272132 Z M104.972767,71.2580099 C106.64384,75.5716572 104.654468,80.4773737 100.755297,82.3381627 L70.835134,95.2791045 C66.697239,96.9707308 62.0818947,94.8561979 60.4108217,90.5425506 L52.2941816,68.9743143 C53.3286553,66.9443627 54.3631291,64.914411 55.3180279,62.9690407 L64.9465912,88.6817616 C65.3444657,90.5425506 67.1746884,91.3037825 68.6866116,90.4579693 L83.7262682,84.1989517 L98.6067751,77.4324462 C100.277848,76.9249583 101.073597,74.979588 100.118698,73.3725429 L89.2169365,44.8686385 L78.3151748,16.3647341 C78.3151748,16.2801528 78.3151748,16.2801528 78.3151748,16.1955714 C79.1904988,14.4193637 80.0658227,12.643156 80.8615717,10.9515297 C81.8164706,11.7973429 82.6122196,12.8969 83.089669,14.2502011 L93.8322809,42.8386868 L104.972767,71.2580099 Z M42.8247682,22.454589 L54.6814287,17.2105473 C53.2490804,19.4942429 51.7371573,21.8625198 50.304809,24.1462154 C50.1456592,24.4845407 49.9069345,24.8228659 49.6682098,25.1611912 L44.7345658,27.4448868 C43.0634929,27.9523747 42.2677438,29.8977451 43.2226427,31.5047901 L44.1775415,33.9576484 C43.3817925,35.3109495 42.5064686,36.5796693 41.7107195,37.9329704 L40.7558207,39.3708528 L38.5277234,33.6193231 C36.8566504,29.2210945 38.846023,24.315378 42.8247682,22.454589 Z M92.6386574,64.3223418 C92.6386574,64.3223418 87.1479891,71.7654978 87.6254385,76.840377 L76.4053772,81.7460935 C73.4611058,77.6861902 64.6282916,76.5020517 64.6282916,76.5020517 L57.6257001,58.4862308 L57.5461252,58.2324868 C59.7742225,53.749677 61.84317,49.520611 63.8325425,45.3761264 L63.9121174,45.2069638 C66.6176641,39.6245967 69.5619355,33.5347418 72.9040814,26.8528176 C75.9279278,27.8677934 78.7926243,28.2907 78.7926243,28.2907 L85.7156408,46.3065209 L92.6386574,64.3223418 Z M74.9730289,60.8545077 C78.7130494,58.9937187 80.622847,54.6800715 79.827098,50.4510055 C79.7475231,50.0280989 79.5883733,49.520611 79.4292235,49.0977044 C79.2700737,48.6747978 79.031349,48.1673099 78.7926243,47.8289846 C76.6441019,44.2765693 72.426632,42.5849429 68.5274618,44.0228253 C64.7874414,45.9681956 62.8776437,50.2818429 63.6733927,54.4263275 C63.7529676,54.8492341 63.9121174,55.356722 64.0712672,55.7796286 C64.230417,56.2025352 64.4691417,56.6254418 64.7078665,57.0483484 C66.8563888,60.6007638 71.0738587,62.2923901 74.9730289,60.8545077 Z" id="path-1"></path>
    </defs>
    <g id="Services" stroke="none" stroke-width="1" fill="none" fill-rule="evenodd">
        <g id="Desktop-/-Standart-Page-Template" transform="translate(-639.000000, -2014.000000)">
            <g id="Stacked-Group">
                <g id="Section-4" transform="translate(0.000000, 1882.000000)">
                    <g id="Stacked-Group" transform="translate(574.000000, 126.662870)">
                        <g id="Group-13">
                            <g id="illustrations-home" transform="translate(59.000000, 0.000000)">
                                <g id="Group" transform="translate(0.000000, 0.000000)">
                                    <g id="Standard-Page-/-Icons-/-Reduction" transform="translate(0.000000, 0.337130)">
                                        <mask id="mask-2" fill="white">
                                            <use xlink:href="#path-1"></use>
                                        </mask>
                                        <use id="icon-/-additional-/-reduction" fill="#8594A3" fill-rule="nonzero" xlink:href="#path-1"></use>
                                    </g>
                                </g>
                            </g>
                        </g>
                    </g>
                </g>
            </g>
        </g>
    </g>
</svg>