<svg xmlns="http://www.w3.org/2000/svg" xmlns:xlink="http://www.w3.org/1999/xlink" width="64" height="39">
  <defs>
    <path id="icon-sleep" d="M25.5577 40.2308c4.4004 0 7.9808-3.5948 7.9808-8.0129 0-4.418-3.5804-8.0128-7.9808-8.0128S17.5769 27.8 17.5769 32.218c0 4.4181 3.5804 8.0129 7.9808 8.0129zM60.673 27.4103H38.3269c-.8819 0-1.5961.7171-1.5961 1.6025V43.436H14.3846V22.6026c0-.8855-.7143-1.6026-1.5961-1.6026H9.5962C8.7142 21 8 21.7171 8 22.6026V57.859c0 .8854.7143 1.6025 1.5962 1.6025h3.1923c.8818 0 1.5961-.7171 1.5961-1.6025v-4.8077h51.077v4.8077c0 .8854.7142 1.6025 1.596 1.6025H70.25c.8819 0 1.5962-.7171 1.5962-1.6025V38.6282c0-6.196-5.002-11.218-11.1731-11.218z"/>
  </defs>
  <use fill="#697A8C" fill-rule="nonzero" transform="translate(-8 -21)" xlink:href="#icon-sleep"/>
</svg>