<svg xmlns="http://www.w3.org/2000/svg" xmlns:xlink="http://www.w3.org/1999/xlink" width="51" height="40">
  <defs>
    <path id="icon-shopping" d="M54.2833 53.9028c1.6136 0 2.9235 1.31 2.9235 2.9235 0 1.6135-1.31 2.9234-2.9235 2.9234-1.6135 0-2.9234-1.31-2.9234-2.9234 0-1.6135 1.3099-2.9235 2.9234-2.9235zm-19.268 0c1.6134 0 2.9234 1.31 2.9234 2.9235 0 1.6135-1.31 2.9234-2.9235 2.9234-1.6135 0-2.9234-1.31-2.9234-2.9234 0-1.6135 1.31-2.9235 2.9234-2.9235zm24.4482-1.1H30.0129c-.152-.0122-.193-.0063-.339-.0546a1.0864 1.0864 0 0 1-.5444-.4043c-.0885-.126-.0947-.1668-.1503-.3088l-8.9635-29.8757h-3.9375l-.1875-.0163c-.0606-.0163-.1228-.0273-.1818-.0488-.4725-.1721-.7818-.704-.694-1.202.0763-.4325.4345-.798.8758-.876.0618-.0107.125-.0107.1875-.0163h4.7394c.0572.0047.1144.0093.1717.0136.1685.0412.3338.0967.472.1993.0925.0688.1734.1519.2396.2459.0886.1262.0947.167.1503.309l1.5562 5.3367a1.0535 1.0535 0 0 1 .7082-.2734h40.3666c.4182 0 .8066.2166 1.0265.5724.2203.3556.2402.7999.0535 1.174l-7.7219 15.4596a2.757 2.757 0 0 1-2.0334 1.4909l-24.2864 3.8613a2.1957 2.1957 0 0 1-1.4715-.2825l.7658 2.5366h28.6487l.1877.0164c.1213.0325.2438.0657.3521.1283.4356.2514.6478.829.4748 1.3043-.1293.3548-.4545.6283-.8269.694-.0618.0109-.1252.0109-.1877.0164z"/>
  </defs>
  <use fill="#697A8C" fill-rule="evenodd" transform="translate(-15 -20)" xlink:href="#icon-shopping"/>
</svg>