<svg xmlns="http://www.w3.org/2000/svg" xmlns:xlink="http://www.w3.org/1999/xlink" width="57" height="50">
  <defs>
    <path id="icon-shower" d="M55.2205 26.5625L37.6887 44.2031c-1.0393 1.0458-2.7252 1.0458-3.7645 0l-1.2556-1.2634c-1.0393-1.0457-1.0393-2.7422 0-3.788l.0122-.0122c-3.7746-4.4877-3.9-11.0424-.376-15.6674-1.3277-.8426-2.8995-1.3292-4.581-1.3292-4.7562 0-8.625 3.8928-8.625 8.6785V65H12V30.8214C12 22.0971 19.0533 15 27.7238 15c4.0962 0 7.832 1.5848 10.6327 4.1763 3.982-1.2846 8.4852-.5022 11.8316 2.3471l.0122-.0122c1.0394-1.0458 2.7253-1.0458 3.7646 0l1.2556 1.2634c1.0393 1.0457 1.0393 2.7421 0 3.7879zM55 35c0 1.1046-.8954 2-2 2s-2-.8954-2-2 .8954-2 2-2 2 .8954 2 2zm3 0c0-1.1046.8954-2 2-2s2 .8954 2 2-.8954 2-2 2-2-.8954-2-2zm11 0c0 1.1046-.8954 2-2 2s-2-.8954-2-2 .8954-2 2-2 2 .8954 2 2zm-17 3c0 1.1046-.8954 2-2 2s-2-.8954-2-2 .8954-2 2-2 2 .8954 2 2zm5-2c1.1046 0 2 .8954 2 2s-.8954 2-2 2-2-.8954-2-2 .8954-2 2-2zm9 2c0 1.1046-.8954 2-2 2s-2-.8954-2-2 .8954-2 2-2 2 .8954 2 2zm-18 4c0 1.1046-.8954 2-2 2s-2-.8954-2-2 .8954-2 2-2 2 .8954 2 2zm3 0c0-1.1046.8954-2 2-2s2 .8954 2 2-.8954 2-2 2-2-.8954-2-2zm11 0c0 1.1046-.8954 2-2 2s-2-.8954-2-2 .8954-2 2-2 2 .8954 2 2zm-14 4c0-1.1046.8954-2 2-2s2 .8954 2 2-.8954 2-2 2-2-.8954-2-2zm11 0c0 1.1046-.8954 2-2 2s-2-.8954-2-2 .8954-2 2-2 2 .8954 2 2zm-11 3c0 1.1046-.8954 2-2 2s-2-.8954-2-2 .8954-2 2-2 2 .8954 2 2zm7 0c0 1.1046-.8954 2-2 2s-2-.8954-2-2 .8954-2 2-2 2 .8954 2 2zm-3 4c0 1.1046-.8954 2-2 2s-2-.8954-2-2 .8954-2 2-2 2 .8954 2 2zm-4 3c0 1.1046-.8954 2-2 2s-2-.8954-2-2 .8954-2 2-2 2 .8954 2 2z"/>
  </defs>
  <use fill="#697A8C" fill-rule="nonzero" transform="translate(-12 -15)" xlink:href="#icon-shower"/>
</svg>