<svg height="50" viewBox="0 0 50 50" width="50" xmlns="http://www.w3.org/2000/svg"><path d="m10 9c-3.867187 0-7 3.132813-7 7v18c0 3.867188 3.132813 7 7 7h30c3.867188 0 7-3.132812 7-7v-18c0-3.867187-3.132812-7-7-7zm12.78125 7.75c5.46875 0 5.46875 5.800781 5.46875 8.28125 0 2.457031 0 8.21875-5.46875 8.21875-1.566406 0-2.824219-.445312-3.71875-1.34375-1.769531-1.773437-1.753906-4.835937-1.75-6.65625v-.21875c0-2.691406 0-8.28125 5.46875-8.28125zm12.4375 0c5.46875 0 5.46875 5.800781 5.46875 8.28125 0 2.457031 0 8.21875-5.46875 8.21875s-5.46875-5.78125-5.46875-8.25c0-2.679687 0-8.25 5.46875-8.25zm-21.875.0625h1.90625v16.28125h-2.125v-.15625h-.25v-11.0625h-4.125v-2.03125l.25-.03125c2.363281-.085937 3.917969-.570312 4.3125-2.78125zm9.4375 2.15625c-.757812 0-1.371094.25-1.84375.75-.621094.65625-1.328125 2.097656-1.15625 5.1875.003906.074219 0 .101563 0 .125v.1875c-.074219 2.519531.328125 4.269531 1.21875 5.1875.46875.480469 1.054688.71875 1.78125.71875 2.074219 0 3-1.886719 3-6.09375 0-.03125-.003906-.070312 0-.15625.160156-3.085937-.515625-4.511719-1.125-5.15625-.476562-.5-1.113281-.75-1.875-.75zm12.4375 0c-.757812 0-1.371094.25-1.84375.75-.621094.65625-1.328125 2.097656-1.15625 5.1875.003906.074219 0 .101563 0 .125v.1875c-.074219 2.519531.328125 4.269531 1.21875 5.1875.46875.480469 1.054688.71875 1.78125.71875 2.074219 0 3-1.886719 3-6.09375 0-.03125-.003906-.070312 0-.15625.160156-3.085937-.515625-4.511719-1.125-5.15625-.476562-.5-1.113281-.75-1.875-.75z"/></svg>