<svg clip-rule="evenodd" fill-rule="evenodd" stroke-linejoin="round" stroke-miterlimit="1.41421" viewBox="0 0 47 41" xmlns="http://www.w3.org/2000/svg"><path d="m37 21c-5.5 0-10 4.5-10 10s4.5 10 10 10 10-4.5 10-10-4.5-10-10-10zm-1 11v3.9c0 .6.4 1 1 1s1-.4 1-1v-3.9h3.9c.6 0 1-.4 1-1s-.4-1-1-1h-3.9v-4c0-.6-.4-1-1-1s-1 .4-1 1v4h-3.9c-.6 0-1 .4-1 1s.4 1 1 1zm-10.958 0h-18.042c-3.867 0-7-3.133-7-7v-18c0-3.867 3.133-7 7-7h30c3.867 0 7 3.133 7 7v14.268c-1.974-1.426-4.393-2.268-7-2.268-1.108 0-2.182.152-3.203.437.021-.219.031-.446.031-.683 0-2.106-1.137-5.668-5.41-5.668-1.121 0-2.016.254-2.656.754l.73-3.867h6.391v-2.223h-8.285l-1.547 8.742 2.043.11.082-.102c.5-.625 1.379-1.367 2.726-1.367.344 0 3.364.094 3.364 3.359 0 .465-.07 1.514-.634 2.35-.495.312-.966.659-1.411 1.039-.306.093-.657.146-1.061.146-1.289 0-3.101-.8-3.101-2.586v-.25h-2.309v.25c0 1.533.944 4.321 4.382 4.752-1.343 1.938-2.132 4.285-2.132 6.807 0 .336.014.67.042 1zm-5.159-24.25h-8.285l-1.547 8.742 2.043.11.082-.102c.5-.625 1.379-1.367 2.726-1.367.344 0 3.364.094 3.364 3.359 0 .832-.223 3.535-3.106 3.535-1.289 0-3.101-.8-3.101-2.586v-.25h-2.309v.25c0 1.664 1.113 4.809 5.324 4.809 2.141 0 5.758-1.156 5.754-5.496 0-2.106-1.137-5.668-5.41-5.668-1.121 0-2.016.254-2.656.754l.73-3.867h6.391z" fill="#697a8c"/></svg>