<svg height="50" viewBox="0 0 50 50" width="50" xmlns="http://www.w3.org/2000/svg"><path d="m10 9c-3.867187 0-7 3.132813-7 7v18c0 3.867188 3.132813 7 7 7h30c3.867188 0 7-3.132812 7-7v-18c0-3.867187-3.132812-7-7-7zm8.96875 7.75c4.078125 0 4.617188 3.226563 4.6875 4.21875l.03125.28125h-2.375l-.03125-.21875c-.105469-1.019531-.617187-2.25-2.40625-2.25-2.945312 0-3.472656 3.425781-3.5625 5.15625.894531-1.078125 2.148438-1.625 3.75-1.625 4.898438 0 5.03125 4.824219 5.03125 5.375 0 2.0625-1.175781 5.5625-5.5625 5.5625-3.742187 0-5.625-2.621094-5.625-7.78125-.003906-1.890625.257813-3.492187.75-4.8125.953125-2.554687 2.777344-3.90625 5.3125-3.90625zm12.53125 0c5.46875 0 5.46875 5.800781 5.46875 8.28125 0 2.457031 0 8.21875-5.46875 8.21875-1.566406 0-2.824219-.445312-3.71875-1.34375-1.769531-1.769531-1.753906-4.835937-1.75-6.65625v-.21875c0-2.691406 0-8.28125 5.46875-8.28125zm0 2.21875c-.757812 0-1.371094.25-1.84375.75-.621094.65625-1.328125 2.097656-1.15625 5.1875.003906.074219 0 .101563 0 .125v.1875c-.074219 2.519531.328125 4.269531 1.21875 5.1875.46875.480469 1.054688.71875 1.78125.71875 2.074219 0 3-1.886719 3-6.09375 0-.03125-.003906-.070312 0-.15625.160156-3.085937-.515625-4.511719-1.125-5.15625-.476562-.5-1.113281-.75-1.875-.75zm-12.78125 5.375c-2.96875.082031-3 3.210938-3 3.34375 0 2.570313 1.886719 3.28125 3 3.28125 2.835938 0 2.90625-2.949219 2.90625-3.28125 0-.34375-.070312-3.34375-2.90625-3.34375z"/></svg>