<svg height="50" viewBox="0 0 26 26" width="50" xmlns="http://www.w3.org/2000/svg"><path d="m10.5 0c-1.378906 0-2.5 1.121094-2.5 2.5s1.121094 2.5 2.5 2.5 2.5-1.121094 2.5-2.5-1.121094-2.5-2.5-2.5zm-1.65625 6c-.265625.042969-.5.1875-.65625.40625l-3 4c-.125.171875-.191406.382813-.1875.59375v4c-.003906.359375.183594.695313.496094.878906.3125.179688.695312.179688 1.007812 0 .3125-.183593.5-.519531.496094-.878906v-3.65625l1-1.34375v4.28125c-.050781.402344.0625.808594.3125 1.125l2.90625 3.875 2.9375 5.875c.207031.523438.691406.890625 1.253906.945313.558594.050781 1.105469-.214844 1.40625-.691407.304688-.472656.3125-1.082031.027344-1.566406l-3-6c-.042969-.089844-.097656-.171875-.15625-.25l-.6875-.90625v-6.5l4.3125 4.5c.199219.199219.488281.3125.6875.3125l6.5 11h1.09375l-6.6875-11.5625c.1875-.371094.097656-.808594-.21875-1.125l-6.09375-6.5c-.398437-.5-.980469-.8125-1.78125-.8125h-1.78125c-.0625-.007812-.125-.007812-.1875 0zm-.34375 11.1875-.40625 1.8125-2.90625 4.8125c-.398437.699219-.199219 1.59375.5 2.09375.300781.101563.511719.09375.8125.09375.5 0 1.011719-.289062 1.3125-.6875l2.875-4.90625-.28125-.59375z"/></svg>