<svg height="50" viewBox="0 0 50 50" width="50" xmlns="http://www.w3.org/2000/svg"><path d="m25 0c-3.308594 0-6 2.691406-6 6s2.691406 6 6 6 6-2.691406 6-6-2.691406-6-6-6zm-3 13c-3.859375 0-7 3.140625-7 7v2h20v-2c0-3.859375-3.140625-7-7-7zm20 6v1h2v-1zm1 1c-2.414062 0-4.4375 1.722656-4.90625 4h-37.09375c-.550781 0-1 .449219-1 1v4c0 .554688.449219 1 1 1h48c.554688 0 1-.445312 1-1v-4c0-.550781-.445312-1-1-1h-1.09375c-.46875-2.277344-2.492187-4-4.90625-4zm0 2c1.300781 0 2.394531.84375 2.8125 2h-5.625c.417969-1.15625 1.511719-2 2.8125-2zm-41 10v17c0 .554688.449219 1 1 1h44c.554688 0 1-.445312 1-1v-17z"/></svg>