<svg clip-rule="evenodd" fill-rule="evenodd" stroke-linejoin="round" stroke-miterlimit="1.41421" viewBox="0 0 86 100" xmlns="http://www.w3.org/2000/svg"><path d="m3.507 67.837c-1.462 0-2.634-1.182-2.634-2.637 0-.361.063-.719.201-1.027l6.825-17.232s.717-7.139 1.35-9.873c2.85-12.294 16.554-23.459 31.42-23.459 4.366 0 8.529.861 12.338 2.411v5.57h5.883v-2.448c3.328 2.233 6.219 5.063 8.531 8.333h-1.535v5.885h4.849c1.312 3.029 2.179 6.296 2.523 9.717h-4.428v5.882h4.483c-.734 9.392-5.425 17.683-12.41 23.179v27.81h-34.961v-10.03h-5.129c-7.136 0-12.914-5.783-12.914-12.923v-9.158h-4.392zm53.715-12.991v-5.885h-5.88v-5.884h-.003v-5.884h-5.883v5.884h.003v5.884h5.88v5.885zm27.971-5.885h-5.883v-5.884h5.883zm-45.626-2.943v-5.885h-5.883v5.885zm5.886-5.885v-5.883h-5.883v5.883zm20.431-1.276v-5.885h-5.884v5.885zm-26.316-4.607v-5.885h-5.884v5.885zm17.654 0v-5.885h-5.883v5.885zm22.088-2.943h-5.884v-5.885h5.884zm-30.911-3.832v-5.884h-5.884v5.884zm25.027-5.884h-5.883v-5.884h5.883zm5.884-5.884h-5.884v-5.884h5.884zm-13.426-9.602h-5.884v-5.885h5.884z" fill="#8594a3" fill-rule="nonzero"/></svg>