<svg height="50" viewBox="0 0 50 50" width="50" xmlns="http://www.w3.org/2000/svg"><path d="m26.5 3c-7.984375 0-12.925781 6.441406-13.4375 12.3125-.132812.742188.164063 1.496094.765625 1.953125.601563.453125 1.410156.527344 2.085938.195313.675781-.332032 1.109375-1.019532 1.117187-1.773438.339844-3.90625 3.652344-8.6875 9.46875-8.6875 5.8125 0 9.5 4.667969 9.5 9.5 0 5.632813-1.0625 7.53125-3.125 10.1875s-5.300781 5.910156-8.71875 12.6875c-.765625 1.507813-1.523437 2.402344-2.21875 2.90625-.695312.503906-1.359375.71875-2.4375.71875-2.960937 0-4.5-2.574219-4.5-4.5.011719-.722656-.367187-1.390625-.992187-1.753906-.621094-.367188-1.394532-.367188-2.015625 0-.625.363281-1.003907 1.03125-.992188 1.753906 0 4.0625 3.261719 8.5 8.5 8.5 1.722656 0 3.417969-.453125 4.8125-1.46875s2.464844-2.488281 3.40625-4.34375c3.199219-6.339844 5.996094-9.046875 8.3125-12.03125s3.96875-6.414062 3.96875-12.65625c0-6.917969-5.511719-13.5-13.5-13.5zm0 5c-4.09375 0-8.5 3.277344-8.5 8.5 0 .792969-.351562 1.28125-1 2-.324219.359375-.695312.722656-1.09375 1.21875-.398437.496094-.90625 1.214844-.90625 2.28125 0 .613281.238281 1.34375.625 1.8125s.8125.691406 1.125.84375c.625.308594.992188.398438 1.15625.5l.0625.0625c.652344.371094 1.03125.832031 1.03125 1.28125 0 .421875.074219.171875-.125.34375s-.855469.53125-1.75 1.09375c-2.289062 1.4375-2.125 4.0625-2.125 4.0625 0 3.429688 3.40625 4.75 3.40625 4.75.695313.304688 1.503906.191406 2.085938-.296875.585937-.488281.839843-1.261719.664062-2-.179687-.742187-.757812-1.316406-1.5-1.484375 0 0-.65625 0-.65625-.96875 0 0 .179688-.613281.25-.65625.699219-.4375 1.441406-.761719 2.25-1.46875s1.5-2.03125 1.5-3.375c0-2.316406-1.578125-3.890625-3-4.71875-.015625-.011719-.046875-.015625-.0625-.03125-.167969-.101562-.195312-.082031-.34375-.15625.144531-.15625.230469-.242187.40625-.4375.851563-.945312 2-2.503906 2-4.65625 0-2.976562 2.507813-4.5 4.5-4.5 1.34375 0 2.433594.613281 3.25 1.46875s1.1875 2.09375 1.1875 2.09375c-.011719.722656.367188 1.390625.992188 1.753906.621093.367188 1.394531.367188 2.015625 0 .625-.363281 1.003906-1.03125.992187-1.753906 0-1.8125-.90625-3.371094-2.3125-4.84375s-3.515625-2.71875-6.125-2.71875z"/></svg>