<svg height="100" viewBox="0 0 50 50" width="100" xmlns="http://www.w3.org/2000/svg"><path d="m12 0c-1.09375 0-2 .90625-2 2v2h-6c-1.160156 0-2 .839844-2 2v7h46v-7c0-1.160156-.839844-2-2-2h-6v-2c0-1.09375-.90625-2-2-2h-2c-1.09375 0-2 .90625-2 2v2h-18v-2c0-1.09375-.90625-2-2-2zm0 2h2v6h-2zm24 0h2v6h-2zm-34 13v31c0 1.160156.839844 2 2 2h42c1.160156 0 2-.839844 2-2v-31zm10 6h5v5h-5zm7 0h5v5h-5zm7 0h5v5h-5zm7 0h5v5h-5zm-21 7h5v5h-5zm7 0h5v5h-5zm7 0h5v5h-5zm7 0h5v5h-5zm-21 7h5v5h-5zm7 0h5v5h-5zm7 0h5v5h-5zm7 0h5v5h-5z"/></svg>