<svg height="50" viewBox="0 0 50 50" width="50" xmlns="http://www.w3.org/2000/svg"><path d="m14 6c-4.410156 0-8 3.589844-8 8s3.589844 8 8 8 8-3.589844 8-8-3.589844-8-8-8zm0 17c-1.671875 0-5.707031.269531-9.03125 1.34375-2.972656 1.03125-4.96875 3.84375-4.96875 6.96875v12.6875c0 .554688.449219 1 1 1h26c.554688 0 1-.445312 1-1v-12.6875c0-3.082031-2.082031-5.894531-5.1875-6.96875-3.199219-1.066406-7.042969-1.34375-8.8125-1.34375zm26 2c-.21875 0-.445312.078125-.625.21875l-9 7c-.242187.1875-.375.472656-.375.78125v11c0 .554688.445313 1 1 1h18c.554688 0 1-.445312 1-1v-11c0-.308594-.132812-.59375-.375-.78125l-9-7c-.179687-.140625-.40625-.21875-.625-.21875zm-3 10h6v8h-6z"/></svg>