<svg height="50" viewBox="0 0 50 50" width="50" xmlns="http://www.w3.org/2000/svg"><path d="m3 10c-.550781 0-1 .445313-1 1v28c0 .554688.449219 1 1 1h44c.550781 0 1-.445312 1-1v-28c0-.554687-.449219-1-1-1zm22 5.875 2.25 1.15625 2.53125.40625 1.125 2.25 1.8125 1.8125-.40625 2.5.40625 2.5-1.8125 1.8125-.40625.8125 3.5 4.8125-2.21875.1875-1.21875 1.875-2.5625-5.15625-.75.125-2.25 1.15625-2.25-1.15625-.75-.125-2.5625 5.15625-1.21875-1.875-2.21875-.1875 3.5-4.8125-.40625-.8125-1.8125-1.8125.40625-2.5-.40625-2.5 1.8125-1.8125 1.125-2.25 2.53125-.40625zm0 2.25-1.625.84375-1.8125.28125-.84375 1.65625-1.3125 1.28125.3125 1.8125-.3125 1.8125 1.3125 1.28125.84375 1.65625 1.8125.28125 1.625.84375 1.625-.84375 1.8125-.28125.84375-1.65625 1.3125-1.28125-.3125-1.8125.3125-1.8125-1.3125-1.28125-.84375-1.65625-1.8125-.28125z"/></svg>