<svg height="50" viewBox="0 0 50 50" width="50" xmlns="http://www.w3.org/2000/svg"><path d="m25.578125.99804688c-.728812.01865622-1.505188.38981252-2.210937.72656252-.177.085-.342282.1645625-.488282.2265625-1.305.557-1.206343 1.891375-1.152344 2.609375.013001.168.027344.3398125.027344.5078125v.1308594c.002 1.0199999-.017437 1.3008749-.523437 1.671875-.328.239-.56886.2918124-1.00586.3828124-.219.0460001-.453796.0949219-.716797.1699219-.330999.094-2.100874.8067813-2.546874 1.9257813-.086.217-.122376.4382969-.109376.6542966-.114999.009-.258593.015625-.433593.015625-1.024 0-1.457141-.2123591-1.494141-.1933591-.03-.462-.221687-.8583907-.554687-1.1503907-.554-.485-1.422953-.6401562-3.001953-.5351562-.402.027-.75536.2487969-.94336.5917969-.39.709.034141 1.4845941.619141 2.5585941.148.272.371297.684109.404297.787109.043.232.106875.486141.171875.744141.035.139.070562.279062.101562.414062-.347-.117-.699203-.208984-1.033203-.208984-.671 0-1.1895.247562-1.5625.476562-.501-.743-1.2829219-1.738218-2.4199219-1.449218-.626.158-1.0062031.618078-1.2832031.955078-.062.075-.1449844.176187-.2089844.242187-.741-.233-1.4743125-.170187-3.3203125.757813-.376.188-.6686406.543609-.8066406.974609-.149.464-.10790625.956672.1210937 1.388672.169.32.4345157.516344.7285157.652344-.049.083-.0910469.17439-.1230469.27539-.093.294-.1259219.751282.2050781 1.238281.113.337001.3805938 1.126016 1.1835938 1.416016.576.208 1.2302187.088531 1.9492187-.355469.183-.119.6647344.16775 1.4277344.84375.342.304.56925.504125.90625.578125.242.054.4984375.050922.7734375.044922.046-.001.09925-.001953.15625-.001953.169.5.5571563.841485 1.1601563 1.021485.0819999.169999.1916406.312593.3066406.433593-.059.153-.0954219.311563-.1074219.476563-.062.868.5412185 1.50064 1.0742185 2.05664.184.192.376344.387704.527344.595704.277.379.695609.526921 1.099609.669921.163.058.465391.163891.525391.212891.004.007.035859.077281.005859.363281-.009.083-.02025.366875-.03125.796875-.045 1.728-.183921 6.987469-.919921 9.105469-.193.555-.408032.9745-.582032 1.3125-.312.609-.785047 1.528312.001953 2.320313 1.098 1.104999 2.082735 1.299406 2.802735 1.441406.253.05.470156.093062.660156.164062.093.042.196312.121078.320312.205078.62.418 1.661375 1.123282 3.234376.988282.267-.021.446984-.017625.583984-.015625.626.007.941625-.092875 1.515625-.546875.528.157 1.708687.907156 2.304687 1.285156 1.003.637 1.504125.946484 1.953125 1.021484.072.012.18236.019532.31836.019532.914 0 3.04714-.311297 3.61914-1.404297.313-.593.217625-1.205266.140625-1.697266-.032-.203-.071828-.455547-.048828-.560547.061-.275.290516-.413344 1.103516-.777344.361-.162.752391-.337406 1.15039-.566406.232001-.114 1.157563.213094 1.601563.371094.393.139.797734.283234 1.177734.365234.385.083.975875.31411 1.546875.53711.611.239 1.188688.465984 1.679688.583984 1.559.378 2.876906-1.128094 3.753906-2.121094l.175781-.199218c.107-.102.524438-.340422.773438-.482422.354-.202.66-.377641.875-.556641.297-.246 1.234375-1.398437 1.234375-2.273437 0-1.401-1.488047-1.591829-2.123047-1.673829-.125-.016-.303406-.038453-.441406-.064453-.253-1.478-.47275-4.21189-.34375-4.71289.022-.053.166-.176.25-.25 1.056-.925.679328-1.734766.361328-2.134766-.28-.353-.360172-.620641-.451172-.931641-.08-.274-.171672-.584531-.388672-.894531-.365-.521-.828266-.630391-1.072265-.65039-.329001-.024001-.615235.063984-.865235.208984.179-.321.457625-.752938.890625-1.335938.384-.517 1.471703-1.872703 1.720703-2.095703.081-.064.22486-.146234.38086-.240234.736-.445 1.371125-.830344 1.453125-1.527344.028-.237.018047-.553781-.001954-1.050781-.010999-.276-.02839-.736641-.02539-.806641.435-1.585 1.264141-2.629625 1.86914-3.390625.554001-.696 1.031719-1.295781.761719-2.050781-.258-.721-1.017578-.885453-1.267578-.939453-.152-.033-.299078-.057031-.455078-.082031-.459-.073-.934797-.149422-1.966797-.607422-.526-.233-.983406-.262203-1.316406-.283203-.433-.028-.449594-.029-.683594-.5-.549-1.1060004-1.734531-1.0641097-2.519531-1.0371098-.272.011-.532516.0182344-.728516-.0097656-.542-.077-.612093-.1305-.996093-.4375-.182-.145-.395407-.3164843-.691407-.5214844-.372-.257-.535562-.4238593-.601562-.5058593.238-.901-.254844-1.4049219-.714844-1.6699219-.361-.208-.898469-.2984375-1.480469.3515625-.098-.352-.304422-.7501406-.732422-1.1191406-.42-.363-.909875-.3382188-1.171875-.3242188-.062.003-.158156.0057188-.160156.0117188-.001-.001-.066969-.0489531-.167969-.2519531-.199-.3990001-.505734-.6425626-.927734-.7265626-.035-.081-.079812-.201-.132812-.375-.124-.407-.354641-.6907499-.681641-.84375-.368-.173-.707938-.1075312-.960938-.0195312-.086-.12-.218671-.3422344-.388671-.7402344-.173001-.407-.489579-.7151875-.892579-.8671875-.22775-.08625-.466046-.11949997-.708984-.11328122zm22.875 41.01171912c-.357615-.133178-.68875 1.183203-.96875 1.314453-.008.058-.404938.251078-.585937.330078-.441001.197-.533485.575484-.771485.896484-.062.084-.154141.400735-.119141.552735.093001.408.182813 1.068656.257813 1.347656.039.146.169844.276656.214844.347656.185.289.152687 1.029516.304687 1.478516.08.237.444844.346062.714844.414062.071.018.123094.138828.121094.173828-.014.223.711094.147657.496094-.027343-.019-.016-.027329-.097438.013671-.148438.083-.103.19525-.265531.28125-.394531.057-.087.06936-.363266.06836-.572266-.002-.34.035515-.826812.103515-1.132812.118-.524.460157-.852781.410157-1.425782-.048-.561999-.200625-1.103109-.265625-1.662109-.041-.352.070906-1.02189-.121094-1.337891-.052125-.085875-.103209-.135271-.154297-.154296z"/></svg>