<svg height="50" viewBox="0 0 50 50" width="50" xmlns="http://www.w3.org/2000/svg"><path fill="#8594A3" d="m49 10h-48c-.550781 0-1 .449219-1 1v28c0 .554688.449219 1 1 1h48c.554688 0 1-.445312 1-1v-28c0-.550781-.445312-1-1-1zm-22 22c-.328125 0-.878906.511719-1.277344.882813-.59375.550781-1.203125 1.117187-1.988281 1.117187-.992187 0-1.496094-.949219-1.9375-1.785156-.195312-.367188-.597656-1.128906-.824219-1.21875-.226562.027344-.601562.390625-.953125.839844.117188.460937.175782.898437.175782 1.265625 0 .449218-.085938.832031-.253907 1.136718-.273437.484375-.742187.761719-1.289062.761719-.453125 0-.851563-.179687-1.121094-.5-.15625-.1875-.34375-.515625-.34375-1.019531 0-.546875.238281-1.253906.628906-1.949219-.140625-.328125-.316406-.660156-.527343-.953125-.34375-.472656-.601563-.578125-.667969-.578125-.070313 0-.4375.144531-.960938.863281-.117187.160157-.226562.328125-.332031.5.238281.835938.363281 1.65625.363281 2.320313 0 .558594-.089843 1.027344-.265625 1.390625-.289062.585937-.808593.925781-1.425781.925781-.550781 0-1.03125-.261719-1.316406-.71875-.199219-.3125-.300781-.714844-.300781-1.191406 0-.773438.292968-1.851563.78125-2.890625-.167969-.433594-.371094-.867188-.617188-1.269531-.507812-.816407-.960937-1.109375-1.21875-1.109375-1.160156 0-2.140625 1.878906-2.394531 2.535156-.195313.515625-.773438.773437-1.289063.578125-.515625-.195313-.773437-.773438-.578125-1.289063.148438-.390625 1.527344-3.824218 4.261719-3.824218 1.308594 0 2.371094 1.035156 3.121094 2.382812.640625-.71875 1.386719-1.203125 2.171875-1.203125 1.066406 0 1.941406.800781 2.5625 1.820313.566406-.496094 1.199219-.820313 1.820312-.820313 1.351563 0 2.050782 1.316406 2.558594 2.277344.09375.175781.214844.40625.324219.582031.132812-.125.328125-.304687.472656-.441406.679688-.632813 1.527344-1.417969 2.640625-1.417969.550781 0 1 .445313 1 1 0 .554688-.449219 1-1 1zm-20-10c0-.550781.449219-1 1-1h17c.550781 0 1 .449219 1 1s-.449219 1-1 1h-17c-.550781 0-1-.449219-1-1zm22-3h-21c-.550781 0-1-.449219-1-1s.449219-1 1-1h21c.554688 0 1 .449219 1 1s-.445312 1-1 1zm14 4h-2v-1c0-.550781-.449219-1-1-1s-1 .449219-1 1v1.074219l3.601563 2.699219c.25.1875.398437.484375.398437.796875v1.429687c0 1.300781-.839844 2.402344-2 2.816406v1.183594h-2v-1.183594c-1.160156-.414062-2-1.515625-2-2.816406v-1h2v1c0 .550781.449219 1 1 1s1-.449219 1-1v-.929687l-3.601562-2.699219c-.25-.1875-.398438-.484375-.398438-.796875v-1.574219c0-1.300781.839844-2.402344 2-2.816406v-1.183594h2v1.183594c1.160156.414062 2 1.515625 2 2.816406z"/></svg>