<svg height="100" viewBox="0 0 50 50" width="100" xmlns="http://www.w3.org/2000/svg"><path d="m35.869 4c-4.289 0-8.055 1.86-10.891 5.38-2.835-3.52-6.586-5.38-10.847-5.38-7.792 0-14.131 6.367-14.131 14.193 0 2.074.312 4 .843 5.807h7.539l1.724-3.447c.178-.355.557-.566.947-.552.396.021.744.275.884.647l1.783 4.755 2.801-13.604c.095-.466.505-.799.979-.799h.012c.479.006.887.35.972.821l3.363 18.493 3.72-9.674c.148-.385.519-.64.933-.64h.004c.416.002.786.26.933.648l2.289 6.104 1.427-2.283c.182-.291.502-.469.847-.469h5.277c.346-.595.984-1 1.723-1 1.105 0 2 .895 2 2s-.895 2-2 2c-.738 0-1.376-.405-1.723-1h-4.723l-2.207 3.53c-.201.322-.574.495-.947.465-.379-.038-.703-.288-.837-.644l-2.075-5.535-4.055 10.543c-.149.389-.522.641-.933.641-.03 0-.062-.001-.094-.004-.446-.042-.81-.376-.89-.817l-3.077-16.924-2.46 11.946c-.09.437-.458.761-.901.796-.46.035-.858-.229-1.015-.646l-2.194-5.854-.975 1.949c-.169.34-.515.554-.894.554h-7.466c3.309 8.105 11.339 13.513 17.589 17.716 2.024 1.36 5.203 4.023 5.235 4.05.172.145.393.213.617.213.259 0 .522-.091.723-.258 1.333-1.116 3.159-2.646 5.179-4.004 8.07-5.428 19.123-12.86 19.123-25.524 0-7.826-6.339-14.193-14.131-14.193z"/></svg>