<svg height="50" viewBox="0 0 50 50" width="50" xmlns="http://www.w3.org/2000/svg"><path d="m20.003906 5.996094c0-2.757813 2.238282-4.996094 4.996094-4.996094 2.757813 0 4.996094 2.238281 4.996094 4.996094 0 2.757812-2.238281 4.996094-4.996094 4.996094-2.757812 0-4.996094-2.238282-4.996094-4.996094zm26.980469 30.980469v10.691406c0 1.246094-1.050781 2.300781-2.296875 2.300781h-1.398437c-1.144532 0-2.125-.890625-2.277344-2h-.023438c0-.550781-.445312-1-1-1h-5.011718l-.097657.566406c-.261718 1.453125-1.460937 2.464844-2.910156 2.464844-.179687 0-.363281-.019531-.550781-.050781-.792969-.144531-1.480469-.578125-1.929688-1.226563-.359375-.515625-.53125-1.125-.515625-1.753906h-8.042968c.019531.601563-.148438 1.226563-.519532 1.753906-.449218.648438-1.132812 1.082032-1.925781 1.226563-1.675781.304687-3.164062-.777344-3.460937-2.402344l-.097657-.578125h-3.917968c-.550782 0-.996094.449219-.996094 1h-.023438c-.152343 1.109375-1.132812 2-2.277343 2h-1.398438c-1.246094 0-2.296875-1.054687-2.296875-2.300781v-10.691406c0-2.757813 2.238281-4.996094 4.996094-4.996094h3.664062c.039063-.132813.085938-.265625.140625-.390625.027344.023437.050782.050781.078125.074219l.167969.144531.195313.101562c1.070312.554688 1.914062.878907 2.820312 1.085938l8.605469 1.753906c.324219.085938.660156.128906.996094.128906.726562 0 1.417968-.203125 2.011718-.566406l2.171875-.417969 2.925782-.5625c1.230468-.265625 2.78125-.796875 2.84375-.816406l.148437-.050781.136719-.074219c.25-.132812.480469-.273437.699219-.433594.027343.035157.046875.074219.070312.109375.125-.054687.261719-.085937.40625-.085937h4.894531c2.753907 0 4.996094 2.238281 4.996094 4.996094zm-32.398437 7.992187-1.855469-10.992187h-3.71875c-1.652344 0-3 1.347656-3 3v10.691406c0 .148437.152344.300781.300781.300781h1.398438c.148437 0 .300781-.152344.300781-.300781h.015625c.148437-1.511719 1.429687-2.699219 2.980469-2.699219zm5.300781-8.230469.847656 8.230469h8.425781l.761719-7.972656-4.949219-1.488281zm25.101562.238282c0-1.652344-1.347656-3-3-3h-4.796875c-.011718.066406-.003906.125-.015625.195312l-1.855468 10.796875h4.667968c1.554688 0 2.832032 1.1875 2.984375 2.699219h.015625c0 .148437.152344.300781.300782.300781h1.398437c.148438 0 .300781-.152344.300781-.300781zm-30.808593-6.839844c.8125.421875 1.53125.726562 2.339843.910156l8.636719 1.757813c.171875.054687.347656.078125.523438.078125.832031 0 1.625-.566407 1.875-1.476563l.035156-.140625c.183594-1.082031-.503906-2.042969-1.472656-2.246094-1.316407-.296875-7.238282-1.664062-7.238282-1.664062-.523437-.121094-.855468-.628906-.757812-1.15625l.699219-3.796875c.101562-.542969.617187-.902344 1.164062-.800781.542969.097656.902344.621093.800781 1.164062l-.523437 2.855469c1.414062.328125 4.089844.945312 5.546875 1.277344l4.054687-.953125-.828125-3.101563c-.144531-.535156.171875-1.082031.703125-1.226562.535157-.140625 1.082032.171875 1.226563.707031l1.097656 4.097656c.070313.261719.03125.542969-.105469.769531-.136718.234375-.363281.398438-.628906.460938l-2.699219.636719c.078125.089843.15625.175781.226563.269531.640625.875.894531 1.953125.714844 3.039062l-.015625.089844-.023438.089844-.042969.15625 2.921875-.5625c1.085938-.234375 2.574219-.746094 2.574219-.746094.589844-.3125 1.058594-.710937 1.367188-1.21875.496093-.800781.601562-1.769531.320312-2.828125-.378906-1.796875-2.007812-8.832031-2.535156-10.425781-.71875-2.007813-2.300781-3.160156-4.339844-3.160156h-9.792969c-1.425781 0-3.320312.546875-4.238281 3.15625-.183594.503906-.464844 1.730468-.945312 3.851562-.519532 2.28125-1.164063 5.125-1.667969 6.6875-.269531.878906-.167969 1.800781.285156 2.589844.191406.332031.449219.613281.742188.859375z"/></svg>