<svg height="100" viewBox="0 0 50 50" width="100" xmlns="http://www.w3.org/2000/svg"><path d="m36.0625 0c-1.003906 0-1.894531.570313-2.34375 1.46875l-1.625 3.21875c-.355469.710938-.21875 1.5625.34375 2.125l10.75 10.75c.347656.347656.820313.53125 1.3125.53125.285156 0 .5625-.058594.8125-.1875l3.21875-1.625c.753906-.378906 1.300781-1.105469 1.4375-1.9375s-.152344-1.683594-.75-2.28125c-.300781-.300781-.667969-.566406-1.125-.90625-.96875-.71875-2.421875-1.796875-4.9375-4.3125-2.511719-2.511719-3.59375-3.96875-4.3125-4.9375-.34375-.460937-.605469-.824219-.90625-1.125-.496094-.496094-1.175781-.78125-1.875-.78125zm-4.28125 8.96875-5.03125 5c-4.140625 4.140625-5.605469 7.691406-6.6875 10.28125-.65625 1.578125-1.179687 2.804688-2.0625 3.6875-.601562.601563-1.3125 1.3125-1.3125 1.3125l1.28125 1.34375-11.25 11.21875-.15625-.15625c-.839844-.839844-2.289062-.839844-3.125 0l-3.15625 3.125c-.390625.390625-.390625 1.015625 0 1.40625l3.53125 3.53125c.195313.195313.429688.28125.6875.28125.257813 0 .523438-.085937.71875-.28125l3.125-3.15625c.863281-.867187.863281-2.261719 0-3.125l-.21875-.21875 11.25-11.21875 1.34375 1.3125s.710938-.742187 1.3125-1.34375c.882813-.882812 2.109375-1.402344 3.6875-2.0625 2.589844-1.082031 6.140625-2.550781 10.28125-6.6875l5-5-1.40625-1.40625-4.25 4.25c-.046875-.097656-.109375-.171875-.1875-.25l-5.96875-5.9375c-.089844-.089844-.171875-.171875-.28125-.21875l4.28125-4.28125zm-4.1875 7.03125c.046875.097656.105469.199219.1875.28125l5.9375 5.9375c.070313.070313.167969.109375.25.15625-3.582031 3.394531-6.570312 4.671875-9 5.6875-1.195312.5-2.277344.96875-3.21875 1.59375l1.125-1.125c.390625-.390625.390625-1.015625 0-1.40625s-1.015625-.390625-1.40625 0l-1.21875 1.21875c.664063-.964844 1.136719-2.070312 1.65625-3.3125 1.015625-2.433594 2.292969-5.449219 5.6875-9.03125z"/></svg>