<svg height="50" viewBox="0 0 50 50" width="50" xmlns="http://www.w3.org/2000/svg"><path d="m25 2c-9.335173 0-17.3840282 5.5252639-21 13.574219v-5.242188a1.0001 1.0001 0 0 0 -1.015625-1.0136716 1.0001 1.0001 0 0 0 -.984375 1.0136716v9.69336l8.683594-3.25586a1.0001 1.0001 0 1 0 -.7011721-1.873047l-4.1933594 1.572266c3.2819886-7.3910845 10.6333865-12.46875 19.2109375-12.46875 11.655692 0 21 9.344308 21 21a1.0001 1.0001 0 1 0 2 0c0-12.728308-10.271692-23-23-23zm-.021484 6c-5.753.129-9.042485 3.365906-9.021485 8.878906.005 1.401.214141 2.982938.619141 4.710938-.384.535-.647406 1.325922-.566406 2.294922.262 1.917.976125 2.741703 1.578125 3.095703.38 1.653 1.548109 3.309422 2.412109 4.107422v3.052734c-.587 1.184-2.585313 1.921219-4.695312 2.699219-1.823001.672-3.859266 1.445875-5.4472661 2.671875-3.619-3.774-5.8574219-8.882719-5.8574219-14.511719 0-.552-.447-1-1-1s-1 .448-1 1c0 12.682 10.317 23 23 23 9.132595 0 17.300775-5.37978 21-13.589844v5.257813a1.0001 1.0001 0 1 0 2 0v-9.69336l-8.683594 3.25586a1.0001 1.0001 0 1 0 .701172 1.873047l4.189453-1.572266c-1.044334 2.329843-2.480342 4.411613-4.216797 6.175781-1.585-1.345-3.656047-2.162-5.498046-2.875-2.011001-.778-3.914188-1.514453-4.492188-2.689453v-3.064453c.831-.804 1.879922-2.439203 2.294922-4.033203.793-.386 1.534172-1.358984 1.701172-3.208984.087-1.042001-.3335-1.813594-.8125-2.308594.328-1.066.809453-2.967406.814453-4.941406.012-4.542-2.293203-6.061047-4.408203-6.498047-.812-1.0710004-2.361328-2.087891-4.611328-2.087891z"/></svg>