<svg height="100" viewBox="0 0 50 50" width="100" xmlns="http://www.w3.org/2000/svg"><path d="m1 0c-.550781 0-1 .449219-1 1v40c0 .554688.449219 1 1 1h16v-3.59375c-.394531-.355469-.734375-.75-1-1.21875-.597656-1.042969-.769531-2.277344-.53125-3.46875-.539062-.960937-.792969-2.085937-.65625-3.1875l.03125-.09375v-.09375c.277344-1.257812.929688-2.324219 1.8125-3.0625.203125-1.136719.785156-2.195312 1.6875-2.96875.925781-.789062 2.101563-1.210937 3.3125-1.21875.890625-.753906 2.042969-1.1875 3.25-1.1875 1.199219 0 2.351563.4375 3.25 1.21875h.0625c1.191406 0 2.351563.414063 3.25 1.1875.914063.785156 1.492188 1.878906 1.6875 3.03125.886719.722656 1.515625 1.710938 1.78125 2.90625.023438.105469.050781.207031.0625.3125.148438 1.339844-.226562 2.582031-1 3.5625.128906 1.0625-.066406 2.136719-.59375 3.0625-.050781.089844-.097656.167969-.15625.25-.074219.105469-.171875.214844-.25.3125v4.25h16c.554688 0 1-.445312 1-1v-40c-.003906-.550781-.445312-1-1-1zm9 9h30v2h-30zm0 5h30v2h-30zm0 5h30v2h-30zm14.90625 4.90625c-1.007812 0-1.933594.503906-2.46875 1.28125-.238281-.066406-.496094-.09375-.75-.09375-.722656 0-1.453125.257813-2.03125.75-.769531.660156-1.175781 1.597656-1.09375 2.5625-.871094.382813-1.5 1.230469-1.75 2.375-.117187.949219.207031 1.925781.84375 2.59375-.429687.925781-.421875 1.964844.0625 2.8125.472656.828125 1.3125 1.382813 2.25 1.5.226563.96875.929688 1.800781 1.875 2.15625.320313.121094.664063.1875 1 .1875.628906 0 1.257813-.222656 1.8125-.625.539063.394531 1.136719.59375 1.75.59375.261719 0 .695313-.007812 1.09375-.1875.960938-.375 1.597656-1.152344 1.8125-2.125.890625-.113281 1.75-.621094 2.3125-1.40625.019531-.027344.015625-.066406.03125-.09375.460938-.804687.496094-1.796875.125-2.6875.886719-.617187 1.34375-1.589844 1.21875-2.71875-.003906-.035156-.023437-.058594-.03125-.09375-.230469-1.027344-.847656-1.804687-1.75-2.21875.09375-.976562-.28125-1.953125-1.0625-2.625-.550781-.472656-1.222656-.71875-1.9375-.71875-.277344 0-.5625.050781-.84375.125-.566406-.828125-1.472656-1.34375-2.46875-1.34375zm6.09375 15.375c-.054687.023438-.097656.039063-.15625.0625-.542969 1.039063-1.46875 1.859375-2.59375 2.3125-.769531.332031-1.484375.34375-1.84375.34375-.597656 0-1.1875-.125-1.75-.34375-.582031.230469-1.195312.375-1.8125.375-.578125 0-1.136719-.109375-1.6875-.3125-.855469-.320312-1.601562-.867187-2.15625-1.5625v8.84375c0 .359375.1875.695313.5.875.3125.179688.691406.15625 1-.03125l4.5-2.6875 4.5 2.6875c.160156.09375.320313.15625.5.15625.171875 0 .347656-.039062.5-.125.3125-.179687.5-.515625.5-.875z"/></svg>