<svg height="100" viewBox="0 0 50 50" width="100" xmlns="http://www.w3.org/2000/svg"><path d="m8.21875 4c-.480469.003906-.96875.0625-1.460937.1875-.261719.066406-.488282.234375-.625.46875-.132813.234375-.167969.511719-.09375.773438l6.40625 22.839843c.121093.433594.515625.730469.960937.730469h17.867188c.347656 0 .671875-.179687.851562-.480469.183594-.296875.195313-.667968.035156-.976562-.875-1.695313-3.097656-4.542969-8.160156-4.542969-2.757812 0-4.734375.328125-5.953125.625.035156-1.167969-.023437-2.390625-.125-3.625h9.078125c.550781 0 1-.449219 1-1s-.449219-1-1-1h-2v-1c0-.550781-.449219-1-1-1s-1 .449219-1 1v1h-5.285156c-.71875-5.027344-2.546875-9.972656-5.425781-12.421875-1.238282-1.050781-2.621094-1.585937-4.070313-1.578125zm6.78125 27c-2.71875 0-5.144531 1.5625-6.304687 4-1.621094 1.078125-2.695313 2.917969-2.695313 5 0 3.300781 2.699219 6 6 6 2.960938 0 5.429688-2.171875 5.90625-5h10.1875c.476563 2.828125 2.945313 5 5.90625 5 3.300781 0 6-2.699219 6-6 0-.574219-.085937-1.125-.238281-1.652344l5.488281-1.378906c.53125-.136719.855469-.683594.71875-1.21875-.136719-.53125-.683594-.855469-1.214844-.71875l-5.871093 1.5c-.429688-.601562-.960938-1.121094-1.578125-1.53125-1.160157-2.4375-3.582032-4-6.304688-4zm-3 5c2.207031 0 4 1.792969 4 4 0 2.222656-1.777344 4-4 4s-4-1.777344-4-4c0-1.347656.660156-2.523437 1.671875-3.246094l.289063-.175781c.277343-.164062.558593-.285156.847656-.378906.074219-.023438.148437-.050781.226562-.070313.101563-.027343.203125-.042968.304688-.0625.214844-.035156.433594-.066406.660156-.066406zm22 0c.226563 0 .445313.03125.660156.066406.101563.019532.203125.035157.304688.0625.078125.019532.152344.046875.226562.070313.289063.09375.570313.214844.84375.378906l.296875.175781c1.007813.722657 1.667969 1.898438 1.667969 3.246094 0 2.222656-1.777344 4-4 4s-4-1.777344-4-4c0-2.207031 1.792969-4 4-4zm-22 3c-.550781 0-1 .449219-1 1s.449219 1 1 1 1-.449219 1-1-.449219-1-1-1zm22 0c-.550781 0-1 .449219-1 1s.449219 1 1 1 1-.449219 1-1-.449219-1-1-1z"/></svg>