<svg height="50" viewBox="0 0 50 50" width="50" xmlns="http://www.w3.org/2000/svg"><path d="m17 0c-.550781 0-1 .449219-1 1v8c0 .550781.449219 1 1 1h16c.554688 0 1-.449219 1-1v-8c0-.550781-.445312-1-1-1zm-9 2c-1.652344 0-3 1.347656-3 3v42c0 1.652344 1.347656 3 3 3h34c1.652344 0 3-1.347656 3-3v-42c0-1.652344-1.347656-3-3-3h-6v4h5v40h-32v-40h5v-4zm3 6v36h28v-36h-3v1c0 1.652344-1.347656 3-3 3h-16c-1.652344 0-3-1.347656-3-3v-1zm4 9h8v8h-8zm2 2v4h4v-4zm9 1h9v2h-9zm-11 10h8v8h-8zm2 2v4h4v-4zm1 1h2v2h-2zm8 0h9v2h-9z"/></svg>