<svg xmlns="http://www.w3.org/2000/svg" width="100" height="100"><path fill="#8594A3" d="M12 2C9.242 2 7 4.242 7 7s2.242 5 5 5 5-2.242 5-5-2.242-5-5-5zm17 0v2H18.312A6.96 6.96 0 0 1 19 7a6.953 6.953 0 0 1-1.25 4H28.5c2.48 0 4.5 2.02 4.5 4.5S30.98 20 28.5 20H20v14h27c.555 0 1-.445 1-1V5a1 1 0 0 0-1-1H31V2zM7.5 13A5.508 5.508 0 0 0 2 18.5V32c0 1.105.898 2 2 2 1.102 0 2-.895 2-2V20.562c0-.269.23-.5.5-.5s.5.231.5.5v24.75C7 46.876 7.84 48 9.406 48 10.886 48 12 46.852 12 45.312V33.688c0-.278.223-.5.5-.5s.5.222.5.5v11.906c.004.008.027-.008.031 0 .137 1.383 1.18 2.406 2.563 2.406C17.156 48 18 46.875 18 45.312V18h10.5c1.383 0 2.5-1.117 2.5-2.5S29.883 13 28.5 13H15.531L12 20l-3.469-7zm20 23L23 45h2l4.5-9zm3 0l4.5 9h2l-4.5-9z"/></svg>