<svg height="50" viewBox="0 0 50 50" width="50" xmlns="http://www.w3.org/2000/svg"><path d="m22.4375 0-2.90625 2.75 1.1875 1.25h-7.125c-5.28125 0-9.59375 4.3125-9.59375 9.59375v3.8125h4v-3.8125c0-3.121094 2.472656-5.59375 5.59375-5.59375h7.125l-1.15625 1.21875 2.90625 2.75 4.3125-4.59375 1.28125-1.375-1.28125-1.375zm10.15625 4v4h3.8125c3.121094 0 5.59375 2.472656 5.59375 5.59375v7.125l-1.21875-1.15625-2.75 2.90625 4.59375 4.3125 1.375 1.3125 1.375-1.3125 4.5625-4.28125-2.75-2.90625-1.1875 1.125v-7.125c0-5.28125-4.3125-9.59375-9.59375-9.59375zm-26.59375 17.90625-1.375 1.3125-4.625 4.34375 2.71875 2.90625 1.28125-1.1875v7.125c0 5.28125 4.3125 9.59375 9.59375 9.59375h3.8125v-4h-3.8125c-3.121094 0-5.59375-2.472656-5.59375-5.59375v-7.125l1.25 1.1875 2.71875-2.9375-4.59375-4.3125zm36 10.6875v3.8125c0 3.121094-2.472656 5.59375-5.59375 5.59375h-7.125l1.15625-1.21875-2.90625-2.75-4.3125 4.59375-1.28125 1.375 1.28125 1.375 4.34375 4.59375 2.90625-2.71875-1.1875-1.25h7.125c5.28125 0 9.59375-4.316406 9.59375-9.59375v-3.8125z"/></svg>