<svg height="50" viewBox="0 0 50 50" width="50" xmlns="http://www.w3.org/2000/svg"><path d="m25 2c-12.690705 0-23 10.309295-23 23s10.309295 23 23 23 23-10.309295 23-23-10.309295-23-23-23zm-8.910156 4h.910156v2l2-1 1 2-2 3h-2l-3.519531 1.759766 2.371093-7.1484379c.402063-.2221172.820595-.4153574 1.238282-.6113281zm20.523437 1.5039062c5.657706 3.7598038 9.386719 10.1843968 9.386719 17.4960938 0 .972647-.071621 1.927962-.199219 2.865234l-.800781-.865234-4 1v1l2 1-1.75 2.5-1 .5-3.105469-6.212891-4.310547.712891-.707031-1.875 5-2-2.126953-2.625-1 2-3 1-1 3-2-3-3 1-2 2h-2v-3h2l3.25-3.3125 3.25-.3125 3.480469-3.697266-2.248047-2.421875-1.464844 1.361329 1 1.078124-1.285156 1.367188-2.544922-2.626953 3.498047-3.435547h3.095703l.96875 1.9375 1-2 2-.9375-1-2zm-24.484375.9199219-1.341797 3.9804689-1.787109.595703-1 7-2-1-1.2773438.525391c1.2023001-4.473429 3.8522217-8.339311 7.4062498-11.1015629zm9.871094 7.5761719h.75l1.25 3.625-1 .375h-2v-1l1-1zm3 12 5 2 6-1 3 6h1.400391l-2.400391 4-2.332031 4.072266c-1.885732 1.114529-3.950143 1.957532-6.15625 2.439453l-1.511719-1.511719v-4l-3-2-3 1-3-1-1-4 2-4z"/></svg>