<svg height="50" viewBox="0 0 50 50" width="50" xmlns="http://www.w3.org/2000/svg"><path fill="#8594A3" d="m26 1c-2.761719 0-5 2.238281-5 5s2.238281 5 5 5 5-2.238281 5-5-2.238281-5-5-5zm-4.8125 12c-.398437 0-.789062.113281-1.1875.3125l-8.71875 3.875c-.699219.300781-1.082031.925781-1.28125 1.625l-2.4375 8.78125c-.171875.625.027344 1.292969.4375 1.78125 1.191406-1.511719 2.671875-2.800781 4.375-3.71875l1.28125-4.46875 6.75-2.6875-.78125 5.53125c3.117188.136719 5.953125 1.269531 8.21875 3.125l1.25-8.84375c.398438-2.800781-1.691406-5.3125-4.59375-5.3125zm-2.1875 13c-6.617187 0-12 5.382813-12 12 0 6.617188 5.382813 12 12 12 6.617188 0 12-5.382812 12-12 0-6.617187-5.382812-12-12-12zm10.71875 3c1.433594 1.703125 2.445313 3.75 2.9375 6h.9375l3.875 9.21875c.398438 1.101563 1.582031 1.886719 2.78125 1.6875 1.597656-.300781 2.507813-1.90625 1.90625-3.40625l-4.5625-11.90625c-.398437-.898437-1.28125-1.59375-2.28125-1.59375zm-10.71875 7c1.105469 0 2 .894531 2 2s-.894531 2-2 2-2-.894531-2-2 .894531-2 2-2zm13.40625 6c-.210937.703125-.46875 1.378906-.78125 2.03125l4.65625 4.6875c.1875.1875.453125.28125.71875.28125h5c.554688 0 1-.445312 1-1 0-.554687-.445312-1-1-1h-4.59375z"/></svg>