<svg height="50" viewBox="0 0 26 26" width="50" xmlns="http://www.w3.org/2000/svg"><path d="m14.5 0c-1.378906 0-2.5 1.121094-2.5 2.5s1.121094 2.5 2.5 2.5 2.5-1.121094 2.5-2.5-1.121094-2.5-2.5-2.5zm-2.25 6c-1.40625 0-2.046875.359375-2.53125 1.8125-.300781.90625-.71875 2.367188-.71875 3.3125v.3125c-2.902344 1.035156-5 3.8125-5 7.0625 0 4.128906 3.371094 7.5 7.5 7.5s7.5-3.371094 7.5-7.5c0-.105469.003906-.207031 0-.3125.222656.144531.390625.359375.53125.625.167969.320313 1.554688 3.144531 2.4375 4.53125.335938.53125.910156.625 1.375.46875.46875-.15625.800781-.859375.5625-1.40625-.75-1.707031-2.402344-5.503906-2.71875-6.15625-.308594-.640625-.816406-1.25-1.65625-1.25h-2.78125c-1.027344 0-1.445312-.242187-1.71875-1.1875-.273437-.945312-.4375-1.769531-.4375-2.5 0-.9375.40625-1.980469.40625-3.09375 0-1.085937-1.042969-2.21875-2.75-2.21875zm-3.0625 7.5c.136719.796875.34375 1.453125.59375 2.1875.394531 1.148438.863281 2.3125 2.84375 2.3125h4.34375c.019531.160156.03125.328125.03125.5 0 3.050781-2.449219 5.5-5.5 5.5s-5.5-2.449219-5.5-5.5c0-2.226562 1.296875-4.132812 3.1875-5z"/></svg>