<svg height="90" viewBox="0 0 30 30" width="90" xmlns="http://www.w3.org/2000/svg"><path d="m10 3a3 3 0 0 0 -3 3 3 3 0 0 0 3 3 3 3 0 0 0 3-3 3 3 0 0 0 -3-3zm9 0a3 3 0 0 0 -3 3 3 3 0 0 0 3 3 3 3 0 0 0 3-3 3 3 0 0 0 -3-3zm-10 8c-1.6449698 0-3 1.35503-3 3v6a1.0001 1.0001 0 0 0 .9472656 1.011719v6.089843c0 .436.4632032.898438 1.0332032.898438.544 0 .99525-.421844 1.03125-.964844l.4375-6.570312c.0179999-.261.2350468-.464844.4980468-.464844.2630004 0 .4800464.204797.4980464.466797l.4375 6.568359c.036001.542.487251.964844 1.03125.964844.570001 0 1.033204-.463203 1.033204-1.033203v-13.966797h6.052734a1.0001 1.0001 0 1 0 0-2zm12.976562.759766c.006001.081.023438.158234.023438.240234 0 1.657-1.343 3-3 3h-4v5c0 .553.448 1 1 1v5.966797c0 .57.463203 1.033203 1.033203 1.033203.544 0 .99525-.421844 1.03125-.964844l.4375-6.570312c.018-.261.235047-.464844.498047-.464844s.480047.204797.498047.466797l.4375 6.568359c.036.542.48725.964844 1.03125.964844.57 0 1.033203-.463203 1.033203-1.033203v-5.966797c.552 0 1-.447 1-1v-6c0-.894-.400437-1.690234-1.023438-2.240234z"/></svg>