<svg height="50" viewBox="0 0 50 50" width="50" xmlns="http://www.w3.org/2000/svg"><path d="m25 0c-3.859375 0-7 3.140625-7 7s3.140625 7 7 7 7-3.140625 7-7-3.140625-7-7-7zm-4.5625 14.90625c-2.988281 0-5.671875 2.035156-6.375 4.84375 0 0-3.105469 12.316406-3.125 12.40625-.242187 1.207031.445313 2.355469 1.625 2.75.039063.015625.085938.023438.125.03125.175781.035156.359375.0625.53125.0625 1.109375 0 2.066406-.707031 2.28125-1.78125.011719-.058594 2.46875-9.5625 2.46875-9.5625h.03125v4.34375h14v-4.34375h.03125s2.488281 9.515625 2.5 9.5625c.214844 1.074219 1.171875 1.78125 2.28125 1.78125.171875 0 .324219-.027344.5-.0625.039063-.007812.085938-.019531.125-.03125 1.179688-.394531 1.867188-1.542969 1.625-2.75-.027344-.148437-3.1875-12.40625-3.1875-12.40625-.71875-2.859375-3.339844-4.84375-6.375-4.84375zm-2.4375 14.09375v7h14v-7zm0 8v10.5c0 1.375 1.125 2.5 2.5 2.5s2.5-1.125 2.5-2.5v-10.5zm9 0v10.5c0 1.375 1.125 2.5 2.5 2.5s2.5-1.125 2.5-2.5v-10.5z"/></svg>