<svg height="50" viewBox="0 0 50 50" width="50" xmlns="http://www.w3.org/2000/svg"><path d="m37 2v4h6.1875l-5.25 5.25c-1.960937-1.398437-4.351562-2.25-6.9375-2.25-6.617187 0-12 5.382813-12 12 0 4.121094 2.136719 7.925781 5.59375 10.125.253906-.667969.40625-1.394531.40625-2.125 0-1.421875-.398437-2.808594-.9375-4h.03125c-.707031-1.191406-1.09375-2.5625-1.09375-4 0-4.410156 3.589844-8 8-8s8 3.589844 8 8c0 3.703125-2.519531 6.808594-6 7.71875.003906.09375 0 .1875 0 .28125 0 1.339844-.21875 2.648438-.59375 3.90625 5.957031-.699219 10.59375-5.765625 10.59375-11.90625 0-2.585937-.851562-4.976562-2.25-6.9375l5.25-5.25v6.1875h4v-13zm-19.4375 15.09375c-5.945312.707031-10.5625 5.773438-10.5625 11.90625 0 2.578125.828125 4.980469 2.21875 6.9375l-3.25 3.25-3.125-3.03125-2.78125 2.875 3.09375 3-3.09375 3.0625 2.84375 2.84375 3.125-3.125 3.125 3.03125 2.78125-2.875-3.09375-3 3.21875-3.21875c1.960938 1.398438 4.351563 2.25 6.9375 2.25 6.617188 0 12-5.382812 12-12 0-4.117187-2.140625-7.894531-5.59375-10.09375-.257812.667969-.40625 1.367188-.40625 2.09375 0 1.039063.929688 4.152344 1.46875 5.0625l-.03125.0625c.355469.902344.5625 1.867188.5625 2.875 0 4.410156-3.589844 8-8 8s-8-3.589844-8-8c0-3.726562 2.546875-6.863281 6-7.75-.003906-.089844 0-.164062 0-.25 0-1.335937.1875-2.648437.5625-3.90625z"/></svg>