<svg height="50" viewBox="0 0 50 50" width="50" xmlns="http://www.w3.org/2000/svg"><path d="m17 2c-2.761719 0-5 2.238281-5 5s2.238281 5 5 5 5-2.238281 5-5-2.238281-5-5-5zm15.8125 0c-2.761719 0-5 2.238281-5 5s2.238281 5 5 5 5-2.238281 5-5-2.238281-5-5-5zm-15.8125 11c-1.113281 0-2.144531.257813-3.0625.71875 1.875 1.464844 3.09375 3.753906 3.09375 6.3125 0 2.503906-1.160156 4.75-2.96875 6.21875 1.457031.757813 2.730469 1.808594 3.71875 3.125-.476562-1.023437-.75-2.144531-.75-3.34375 0-3.972656 2.917969-7.289062 6.71875-7.90625-.804687-2.976562-3.496094-5.125-6.75-5.125zm15.8125 0c-3.238281 0-5.933594 2.132813-6.75 5.09375 3.917969.515625 6.96875 3.878906 6.96875 7.9375 0 1.121094-.238281 2.1875-.65625 3.15625.976563-1.234375 2.199219-2.25 3.59375-2.96875-1.796875-1.46875-2.9375-3.691406-2.9375-6.1875 0-2.511719 1.152344-4.75 2.96875-6.21875-.957031-.511719-2.015625-.8125-3.1875-.8125zm-23.78125 1.03125c-3.3125 0-6 2.6875-6 6s2.6875 6 6 6 6-2.6875 6-6-2.6875-6-6-6zm32 0c-3.3125 0-6 2.6875-6 6s2.6875 6 6 6 6-2.6875 6-6-2.6875-6-6-6zm-16 6c-3.3125 0-6 2.6875-6 6s2.6875 6 6 6 6-2.6875 6-6-2.6875-6-6-6zm-16.03125 6.96875c-4.960937 0-9 4.035156-9 9v3.5c0 .3125.152344.625.40625.8125.230469.175781 2.4375 1.6875 8.59375 1.6875 2.132813 0 3.792969-.191406 5.0625-.4375.128906-3.074219 1.503906-5.828125 3.65625-7.75-.976562-3.914062-4.507812-6.8125-8.71875-6.8125zm32 0c-4.195312 0-7.726562 2.886719-8.71875 6.78125 2.183594 1.925781 3.59375 4.710938 3.71875 7.8125 1.261719.242188 2.898438.40625 5 .40625 6.15625 0 8.363281-1.511719 8.59375-1.6875.253906-.1875.40625-.496094.40625-.8125v-3.5c0-4.964844-4.035156-9-9-9zm-15.96875 6.03125c-4.960937 0-9 4.035156-9 9v3.5c0 .316406.152344.59375.40625.78125.230469.175781 2.4375 1.71875 8.59375 1.71875s8.363281-1.542969 8.59375-1.71875c.253906-.1875.40625-.46875.40625-.78125v-3.5c0-4.964844-4.035156-9-9-9z"/></svg>