<svg height="50" viewBox="0 0 50 50" width="50" xmlns="http://www.w3.org/2000/svg"><path fill="#8594A3" d="m20 3v.7421875l2.119141 1.0820313.05664.0292968.041016.0234375s.136641.0782188.306641.1992188l.029296.0195312.025391.0214844c.287.219.535812.4779687.757813.7929687l.060546.0859376.046875.0683593.035157.0605469c.077.127.221172.3644531.326172.6894531.333999 1.029.233609 2.1651875-.275391 3.1171875-.341.6400004-.848078 1.1554374-1.455078 1.5234374.3.328.567469.737281.730469 1.238281.333999 1.029.233609 2.166188-.275391 3.117188-.487.915-1.299156 1.594062-2.285156 1.914062-.122.04-.248047.063844-.373047.089844.232.953.127156 1.943313-.339844 2.820313-.488.914-1.300203 1.592109-2.283203 1.912109-.36.117-.715734.166016-1.052735.166016-.454 0-.869796-.091704-1.216796-.220703.01.672-.129219 1.344359-.449219 1.943359-.487.915-1.297203 1.594062-2.283203 1.914062-.341.111-.695688.167969-1.054688.167969-.765 0-1.334031-.251766-1.582031-.384766l-.8730469-.455078-.3222656.322266s-.4101563.375-.4101563 1c0 .496.1836875.991953.5546876 1.376953.393.408.9154531.611328 1.4394531.611328.6250001 0 1.0000001-.402344 1.0000001-.402343l.294922-.292969c.391-.391 1.021109-.391 1.412109 0s.391 1.023062 0 1.414062l-3.2910155 3.292969s-.4101563.375-.4101563 1c0 .496.1836875.991953.5546876 1.376953.393.408.9154532.611328 1.4394532.611328.625 0 1-.402344 1-.402343l4.294922-4.292969c.391-.391 1.021109-.391 1.412109 0s.391 1.023062 0 1.414062l-5.291016 5.292969s-.410156.375-.410156 1c0 .496.183688.991953.554688 1.376953.393.408.915453.611328 1.439453.611328.625 0 1-.402344 1-.402343l6.294922-6.292969c.391-.391 1.021109-.391 1.412109 0s.391 1.023062 0 1.414062l-5.294922 5.302735s-.410156.375-.410156 1c0 .496.183687.991953.554688 1.376953.393.408.915453.611328 1.439453.611328.117 0 .216453-.023875.314453-.046875l.101562-.029297c.217-.067.351453-.146031.439453-.207031.086-.064.144532-.119141.144532-.119141l6.505859-6.503906h.001953l4.923828-5.001953c.368-.373.574219-.877344.574219-1.402344v-2.835938c-.033-.059999-.05975-.107968-.09375-.167968l-3.728516-2.339844c-1.585-.956-2.427281-2.742047-2.113281-4.623047.318-1.905 1.916078-3.422641 3.830078-3.681641.914-.123 1.806578.031985 2.642578.458985 0 0 2.584469 1.285969 5.605469 2.792969l.101563.054687c1.066.612 1.988859 1.415703 2.755859 2.345703v-2.691406c0-3.264-1.198219-6.128703-2.074219-8.220703-.476-1.134-.925781-2.205297-.925781-2.779297v-6zm-2.294922 2c-.128953.0014531-.271172.0201094-.419922.0683594-.471.153-.884719.481125-1.136718.953125-.267.5-.298719 1.0605937-.136719 1.5585937.193.594.691406.8261719.691406.8261719l2.847656 1.4550781s.483125.2740779 1.078125.0800781c.471-.153.884719-.481125 1.136719-.953125.266-.497.298719-1.0576406.136719-1.5566406-.036-.111-.090578-.1991562-.142578-.2851562l-.060547-.0859375c-.131-.185-.247031-.2885156-.332031-.3535157-.087-.062-.156251-.1035156-.15625-.1035156l-2.847657-1.453125s-.271344-.15475-.658203-.1503906zm-4.68164 3.9667969c-.128954.0015937-.271172.0218125-.419922.0703125-.471.153-.884719.481125-1.136719.953125-.267.4999996-.300672 1.0605936-.138672 1.5585936.193.594.693359.826172.693359.826172l6.527344 3.367188s.483125.274078 1.078125.080078c.471-.153.885719-.481125 1.136719-.953125.267-.499.300672-1.059594.138672-1.558594-.193-.594-.69336-.826172-.69336-.826172l-6.527343-3.3671875s-.271344-.1551719-.658203-.1503906zm-2.232422 5.2441411c-.128953.001593-.271172.019859-.419922.068359-.4710003.153-.885719.481125-1.136719.953125-.267.5-.3006719 1.062547-.1386719 1.560547.193.594.6933594.824218.6933594.824219l5.7617185 2.947265s.483125.274078 1.078125.080078c.471-.153.884719-.481125 1.136719-.953125.266-.499.300672-1.060593.138672-1.558594-.193-.594-.693359-.826171-.693359-.826171l-5.761719-2.947266s-.271344-.153219-.658203-.148437zm19.708984 4.789062c-1.381 0-2.5 1.119-2.5 2.5 0 .908.488891 1.694812 1.212891 2.132812-.015-.003 4.330187 2.710266 4.492187 2.822266.182.126.294922.279922.294922.544922v3.6875c0 1.058-.408391 2.053641-1.150391 2.806641l-4.923828 5-.011719.011718-6.591796 6.585938s-.113344.104562-.277344.226562c-.354.246-.677969.400672-1.042969.513672v1.167969h2 14v-2c0-2 6-9 6-13-.001-2-.547797-4.743516-1.716797-6.853516-.712-1.284-1.764156-2.335453-3.035156-3.064453 0 0-5.620094-2.803781-5.621094-2.800781-.34-.174-.719906-.28125-1.128906-.28125zm-20.7070312 1.042969c-.1289532.001594-.2711719.019859-.4199219.068359-.471.153-.8847188.481125-1.1367188.953125-.267.5-.3006718 1.061547-.1386719 1.560547.036.111.0905782.197203.1425782.283203l.0605468.087891c.1310001.185.2470313.288515.3320313.353515.087.062.15625.101563.15625.101563l1.7597655.917969s.483125.273078 1.078125.080078c.471-.153.884719-.481125 1.136719-.953125.268-.502.300672-1.062547.138672-1.560547-.193-.594-.691406-.826172-.691406-.826172l-1.759766-.917969s-.271344-.153219-.6582032-.148437z"/></svg>