<svg height="100" viewBox="0 0 50 50" width="100" xmlns="http://www.w3.org/2000/svg"><path d="m38 0v4h5.1875l-9.1875 9.1875-2.59375-2.59375-1.40625-1.4375-1.40625 1.4375-10.59375 10.59375-2.59375-2.59375-1.40625-1.4375-1.40625 1.4375-12 12 2.8125 2.8125 10.59375-10.59375 2.59375 2.59375 1.40625 1.4375 1.40625-1.4375 10.59375-10.59375 2.59375 2.59375 1.40625 1.4375 1.40625-1.4375 10.59375-10.59375v5.1875h4v-12zm6 15v35h4v-35zm-14 5v30h4v-30zm7 0v30h4v-30zm-14 4v26h4v-26zm-7 6v20h4v-20zm-7 1v19h4v-19zm-7 7v12h4v-12z"/></svg>