<svg height="50" viewBox="0 0 50 50" width="50" xmlns="http://www.w3.org/2000/svg"><path fill="#8594A3" d="m34.0625 3.03125c-1.285156 0-2.578125.484375-3.5625 1.46875l-2 2c-.988281.988281-1.398437 2.316406-1.34375 3.65625l-2.1875 2.1875-2.125-2.09375c.042969-1.328125-.363281-2.675781-1.34375-3.65625l-2-2c-.984375-.984375-2.277344-1.46875-3.5625-1.46875s-2.546875.484375-3.53125 1.46875c-1.96875 1.96875-1.96875 5.15625 0 7.125l2 2c.972656.972656 2.277344 1.347656 3.59375 1.3125l4 3.96875h-19v26h44v-26h-15.375l-1.84375-1.84375 2.21875-2.21875c1.316406.035156 2.621094-.371094 3.59375-1.34375l2-2c1.96875-1.96875 1.96875-5.125 0-7.09375-.984375-.984375-2.246094-1.46875-3.53125-1.46875zm0 1.9375c.761719 0 1.507813.320313 2.125.9375 1.230469 1.230469 1.230469 3.050781 0 4.28125l-2 2c-.664062.664063-1.660156.957031-2.53125.8125-.320312-.054687-.644531.050781-.875.28125l-2.4375 2.4375-1.96875-1.96875 2.4375-2.4375c.230469-.230469.335938-.554687.28125-.875-.144531-.871094.148438-1.867187.8125-2.53125l2-2c.617188-.617187 1.394531-.9375 2.15625-.9375zm-18.125.125c.761719 0 1.539063.289063 2.15625.90625l2 2c.664063.664063.957031 1.660156.8125 2.53125-.054687.320313.050781.644531.28125.875l14.34375 14.34375c.988281.90625 1.46875 2.085938 1.46875 3.4375v1.875l-4.28125-4.25v-.03125l-.125-.09375-1.96875-1.9375-11.40625-11.34375c-.230469-.230469-.554687-.335937-.875-.28125-.871094.144531-1.867187-.179687-2.53125-.84375l-2-2c-1.230469-1.230469-1.230469-3.050781 0-4.28125.617188-.617187 1.363281-.90625 2.125-.90625zm.625 2.0625c-.375 0-.761719.136719-1.0625.4375-.601562.601563-.601562 1.492188 0 2.09375l1 1c.5.5 1.492188.5 2.09375 0 .601563-.601562.601563-1.492187 0-2.09375l-1-1c-.300781-.300781-.65625-.4375-1.03125-.4375zm16.875 0c-.375 0-.730469.136719-1.03125.4375l-1 1c-.5.5-.5 1.492188 0 2.09375.601563.601563 1.492188.601563 2.09375 0l1-1c.601563-.601562.601563-1.492187 0-2.09375-.300781-.300781-.6875-.4375-1.0625-.4375zm-8.4375 8.84375c-.609375 0-1.09375.484375-1.09375 1.09375s.484375 1.09375 1.09375 1.09375 1.09375-.484375 1.09375-1.09375-.484375-1.09375-1.09375-1.09375zm-20 5h3.4375c-.617187.8125-.835937 1.898438-1.25 2.3125-.351562.351563-1.386719.558594-2.1875 1zm36.46875 0h3.53125v3.34375c-.8125-.453125-1.894531-.675781-2.3125-1.03125-.414062-.414062-.621094-1.5-1.21875-2.3125zm-17.46875 3.09375v2.90625h2v-2.875c.546875.109375 1.101563.28125 1.625.53125l1.28125 1.25 2.21875 2.1875c.550781 1.105469.875 2.453125.875 3.90625 0 4.117188-2.660156 7.355469-6 7.90625v-2.90625h-2v2.90625c-3.339844-.550781-6-3.789062-6-7.90625 0-4.117187 2.660156-7.355469 6-7.90625zm0 4.90625v6h2v-6zm-19 10.5625c.8125.460938 1.894531.707031 2.3125 1.125.414063.414063.621094 1.5 1.21875 2.3125h-3.53125zm40 .0625v3.375h-3.5625c.621094-.8125.835938-1.898437 1.25-2.3125.414063-.414062 1.5-.609375 2.3125-1.0625z"/></svg>