<svg height="50" viewBox="0 0 50 50" width="50" xmlns="http://www.w3.org/2000/svg"><path d="m25 1c-13.785156 0-25 9.960938-25 22.199219 0 5.914062 2.574219 11.445312 7.261719 15.636719-.867188 2.558593-3.089844 4.320312-4.742188 5.628906-1.515625 1.199219-2.613281 2.066406-2.285156 3.292969l.105469.402343.359375.207032c.910156.519531 2.121094.785156 3.609375.785156 4.949219 0 12.0625-2.839844 15.195312-4.207031 1.78125.371093 3.550782.554687 5.394532.554687 13.789062 0 25-9.960937 25-22.199219 0-12.296875-11.167969-22.300781-24.898438-22.300781zm1.601563 33c0 .199219-.101563.398438-.402344.398438h-2.296875v-.097657c-.203125 0-.402344-.101562-.402344-.398437v-13.402344c0-.199219.101563-.398437.402344-.398437h2.296875c.203125 0 .402344.097656.402344.398437zm0-18.199219c0 .199219-.101563.398438-.402344.398438h-2.398438c-.199218 0-.398437-.097656-.398437-.398438v-2.601562c0-.199219.097656-.398438.398437-.398438h2.398438c.203125 0 .402344.097657.402344.398438z"/></svg>