<svg height="90" viewBox="0 0 30 30" width="90" xmlns="http://www.w3.org/2000/svg"><path d="m5 3v4h-1a1.0001 1.0001 0 1 0 0 2h1c.552 0 1 .447 1 1s-.448 1-1 1h-1a1.0001 1.0001 0 1 0 0 2h1c.552 0 1 .447 1 1s-.448 1-1 1h-1a1.0001 1.0001 0 1 0 0 2h1c.552 0 1 .447 1 1s-.448 1-1 1h-1a1.0001 1.0001 0 1 0 0 2h1c.552 0 1 .447 1 1s-.448 1-1 1v4h18c1.105 0 2-.895 2-2v-20c0-1.105-.895-2-2-2zm6 5h8c.552 0 1 .448 1 1s-.448 1-1 1h-8c-.552 0-1-.448-1-1s.448-1 1-1zm0 4h8c.552 0 1 .448 1 1s-.448 1-1 1h-8c-.552 0-1-.448-1-1s.448-1 1-1z"/></svg>