<svg clip-rule="evenodd" fill-rule="evenodd" stroke-linejoin="round" stroke-miterlimit="1.41421" viewBox="0 0 48 87" xmlns="http://www.w3.org/2000/svg"><path d="m39.355 25.056c-1.663-4.837-6.931-7.411-11.771-5.749-3.57 1.227-5.901 4.419-6.212 7.952l-13.922 20.279c-1.579 2.3-.995 5.446 1.306 7.024.874.601 1.87.889 2.855.889 1.609 0 3.19-.767 4.17-2.194l9.115-13.276 4.357 12.679c.058.165.123.324.188.483l-6.919 12.544c-.412.747-.628 1.587-.628 2.44v13.474c0 2.789 2.262 5.052 5.052 5.052s5.053-2.263 5.053-5.052v-12.172l5.334-9.671v21.562c0 2.789 2.262 5.052 5.052 5.052s5.052-2.263 5.052-5.052v-32.195l-8.082-24.069zm-31.412 37.484c-.018 0-.035 0-.052-.001-4.865-.249-6.94-4.173-7.358-6.213-.111-.541.238-1.069.779-1.18.54-.109 1.067.236 1.18.775.041.191.995 4.389 5.502 4.619.551.028.976.499.947 1.05-.028.535-.469.95-.998.95zm1.391-3.165h-.016c-3.983-.062-5.396-3.556-5.586-5.396-.057-.549.342-1.04.892-1.098.56-.048 1.039.341 1.097.889.041.365.49 3.557 3.627 3.604.552.009.993.463.985 1.016-.008.548-.454.985-.999.985zm32.751-37.016c-.432 0-.829-.281-.959-.716-.858-2.891-3.637-4.347-3.665-4.361-.49-.252-.686-.854-.436-1.345s.849-.687 1.341-.438c.146.073 3.568 1.841 4.678 5.575.157.529-.145 1.086-.674 1.243-.096.029-.191.042-.285.042zm3.201-2.484c-.432 0-.829-.281-.959-.716-.858-2.891-3.637-4.347-3.665-4.361-.49-.252-.686-.854-.436-1.345.251-.49.85-.688 1.341-.438.146.073 3.568 1.841 4.678 5.575.157.529-.145 1.086-.674 1.243-.095.029-.191.042-.285.042zm-20.786-19.149c4.705 0 8.524 3.819 8.524 8.524s-3.819 8.524-8.524 8.524-8.524-3.819-8.524-8.524 3.819-8.524 8.524-8.524zm-11.787 8.53c-.497 0-.927-.37-.991-.875-.444-3.534 2.191-6.646 2.304-6.776.36-.418.992-.466 1.41-.106.418.359.466.99.108 1.409-.022.025-2.17 2.581-1.837 5.224.069.548-.319 1.048-.867 1.117-.043.004-.085.007-.127.007z" fill="#8594a3" fill-rule="nonzero"/></svg>