<svg viewBox="0 0 46 99" xmlns="http://www.w3.org/2000/svg" fill-rule="evenodd" clip-rule="evenodd" stroke-linejoin="round" stroke-miterlimit="1.414"><path d="M.152 96.003L10.137 98s1.324-.054 1-2c-.324-1.946-2-2-2-2l5-15 5.759 14.396c.16.4.253.823.276 1.253l.12 2.222a.84.84 0 0 0 .989.778l8.689-1.618a.54.54 0 0 0 .326-.196c.348-.495 1.183-1.865-.159-2.835-1.654-1.196-3-1-3-1l-6.069-37.205 2.467-6.227 6.602 3.297c-.85 1.069-2.828 5.019 0 5.841 2.689.781 2.306-4.626 4.902-4.908.349-.038.555.588 1.504.56 1.176-.034 1.367-.565 1.915-.403 1.322.39 1.644 1.144 2 2.275.116.368.001 42.149 0 42.191v.001c.001.032.04 1.105 2.316 1.253 1.535.1 2.12-.688 2.31-1.063a.784.784 0 0 0 .052-.279c.027-1.937.027-35.118.027-41.486a7.696 7.696 0 0 0-2.502-5.682c-.939-.839-2.203-1.491-3.902-1.597-5.417-.337-13.067-5.787-13.067-5.787s2.727-15.573 2.185-16.863c-.542-1.29-2.038-1.602-2.185-2.588-.147-.986.433-1.162 1.445-1.572.685-.278 4.063 1.624 5.161-5.281.521-3.274-.573-3.115 1.074-3.485.96-.216 4.005.021 3.867-1.944-.097-1.387-4.487-2.123-4.487-2.123l-.415-7.32a.734.734 0 0 0-.733-.693h-11.65a.969.969 0 0 0-.898.605l-2.254 5.547s-5.323-.874-4.989.895c.335 1.77 3.359 3.089 3.359 3.089s.076 5.101 2.154 7.345a.735.735 0 0 1 .206.617c-.066 1.245-.254 1.63-.357 1.749a.099.099 0 0 1-.072.048 531 531 0 0 1-3.156.406c-.389.05-.766.172-1.11.361-1.973 1.136-8.776 5.527-9.225 12.55-.616 8.335-.335 13.177-.335 13.177s-2.802 6.958-.079 11.224 2.637 5.949 2.637 5.949" fill="#8594a3"/></svg>