<svg height="50" viewBox="0 0 50 50" width="50" xmlns="http://www.w3.org/2000/svg"><path fill="#8594A3" d="m29 2c-2.800781 0-5 2.199219-5 5s2.199219 5 5 5 5-2.199219 5-5-2.199219-5-5-5zm-8.46875 6.09375c-.632812.039063-1.175781.21875-1.625.59375-4.300781 3.601563-6.617187 14.414063-6.71875 14.8125-.398437 2 .105469 3.886719 1.40625 5.1875l6.21875 6.8125 3.1875 10.1875c.101563.699219.488281 1.414063 1.1875 1.8125.5.300781 1.023438.5 1.625.5h.5c1.5-.300781 2.582031-1.710937 2.28125-3.3125l-3.6875-11.375s.007813-.125-.09375-.125l-4.8125-6.78125c0-.898437.113281-5.398437 2.3125-9l7.1875 10.5c.800781 1.101563 2.300781 1.488281 3.5.6875.601563-.398437.992188-.894531 1.09375-1.59375.101563-.699219-.007812-1.398437-.40625-2l-10.28125-15.5c-.5-.800781-1.320312-1.304687-2.21875-1.40625-.226562-.023437-.445312-.011719-.65625 0zm13.0625 22.3125c-.601562.300781-1.207031.5-1.90625.5l4.3125 17.09375h2zm-18.40625 3.09375-3.6875 10.90625c-.5 1.398438.289063 3 1.6875 3.5.300781.101563.605469.1875.90625.1875.398438 0 .820313-.082031 1.21875-.28125.699219-.300781 1.175781-.925781 1.375-1.625l2.21875-6.78125-.90625-2.8125z"/></svg>