<svg height="50" viewBox="0 0 50 50" width="50" xmlns="http://www.w3.org/2000/svg"><path fill="#8594A3" d="m25.5 2c-3.03125 0-5.5 2.46875-5.5 5.5s2.46875 5.5 5.5 5.5 5.5-2.46875 5.5-5.5-2.46875-5.5-5.5-5.5zm-5 12c-3.03125 0-5.5 2.46875-5.5 5.5v2.5h9c2.207031 0 4 1.792969 4 4s-1.792969 4-4 4h-4v15.300781c0 1.5625.835938 2.699219 2.402344 2.699219 1.480469 0 2.597656-1.160156 2.597656-2.699219v-12.84375c0-.277343.222656-.5.5-.5s.5.222657.5.5v12.84375c0 1.5625.835938 2.699219 2.402344 2.699219 1.480469 0 2.597656-1.160156 2.597656-2.699219v-22.65625c0-.269531.230469-.5.5-.5s.5.230469.5.5v9.355469c0 1.105469.898438 2 2 2 1.101563 0 2-.894531 2-2v-12.5c0-3.03125-2.46875-5.5-5.5-5.5zm-4.5 10c-1.105469 0-2 .894531-2 2s.894531 2 2 2h8c1.105469 0 2-.894531 2-2s-.894531-2-2-2z"/></svg>