<svg height="100" viewBox="0 0 50 50" width="100" xmlns="http://www.w3.org/2000/svg"><path d="m47 6c-1.652344 0-3 1.347656-3 3v32c0 1.652344 1.347656 3 3 3s3-1.347656 3-3v-32c0-1.652344-1.347656-3-3-3zm-5 2.84375-34 10.21875v10.0625l5.65625 1.96875-.78125 2.0625v.03125c-.773437 2.320313.496094 4.851563 2.8125 5.625l4.15625 1.40625c2.320313.773438 4.851563-.492187 5.625-2.8125l.65625-1.9375 15.875 5.53125zm-39 9.15625c-1.652344 0-3 1.347656-3 3v6c0 1.652344 1.347656 3 3 3s3-1.347656 3-3v-6c0-1.652344-1.347656-3-3-3zm12.53125 13.75 8.6875 3.03125-.65625 1.96875c-.429687 1.296875-1.796875 1.996094-3.09375 1.5625l-4.15625-1.375c-1.28125-.429687-1.941406-1.804687-1.53125-3.09375.003906-.011719-.003906-.019531 0-.03125z"/></svg>