<svg height="50" viewBox="0 0 50 50" width="50" xmlns="http://www.w3.org/2000/svg"><path d="m36 45h-19c-4.960937 0-9-4.035156-9-9v-9.398437c0-1.941407.566406-3.714844 1.6875-5.28125l11.203125-15.410157c.699219-1.167968 1.878906-1.910156 3.109375-1.910156 1.660156 0 4 1.425781 4 4.601563 0 .90625-.246094 1.515625-.488281 2.105468-.058594.140625-.117188.285157-.175781.441407-.375 1.050781-2.355469 5.527343-3.394532 7.851562 3.078125.003906 9.898438.023438 12.488282.101563 2.851562 0 4.570312 1.929687 4.570312 3.796875 0 .640625-.105469 1.515625-.195312 2.132812.878906.523438 2.195312 1.648438 2.195312 3.667969 0 1.40625-.675781 2.445312-1.324219 3.125.660157.609375 1.324219 1.566406 1.324219 2.976562 0 2.007813-1.382812 3.222657-2.371094 3.839844.195313.523438.371094 1.226563.371094 2.058594 0 1.796875-1.902344 4.300781-5 4.300781z"/></svg>