<svg height="50" viewBox="0 0 26 26" width="50" xmlns="http://www.w3.org/2000/svg"><path d="m13 0c-2.199219 0-4 1.800781-4 4 0 1.375.714844 2.589844 1.78125 3.3125-.714844.203125-1.339844.503906-1.875.84375-.386719-1.800781-1.996094-3.15625-3.90625-3.15625-2.199219 0-4 1.800781-4 4 0 1.121094.464844 2.144531 1.21875 2.875-1.332031.914063-2.21875 2.457031-2.21875 4.21875v5c0 .769531.28125 1.585938.84375 2.21875.5625.632813 1.371094 1.109375 2.40625 1.5 1.902344.714844 4.707031 1.09375 8.71875 1.15625.328125.027344.679688.03125 1.03125.03125.351563 0 .703125-.003906 1.03125-.03125 4.011719-.0625 6.816406-.441406 8.71875-1.15625 1.035156-.390625 1.84375-.867187 2.40625-1.5.5625-.632812.84375-1.449219.84375-2.21875v-5c0-1.761719-.886719-3.304687-2.21875-4.21875.753906-.730469 1.21875-1.753906 1.21875-2.875 0-2.199219-1.800781-4-4-4-1.910156 0-3.519531 1.355469-3.90625 3.15625-.535156-.339844-1.160156-.640625-1.875-.84375 1.066406-.722656 1.78125-1.9375 1.78125-3.3125 0-2.199219-1.800781-4-4-4zm0 2c1.117188 0 2 .882813 2 2 0 1.117188-.882812 2-2 2-1.117187 0-2-.882812-2-2 0-1.117187.882813-2 2-2zm-8 5c1.117188 0 2 .882813 2 2 0 1.117188-.882812 2-2 2-1.117187 0-2-.882812-2-2 0-1.117187.882813-2 2-2zm16 0c1.117188 0 2 .882813 2 2 0 1.117188-.882812 2-2 2-1.117187 0-2-.882812-2-2 0-1.117187.882813-2 2-2zm-8 2c2.121094 0 3.308594.820313 4.0625 1.65625.683594.757813.898438 1.40625.9375 1.53125.007813.03125.019531.0625.03125.09375v.03125c.007813.019531.019531.042969.03125.0625v.03125l.03125.03125c.019531.042969.039063.085938.0625.125.019531.023438.039063.042969.0625.0625v.03125l.03125.03125.03125.03125h.03125c.007813.019531.019531.042969.03125.0625h.03125c.125.109375.277344.183594.4375.21875h.03125.0625.03125.0625 2c1.65625 0 3 1.316406 3 3.09375v5c0 .332031-.078125.570313-.34375.875-.265625.304688-.765625.65625-1.59375.96875-.929687.351563-2.3125.625-4.09375.8125-.140625-2.226562-1.640625-4.75-4.96875-4.75s-4.828125 2.523438-4.96875 4.75c-1.78125-.1875-3.164062-.460937-4.09375-.8125-.828125-.3125-1.328125-.664062-1.59375-.96875-.265625-.304687-.34375-.542969-.34375-.875v-5c0-1.777344 1.34375-3.09375 3-3.09375h2 .03125c.074219-.003906.148438-.011719.21875-.03125.054688-.015625.105469-.039062.15625-.0625.054688-.015625.105469-.039062.15625-.0625.03125-.019531.0625-.039062.09375-.0625l.03125-.03125.03125-.03125c.011719-.019531.023438-.042969.03125-.0625l.03125-.03125.03125-.03125.03125-.03125c.011719-.019531.023438-.042969.03125-.0625l.03125-.03125c0-.019531 0-.042969 0-.0625l.03125-.03125c.027344-.058594.046875-.125.0625-.1875.039063-.125.253906-.773437.9375-1.53125.753906-.835937 1.941406-1.65625 4.0625-1.65625zm0 10c1.65625 0 3-1.34375 3-3s-1.34375-3-3-3-3 1.34375-3 3 1.34375 3 3 3z"/></svg>