<svg height="100" viewBox="0 0 50 50" width="100" xmlns="http://www.w3.org/2000/svg"><path d="m32 5c-3 0-5.40625 2.199219-5.90625 5 2 0 3.820313.800781 5.21875 2v-1.6875h-1.21875l1.5-1.5h1.21875v4.5h-.3125c.699219 1 1.199219 2.175781 1.5 3.375 2.398438-.800781 4.09375-2.988281 4.09375-5.6875-.101562-3.300781-2.792969-6-6.09375-6zm-6 6c-3.898437 0-7 3.101563-7 7 0 3.898438 3.101563 7 7 7 3.898438 0 7-3.101562 7-7 0-3.898437-3.101562-7-7-7zm-.5 4.3125h1.40625v5.375h-1.8125v-3.59375h-1.40625zm-12.09375 9.6875c-2.5 0-4.707031.894531-12.90625 4.59375-.5.199219-.699219.8125-.5 1.3125l5.3125 11.78125c.101563.300781.394531.523438.59375.625.300781.101563.582031-.023437.78125-.125l2.71875-1.78125c1.199219-.800781 1.679688-.894531 3.28125-.09375l2.125 1.09375c2.5 1.300781 5.875 3.09375 6.875 3.59375 1.601563.800781 2.898438 1.09375 4 1.09375 2 0 3.300781-.792969 4.5-1.59375s15.824219-10.289062 17.125-11.1875c1.601563-1.101562 2.59375-2.40625 2.59375-3.40625.101563-2.800781-2.601562-3.5-5-2l-10.71875 7.1875c-1.699219 1-3.1875.90625-4.1875.90625h-6c-2.699219 0-5.992187-1-6.09375-1-.300781-.101562-.414062-.394531-.3125-.59375.101563-.300781.292969-.414062.59375-.3125h.125c.300781.101563 3.601563 1 6 1h5.6875c.800781 0 1.414063-.199219 1.8125-.5.398438-.300781.675781-.601562.875-1 0-.101562.125-.085937.125-.1875v-.09375c.101563-.300781.09375-.511719.09375-.8125 0-1.199219-1-2.398437-3-2.5-1.601562-.101562-3.792969-.5-5.59375-1-1-.300781-1.726562-.613281-2.125-.8125-.300781-.199219-.601562-.476562-1-.875-1.199219-1.300781-2.980469-3.3125-7.78125-3.3125zm21.6875 0c-1.101562 0-2.28125.394531-3.28125 1.09375-.699219.398438-3.699219 2.304688-5.5 3.40625 1.300781.300781 2.6875.5 3.6875.5.699219 0 1.40625.207031 1.90625.40625l6.5-4.40625s-1.511719-1-3.3125-1zm6.59375 1.09375c-1 0-2.175781.398438-3.875 1.5l-5 3.40625c.800781.699219 1.1875 1.601563 1.1875 2.5 0 .601563-.195312 1.304688-.59375 1.90625l.09375-.09375.09375-.125 11-7.28125c-.300781-1.300781-1.90625-1.8125-2.90625-1.8125z"/></svg>