<svg height="100" viewBox="0 0 50 50" width="100" xmlns="http://www.w3.org/2000/svg"><path d="m10 0c-.550781 0-1 .449219-1 1v3.6875c.910156-.433594 1.925781-.6875 3-.6875 3.859375 0 7 3.140625 7 7 0 1.210938-.300781 2.351563-.84375 3.34375l3.15625-.65625 3.90625-5.0625c.800781-1.066406 2.058594-1.65625 3.4375-1.65625.960938 0 1.898438.304688 2.65625.875.945313.710938 1.53125 1.765625 1.65625 2.96875.117188 1.109375-.195312 2.253906-.875 3.15625l-4.96875 6.46875c-.625.832031-1.6875 1.527344-2.84375 1.875l-3.28125 1.1875v1.5h12v-4h8.90625l1.09375 2-1.09375 2h6.09375v-24c0-.550781-.445312-1-1-1zm2 6c-2.761719 0-5 2.238281-5 5s2.238281 5 5 5 5-2.238281 5-5-2.238281-5-5-5zm16.65625 2.96875c-.742187 0-1.425781.320313-1.84375.875l-4.375 5.65625-6.96875 1.4375h-6.25c-2.667969 0-4.21875 1.550781-4.21875 4.21875v10.15625c.625-.199219 1.308594-.3125 2-.3125 1.835938 0 3.503906.773438 4.6875 2l2.65625-.03125c1.179688-1.214844 2.832031-1.96875 4.65625-1.96875v-8.90625l4.65625-1.65625c.765625-.21875 1.464844-.683594 1.84375-1.1875l5-6.5c.363281-.488281.566406-1.105469.5-1.71875-.066406-.644531-.378906-1.222656-.875-1.59375-.417969-.3125-.9375-.46875-1.46875-.46875zm-7.65625 17.03125v4h28c.554688 0 1-.445312 1-1v-2c0-.554687-.445312-1-1-1zm-14 7c-2.480469 0-4.5 2.019531-4.5 4.5 0 1.664063.933594 3.097656 2.28125 3.875-2.496094.90625-4.28125 3.316406-4.28125 6.125v2c0 .277344.222656.5.5.5h48c.277344 0 .5-.222656.5-.5v-2c0-2.808594-1.785156-5.21875-4.28125-6.125 1.347656-.777344 2.28125-2.210937 2.28125-3.875 0-2.480469-2.019531-4.5-4.5-4.5s-4.5 2.019531-4.5 4.5c0 1.664063.933594 3.097656 2.28125 3.875-1.699219.617188-3.078125 1.9375-3.78125 3.59375-.703125-1.65625-2.082031-2.976562-3.78125-3.59375 1.347656-.777344 2.28125-2.210937 2.28125-3.875 0-2.480469-2.019531-4.5-4.5-4.5s-4.5 2.019531-4.5 4.5c0 1.664063.933594 3.097656 2.28125 3.875-1.699219.617188-3.078125 1.9375-3.78125 3.59375-.703125-1.65625-2.082031-2.976562-3.78125-3.59375 1.347656-.777344 2.28125-2.210937 2.28125-3.875 0-2.480469-2.019531-4.5-4.5-4.5s-4.5 2.019531-4.5 4.5c0 1.664063.933594 3.097656 2.28125 3.875-1.699219.617188-3.078125 1.9375-3.78125 3.59375-.703125-1.65625-2.082031-2.976562-3.78125-3.59375 1.347656-.777344 2.28125-2.210937 2.28125-3.875 0-2.480469-2.019531-4.5-4.5-4.5z"/></svg>