<svg height="100" viewBox="0 0 50 50" width="100" xmlns="http://www.w3.org/2000/svg"><path d="m12 2c-2.757812 0-5 2.242188-5 5 0 2.757813 2.242188 5 5 5 2.757813 0 5-2.242187 5-5 0-2.757812-2.242187-5-5-5zm17 0v2h-10.6875c.433594.910156.6875 1.925781.6875 3 0 1.488281-.457031 2.863281-1.25 4h10.75c2.480469 0 4.5 2.019531 4.5 4.5s-2.019531 4.5-4.5 4.5h-8.5v14h27c.554688 0 1-.445312 1-1v-28c0-.550781-.445312-1-1-1h-16v-2zm-21.5 11c-3.03125 0-5.5 2.46875-5.5 5.5v13.5c0 1.105469.898438 2 2 2 1.101563 0 2-.894531 2-2v-11.4375c0-.269531.230469-.5.5-.5s.5.230469.5.5v24.75c0 1.5625.839844 2.6875 2.40625 2.6875 1.480469 0 2.59375-1.148437 2.59375-2.6875v-11.625c0-.277344.222656-.5.5-.5s.5.222656.5.5v11.90625c.003906.007813.027344-.007812.03125 0 .136719 1.382813 1.179688 2.40625 2.5625 2.40625 1.5625 0 2.40625-1.125 2.40625-2.6875v-27.3125h10.5c1.382813 0 2.5-1.117187 2.5-2.5 0-1.382812-1.117187-2.5-2.5-2.5h-12.96875l-3.53125 7-3.46875-7zm20 23-4.5 9h2l4.5-9zm3 0 4.5 9h2l-4.5-9z"/></svg>