<svg height="50" viewBox="0 0 50 50" width="50" xmlns="http://www.w3.org/2000/svg"><path d="m4 0c-2.207031 0-4 1.792969-4 4v34c0 2.207031 1.792969 4 4 4h26c2.207031 0 4-1.792969 4-4v-34c0-2.207031-1.792969-4-4-4zm22.125 4h.78125c.082031 0 .132813.054688.15625.125l2.71875 7.75c.023438.070313.007813.125-.0625.125h-.84375c-.082031 0-.132812-.042969-.15625-.125l-.59375-1.71875h-3.25l-.59375 1.71875c-.039062.082031-.085937.125-.15625.125h-.84375c-.070312 0-.085937-.054687-.0625-.125l2.78125-7.75c.023438-.070312.042969-.125.125-.125zm.375 1.53125-1.28125 3.65625h2.5625l-1.25-3.65625zm9.5.875v31.59375c0 3.308594-2.691406 6-6 6h-14.5l19.1875 6c.386719.121094.785156.1875 1.1875.1875 1.761719 0 3.289063-1.132812 3.8125-2.8125l10.125-32.46875c.320313-1.019531.214844-2.117187-.28125-3.0625-.496094-.945312-1.324219-1.621094-2.34375-1.9375zm6.1875 6.15625c.027344-.011719.054688-.011719.09375 0l.75.21875c.078125.023438.089844.082031.09375.15625l.3125 8.25c.003906.074219-.054687.082031-.125.0625l-.78125-.21875c-.078125-.023437-.097656-.101562-.09375-.1875l-.0625-1.84375-3.09375-.9375-1.125 1.46875c-.058594.066406-.085937.082031-.15625.0625l-.8125-.25c-.066406-.019531-.074219-.0625-.03125-.125l4.96875-6.59375c.019531-.03125.035156-.050781.0625-.0625zm-25.1875 1.4375s4.964844 3.738281 4.96875 6.375c0 1.574219-1.066406 2.589844-2.5625 2.59375-.773437 0-1.460937-.0625-1.90625-.5 0 0 .949219 2.417969 1.5 3.53125.09375.191406-4.09375.1875-4 0 .550781-1.109375 1.5-3.53125 1.5-3.53125-.445312.417969-1.191406.496094-1.90625.5-1.492187 0-2.5625-.988281-2.5625-2.5625-.003906-2.636719 4.96875-6.40625 4.96875-6.40625zm25.1875.15625-2.3125 3.0625 2.4375.78125zm-37.90625 15.84375h.84375c.082031 0 .132813.042969.15625.125l.59375 1.71875h3.25l.59375-1.71875c.035156-.082031.085938-.125.15625-.125h.84375c.070313 0 .085938.054688.0625.125l-2.78125 7.75c-.023437.070313-.042969.125-.125.125h-.78125c-.082031 0-.132812-.054687-.15625-.125l-2.71875-7.75c-.023437-.070312-.007812-.125.0625-.125zm1.9375 2.8125 1.25 3.65625h.03125l1.28125-3.65625z"/></svg>