<?xml version="1.0" encoding="UTF-8"?>
<svg xmlns="http://www.w3.org/2000/svg" xmlns:xlink="http://www.w3.org/1999/xlink" viewBox="0 0 50 50" version="1.1" width="50px" height="50px">
<g id="surface1">
<path style=" " d="M 25 2 C 21.5 2 18.1875 3.699219 16.1875 6.5 C 15.085938 6.199219 14.101563 6 13 6 C 6.898438 6 2 10.898438 2 17 C 2 21.601563 4.800781 25.585938 9 27.1875 L 9 38 L 41 38 L 41 27.1875 C 45.199219 25.585938 48 21.5 48 17 C 48 10.898438 43.101563 6 37 6 C 35.898438 6 34.914063 6.199219 33.8125 6.5 C 31.8125 3.699219 28.5 2 25 2 Z M 18 27 C 18.601563 27 19 27.398438 19 28 L 19 31 C 19 31.601563 18.601563 32 18 32 C 17.398438 32 17 31.601563 17 31 L 17 28 C 17 27.398438 17.398438 27 18 27 Z M 25 27 C 25.601563 27 26 27.398438 26 28 L 26 32 C 26 32.601563 25.601563 33 25 33 C 24.398438 33 24 32.601563 24 32 L 24 28 C 24 27.398438 24.398438 27 25 27 Z M 32 27 C 32.601563 27 33 27.398438 33 28 L 33 31 C 33 31.601563 32.601563 32 32 32 C 31.398438 32 31 31.601563 31 31 L 31 28 C 31 27.398438 31.398438 27 32 27 Z M 9 40 L 9 47 C 9 47.601563 9.398438 48 10 48 L 40 48 C 40.601563 48 41 47.601563 41 47 L 41 40 Z "/>
</g>
</svg>
