<svg height="50" viewBox="0 0 50 50" width="50" xmlns="http://www.w3.org/2000/svg"><path d="m25 2c-3.5 0-6.8125 1.699219-8.8125 4.5-1.101562-.300781-2.085937-.5-3.1875-.5-6.101562 0-11 4.898438-11 11 0 4.601563 2.800781 8.585938 7 10.1875v10.8125h32v-10.8125c4.199219-1.601562 7-5.6875 7-10.1875 0-6.101562-4.898437-11-11-11-1.101562 0-2.085937.199219-3.1875.5-2-2.800781-5.3125-4.5-8.8125-4.5zm-7 25c.601563 0 1 .398438 1 1v3c0 .601563-.398437 1-1 1-.601562 0-1-.398437-1-1v-3c0-.601562.398438-1 1-1zm7 0c.601563 0 1 .398438 1 1v4c0 .601563-.398437 1-1 1-.601562 0-1-.398437-1-1v-4c0-.601562.398438-1 1-1zm7 0c.601563 0 1 .398438 1 1v3c0 .601563-.398437 1-1 1-.601562 0-1-.398437-1-1v-3c0-.601562.398438-1 1-1zm-23 13v7c0 .601563.398438 1 1 1h30c.601563 0 1-.398437 1-1v-7z"/></svg>