<svg height="50" viewBox="0 0 50 50" width="50" xmlns="http://www.w3.org/2000/svg"><path d="m16 0c-3.308594 0-6 2.691406-6 6s2.691406 6 6 6 6-2.691406 6-6-2.691406-6-6-6zm0 12h-2.40625c-1.996094 0-3.824219.964844-5.03125 2.65625 0 0-.339844.597656-.4375.96875l-2.5625-4.25c-.914062-1.371094-2.597656-1.855469-3.84375-1.15625-.75.339844-1.3125.945313-1.5625 1.75-.265625.855469-.15234375 1.789063.3125 2.5625l4.75 7.84375c.210938.425781.851563 1.59375 2.1875 1.59375 1.152344 0 1.804688-.542969 2.09375-.9375.273438-.371094.476563-.929687.5-1v25.46875c0 1.378906 1.121094 2.5 2.5 2.5s2.5-1.121094 2.5-2.5v-13.5h1v13.5c0 1.378906 1.121094 2.5 2.5 2.5s2.5-1.121094 2.5-2.5v-17l-17.65625-15.75c-.410156-.367187-.460937-.992187-.09375-1.40625.199219-.222656.476563-.34375.75-.34375.238281 0 .464844.078125.65625.25l16.0625 14.3125-1.5-5.9375c-.066406-.269531.105469-.558594.375-.625.265625-.066406.527344.105469.59375.375l.375 1.5c.003906 0 .027344.03125.03125.03125l2.4375 9.8125c.203125.914063.878906 1.722656 1.6875 2.09375 1.484375.5625 2.417969-.253906 2.84375-1.03125.476563-.875.492188-1.441406.21875-2.59375l-3.40625-14.5625c-.484375-2.679687-2.917969-4.625-5.78125-4.625zm31 17c-1.652344 0-3 1.347656-3 3s1.347656 3 3 3 3-1.347656 3-3-1.347656-3-3-3zm-6.5 4c-.828125 0-1.5.671875-1.5 1.5s.671875 1.5 1.5 1.5 1.5-.671875 1.5-1.5-.671875-1.5-1.5-1.5zm-11.28125.59375c-.1875-.003906-.367187.054688-.53125.15625-.066406.167969-.152344.351563-.25.53125-.390625.703125-.980469 1.226563-1.65625 1.5l-.21875.25c-.328125.363281-.34375.929688-.03125 1.3125l2.5 3.09375 4.03125-4.34375-3.28125-2.3125c-.164062-.117187-.375-.183594-.5625-.1875zm5.71875 3.40625-.40625.4375-4.0625 4.34375-.6875.75c1.234375 3.441406 4.28125 7.46875 7.8125 7.46875.269531 0 .53125-.09375.71875-.28125l3.09375-3.09375c-.074219 0-.175781 0-.25 0-4.703125 0-6.863281-2.882812-6.96875-3.03125-.324219-.445312-.230469-1.082031.21875-1.40625.445313-.320312 1.078125-.226562 1.40625.21875.109375.148438 2.460938 3.148438 7.875 1.90625l4.53125-4.5c.324219-.328125.363281-.824219.125-1.21875-.242187-.394531-.714844-.578125-1.15625-.4375-.015625.003906-1.429687.4375-3.84375.4375-1.941406 0-4.882812-.308594-8.40625-1.59375z"/></svg>