<?xml version="1.0" encoding="UTF-8"?>
<svg xmlns="http://www.w3.org/2000/svg" xmlns:xlink="http://www.w3.org/1999/xlink" viewBox="0 0 50 50" version="1.1" width="50px" height="50px">
<g id="surface1">
<path style=" " d="M 4 0 C 1.792969 0 0 1.792969 0 4 L 0 38 C 0 40.207031 1.792969 42 4 42 L 30 42 C 32.207031 42 34 40.207031 34 38 L 34 4 C 34 1.792969 32.207031 0 30 0 Z M 26.125 4 L 26.90625 4 C 26.988281 4 27.039063 4.054688 27.0625 4.125 L 29.78125 11.875 C 29.804688 11.945313 29.789063 12 29.71875 12 L 28.875 12 C 28.792969 12 28.742188 11.957031 28.71875 11.875 L 28.125 10.15625 L 24.875 10.15625 L 24.28125 11.875 C 24.242188 11.957031 24.195313 12 24.125 12 L 23.28125 12 C 23.210938 12 23.195313 11.945313 23.21875 11.875 L 26 4.125 C 26.023438 4.054688 26.042969 4 26.125 4 Z M 26.5 5.53125 L 25.21875 9.1875 L 27.78125 9.1875 L 26.53125 5.53125 Z M 36 6.40625 L 36 38 C 36 41.308594 33.308594 44 30 44 L 15.5 44 L 34.6875 50 C 35.074219 50.121094 35.472656 50.1875 35.875 50.1875 C 37.636719 50.1875 39.164063 49.054688 39.6875 47.375 L 49.8125 14.90625 C 50.132813 13.886719 50.027344 12.789063 49.53125 11.84375 C 49.035156 10.898438 48.207031 10.222656 47.1875 9.90625 Z M 42.1875 12.5625 C 42.214844 12.550781 42.242188 12.550781 42.28125 12.5625 L 43.03125 12.78125 C 43.109375 12.804688 43.121094 12.863281 43.125 12.9375 L 43.4375 21.1875 C 43.441406 21.261719 43.382813 21.269531 43.3125 21.25 L 42.53125 21.03125 C 42.453125 21.007813 42.433594 20.929688 42.4375 20.84375 L 42.375 19 L 39.28125 18.0625 L 38.15625 19.53125 C 38.097656 19.597656 38.070313 19.613281 38 19.59375 L 37.1875 19.34375 C 37.121094 19.324219 37.113281 19.28125 37.15625 19.21875 L 42.125 12.625 C 42.144531 12.59375 42.160156 12.574219 42.1875 12.5625 Z M 17 14 C 17 14 21.964844 17.738281 21.96875 20.375 C 21.96875 21.949219 20.902344 22.964844 19.40625 22.96875 C 18.632813 22.96875 17.945313 22.90625 17.5 22.46875 C 17.5 22.46875 18.449219 24.886719 19 26 C 19.09375 26.191406 14.90625 26.1875 15 26 C 15.550781 24.890625 16.5 22.46875 16.5 22.46875 C 16.054688 22.886719 15.308594 22.964844 14.59375 22.96875 C 13.101563 22.96875 12.03125 21.980469 12.03125 20.40625 C 12.027344 17.769531 17 14 17 14 Z M 42.1875 14.15625 L 39.875 17.21875 L 42.3125 18 Z M 4.28125 30 L 5.125 30 C 5.207031 30 5.257813 30.042969 5.28125 30.125 L 5.875 31.84375 L 9.125 31.84375 L 9.71875 30.125 C 9.753906 30.042969 9.804688 30 9.875 30 L 10.71875 30 C 10.789063 30 10.804688 30.054688 10.78125 30.125 L 8 37.875 C 7.976563 37.945313 7.957031 38 7.875 38 L 7.09375 38 C 7.011719 38 6.960938 37.945313 6.9375 37.875 L 4.21875 30.125 C 4.195313 30.054688 4.210938 30 4.28125 30 Z M 6.21875 32.8125 L 7.46875 36.46875 L 7.5 36.46875 L 8.78125 32.8125 Z "/>
</g>
</svg>
