<svg clip-rule="evenodd" fill-rule="evenodd" stroke-linejoin="round" stroke-miterlimit="1.41421" viewBox="0 0 50 50" xmlns="http://www.w3.org/2000/svg"><path d="m2.344 6.25h29.687c.431 0 .782.351.782.781-.001.431-.351.782-.782.782h-29.687c-.431 0-.782-.351-.782-.782 0-.43.351-.781.782-.781z"/><path d="m17.126 40.625c-.381 2.646-2.658 4.688-5.407 4.688-2.75-.001-5.026-2.042-5.408-4.688h-3.967c-1.291 0-2.344-1.053-2.344-2.344v-4.687c0-1.016.656-1.877 1.562-2.198v-22.164c-.906-.324-1.562-1.185-1.562-2.201 0-1.291 1.053-2.343 2.344-2.343h29.687c1.291 0 2.344 1.052 2.344 2.343 0 1.016-.656 1.877-1.563 2.201l.001 6.393h3.125v-1.563c0-.43.35-.781.781-.781.43 0 .781.351.781.782v1.562h1.419c1.337 0 2.564.671 3.284 1.794l5.612 8.728c.409.632.623 1.365.623 2.115v2.988c0 .049-.019.092-.028.134.922.318 1.59 1.181 1.59 2.21v4.687c0 1.291-1.053 2.344-2.344 2.344h-2.405c-.381 2.646-2.658 4.688-5.407 4.688-2.75-.001-5.026-2.042-5.408-4.688zm-5.407-4.688c2.154.001 3.906 1.752 3.906 3.907 0 2.154-1.752 3.906-3.906 3.906-2.155 0-3.906-1.752-3.906-3.906 0-2.155 1.751-3.906 3.906-3.906zm28.125 0c2.154 0 3.906 1.751 3.906 3.906 0 2.154-1.752 3.906-3.906 3.906-2.155 0-3.906-1.752-3.906-3.906 0-2.155 1.751-3.906 3.906-3.906zm-34.375-1.563c-.431 0-.781.351-.781.781v1.563c0 .43.35.781.781.781.43 0 .781-.351.781-.781v-1.563c0-.43-.351-.781-.781-.781zm12.5 0c-.431 0-.781.351-.781.781v1.563c0 .43.35.781.781.781.43 0 .781-.351.781-.781v-1.563c0-.43-.351-.781-.781-.781zm3.906 0c-.43 0-.781.351-.781.781v1.563c0 .43.351.781.781.781s.781-.351.781-.781v-1.563c0-.43-.351-.781-.781-.781zm3.906 0c-.43 0-.781.351-.781.781v1.563c0 .43.351.781.781.781.431 0 .782-.351.782-.781v-1.563c0-.43-.351-.781-.782-.781zm3.907 0c-.431 0-.782.351-.782.781v1.563c0 .43.351.781.782.781.43 0 .781-.351.781-.781v-1.563c0-.43-.351-.781-.781-.781zm3.906 0c-.431 0-.781.351-.781.781v1.563c0 .43.35.781.781.781.43 0 .781-.351.781-.781v-1.563c0-.43-.351-.781-.781-.781zm12.5 0c-.431 0-.781.351-.781.781v1.563c0 .43.35.781.781.781.43 0 .781-.351.781-.781v-1.563c0-.43-.351-.781-.781-.781zm-9.375-6.25h-1.563c-.43 0-.781.351-.781.781 0 .431.351.782.781.782h1.563c.43 0 .781-.351.781-.782 0-.43-.351-.781-.781-.781zm-28.125-3.125c-.431 0-.781.351-.781.781 0 .431.35.782.781.782h17.187c.431 0 .782-.351.782-.782 0-.43-.351-.781-.782-.781h-.821c.025-.259.04-.519.04-.781 0-4.044-3.088-7.379-7.031-7.773v-.821c0-.43-.351-.781-.781-.781-.431 0-.782.351-.782.781v.821c-3.943.394-7.031 3.729-7.031 7.773 0 .262.018.521.046.781zm30.035-6.25h-2.691c-.861 0-1.563.702-1.563 1.563v4.687c0 .861.702 1.563 1.563 1.563h5.621c.567 0 1.092-.309 1.367-.806.275-.495.259-1.102-.043-1.584l-2.929-4.691c-.287-.457-.785-.732-1.325-.732z"/><path d="m11.719 38.281c-.864 0-1.563.699-1.563 1.563 0 .863.699 1.562 1.563 1.562.863 0 1.562-.699 1.562-1.562 0-.864-.699-1.563-1.562-1.563z"/><path d="m39.844 38.281c-.864 0-1.563.699-1.563 1.563 0 .863.699 1.562 1.563 1.562.863 0 1.562-.699 1.562-1.562 0-.864-.699-1.563-1.562-1.563z"/></svg>