<svg height="50" viewBox="0 0 50 50" width="50" xmlns="http://www.w3.org/2000/svg"><path d="m27.5 2c-2.484375 0-4.5 2.015625-4.5 4.5s2.015625 4.5 4.5 4.5 4.5-2.015625 4.5-4.5-2.015625-4.5-4.5-4.5zm-4.289062 11c-.878907 0-1.734375.289063-2.433594.824219l-6.796875 4.457031c-.050781.03125-.097656.0625-.144531.09375l-.011719.011719c-.304688.21875-.539063.519531-.679688.867187l-.007812.015625-2.824219 6.660157c-.203125.320312-.3125.691406-.3125 1.070312 0 1.105469.894531 2 2 2 .910156 0 1.707031-.621094 1.933594-1.5l2.546875-5.707031 4.5625-2.609375c-.65625 3.054687-1.886719 8.746094-1.886719 8.746094v.019531c-.089844.335937-.15625.683594-.15625 1.050781 0 .796875.238281 1.539063.640625 2.160156l.003906.011719.011719.011719c.230469.355469.527344.664062.859375.925781l4.597656 4.96875 1.886719 8.464844c.007813.335937.082031.664062.21875.972656l.011719.046875.007812-.003906c.410157.878906 1.292969 1.441406 2.261719 1.441406 1.378906 0 2.5-1.121094 2.5-2.5 0-.394531-.09375-.785156-.273437-1.136719l-1.996094-9.011718-3.730469-6.347657 2.855469-11.5v-.003906c.09375-.324219.144531-.660156.144531-1 0-1.933594-1.566406-3.5-3.5-3.5-.007812 0-.015625 0-.019531 0s-.003906 0-.007813 0zm7.761718 3.828125c-.007812.15625-.011718.308594-.035156.457031l-1.199219 4.882813 1.871094 2.070312 5.609375 1.605469h.003906l.058594.019531v-.003906c.222656.089844.464844.140625.71875.140625 1.105469 0 2-.894531 2-2 0-.875-.566406-1.609375-1.34375-1.882812v-.007813l-4.988281-1.464844zm-12.53125 16.046875-.9375 4.703125-4.765625 6.144531c-.453125.453125-.738281 1.082032-.738281 1.777344 0 1.382813 1.117188 2.5 2.5 2.5.917969 0 1.710938-.5 2.144531-1.234375l.011719.003906 4.96875-6.476562.894531-3.351563z"/></svg>