<svg height="50" viewBox="0 0 30 30" width="50" xmlns="http://www.w3.org/2000/svg"><path d="m19.636719 3.0058594c-1.886742 0-3.77341.7167678-5.207031 2.1503906l-9.273438 9.273438c-2.8672455 2.867244-2.8672455 7.546816 0 10.414062a1.0001 1.0001 0 0 0 .3261719.216797 1.0001 1.0001 0 0 0 .0058593.001953c2.8847852 2.580944 7.3124378 2.550845 10.0820308-.21875l9.273438-9.273438c2.867246-2.867245 2.867246-7.5468165 0-10.414062-1.433624-1.4336698-3.320289-2.1503906-5.207031-2.1503906zm0 1.9882812c1.370758 0 2.741591.5247947 3.792969 1.5761719 2.102754 2.1027545 2.102754 5.4831835 0 7.5859375l-2.136719 2.136719-1.792969 1.792969c-.391.390999-1.022109.391953-1.412109.001953-1.325-1.326-4.054688-4.056641-4.054688-4.056641h-.001953a2 2 0 0 0 -2.828125 0l-3.1914062 3.195312c-.3910001.391-1.0240626.391-1.4140626 0-.3875327-.387532-.3884722-1.011568-.0078124-1.402343l9.2539062-9.2539065c1.051377-1.0513772 2.422211-1.5761719 3.792969-1.5761719z"/></svg>