<?xml version="1.0"?>
<svg xmlns="http://www.w3.org/2000/svg" viewBox="0 0 30 30" width="50px" height="50px">
    <path style="line-height:normal;text-indent:0;text-align:start;text-decoration-line:none;text-decoration-style:solid;text-decoration-color:#000;text-transform:none;block-progression:tb;isolation:auto;mix-blend-mode:normal" d="M 19.636719 3.0058594 C 17.749977 3.0058594 15.863309 3.7226272 14.429688 5.15625 L 5.15625 14.429688 C 2.2890045 17.296932 2.2890045 21.976504 5.15625 24.84375 A 1.0001 1.0001 0 0 0 5.4824219 25.060547 A 1.0001 1.0001 0 0 0 5.4882812 25.0625 C 8.3730664 27.643444 12.800719 27.613345 15.570312 24.84375 L 24.84375 15.570312 C 27.710996 12.703067 27.710996 8.0234955 24.84375 5.15625 C 23.410126 3.7225802 21.523461 3.0058594 19.636719 3.0058594 z M 19.636719 4.9941406 C 21.007477 4.9941406 22.37831 5.5189353 23.429688 6.5703125 C 25.532442 8.673067 25.532442 12.053496 23.429688 14.15625 L 21.292969 16.292969 L 19.5 18.085938 C 19.109 18.476937 18.477891 18.477891 18.087891 18.087891 C 16.762891 16.761891 14.033203 14.03125 14.033203 14.03125 L 14.03125 14.03125 A 2 2 0 0 0 11.203125 14.03125 L 8.0117188 17.226562 C 7.6207187 17.617562 6.9876562 17.617562 6.5976562 17.226562 C 6.2101235 16.83903 6.209184 16.214994 6.5898438 15.824219 L 15.84375 6.5703125 C 16.895127 5.5189353 18.265961 4.9941406 19.636719 4.9941406 z" font-weight="400" font-family="sans-serif" white-space="normal" overflow="visible"/>
</svg>
