<?xml version="1.0"?>
<svg xmlns="http://www.w3.org/2000/svg" viewBox="0 0 50 50" width="50px" height="50px">
    <path style="line-height:normal;text-indent:0;text-align:start;text-decoration-line:none;text-decoration-style:solid;text-decoration-color:#000;text-transform:none;block-progression:tb;isolation:auto;mix-blend-mode:normal" d="M 19 5 A 1.0001 1.0001 0 1 0 19 7 L 36.753906 7 C 39.812766 7 42.367638 9.2803071 42.714844 12.318359 L 43.59375 20 L 21.832031 20 C 14.840031 20 8.6448281 24.194547 6.0488281 30.685547 L 2.1289062 40.486328 A 1.0001 1.0001 0 0 0 3 42 L 47 42 A 1.0001 1.0001 0 0 0 47.408203 41.912109 A 1.0001 1.0001 0 0 0 47.740234 41.669922 C 47.741837 41.66815 47.744503 41.6678 47.746094 41.666016 C 47.74769 41.664235 47.748418 41.661947 47.75 41.660156 A 1.0001 1.0001 0 0 0 47.951172 41.304688 A 1.0001 1.0001 0 0 0 47.953125 41.302734 C 47.953321 41.302117 47.95293 41.301399 47.953125 41.300781 A 1.0001 1.0001 0 0 0 47.994141 40.886719 L 44.703125 12.091797 C 44.242331 8.0598494 40.813047 5 36.753906 5 L 19 5 z" font-weight="400" font-family="sans-serif" white-space="normal" overflow="visible"/>
</svg>
