<svg height="50" viewBox="0 0 50 50" width="50" xmlns="http://www.w3.org/2000/svg"><path d="m19 5a1.0001 1.0001 0 1 0 0 2h17.753906c3.05886 0 5.613732 2.2803071 5.960938 5.318359l.878906 7.681641h-21.761719c-6.992 0-13.1872029 4.194547-15.7832029 10.685547l-3.9199219 9.800781a1.0001 1.0001 0 0 0 .8710938 1.513672h44a1.0001 1.0001 0 0 0 .408203-.087891 1.0001 1.0001 0 0 0 .332031-.242187c.001603-.001772.004269-.002122.00586-.003906.001596-.001781.002324-.004069.003906-.00586a1.0001 1.0001 0 0 0 .201172-.355468 1.0001 1.0001 0 0 0 .001953-.001954c.000196-.000617-.000195-.001335 0-.001953a1.0001 1.0001 0 0 0 .041016-.414062l-3.291016-28.794922c-.460794-4.0319476-3.890078-7.091797-7.949219-7.091797z"/></svg>