<svg height="50" viewBox="0 0 50 50" width="50" xmlns="http://www.w3.org/2000/svg"><path d="m11 4a4 4 0 0 0 -4 4 4 4 0 0 0 4 4 4 4 0 0 0 4-4 4 4 0 0 0 -4-4zm28 0a4 4 0 0 0 -4 4 4 4 0 0 0 4 4 4 4 0 0 0 4-4 4 4 0 0 0 -4-4zm-31.4960938 10c-3.038 0-5.5039062 2.462-5.5039062 5.5v11.5c0 1.105.895 2 2 2s2-.895 2-2v-10.5c0-.276.224-.5.5-.5s.5.224.5.5v1.5 13.636719l-2.8261719 7.537109c-.394 1.051.1011563 2.339938 1.1601563 2.710938.22.077.4450156.115234.6660156.115234.81 0 1.5710469-.495828 1.8730469-1.298828l2.9980471-7.998047c.085-.225.128906-.464078.128906-.705078v-5.5c0-.276.224-.5.5-.5s.5.224.5.5c0 .1.001953.502906.001953.503906-.001.164-.001953 12.998047-.001953 12.998047 0 1.105.895 2 2 2s2-.895 2-2v-24.226562l2.558594 4.695312 5.412109 3.246094c.322.193.676344.285156 1.027344.285156.738 0 1.455641-.408672 1.806641-1.138672.457-.949.028-2.095719-.875-2.636719l-4.488282-2.693359-2.943359-5.306641s-1.498047-2.224609-4.498047-2.224609zm28.4960938 0c-3 0-4.498047 2.224609-4.498047 2.224609l-2.943359 5.306641-1.615235.970703.115235.068359c.916.550001 1.565219 1.421985 1.824218 2.458985.075.301.104376.605203.109376.908203l2.451171-1.46875 2.556641-4.695312v24.226562c0 1.105.895 2 2 2s2-.895 2-2c0 0-.000953-12.834047-.001953-12.998047 0-.001.001953-.401953.001953-.501953 0-.276.224-.5.5-.5s.5.224.5.5v13.5c0 1.105.895 2 2 2s2-.895 2-2v-23.5c0-.276.224-.5.5-.5s.5.224.5.5v10.5c0 1.105.895 2 2 2s2-.895 2-2v-11.5c0-3.038-2.465906-5.5-5.503906-5.5z"/></svg>