<svg height="50" viewBox="0 0 50 50" width="50" xmlns="http://www.w3.org/2000/svg"><path d="m11.875 0c-.496094 0-.929687.351563-1 .84375-.191406 1.351563-1.875 13.292969-1.875 15.15625 0 1.914063 2.734375 5.058594 3.96875 6.375l-.96875 23.625c0 2.394531 2.007813 4 5 4 2.992188 0 5-1.597656 5-4.03125l-.96875-23.59375c1.226563-1.332031 3.96875-4.527344 3.96875-6.375 0-1.789062-1.683594-13.765625-1.875-15.125-.070312-.492187-.503906-.875-1-.875h-2.125v15.5c0 .277344-.222656.5-.5.5s-.5-.222656-.5-.5v-15.5h-4v15.5c0 .277344-.222656.5-.5.5s-.5-.222656-.5-.5v-15.5zm26.125 0c-2.632812 0-8 5.628906-8 12.15625 0 6.992188 1.96875 10.671875 3.15625 12.875.464844.863281.84375 1.546875.84375 1.96875 0 1.859375-.328125 3.828125-.71875 6.09375-.566406 3.265625-1.28125 7.320313-1.28125 12.90625 0 2.46875 1.726563 4 4.5 4 2.773438 0 4.5-1.53125 4.5-4v-42.1875c0-2.539062-1.011719-3.8125-3-3.8125z"/></svg>