<?xml version="1.0" encoding="UTF-8"?>
<svg xmlns="http://www.w3.org/2000/svg" xmlns:xlink="http://www.w3.org/1999/xlink" viewBox="0 0 50 50" version="1.1" width="50px" height="50px">
<g id="surface1">
<path style=" " d="M 11.875 0 C 11.378906 0 10.945313 0.351563 10.875 0.84375 C 10.683594 2.195313 9 14.136719 9 16 C 9 17.914063 11.734375 21.058594 12.96875 22.375 L 12 46 C 12 48.394531 14.007813 50 17 50 C 19.992188 50 22 48.402344 22 45.96875 L 21.03125 22.375 C 22.257813 21.042969 25 17.847656 25 16 C 25 14.210938 23.316406 2.234375 23.125 0.875 C 23.054688 0.382813 22.621094 0 22.125 0 L 20 0 L 20 15.5 C 20 15.777344 19.777344 16 19.5 16 C 19.222656 16 19 15.777344 19 15.5 L 19 0 L 15 0 L 15 15.5 C 15 15.777344 14.777344 16 14.5 16 C 14.222656 16 14 15.777344 14 15.5 L 14 0 Z M 38 0 C 35.367188 0 30 5.628906 30 12.15625 C 30 19.148438 31.96875 22.828125 33.15625 25.03125 C 33.621094 25.894531 34 26.578125 34 27 C 34 28.859375 33.671875 30.828125 33.28125 33.09375 C 32.714844 36.359375 32 40.414063 32 46 C 32 48.46875 33.726563 50 36.5 50 C 39.273438 50 41 48.46875 41 46 L 41 3.8125 C 41 1.273438 39.988281 0 38 0 Z "/>
</g>
</svg>
