<svg height="50" viewBox="0 0 50 50" width="50" xmlns="http://www.w3.org/2000/svg"><path d="m9 3c-1.654 0-3 1.346-3 3v38c0 1.654 1.346 3 3 3h32c1.654 0 3-1.346 3-3v-38c0-1.654-1.346-3-3-3zm22 5c1.105 0 2 .895 2 2s-.895 2-2 2-2-.895-2-2 .895-2 2-2zm6 0c1.105 0 2 .895 2 2s-.895 2-2 2-2-.895-2-2 .895-2 2-2zm-12 8c5.390584 0 9.870065 3.883264 10.810547 9.003906-1.39887-.727986-2.847718-.981903-3.789063-1.001953-1.427604-.03001-2.534182.584121-3.576172 1.078125-1.041987.494004-2.040327.919922-3.445312.919922s-2.403324-.425918-3.445312-.919922c-1.041479-.493762-2.147629-1.107488-3.574219-1.078125h-.001953c-.942563.019352-2.391591.272847-3.789063 1 .940907-5.119707 5.418852-9.001953 10.810547-9.001953zm-6.980469 10a1.0001 1.0001 0 0 0 .001953 0c.808396-.01699 1.58477.369473 2.675782.886719 1.090964.517246 2.475719 1.113281 4.302734 1.113281s3.211723-.596035 4.302734-1.113281c1.091012-.517246 1.867386-.903711 2.675782-.886719.726945.01548 2.686186.439 3.890625 1.416016a1.0003647 1.0003647 0 0 0 .105468.074218c-.258356 5.845871-5.067021 10.509766-10.974609 10.509766-5.908876 0-10.715368-4.662856-10.974609-10.507812a1.0003647 1.0003647 0 0 0 .105468-.076172c1.204652-.977189 3.163822-1.401313 3.888672-1.416016z"/></svg>