<?xml version="1.0" encoding="UTF-8"?>
<svg width="73px" height="66px" viewBox="0 0 73 66" version="1.1" xmlns="http://www.w3.org/2000/svg" xmlns:xlink="http://www.w3.org/1999/xlink">
    <!-- Generator: sketchtool 56 (101010) - https://sketch.com -->
    <title>FF2804F1-E44B-491E-800C-670FE80DB28B</title>
    <desc>Created with sketchtool.</desc>
    <g id="PAGES" stroke="none" stroke-width="1" fill="none" fill-rule="evenodd">
        <g id="HOMEPAGE" transform="translate(-1028.000000, -632.000000)" fill-rule="nonzero">
            <g id="HomeAccessBloc" transform="translate(181.000000, 535.000000)">
                <g id="03-Moleculs/HomeAccessBloc-03-Molecules/HomeAccessBloc" transform="translate(728.000000, 0.000000)">
                    <g id="card-2">
                        <g id="01-Electrons/Illustrations/Wheelchair-01-Electrons/Illustrations/HospitalBed" transform="translate(105.000000, 80.000000)">
                            <g id="HospitalBed" transform="translate(14.000000, 17.000000)">
                                <path d="M72.2005015,65.8897177 L68.74052,65.8897177 C68.3803484,65.8897177 68.0885428,65.597912 68.0885428,65.2377405 L68.0885428,27.8171387 C68.0885428,26.5404195 69.1234803,25.5060378 70.4001995,25.5060378 L70.540822,25.5060378 C71.8175412,25.5060378 72.8524786,26.5404195 72.8524786,27.8171387 L72.8524786,65.2377405 C72.8524786,65.597912 72.560673,65.8897177 72.2005015,65.8897177 Z" id="Path" fill="#FBA485"></path>
                                <path d="M70.6619909,25.5132636 C70.1556385,25.4732445 69.6809681,25.5944133 69.2796657,25.827302 C69.9911157,26.2391648 70.4702327,27.0067526 70.4702327,27.8877279 L70.4702327,65.8902735 L72.1804919,65.8902735 C72.5517799,65.8902735 72.8524786,65.5890189 72.8524786,65.2182867 L72.8524786,27.9538704 C72.8524786,26.7010515 71.9114749,25.6127553 70.6619909,25.5132636 L70.6619909,25.5132636 Z" id="Path" fill="#F26532"></path>
                                <polygon id="Path" fill="#DEDEDE" points="4.76393584 34.3007825 25.8723234 34.3007825 25.8723234 53.3570815 4.76393584 53.3570815"></polygon>
                                <path d="M19.1291115,34.3007825 L4.76393584,34.3007825 L4.76393584,19.9356068 L5.18969412,19.9356068 C12.8883612,19.9356068 19.1291115,26.1769129 19.1291115,33.87558 L19.1291115,34.3007825 Z" id="Path" fill="#D4D4D4"></path>
                                <g id="Group" transform="translate(11.810070, 2.276640)" fill="#434E59">
                                    <path d="M2.97475026,63.6130777 L0.669763428,63.6130777 C0.375178739,63.6130777 0.136731865,63.3746308 0.136731865,63.080046 L0.136731865,51.0804415 L3.50778196,51.0804415 L3.50778196,63.080046 C3.50778196,63.3746308 3.26933495,63.6130777 2.97475026,63.6130777 Z" id="Path"></path>
                                    <path d="M12.2541702,7.71589736 C11.6472145,7.71589736 11.1547576,7.22344065 11.1547576,6.61648488 L11.1547576,1.1488806 C11.1547576,0.54192483 11.6472145,0.0494679713 12.2541702,0.0494679713 C12.8616818,0.0494679713 13.3535827,0.54192483 13.3535827,1.1488806 L13.3535827,6.61648488 C13.3535827,7.22344065 12.8616818,7.71589736 12.2541702,7.71589736 Z" id="Path"></path>
                                    <path d="M12.2541702,23.526206 C11.6472145,23.526206 11.1547576,23.0337491 11.1547576,22.4267933 L11.1547576,15.1722267 C11.1547576,14.5647152 11.6472145,14.0728143 12.2541702,14.0728143 C12.8616818,14.0728143 13.3535827,14.5647152 13.3535827,15.1722267 L13.3535827,22.4267933 C13.3535827,23.0343049 12.8616818,23.526206 12.2541702,23.526206 Z" id="Path"></path>
                                </g>
                                <path d="M26.3280961,17.3949522 L21.800384,17.3949522 C21.0455799,17.3949522 20.4147238,16.8202341 20.3446906,16.0682091 L19.7049413,9.18882123 C19.6321289,8.4028914 20.250201,7.72479049 21.0394659,7.72479049 L27.089014,7.72479049 C27.8782789,7.72479049 28.496351,8.4028914 28.4235385,9.18882123 L27.7837895,16.0682091 C27.713756,16.8202341 27.0829001,17.3949522 26.3280961,17.3949522 Z" id="Path" fill="#FBA485"></path>
                                <path d="M25.8723234,7.72479049 L25.0963983,16.0682091 C25.0269208,16.8196781 24.3960647,17.3949522 23.6407049,17.3949522 L26.3280961,17.3949522 C27.0834559,17.3949522 27.714312,16.8196781 27.7837895,16.0682091 L28.4235385,9.18882123 C28.496351,8.4028914 27.8782789,7.72479049 27.0895698,7.72479049 L25.8723234,7.72479049 Z" id="Path" fill="#F26532"></path>
                                <path d="M68.0885428,57.1683414 L68.0885428,31.0759132 L28.5474865,31.0759132 C27.0701162,31.0759132 25.8723234,32.2737058 25.8723234,33.7510762 L25.8723234,54.4926224 C25.8723234,55.9705486 27.0701162,57.1677855 28.5474865,57.1677855 L68.0885428,57.1677855 L68.0885428,57.1683414 Z" id="Path" fill="#B1DBEB"></path>
                                <polygon id="Path" fill="#90C9DE" points="62.7137605 31.0759132 68.0885428 31.0759132 68.0885428 57.1677855 62.7137605 57.1677855"></polygon>
                                <path d="M27.3624776,0 C28.2934767,0 29.0482807,0.754804041 29.0482807,1.68580294 C29.0482807,2.61680198 28.2934767,3.37160588 27.3624776,3.37160588 L15.3178517,3.37160588 L15.3178517,24.5566967 C14.3390522,23.4973033 13.2035113,22.5846463 11.9468016,21.8576333 L11.9468016,2.02763246 C11.9468016,0.907654518 12.8544562,0 13.9744341,0 L27.3624776,0 Z" id="Path" fill="#434E59"></path>
                                <path d="M0,65.2182867 C0,65.5890189 0.300698748,65.8897177 0.67198671,65.8897177 L4.09194899,65.8897177 C4.4632371,65.8897177 4.76393584,65.5890189 4.76393584,65.2182867 L4.76393584,7.95490016 C4.76393584,6.67206691 3.77846648,5.56876364 2.49730058,5.50817926 C1.12942685,5.44425989 0,6.53366769 0,7.88764594 L0,65.2182867 Z" id="Path" fill="#FBA485"></path>
                                <path d="M2.57344807,5.51318161 C2.06709574,5.47316255 1.59242513,5.5943313 1.19112294,5.82666426 C1.90257293,6.23908285 2.38224589,7.0066708 2.38224589,7.88764594 L2.38224589,65.8902735 L4.09194899,65.8902735 C4.4632371,65.8902735 4.76393584,65.5890189 4.76393584,65.2182867 L4.76393584,7.95378859 C4.76393584,6.70041378 3.82293211,5.61267334 2.57344807,5.51318161 Z" id="Path" fill="#F26532"></path>
                            </g>
                        </g>
                    </g>
                </g>
            </g>
        </g>
    </g>
</svg>