<?xml version="1.0" encoding="UTF-8"?>
<svg width="96px" height="59px" viewBox="0 0 96 59" version="1.1" xmlns="http://www.w3.org/2000/svg" xmlns:xlink="http://www.w3.org/1999/xlink">
    <!-- Generator: sketchtool 56 (101010) - https://sketch.com -->
    <title>4C1B61A9-1C94-4BE1-BA9E-CF80FFCBE2BE</title>
    <desc>Created with sketchtool.</desc>
    <g id="PAGES" stroke="none" stroke-width="1" fill="none" fill-rule="evenodd">
        <g id="HOMEPAGE" transform="translate(-288.000000, -636.000000)" fill-rule="nonzero">
            <g id="HomeAccessBloc" transform="translate(181.000000, 535.000000)">
                <g id="03-Molecules/HomeAccessBlocHover">
                    <g id="card-2">
                        <g id="01-Electrons/Illustrations/Wheelchair-01-Electrons/Illustrations/OldPeople" transform="translate(105.000000, 80.000000)">
                            <g id="OldPeople" transform="translate(2.000000, 21.000000)">
                                <path d="M28.78568,58.7462114 L16.9136486,58.7462114 C14.4411564,58.7462114 12.4365704,56.7416254 12.4365704,54.2691332 L12.4365704,48.0969848 C12.4365704,45.6237659 14.4411564,43.6199066 16.9136486,43.6199066 L28.78568,43.6199066 C31.2581722,43.6199066 33.2620315,45.6237659 33.2620315,48.0969848 L33.2620315,54.2691332 C33.2620315,56.7416254 31.2581722,58.7462114 28.78568,58.7462114 Z" id="Path" fill="#FFC5B2"></path>
                                <path d="M78.3183521,58.7462114 L66.4463208,58.7462114 C63.9738285,58.7462114 61.9699692,56.7416254 61.9699692,54.2691332 L61.9699692,48.0969848 C61.9699692,45.6237659 63.9738285,43.6199066 66.4463208,43.6199066 L78.3183521,43.6199066 C80.7908444,43.6199066 82.7954304,45.6237659 82.7954304,48.0969848 L82.7954304,54.2691332 C82.7954304,56.7416254 80.7908444,58.7462114 78.3183521,58.7462114 L78.3183521,58.7462114 Z" id="Path" fill="#FFC5B2"></path>
                                <path d="M28.670883,43.6199066 L24.2373987,43.6199066 C26.7731017,43.6199066 28.8285472,45.6753519 28.8285472,48.2103284 L28.8285472,54.1550629 C28.8285472,56.690766 26.7731017,58.7462114 24.2373987,58.7462114 L28.670883,58.7462114 C31.2065862,58.7462114 33.2620315,56.690766 33.2620315,54.1550629 L33.2620315,48.2103284 C33.2620315,45.6753519 31.2065862,43.6199066 28.670883,43.6199066 Z" id="Path" fill="#FBA485"></path>
                                <path d="M78.2035553,43.6199066 L73.7700708,43.6199066 C76.3057741,43.6199066 78.3612194,45.6753519 78.3612194,48.2103284 L78.3612194,54.1550629 C78.3612194,56.690766 76.3057741,58.7462114 73.7700708,58.7462114 L78.2035553,58.7462114 C80.7392584,58.7462114 82.7947039,56.690766 82.7947039,54.1550629 L82.7947039,48.2103284 C82.7954304,45.6753519 80.7399851,43.6199066 78.2035553,43.6199066 Z" id="Path" fill="#FBA485"></path>
                                <path d="M30.4720315,7.62309381 C30.4720315,11.8327971 27.0593674,15.2454611 22.8496642,15.2454611 C18.6399611,15.2454611 15.2265704,11.8327971 15.2265704,7.62309381 C15.2265704,3.41266404 18.6399611,0 22.8496642,0 C27.0593674,0 30.4720315,3.41266404 30.4720315,7.62309381 Z" id="Path" fill="#B7C3D0"></path>
                                <path d="M22.8496642,0 C21.9574454,0 21.1015549,0.154757767 20.3059689,0.436664019 C23.2645314,1.48364054 25.3853674,4.3048828 25.3853674,7.62236729 C25.3853674,10.9405781 23.2645314,13.7618204 20.3059689,14.8087971 C21.1015549,15.0907031 21.9574454,15.2454611 22.8496642,15.2454611 C27.0593674,15.2454611 30.4720315,11.8320704 30.4720315,7.62236729 C30.4720315,3.41266404 27.0593674,0 22.8496642,0 Z" id="Path" fill="#828C96"></path>
                                <path d="M3.28987503,37.7768908 L3.28987503,26.7011722 C3.28987503,16.3135079 11.7107346,7.89264854 22.0983987,7.89264854 L23.6002032,7.89264854 C33.988594,7.89264854 42.4094534,16.3135079 42.4094534,26.7011722 L42.4094534,37.7768908 L3.28987503,37.7768908 Z" id="Path" fill="#B7C3D0"></path>
                                <path d="M23.6002032,7.89264854 L22.0983987,7.89264854 C21.1160861,7.89264854 20.1512111,7.96821105 19.2088596,8.11352355 C28.2247737,9.50343757 35.127844,17.2965471 35.127844,26.7018987 L35.127844,37.7776175 L42.4094534,37.7776175 L42.4094534,26.7018987 C42.4094534,16.3135079 33.988594,7.89264854 23.6002032,7.89264854 Z" id="Path" fill="#828C96"></path>
                                <path d="M42.2387113,32.5616253 L39.8824691,32.5616253 L39.8824691,30.2417112 C39.8824691,22.9571954 33.976969,17.0516954 26.6924532,17.0516954 L19.0068751,17.0516954 C11.7216329,17.0516954 5.81613281,22.9571954 5.81613281,30.2417112 L5.81613281,32.5616253 L3.46061726,32.5616253 C1.54903126,32.5616253 0,34.1106565 0,36.0222425 L0,37.755094 C0,40.1890783 1.97261725,42.1616956 4.40660155,42.1616956 C4.83527352,42.1849456 5.41797656,42.2089223 5.83429701,42.0926723 C6.1932188,49.0567739 11.9534063,54.5939067 19.0068751,54.5939067 L26.6924532,54.5939067 C33.7459222,54.5939067 39.5061098,49.0567739 39.8650316,42.0926723 C40.2813518,42.2089223 40.8633283,42.1849456 41.2927268,42.1616956 C43.7267113,42.1616956 45.6993284,40.1890783 45.6993284,37.755094 L45.6993284,36.0222425 C45.6993284,34.1106565 44.1495706,32.5616253 42.2387113,32.5616253 Z" id="Path" fill="#FFC5B2"></path>
                                <path d="M52.8225474,35.8224378 L52.8225474,25.4979847 C52.8225474,17.1003751 59.6297114,10.2924845 68.0273208,10.2924845 L76.7366256,10.2924845 C85.1349616,10.2924845 91.9421257,17.1003751 91.9421257,25.4979847 L91.9421257,35.8224378 L52.8225474,35.8224378 Z" id="Path" fill="#B7C3D0"></path>
                                <path d="M76.7373521,10.2924845 L69.4550161,10.2924845 C77.8533521,10.2924845 84.6605162,17.1003751 84.6605162,25.4979847 L84.6605162,35.8224378 L91.9421257,35.8224378 L91.9421257,25.4979847 C91.9421257,17.1003751 85.1349616,10.2924845 76.7373521,10.2924845 L76.7373521,10.2924845 Z" id="Path" fill="#828C96"></path>
                                <path d="M22.8496642,48.7639691 C20.7607971,48.7639691 18.9051564,47.5273598 18.3355314,45.7574534 C18.0935861,45.0054613 18.5077267,44.1997034 19.2597189,43.9570316 C20.0109846,43.7158128 20.8174689,44.1292269 21.0594142,44.8812191 C21.2221642,45.3890863 21.8898752,45.9027659 22.8496642,45.9027659 C23.8087267,45.9027659 24.4764377,45.3890863 24.6391877,44.8812191 C24.881133,44.1292269 25.6861642,43.7158128 26.438883,43.9570316 C27.1908752,44.1989769 27.6050157,45.0054613 27.3630705,45.7574534 C26.7941722,47.5273598 24.9378049,48.7639691 22.8496642,48.7639691 Z" id="Path" fill="#E87405"></path>
                                <path d="M91.7713835,32.5616253 L89.4158679,32.5616253 L89.4158679,30.2417112 C89.4158679,22.9571954 83.5103679,17.0516954 76.2251256,17.0516954 L68.5395475,17.0516954 C61.2550317,17.0516954 55.3488052,22.9571954 55.3488052,30.2417112 L55.3488052,32.5616253 L52.9932894,32.5616253 C51.0824301,32.5616253 49.5326723,34.1106565 49.5326723,36.0222425 L49.5326723,37.755094 C49.5326723,40.1890783 51.5052894,42.1616956 53.9392739,42.1616956 C54.3679457,42.1849456 54.9506489,42.2089223 55.3669692,42.0926723 C55.725891,49.0567739 61.4860785,54.5939067 68.5395475,54.5939067 L76.2251256,54.5939067 C83.2785944,54.5939067 89.0387819,49.0567739 89.3977037,42.0926723 C89.8140242,42.2089223 90.3967272,42.1849456 90.8253992,42.1616956 C93.2593835,42.1616956 95.2320007,40.1890783 95.2320007,37.755094 L95.2320007,36.0222425 C95.2320007,34.1106565 93.6829695,32.5616253 91.7713835,32.5616253 L91.7713835,32.5616253 Z" id="Path" fill="#FFC5B2"></path>
                                <path d="M82.9247584,35.4693283 C82.9247584,36.8156488 81.8334616,37.9076723 80.4864146,37.9076723 C79.1400944,37.9076723 78.0480709,36.8156488 78.0480709,35.4693283 C78.0480709,34.1222815 79.1400944,33.0309847 80.4864146,33.0309847 C81.8334616,33.0309847 82.9247584,34.1222815 82.9247584,35.4693283 Z" id="Path" fill="#703E23"></path>
                                <path d="M66.716602,35.4693283 C66.716602,36.8156488 65.6253052,37.9076723 64.2782583,37.9076723 C62.931938,37.9076723 61.8399145,36.8156488 61.8399145,35.4693283 C61.8399145,34.1222815 62.931938,33.0309847 64.2782583,33.0309847 C65.6253052,33.0309847 66.716602,34.1222815 66.716602,35.4693283 Z" id="Path" fill="#703E23"></path>
                                <path d="M65.3542975,31.7987347 L62.0128365,31.7987347 C60.798024,31.7987347 59.8128052,30.8135158 59.8128052,29.5987033 L59.8128052,29.466469 C59.8128052,28.25093 60.798024,27.2657112 62.0128365,27.2657112 L65.3542975,27.2657112 C66.56911,27.2657112 67.5543286,28.25093 67.5543286,29.466469 L67.5543286,29.5987033 C67.5543286,30.8135158 66.56911,31.7987347 65.3542975,31.7987347 L65.3542975,31.7987347 Z" id="Path" fill="#F5F5F5"></path>
                                <path d="M65.2881802,27.2657112 L62.7800865,27.2657112 C64.0319535,27.2657112 65.046235,28.280719 65.046235,29.5318597 C65.046235,30.7837268 64.0319535,31.7987347 62.7800865,31.7987347 L65.2881802,31.7987347 C66.5393208,31.7987347 67.5543286,30.7837268 67.5543286,29.5318597 C67.5543286,28.280719 66.5393208,27.2657112 65.2881802,27.2657112 L65.2881802,27.2657112 Z" id="Path" fill="#F5F5F5"></path>
                                <path d="M42.2387113,32.5616253 L39.8824691,32.5616253 L39.8824691,30.1835862 C39.8824691,22.9310392 34.0031253,17.0516954 26.7498517,17.0516954 L21.2468674,17.0516954 C28.5001408,17.0516954 34.3794847,22.9310392 34.3794847,30.1835862 L34.3794847,41.4612893 C34.3794847,48.7138364 28.5001408,54.5939067 21.2468674,54.5939067 L26.7498517,54.5939067 C33.790969,54.5939067 39.5373518,49.0524144 39.8664848,42.0926723 C40.282805,42.2089223 40.864055,42.1842191 41.2927268,42.1616956 C43.7259848,42.1616956 45.6993284,40.1883518 45.6993284,37.755094 L45.6993284,36.0222425 C45.6993284,34.1106565 44.1495706,32.5616253 42.2387113,32.5616253 Z" id="Path" fill="#FBA485"></path>
                                <path d="M30.9537425,28.9215472 C27.6231799,28.9215472 24.8353597,31.2836018 24.1741877,34.4201722 L21.5251407,34.4201722 C20.8646954,31.2836018 18.0761486,28.9215472 14.7455861,28.9215472 C10.9253204,28.9215472 7.81708604,32.0297815 7.81708604,35.8507738 C7.81708604,39.6710393 10.9253204,42.7792738 14.7455861,42.7792738 C18.0761486,42.7792738 20.8646954,40.4179456 21.5251407,37.2813753 L24.1741877,37.2813753 C24.8353597,40.4179456 27.6231799,42.7792738 30.9537425,42.7792738 C34.774008,42.7792738 37.8822425,39.6710393 37.8822425,35.8507738 C37.8822425,32.0297815 34.774008,28.9215472 30.9537425,28.9215472 Z M14.7455861,39.9180706 C12.5026876,39.9180706 10.6775626,38.0936723 10.6775626,35.8507738 C10.6775626,33.6078753 12.5026876,31.7827502 14.7455861,31.7827502 C16.9884846,31.7827502 18.8136096,33.6078753 18.8136096,35.8507738 C18.8136096,38.0936723 16.9884846,39.9180706 14.7455861,39.9180706 Z M30.9537425,39.9180706 C28.710844,39.9180706 26.885719,38.0936723 26.885719,35.8507738 C26.885719,33.6078753 28.710844,31.7827502 30.9537425,31.7827502 C33.1966408,31.7827502 35.0210393,33.6078753 35.0210393,35.8507738 C35.0210393,38.0936723 33.1966408,39.9180706 30.9537425,39.9180706 Z" id="Shape" fill="#F26532"></path>
                                <path d="M32.8297268,35.8507738 C32.8297268,36.8868518 31.9898205,37.7267581 30.9537425,37.7267581 C29.9176642,37.7267581 29.077758,36.8868518 29.077758,35.8507738 C29.077758,34.8146955 29.9176642,33.9747893 30.9537425,33.9747893 C31.9898205,33.9747893 32.8297268,34.8146955 32.8297268,35.8507738 Z" id="Path" fill="#90C9DE"></path>
                                <path d="M16.6215704,35.8507738 C16.6215704,36.8868518 15.7816641,37.7267581 14.7455861,37.7267581 C13.7095079,37.7267581 12.8696016,36.8868518 12.8696016,35.8507738 C12.8696016,34.8146955 13.7095079,33.9747893 14.7455861,33.9747893 C15.7816641,33.9747893 16.6215704,34.8146955 16.6215704,35.8507738 Z" id="Path" fill="#90C9DE"></path>
                                <path d="M91.7713835,32.5616253 L89.4158679,32.5616253 L89.4158679,30.1835862 C89.4158679,22.9310392 83.5357976,17.0516954 76.2832506,17.0516954 L70.7802661,17.0516954 C78.0328131,17.0516954 83.9128834,22.9310392 83.9128834,30.1835862 L83.9128834,41.4612893 C83.9128834,48.7138364 78.0328131,54.5939067 70.7802661,54.5939067 L76.2832506,54.5939067 C83.3243679,54.5939067 89.0700242,49.0524144 89.3998835,42.0926723 C89.8162037,42.2089223 90.3967272,42.1842191 90.8253992,42.1616956 C93.2593835,42.1616956 95.2320007,40.1883518 95.2320007,37.755094 L95.2320007,36.0222425 C95.2320007,34.1106565 93.6829695,32.5616253 91.7713835,32.5616253 L91.7713835,32.5616253 Z" id="Path" fill="#FBA485"></path>
                                <path d="M76.1691803,42.6048988 C77.1514928,42.6048988 77.6738911,44.0267816 76.9800241,44.8572426 C75.8843678,46.1686879 74.2321646,47.0042348 72.3823365,47.0042348 C70.533235,47.0042348 68.8803053,46.1686879 67.784649,44.8572426 C67.0907818,44.0267816 67.6131803,42.6048988 68.5954928,42.6048988 L76.1691803,42.6048988 Z" id="Path" fill="#F26532"></path>
                                <path d="M76.1691803,42.6048988 L71.1747896,42.6048988 L71.1747896,42.6753753 C71.1747896,44.3101409 71.8730161,45.8831488 73.1285161,46.9301254 C73.1379615,46.9381176 73.1474068,46.9453831 73.1561256,46.9526488 C74.6891725,46.7557504 76.0398521,45.9826879 76.9800241,44.8572426 C77.6738911,44.0267816 77.1514928,42.6048988 76.1691803,42.6048988 L76.1691803,42.6048988 Z" id="Path" fill="#F26532"></path>
                                <path d="M77.0519536,39.8432348 L67.7134458,39.8432348 C64.023235,39.8432348 61.031977,42.8337659 61.031977,46.5239769 C61.031977,47.1480941 61.538391,47.6537816 62.1617817,47.6537816 L66.419438,47.6537816 C69.2181568,47.6537816 71.586024,45.8148519 72.3823365,43.2798753 C73.1793756,45.8148519 75.5472428,47.6537816 78.3459616,47.6537816 L82.6028912,47.6537816 C83.2270084,47.6537816 83.7334226,47.1480941 83.7334226,46.5239769 C83.7326959,42.8337659 80.7414381,39.8432348 77.0519536,39.8432348 L77.0519536,39.8432348 Z" id="Path" fill="#F5F5F5"></path>
                                <path d="M77.0519536,39.8432348 L72.8357115,39.8432348 C76.5251959,39.8432348 79.5164536,42.8337659 79.5164536,46.5239769 C79.5164536,47.1480941 79.0107661,47.6537816 78.3866491,47.6537816 L82.6028912,47.6537816 C83.2270084,47.6537816 83.7326959,47.1480941 83.7326959,46.5239769 C83.7326959,42.8337659 80.7414381,39.8432348 77.0519536,39.8432348 L77.0519536,39.8432348 Z" id="Path" fill="#F5F5F5"></path>
                                <path d="M83.2328209,31.7987347 L79.8913601,31.7987347 C78.6765476,31.7987347 77.6913286,30.8135158 77.6913286,29.5987033 L77.6913286,29.466469 C77.6913286,28.25093 78.6765476,27.2657112 79.8913601,27.2657112 L83.2328209,27.2657112 C84.4476334,27.2657112 85.4328522,28.25093 85.4328522,29.466469 L85.4328522,29.5987033 C85.4328522,30.8135158 84.4476334,31.7987347 83.2328209,31.7987347 Z" id="Path" fill="#F5F5F5"></path>
                                <path d="M83.1667037,27.2657112 L80.6586101,27.2657112 C81.9104771,27.2657112 82.9247584,28.280719 82.9247584,29.5318597 C82.9247584,30.7837268 81.9104771,31.7987347 80.6586101,31.7987347 L83.1667037,31.7987347 C84.4178444,31.7987347 85.4328522,30.7837268 85.4328522,29.5318597 C85.4328522,28.280719 84.4178444,27.2657112 83.1667037,27.2657112 L83.1667037,27.2657112 Z" id="Path" fill="#F5F5F5"></path>
                            </g>
                        </g>
                    </g>
                </g>
            </g>
        </g>
    </g>
</svg>