<?xml version="1.0" encoding="UTF-8"?>
<svg width="70px" height="68px" viewBox="0 0 70 68" version="1.1" xmlns="http://www.w3.org/2000/svg" xmlns:xlink="http://www.w3.org/1999/xlink">
    <!-- Generator: sketchtool 56 (101010) - https://sketch.com -->
    <title>36C97355-93C1-4253-8244-05303F047D36</title>
    <desc>Created with sketchtool.</desc>
    <g id="PAGES" stroke="none" stroke-width="1" fill="none" fill-rule="evenodd">
        <g id="HOMEPAGE" transform="translate(-666.000000, -629.000000)">
            <g id="HomeAccessBloc" transform="translate(181.000000, 535.000000)">
                <g id="03-Moleculs/HomeAccessBloc-03-Molecules/HomeAccessBloc" transform="translate(365.000000, 0.000000)">
                    <g id="card-2">
                        <g id="01-Electrons/Illustrations/Wheelchair" transform="translate(105.000000, 80.000000)">
                            <g id="Wheelchair" transform="translate(15.000000, 14.000000)">
                                <path d="M51.9570234,14.7089245 L12.6355747,14.7089245 L12.6355747,8.13539975 C12.6355747,7.66867479 12.4029996,7.23239977 12.0150246,6.97304972 L7.76304972,4.1322749 L6.20799984,6.45697483 L9.83837476,8.88247476 L9.83837476,23.1551242 L12.6355747,23.1551242 L12.6355747,17.5061244 L39.1827238,17.5061244 L39.1827238,23.7068993 C39.1827238,24.4791743 39.8090487,25.1054992 40.5813237,25.1054992 C41.3541237,25.1054992 41.9799237,24.4791743 41.9799237,23.7068993 L41.9799237,17.5061244 L51.9570234,17.5061244 C52.7292984,17.5061244 53.3556233,16.8797995 53.3556233,16.1075245 C53.3556233,15.3352495 52.7292984,14.7089245 51.9570234,14.7089245 Z" id="Path" fill="#828C96" fill-rule="nonzero"></path>
                                <path d="M56.3029733,54.1269733 C55.5306983,54.1269733 54.9043734,53.5006483 54.9043734,52.7283734 L54.9043734,45.1289986 C54.9043734,44.3567236 55.5306983,43.7303986 56.3029733,43.7303986 C57.0757733,43.7303986 57.7015733,44.3567236 57.7015733,45.1289986 L57.7015733,52.7283734 C57.7015733,53.5006483 57.0752482,54.1269733 56.3029733,54.1269733 L56.3029733,54.1269733 Z" id="Path" fill="#828C96" fill-rule="nonzero"></path>
                                <path d="M57.7015733,41.3783987 L57.7015733,46.0382986 L34.637274,46.0382986 C31.1112159,38.5 27.5560742,32.717474 18.1884995,32.717474 C15.1965245,32.717474 12.3636246,33.401549 9.83837476,34.6216489 L9.83837476,21.7344744 L42.1484486,21.7344744 C50.4528985,21.7344744 57.2369483,28.2434241 57.6784733,36.4381489 L57.7015733,41.3783987 Z" id="Path" fill="#B1DBEB" fill-rule="nonzero"></path>
                                <g id="Group-20" transform="translate(18.133975, 49.512699) scale(-1, 1) rotate(30.000000) translate(-18.133975, -49.512699) translate(8.633975, 40.012699)"></g>
                                <path d="M68.4141979,61.3105482 L59.7726982,61.3105482 C59.0004232,61.3105482 58.3740982,60.6842231 58.3740982,59.9119482 C58.3740982,59.1396732 59.0004232,58.5133482 59.7726982,58.5133482 L68.4141979,58.5133482 C69.1864729,58.5133482 69.8127979,59.1396732 69.8127979,59.9119482 C69.8127979,60.6842231 69.1864729,61.3105482 68.4141979,61.3105482 Z" id="Path" fill="#828C96" fill-rule="nonzero"></path>
                                <g id="Group-21" transform="translate(56.637974, 60.246423) rotate(130.000000) translate(-56.637974, -60.246423) translate(48.637974, 52.246423)" fill-rule="nonzero">
                                    <path d="M15.3305245,7.66552486 C15.3305245,11.8991247 11.8985996,15.3310496 7.66499976,15.3310496 C3.43192486,15.3310496 1.0658141e-14,11.8991247 1.0658141e-14,7.66552486 C1.0658141e-14,3.43192499 3.43192486,-2.57571742e-14 7.66499976,-2.57571742e-14 C11.8985996,-2.57571742e-14 15.3305245,3.43192499 15.3305245,7.66552486 L15.3305245,7.66552486 Z" id="Path" fill="#FBA485"></path>
                                    <path d="M7.66499976,-3.8191672e-14 C6.74887469,-3.8191672e-14 5.87107472,0.161175029 5.05679984,0.456224952 C8.00572472,1.52355002 10.1135997,4.34804993 10.1135997,7.66552486 C10.1135997,10.9829997 8.00572472,13.8074996 5.05679984,14.8748245 C5.87107472,15.1693496 6.74939979,15.3305246 7.66499976,15.3305246 C11.8985996,15.3305246 15.3305245,11.8985996 15.3305245,7.66552486 C15.3305245,3.43192499 11.8985996,-3.8191672e-14 7.66499976,-3.8191672e-14 L7.66499976,-3.8191672e-14 Z" id="Path" fill="#F26532"></path>
                                </g>
                                <path d="M40.0859375,46 C37.6696149,35.6858902 29.2686234,28 18.1440157,28 C15.2806812,28 12.3755391,28.5098848 9.83837476,29.4422164 L9.83837476,34.9447017 C12.301293,33.7637823 15.2258927,33.1013895 18.1440157,33.1013895 C27.2803674,33.1013895 32.5221334,37.4117714 34.1867795,46 L40.0859375,46 Z" id="Path" fill="#90C9DE" fill-rule="nonzero"></path>
                                <path d="M6.63062479,6.67169979 C6.3870248,7.03604971 5.89089985,7.12739978 5.53337489,6.87487482 L2.08832493,4.43939986 C0.975849934,3.69494995 0.677124976,2.18924986 1.42157502,1.076775 C2.16602493,-0.0362249653 3.67172488,-0.334950057 4.78472485,0.409499987 L8.26232474,2.86807494 C8.6072497,3.11167494 8.69492473,3.58627492 8.45972473,3.93749988 L6.63062479,6.67169979 Z" id="Path" fill="#434E59" fill-rule="nonzero"></path>
                                <path d="M56.2095232,18.8579994 L47.7570235,18.8579994 C47.0382986,18.8579994 46.4555486,18.2757745 46.4555486,17.5570494 L46.4555486,14.6579995 C46.4555486,13.9392746 47.0382986,13.3570495 47.7570235,13.3570495 L56.2095232,13.3570495 C57.6716482,13.3570495 58.8565732,14.5419746 58.8565732,16.0046245 L58.8565732,16.2109496 C58.8565732,17.6730745 57.6716482,18.8579994 56.2095232,18.8579994 Z" id="Path" fill="#434E59" fill-rule="nonzero"></path>
                                <path d="M31.9422,60.5258 C32.0014,60.4478 32.0596,60.3696 32.117,60.2906 C32.2202,60.1504 32.3206,60.0088 32.4194,59.8656 C32.4726,59.7882 32.5266,59.7112 32.5786,59.6332 C32.686,59.4726 32.7896,59.3092 32.8918,59.1452 C32.93,59.0836 32.9698,59.0226 33.0074,58.9606 C33.1458,58.7318 33.2792,58.5006 33.4072,58.2652 C33.4228,58.236 33.4374,58.206 33.453,58.177 C33.5634,57.9716 33.6698,57.7638 33.772,57.5536 C33.81,57.4762 33.8454,57.3974 33.8818,57.3194 C33.9594,57.154 34.0352,56.9874 34.1078,56.8194 C34.1462,56.7302 34.1836,56.641 34.2206,56.5512 C34.288,56.3874 34.3528,56.2226 34.4154,56.0568 C34.4492,55.967 34.4834,55.8774 34.5158,55.7872 C34.5804,55.607 34.641,55.425 34.7002,55.242 C34.7248,55.1664 34.751,55.0912 34.7742,55.0152 C34.8538,54.7554 34.9294,54.4936 34.9974,54.2294 C35.0024,54.2096 35.0064,54.1892 35.0116,54.1694 C35.0734,53.9258 35.1298,53.6798 35.1818,53.432 C35.1998,53.345 35.2152,53.2572 35.2322,53.1694 C35.2676,52.986 35.3014,52.8022 35.331,52.6168 C35.3472,52.516 35.362,52.4146 35.3764,52.313 C35.4014,52.1358 35.424,51.9584 35.4444,51.7794 C35.4556,51.677 35.4674,51.5746 35.4772,51.4714 C35.4952,51.281 35.509,51.0898 35.5208,50.898 C35.526,50.8082 35.5336,50.7186 35.538,50.6286 C35.5514,50.3472 35.5594,50.0642 35.5594,49.7796 C35.5594,46.711 34.782,43.824 33.4134,41.3048 C30.4026,35.7626 24.5306,32 17.7798,32 L17.7798,32 L17.7796,32 C11.0288,32 5.1568,35.7624 2.146,41.3048 C0.7776,43.824 0,46.711 0,49.7796 C0,50.0644 0.0084,50.3472 0.0214,50.6286 C0.0254,50.7186 0.0332,50.8082 0.0386,50.898 C0.0508,51.0898 0.0644,51.2808 0.0822,51.4714 C0.0916,51.5746 0.1036,51.677 0.1152,51.7794 C0.135,51.9584 0.1576,52.136 0.1832,52.313 C0.1976,52.4144 0.2124,52.5156 0.2282,52.6168 C0.2582,52.8022 0.2916,52.9862 0.327,53.1694 C0.344,53.2572 0.3594,53.345 0.3778,53.432 C0.4292,53.6798 0.4858,53.9256 0.548,54.1694 C0.553,54.1892 0.557,54.2096 0.5622,54.2294 C0.6306,54.4938 0.7054,54.7556 0.7854,55.0152 C0.8088,55.0912 0.835,55.1664 0.8592,55.242 C0.9184,55.425 0.979,55.6068 1.0438,55.7872 C1.076,55.8774 1.1104,55.967 1.144,56.0568 C1.2066,56.2226 1.2718,56.3876 1.339,56.5512 C1.3758,56.6408 1.413,56.7304 1.4516,56.8194 C1.524,56.9874 1.5998,57.1538 1.6774,57.3194 C1.7142,57.3974 1.7496,57.4762 1.7876,57.5536 C1.8898,57.7638 1.9964,57.9716 2.1066,58.177 C2.1222,58.2062 2.1366,58.2362 2.1524,58.2652 C2.2804,58.5006 2.4142,58.7318 2.552,58.9606 C2.5896,59.0226 2.6296,59.0836 2.668,59.1452 C2.77,59.3092 2.8738,59.4726 2.981,59.6332 C3.0334,59.7114 3.0868,59.7884 3.14,59.8656 C3.239,60.0088 3.3396,60.1506 3.4424,60.2906 C3.5004,60.3696 3.5586,60.4476 3.6178,60.5258 C3.6564,60.5768 3.6932,60.6292 3.7324,60.6796 L3.7556,60.7018 C4.9076,62.1786 6.2838,63.4722 7.8388,64.523 L7.839,64.5234 C8.0526,64.6678 8.2704,64.8056 8.4904,64.9408 C8.5534,64.9796 8.6176,65.0172 8.6812,65.0552 C8.8468,65.1542 9.014,65.2502 9.1832,65.3438 C9.2488,65.38 9.314,65.417 9.3802,65.4524 C9.836,65.697 10.303,65.9222 10.7812,66.1272 C10.8514,66.1572 10.9218,66.1858 10.9922,66.215 C11.1712,66.2888 11.3514,66.36 11.533,66.428 C11.6048,66.455 11.6762,66.4824 11.7484,66.5086 C12.2398,66.6858 12.7412,66.8418 13.2518,66.9762 C13.3274,66.996 13.4032,67.0142 13.4792,67.033 C13.669,67.0802 13.86,67.1242 14.0524,67.1652 C14.1296,67.1816 14.2068,67.1986 14.284,67.2142 C14.5442,67.266 14.8056,67.3142 15.0698,67.3546 C15.0712,67.3548 15.0728,67.3552 15.0744,67.3552 C15.3384,67.3956 15.6046,67.428 15.872,67.4566 C15.9518,67.4652 16.0322,67.472 16.1126,67.4796 C16.3118,67.4982 16.512,67.5134 16.7132,67.5254 C16.7942,67.5302 16.875,67.5356 16.956,67.5392 C17.2292,67.5518 17.5032,67.5602 17.7792,67.5602 C17.7794,67.5602 17.7796,67.5602 17.7798,67.5602 L17.78,67.5602 L17.78,67.5602 C17.7802,67.5602 17.7804,67.5602 17.7806,67.5602 C18.0568,67.5602 18.331,67.5518 18.6034,67.5392 C18.6846,67.5356 18.7656,67.5304 18.8464,67.5254 C19.0476,67.5134 19.2478,67.498 19.4472,67.4796 C19.5274,67.4722 19.6076,67.4652 19.6876,67.4566 C19.9552,67.4282 20.2214,67.3954 20.4852,67.3552 C20.4868,67.3552 20.4882,67.3548 20.4898,67.3546 C20.7538,67.3142 21.0154,67.2662 21.2754,67.2142 C21.3528,67.1988 21.4298,67.182 21.5066,67.1652 C21.699,67.1242 21.89,67.0802 22.08,67.033 C22.1558,67.014 22.232,66.996 22.3074,66.9762 C22.818,66.842 23.3192,66.6858 23.8108,66.5086 C23.883,66.4826 23.9548,66.4554 24.0266,66.428 C24.2082,66.3598 24.3886,66.2888 24.5674,66.215 C24.6376,66.1858 24.7084,66.1572 24.778,66.1272 C25.2562,65.9222 25.7238,65.697 26.179,65.4524 C26.2452,65.417 26.3108,65.38 26.3764,65.3438 C26.5452,65.2502 26.7126,65.154 26.878,65.0552 C26.9418,65.0172 27.0058,64.9796 27.0692,64.9408 C27.2892,64.8056 27.507,64.6678 27.7204,64.5234 L27.7208,64.523 C29.276,63.4724 30.652,62.1786 31.8038,60.7018 L31.8272,60.6796 C31.8666,60.6292 31.9034,60.5766 31.9422,60.5258 Z" id="Path" fill="#F26532" fill-rule="nonzero"></path>
                                <path d="M17.7798,32 L17.7798,32 L17.7796,32 C16.265,32 14.7952,32.1908 13.3914,32.5472 C12.0028,35.402 11.2228,38.6076 11.2228,41.9954 C11.2228,52.7262 19.0392,61.6298 29.2884,63.3278 C30.2128,62.5402 31.0564,61.6602 31.8038,60.7016 L31.8272,60.6794 C31.8664,60.6288 31.9032,60.5766 31.942,60.5256 C32.0012,60.4476 32.0594,60.3694 32.1168,60.2904 C32.22,60.1502 32.3204,60.0086 32.4192,59.8654 C32.4724,59.788 32.5264,59.711 32.5786,59.633 C32.686,59.4724 32.7896,59.309 32.8918,59.145 C32.93,59.0834 32.9698,59.0224 33.0074,58.9604 C33.1458,58.7316 33.2792,58.5004 33.4072,58.265 C33.4228,58.2358 33.4374,58.2058 33.453,58.1768 C33.5634,57.9714 33.6698,57.7636 33.772,57.5534 C33.81,57.476 33.8454,57.3972 33.8818,57.3192 C33.9594,57.1538 34.0352,56.9872 34.1078,56.8192 C34.1462,56.73 34.1836,56.6408 34.2206,56.551 C34.288,56.3872 34.3528,56.2224 34.4154,56.0566 C34.4492,55.9668 34.4834,55.8772 34.5158,55.787 C34.5804,55.6068 34.641,55.4248 34.7002,55.2418 C34.7248,55.1662 34.751,55.091 34.7742,55.015 C34.8538,54.7552 34.9294,54.4934 34.9974,54.2292 C35.0024,54.2094 35.0064,54.189 35.0116,54.1692 C35.0734,53.9256 35.1298,53.6796 35.1818,53.4318 C35.1998,53.3448 35.2152,53.257 35.2322,53.1692 C35.2676,52.9858 35.3014,52.802 35.331,52.6166 C35.3472,52.5158 35.362,52.4144 35.3764,52.3128 C35.4014,52.1356 35.424,51.9582 35.4444,51.7792 C35.4556,51.6768 35.4674,51.5744 35.4772,51.4712 C35.4952,51.2808 35.509,51.0896 35.5208,50.8978 C35.526,50.808 35.5336,50.7184 35.538,50.6284 C35.5514,50.347 35.5594,50.064 35.5594,49.7794 C35.5594,46.7108 34.782,43.8238 33.4134,41.3046 C30.4024,35.7624 24.5304,32 17.7798,32 Z" id="Path" fill="#FBA485" fill-rule="nonzero"></path>
                                <path d="M27,50.0003058 C27,54.9707791 22.9701674,59 17.9996942,59 C13.0292209,59 9,54.9707791 9,50.0003058 C9,45.0292209 13.0292209,41 17.9996942,41 C22.9701674,41 27,45.0292209 27,50.0003058 Z" id="Path" fill="#FFFFFF" fill-rule="nonzero"></path>
                            </g>
                        </g>
                    </g>
                </g>
            </g>
        </g>
    </g>
</svg>