<svg xmlns="http://www.w3.org/2000/svg" viewBox="0 0 30 30" width="60" height="60"><path fill="#5E6F81" d="M13 3C6.925 3 2 7.477 2 13c0 2.8366 1.3081 5.3878 3.3965 7.205-.2996.981-.9244 1.9567-2.0723 2.8263a.5.5 0 0 1-.002.0019A.5.5 0 0 0 3 23.5a.5.5 0 0 0 .5.5.5.5 0 0 0 .1016-.0117c1.94-.0057 3.5953-.8344 4.912-1.873.625.254 1.2772.4636 1.9571.6093C10.1667 21.8646 10 20.949 10 20c0-1.438.3857-2.793 1.0547-4H9c-.552 0-1-.448-1-1s.448-1 1-1h3.5684c.812-.814 1.781-1.495 2.871-2H9c-.552 0-1-.448-1-1s.448-1 1-1h8c.552 0 1 .448 1 1 0 .067-.0251.1265-.0371.1895A11.0803 11.0803 0 0 1 20 11c1.382 0 2.6994.2539 3.8984.7129C23.2024 6.7989 18.594 3 13 3zm7 10c-4.418 0-8 3.134-8 7s3.582 7 8 7a8.9665 8.9665 0 0 0 2.9844-.5098c1.2263.8567 2.7105 1.4921 4.4101 1.498A.5.5 0 0 0 27.5 28a.5.5 0 0 0 .5-.5.5.5 0 0 0-.3281-.4688c-.9152-.6948-1.5018-1.4596-1.8535-2.2382C27.167 23.54 28 21.857 28 20c0-3.866-3.582-7-8-7zm-3 4h6c.552 0 1 .448 1 1s-.448 1-1 1h-6c-.552 0-1-.448-1-1s.448-1 1-1zm0 4h6c.552 0 1 .448 1 1s-.448 1-1 1h-6c-.552 0-1-.448-1-1s.448-1 1-1z"/></svg>