<?xml version="1.0" encoding="UTF-8"?>
<svg width="22px" height="22px" viewBox="0 0 22 22" version="1.1" xmlns="http://www.w3.org/2000/svg" xmlns:xlink="http://www.w3.org/1999/xlink">
    <!-- Generator: Sketch 51 (57462) - http://www.bohemiancoding.com/sketch -->
    <title>Component/Icons/Fi2tone-outlines/Printer</title>
    <desc>Created with Sketch.</desc>
    <defs></defs>
    <g id="Symbol-Instance-Sheet-[Current-Document]" stroke="none" stroke-width="1" fill="none" fill-rule="evenodd">
        <g id="Component/Icons/Fi2tone-outlines/Printer" transform="translate(-1.000000, -1.000000)">
            <g id="icon-/-printer">
                <path d="M7,2 L17,2 C17.5522847,2 18,2.44771525 18,3 L18,8 C18,8.55228475 17.5522847,9 17,9 L7,9 C6.44771525,9 6,8.55228475 6,8 L6,3 C6,2.44771525 6.44771525,2 7,2 Z" id="Path-2" stroke="#434E59" stroke-width="2"></path>
                <path d="M4,10 C3.44771525,10 3,10.4477153 3,11 L3,16 C3,16.5522847 3.44771525,17 4,17 L20,17 C20.5522847,17 21,16.5522847 21,16 L21,11 C21,10.4477153 20.5522847,10 20,10 L4,10 Z M17,19 L17,17 L7,17 L7,19 L4,19 C2.34314575,19 1,17.6568542 1,16 L1,11 C1,9.34314575 2.34314575,8 4,8 L20,8 C21.6568542,8 23,9.34314575 23,11 L23,16 C23,17.6568542 21.6568542,19 20,19 L17,19 Z" id="Path-2-Copy" fill="#434E59" fill-rule="nonzero"></path>
                <path d="M7,16 L7,21 L17,21 L17,16 L7,16 Z M7,14 L17,14 C18.1045695,14 19,14.8954305 19,16 L19,21 C19,22.1045695 18.1045695,23 17,23 L7,23 C5.8954305,23 5,22.1045695 5,21 L5,16 C5,14.8954305 5.8954305,14 7,14 Z" id="Path-2-Copy-2" fill="#434E59" fill-rule="nonzero"></path>
            </g>
        </g>
    </g>
</svg>