<?xml version="1.0" encoding="utf-8"?>
<!-- Generator: Adobe Illustrator 22.1.0, SVG Export Plug-In . SVG Version: 6.00 Build 0)  -->
<svg version="1.1" id="Layer_1" xmlns="http://www.w3.org/2000/svg" xmlns:xlink="http://www.w3.org/1999/xlink" x="0px" y="0px"
	 viewBox="0 0 24 24" style="enable-background:new 0 0 24 24;" xml:space="preserve">
<style type="text/css">
	.st0{fill:none;stroke:#434E59;stroke-width:2;}
	.st1{fill:none;stroke:#434E59;stroke-width:2;stroke-linecap:round;stroke-linejoin:round;}
</style>
<title>icon-call</title>
<path class="st0" d="M21.2,20.1c0,1.1-0.9,2-2,2H19c-3-0.3-5.9-1.3-8.5-3c-2.4-1.5-4.4-3.5-5.9-5.9C3,10.6,2,7.7,1.6,4.7
	c0-0.5,0.1-1.1,0.5-1.5S3,2.5,3.6,2.5h2.9c1,0,1.9,0.7,2,1.7C8.6,5.1,8.9,6.1,9.2,7c0.3,0.7,0.1,1.5-0.5,2l-1.2,1.2
	c1.4,2.5,3.4,4.5,5.9,5.9l1.3-1.3c0.6-0.5,1.4-0.7,2.1-0.4c0.9,0.3,1.8,0.6,2.8,0.7c1,0.1,1.7,1,1.7,2L21.2,20.1L21.2,20.1z"/>
<path class="st1" d="M14.4,5.4c2,0.4,3.5,1.9,3.9,3.9 M14.4,1.5c4.1,0.5,7.4,3.7,7.8,7.8"/>
</svg>
