<svg xmlns="http://www.w3.org/2000/svg" viewBox="0 0 164 108"><path class="st0" d="M112.7 20.5v-13c0-1.7 1.3-3 3-3s3 1.3 3 3v16.2c3.3 1.8 5.7 3.2 7.5 4.2.4.3.9.6 1.2.9l12.5 7c1.7.9 2.3 3.1 1.3 4.8-.9 1.7-3.1 2.3-4.8 1.3l-5.6-3.1v54.4c0 5.4-4.2 9.8-9.4 9.8H44.1c-5.3 0-9.4-4.4-9.4-9.8V37.9l-7.4 4c-1.7.9-3.8.3-4.7-1.4-.9-1.7-.3-3.8 1.4-4.7L73.3 9c.5-.3.9-.6 1.4-.8.7-.5 1.5-.9 2.3-1.2 4-1.9 8.6-1.8 12.5.4l23.2 13.1zm-36-5.4c-3.3 2-7.6 4.4-13.7 7.6-.4.2-.7.4-1.1.6-.8.5-1.7.9-2.8 1.5l-1.4.8c-.7.4-1 .5-1.4.7-2.2 1.2-3.8 2.1-5.3 2.9-3.7 2-6.3 3.5-8.1 4.6-.8.5-1.3 1.4-1.3 2.5v56.9c0 1.6 1.1 2.8 2.4 2.8h77.4c1.3 0 2.4-1.2 2.4-2.8V36.4c0-.7-.3-1.4-.7-1.9l-13.9-7.8c-.1-.1-.2-.1-.4-.2-.4-.2-.7-.4-1.4-.7L106 25c-1.2-.6-2-1.1-2.9-1.5-.4-.2-.8-.4-1.1-.6-7.2-3.8-11.9-6.5-15.6-8.6-2.1-1.3-4.5-1.5-6.7-.7.1-.1-3 1.5-3 1.5zm.3 18.3c2-1 3.8-2.1 5.6-2.1 1.8 0 3.6 1.1 5.6 2.1 8.2 4.1 15.1 8 19.2 10.6 2.8 1.8 3 2.4 3 5.2v34.2c0 2.5-.7 3.3-3.2 3.3H94.5c-6.5 0-8.1-1.6-8.7-5.6-.5-3.3.4-4.3 3.6-5.8 5.4-2.5 12.4-6.7 12.4-13.5 0-8.6-10.1-15.6-19.1-15.7-9 .1-19.1 7.2-19.1 15.7 0 6.8 7 11 12.4 13.5 3.2 1.5 4.1 2.4 3.5 5.8-.6 4-2.2 5.6-8.7 5.6H58c-2.5 0-3.2-.8-3.2-3.3V49.2c0-2.9.2-3.4 3-5.2 4.1-2.7 11.1-6.5 19.2-10.6z"/></svg>