<svg width="37" height="26" viewBox="0 0 37 26" xmlns="http://www.w3.org/2000/svg"><title>9BB20F32-DE27-4EC5-9CC3-BD48C693E43F</title><g fill="none" fill-rule="evenodd"><path fill="#F9F9F9" d="M-1115-3123H251V162h-1366z"/><path d="M35.812 5.608s.362 2.992.362 5.983v2.805c0 2.992-.362 5.983-.362 5.983s-.354 2.547-1.438 3.669c-1.375 1.473-2.917 1.48-3.624 1.566-5.062.374-12.663.386-12.663.386s-9.405-.088-12.3-.372c-.804-.154-2.612-.107-3.988-1.58-1.085-1.122-1.437-3.67-1.437-3.67S0 17.389 0 14.397v-2.805c0-2.99.362-5.983.362-5.983S.714 3.061 1.799 1.94C3.175.467 4.716.46 5.424.374 10.486 0 18.079 0 18.079 0h.016s7.593 0 12.655.374c.707.086 2.25.093 3.624 1.566 1.084 1.121 1.438 3.668 1.438 3.668zm-21.46 12.187l9.773-5.176-9.774-5.21.001 10.386z" fill="#FFF"/></g></svg>