<svg xmlns="http://www.w3.org/2000/svg" viewBox="0 0 164 108"><path class="st0" d="M115.6 61.5c-3.6-.4-7.2-1.2-10.4-2.3-4.4-1.5-9.2-.4-12.9 2.7l-2.8 2.7C82.2 60 75.8 54.2 70.9 46.9l2.8-2.7c3.2-3.1 4.4-8.1 2.8-12.3-1.2-3.1-2-6.5-2.4-10-.8-5.8-6-10-12.1-10H48.9c-3.2.4-6 1.9-8 4.2S38 21.5 38 24.5c1.2 12.3 6 24.6 12.9 35 6.4 9.6 15.3 18.1 25.3 24.3 10.8 7 23.7 11.2 36.5 12.4h1.2c3.2 0 6.4-1.2 8.4-3.5s3.6-5 3.6-8.1V73.1c.1-5.8-4.3-10.8-10.3-11.6zm2.4 11.6v11.6c0 1.2-.4 1.9-1.2 2.7-.8.8-1.6 1.2-3.2 1.2-11.7-1.2-22.9-5-32.9-11.2-9.2-5.4-16.9-13.1-22.9-21.9-6.5-9.8-10.6-20.6-11.8-31.7 0-1.2.4-1.9.8-2.7.8-.8 2-1.5 3.2-1.5h12.1c2 0 3.6 1.5 4 3.5.4 3.9 1.6 8.1 3.2 11.6.4 1.5 0 3.1-.8 4.2l-5.2 4.6c-1.2 1.2-1.6 3.1-.8 4.6 6 10.4 14.9 18.9 25.7 24.6 1.6.8 3.6.8 4.8-.8l5.2-5c1.2-1.2 2.8-1.5 4.4-.8 4 1.5 8 2.3 12.1 3.1 1.7.4 3.3 1.9 3.3 3.9z"/></svg>