<svg viewBox="0 0 24 24" xmlns="http://www.w3.org/2000/svg"><g fill="none" stroke="#fff" stroke-width="2"><path d="m21.2 20.1c0 1.1-.9 2-2 2h-.2c-3-.3-5.9-1.3-8.5-3-2.4-1.5-4.4-3.5-5.9-5.9-1.6-2.6-2.6-5.5-3-8.5 0-.5.1-1.1.5-1.5s.9-.7 1.5-.7h2.9c1 0 1.9.7 2 1.7.1.9.4 1.9.7 2.8.3.7.1 1.5-.5 2l-1.2 1.2c1.4 2.5 3.4 4.5 5.9 5.9l1.3-1.3c.6-.5 1.4-.7 2.1-.4.9.3 1.8.6 2.8.7s1.7 1 1.7 2v3z"/><path d="m14.4 5.4c2 .4 3.5 1.9 3.9 3.9m-3.9-7.8c4.1.5 7.4 3.7 7.8 7.8" stroke-linecap="round" stroke-linejoin="round"/></g></svg>