<svg xmlns="http://www.w3.org/2000/svg" viewBox="0 0 164 108"><path class="st0" d="M86.2 49.883l-5.1.3-1.6 8c-1.9 0-2.5-.1-4.8-.1-7.1 0-13.3 2.9-14.9 9.8-1.5 6.2 2.1 11 9.9 11 8 0 11.5-4.1 12.8-9.9l3.7-19.1zm37 20.6c-4.7 2.8-9.9 4.2-14.8 4.3 4.2-2.1 8.2-4.7 11.9-7.4-2.6-2.9-5.2-6-7.5-9.2h5.4c1.5 1.8 3.6 4 5.9 6.3 5.9-4.7 11.2-9.9 15.4-14.6-2.6 7.6-7 13.6-12.2 17.7 6 5.8 12.2 11.3 12.2 11.3h-7.4c-2.1-1.7-5.4-4.7-8.9-8.4zm-44.5-8.9l-1.7 8.2c-.7 3.3-2.8 5.5-6.9 5.5-4.8 0-6-2.9-5-7 1.5-5.8 6.4-7.5 13.6-6.7zm-51.5 0c-8-.7-14.9-.1-15 2.4-.2 3.7 13.2.5 12.9 7.3-.4 10-18.9 7.7-23.5 6.4l.8-3c7.9 1.1 16.3 1.2 16.5-2.7.1-4.1-13.3-.3-12.9-7.2.2-5.1 8.6-7.8 22.3-6l-1.1 2.8zm17-3.4c7.8 0 12 4.2 10.5 10.4s-7.8 10.4-15.6 10.4-12-4.2-10.5-10.4 7.8-10.4 15.6-10.4zm4.6 10.4c1.1-4.2-1-7-5.2-7-4.3 0-7.9 2.8-9 7-1.2 4.4.8 6.8 5.3 6.8 4.1 0 7.7-2.6 8.9-6.8zm96.6-33l3.5-6.4 1 6.5 7.1-2.2-5 5.6 5.4 3.7-7.2.5-.4 6.7-4-5-5.9 4.7 2.2-6.7-7-.8 6.8-3.4-2.8-5.8 6.3 2.6zm5.7 22.6c7.8 0 12 4.2 10.5 10.4-1.6 6.2-7.8 10.4-15.6 10.4s-12-4.2-10.5-10.4 7.8-10.4 15.6-10.4zm4.5 10.4c1.1-4.2-1-7-5.2-7s-7.9 2.8-9 7c-1.2 4.4.8 6.8 5.3 6.8 4.2 0 7.8-2.6 8.9-6.8zm-42.7-5.3c0 5.8-10.6 7.9-20.5 6.2v.8c0 6.4 8.9 7 16.2 6.4 0 0-3.8 2.3-9.5 2.3-8.3 0-12.8-3.7-12.8-8.2 0-6.9 6.8-12.5 17.4-12.5 6.3-.1 9.2 2.1 9.2 5zm-9.9-2.1c-4.9 0-8.3 2.4-9.8 5.4 4.3.7 13.9 1 13.9-3.1 0-1.5-1.5-2.3-4.1-2.3z"/></svg>