<svg xmlns="http://www.w3.org/2000/svg" width="20" height="22">
  <path fill="#434E59" fill-rule="nonzero" d="M20 15.9932v3.0034C20 20.6986 18.7 22 17 22H3c-1.7 0-3-1.3015-3-3.0034v-3.0034c0-.6007.4-1.0012 1-1.0012s1 .4005 1 1.0012v3.0034c0 .6007.4 1.0011 1 1.0011h14c.6 0 1-.4004 1-1.0011v-3.0034c0-.6007.4-1.0012 1-1.0012s1 .4005 1 1.0012zM6.7 5.6815L9 3.3788V14.992c0 .6007.4 1.0012 1 1.0012s1-.4005 1-1.0012V3.3788l2.3 2.3027c.2.2002.4.3003.7.3003.3 0 .5-.1001.7-.3003.4-.4005.4-1.0012 0-1.4016l-4-4.0046c-.1-.1001-.2-.2002-.3-.2002-.2-.1001-.5-.1001-.8 0-.1.1001-.2.1001-.3.2002L5.3 4.28c-.4.4004-.4 1.0011 0 1.4016.4.4004 1 .4004 1.4 0z"/>
</svg>