<svg xmlns="http://www.w3.org/2000/svg" fill-rule="evenodd" stroke-linejoin="round" stroke-miterlimit="1.4142" clip-rule="evenodd" viewBox="0 0 30 30"> <g fill-rule="nonzero"> <path fill="#006a99" d="M27.779 0H2.214C.992 0 0 .969 0 2.162v25.673C0 29.03.992 30 2.214 30h25.565C29.003 30 30 29.03 30 27.835V2.162C30 .969 29.003 0 27.779 0z"/> <path fill="#fff" d="M6.673 4.131c1.423 0 2.579 1.156 2.579 2.578 0 1.425-1.156 2.581-2.579 2.581-1.425 0-2.58-1.156-2.58-2.581 0-1.422 1.155-2.578 2.58-2.578zm-2.225 7.116h4.449v14.317H4.448V11.247zM11.688 11.247h4.269v1.956h.059c.594-1.125 2.045-2.312 4.21-2.312 4.506 0 5.337 2.965 5.337 6.82v7.853h-4.446v-6.962c0-1.661-.031-3.797-2.312-3.797-2.316 0-2.67 1.809-2.67 3.676v7.083h-4.447V11.247z"/> </g> </svg>