<svg width="28" height="26" viewBox="0 0 28 26" xmlns="http://www.w3.org/2000/svg"><title>linkedin</title><path d="M6.184 8.457V26H.345V8.457h5.839zm.384-5.427c0 1.685-1.267 3.032-3.303 3.032h-.038C1.267 6.062 0 4.715 0 3.03 0 1.31 1.306 0 3.303 0c1.998 0 3.228 1.31 3.265 3.03zM27.24 15.941V26h-5.838v-9.386c0-2.357-.845-3.966-2.959-3.966-1.613 0-2.574 1.085-2.996 2.132-.154.375-.192.898-.192 1.423V26h-5.84s.078-15.897 0-17.543h5.84v2.485c.775-1.194 2.163-2.897 5.263-2.897 3.842 0 6.722 2.508 6.722 7.896z" fill="#FFF" fill-rule="evenodd"/></svg>