<?xml version="1.0" encoding="UTF-8"?>
<svg width="83px" height="97px" viewBox="0 0 83 97" version="1.1" xmlns="http://www.w3.org/2000/svg" xmlns:xlink="http://www.w3.org/1999/xlink">
    <!-- Generator: sketchtool 58 (101010) - https://sketch.com -->
    <title>565F43C7-57D8-4C42-A1C5-70913659629B</title>
    <desc>Created with sketchtool.</desc>
    <g id="HOME" stroke="none" stroke-width="1" fill="none" fill-rule="evenodd">
        <g id="HOMEPAGE---MOBILE---NAV" transform="translate(-20.000000, 0.000000)">
            <g id="04-Organisms/ResponsiveHeader">
                <g id="Header" transform="translate(20.000000, 0.000000)">
                    <g id="01-Electrons/Logo1">
                        <g id="logo">
                            <path d="M82.4966375,0.374504336 L0.000503030306,0.374504336 L0.000503030306,93.313154 C0.000503030306,93.313154 0.000503030306,97.5305452 4.15134158,96.9443278 L82.4966375,85.8652412 L82.4966375,0.374504336 Z" id="Fill-1" fill="#F26532"></path>
                            <path d="M39.9024127,17.199271 C40.5774905,16.8553405 41.18614,16.4861828 41.8180394,16.4836601 C42.4474478,16.4861828 43.0569276,16.8553405 43.7320054,17.199271 C46.5178431,18.6128337 48.8851824,19.9322149 50.2926324,20.8429159 C51.2541824,21.4643453 51.3206107,21.6518673 51.3206107,22.6306817 L51.3206107,34.3587952 C51.3206107,35.2165191 51.079808,35.503268 50.2154095,35.503268 L45.8676759,35.503268 C43.6539521,35.503268 43.1150524,34.9533156 42.8991603,33.5994572 C42.7181432,32.4533026 43.0262045,32.1203039 44.1114772,31.6224876 C45.9482203,30.7782182 48.349604,29.333542 48.349604,26.9924602 C48.349604,24.0610625 44.8837064,21.6400946 41.8180394,21.5980493 C38.7498814,21.6400946 35.2848141,24.0610625 35.2848141,26.9924602 C35.2848141,29.333542 37.6845372,30.7782182 39.5221106,31.6224876 C40.6073833,32.1203039 40.916275,32.4533026 40.7335971,33.5994572 C40.517705,34.9533156 39.980466,35.503268 37.7667422,35.503268 L33.4190086,35.503268 C32.5529494,35.503268 32.3129771,35.2165191 32.3129771,34.3587952 L32.3129771,22.6306817 C32.3129771,21.6518673 32.3802358,21.4643453 33.3409554,20.8429159 C34.7484054,19.9322149 37.1174054,18.6128337 39.9024127,17.199271" id="Fill-4" fill="#FEFEFE"></path>
                            <path d="M59.3504831,50.2514628 C60.343574,50.5302421 61.6836181,50.6589094 62.5116129,50.6589094 C65.0249289,50.6589094 66.526717,49.9426612 66.526717,48.0907091 C66.526717,46.4068824 65.7196735,45.8287371 63.2725635,45.6408828 C60.8698702,45.4556018 60.3427359,45.4959176 60.3427359,44.2032396 C60.3427359,43.1301539 60.9763028,42.7535874 62.9649987,42.7535874 C64.0863114,42.7535874 64.8874885,42.8230678 65.8453812,43.0006287 L66.0012587,42.0090324 C66.0012587,42.0090324 64.6922225,41.6933685 62.9851119,41.6933685 C60.1952389,41.6933685 59.2163949,42.5674487 59.2163949,44.2032396 C59.2163949,46.243046 60.3670394,46.4866562 62.7873318,46.6341947 C65.0123581,46.7697243 65.4003759,47.133424 65.4003759,48.0967136 C65.4003759,49.2384219 64.651158,49.6081261 62.5241836,49.6081261 C61.5319308,49.6081261 60.4231889,49.4211295 59.5197695,49.2161195 L59.3504831,50.2514628 Z M22.6321008,42.9217129 C19.2589442,42.4705193 16.9794446,42.8316457 16.9794446,46.14097 C16.9794446,48.2854259 17.8795117,49.6321442 20.1187849,49.6321442 C21.3373115,49.6321442 22.2465972,49.0402744 22.6321008,48.4689913 L22.6321008,42.9217129 Z M23.7768789,48.5161692 C23.7768789,49.5240634 24.1129375,49.6252818 24.7330955,49.6252818 L24.7196867,50.593718 C23.662904,50.7026564 23.1106281,50.3586857 22.8424517,49.6587353 C22.2507874,50.2840586 21.116904,50.7189542 19.9503365,50.7189542 C17.7496137,50.7189542 15.8396947,49.4888944 15.8396947,46.1692767 C15.8396947,42.980042 17.6549139,41.6487638 20.7707888,41.6487638 C21.7068921,41.6487638 22.7443997,41.774 23.7768789,41.9412675 L23.7768789,48.5161692 L23.7768789,48.5161692 Z M35.9814218,41.6642039 C34.4125895,41.6642039 33.5686718,42.1986023 32.9409713,42.8976949 C32.3132708,42.1986023 31.533883,41.6642039 29.8996827,41.6642039 C27.2003191,41.6642039 26.480433,43.2871281 26.480433,44.7710916 L26.480433,50.5731315 L27.6520289,50.5731315 L27.6520289,44.8388564 C27.6520289,43.3428839 28.6149499,42.6995472 30.0404754,42.6995472 C31.1877677,42.6995472 32.3258415,43.4303778 32.3342221,44.6733044 L32.3342221,44.6887445 L32.3342221,50.5731315 L33.5493966,50.5731315 L33.5493966,44.6887445 C33.5493966,44.6835978 33.5485585,44.6784511 33.5485585,44.6733044 C33.5577771,43.4303778 34.6958509,42.6995472 35.8414672,42.6995472 C37.7312731,42.6995472 38.2282376,43.7906463 38.2282376,44.8388564 L38.2282376,50.5731315 L39.3881007,50.5731315 L39.3881007,44.7710916 C39.3881007,42.4928216 37.7597669,41.6642039 35.9814218,41.6642039 L35.9814218,41.6642039 Z M55.9446433,40.1862449 L57.0701463,40.1862449 L57.0701463,38.5367294 L55.9446433,38.5367294 L55.9446433,40.1862449 Z M55.9446433,50.5654108 L57.0701463,50.5654108 L57.0701463,41.7937289 L55.9446433,41.7937289 L55.9446433,50.5654108 Z M48.2295412,45.7669768 C48.4088842,43.8035129 47.7510139,42.6978315 45.5243114,42.6978315 C43.7049018,42.6978315 42.5157069,43.3385949 42.5157069,45.7669768 L48.2295412,45.7669768 L48.2295412,45.7669768 Z M45.5243121,41.651337 C49.3206847,41.651337 49.6232212,44.4279785 49.2075478,46.8263379 L42.5316307,46.8263379 C42.6699092,49.0977456 43.9487755,50.0558884 48.7793035,49.5292101 L48.8329388,50.5388199 C43.3294556,51.1366942 41.3474641,50.0824797 41.3474641,46.0740628 C41.3474641,43.0529534 42.5601245,41.651337 45.5243121,41.651337 L45.5243121,41.651337 Z M52.3359947,48.0829893 C52.3334805,49.2324177 53.1748841,49.6733178 54.5576688,49.6115575 L54.5576688,50.638323 C52.6896524,50.7223857 51.1954068,50.2051429 51.1937307,47.926873 L51.1937307,38.0392157 L52.3359947,38.0392157 L52.3359947,48.0829893 L52.3359947,48.0829893 Z" id="Fill-6" fill="#FEFEFE"></path>
                            <path d="M52.5877863,54.5228758 L51.7487123,54.5710962 L51.4834567,55.792134 C51.1640672,55.7798746 51.0630175,55.7708843 50.6858853,55.7708843 C49.5075728,55.7708843 48.4772261,56.219579 48.2074593,57.2730714 C47.9602483,58.2235848 48.5566224,58.9607843 49.8549314,58.9607843 C51.1857208,58.9607843 51.7649524,58.3322849 51.9715631,57.4471551 L52.5877863,54.5228758 Z M51.3463177,56.3045775 L51.0711375,57.5509515 C50.9502387,58.057674 50.6137069,58.393582 49.9280121,58.393582 C49.1385608,58.393582 48.9310478,57.9514258 49.104276,57.3278301 C49.3469759,56.4443349 50.1445473,56.1811661 51.3463177,56.3045775 L51.3463177,56.3045775 Z" id="Fill-8" fill="#FEFEFE"></path>
                            <path d="M44.1924,56.9453696 C43.053613,56.845672 42.0760775,56.9371977 42.0593675,57.3147412 C42.0359735,57.8818736 43.9342303,57.3866542 43.8974683,58.4302106 C43.8448318,59.963266 41.2038151,59.6110555 40.5496183,59.4157462 L40.6674239,58.9613865 C41.7953494,59.1370832 42.9842664,59.1509755 43.0101669,58.5421662 C43.0385739,57.8965831 41.1302911,58.4776078 41.1754081,57.4307827 C41.2088281,56.6519971 42.4002517,56.2311423 44.351145,56.512257 L44.1924,56.9453696 Z" id="Fill-10" fill="#FEFEFE"></path>
                            <path d="M46.6194652,56.4248366 C45.5085609,56.4248366 44.6142584,57.0623971 44.3968362,58.01021 C44.1753117,58.9596473 44.7734278,59.5947712 45.8843321,59.5947712 C46.9952363,59.5947712 47.8887184,58.9596473 48.1077815,58.01021 C48.3268446,57.0623971 47.7303695,56.4248366 46.6194652,56.4248366 M47.2643475,58.01021 C47.1043576,58.6461462 46.5948513,59.0457383 45.9877101,59.0457383 C45.3534938,59.0457383 45.0671529,58.6810699 45.2361678,58.01021 C45.40026,57.3734617 45.9155096,56.9478799 46.5210098,56.9478799 C47.1265101,56.9478799 47.4259784,57.3734617 47.2643475,58.01021" id="Fill-12" fill="#FEFEFE"></path>
                            <path d="M59.5572519,59.5947712 L58.5080627,59.5947712 C57.8710549,59.0424029 56.6514616,57.7703069 55.7557252,56.4248366 L56.5274503,56.4248366 C57.3776861,57.5114358 59.5572519,59.5947712 59.5572519,59.5947712" id="Fill-14" fill="#FEFEFE"></path>
                            <polygon id="Fill-16" fill="#FEFEFE" points="60.3775891 52.9582485 60.874791 51.9869281 61.0163235 52.9763476 62.0318653 52.6419445 61.3214456 53.4960514 62.0916031 54.0536772 61.0641137 54.1286594 61.0089712 55.1568627 60.4373268 54.3975608 59.5982412 55.1223882 59.9125537 54.1010797 58.9236641 53.9735239 59.8877395 53.460715 59.4916323 52.5790285"></polygon>
                            <path d="M61.8252886,56.4248366 C60.7149642,56.4248366 59.8233157,57.0609037 59.6022191,58.0082038 C59.3827364,58.9571039 59.9806654,59.5947712 61.0909898,59.5947712 C62.2005072,59.5947712 63.0929627,58.9571039 63.3140593,58.0082038 C63.5327351,57.0609037 62.9356129,56.4248366 61.8252886,56.4248366 M62.470826,58.0082037 C62.3094416,58.6466711 61.8018878,59.0459132 61.1942757,59.0459132 C60.5608421,59.0459132 60.2743849,58.6802746 60.4454523,58.0082037 C60.6060298,57.3729367 61.1224597,56.9448915 61.727651,56.9448915 C62.3336493,56.9448915 62.6322103,57.3729367 62.470826,58.0082037" id="Fill-18" fill="#FEFEFE"></path>
                            <path d="M55.1221374,58.9607843 C56.9077447,57.9787157 58.457305,56.464959 59.5572519,55.1568627 C58.767217,57.6136285 56.8627834,58.9360732 55.1221374,58.9607843" id="Fill-20" fill="#FEFEFE"></path>
                            <path d="M55.7557252,57.2044585 C55.7557252,56.7556812 55.3486113,56.4248366 54.4247415,56.4248366 C52.9274972,56.4248366 51.9541985,57.2812334 51.9541985,58.3410443 C51.9541985,59.0264783 52.5985707,59.5947712 53.7776731,59.5947712 C54.5910021,59.5947712 55.1338206,59.2409733 55.1338206,59.2409733 C54.0994099,59.3391186 52.8295382,59.2409733 52.8295382,58.2690183 C52.8295382,58.2294436 52.8313356,58.1898689 52.8349304,58.1518771 C54.2441016,58.4106958 55.7557252,58.0980555 55.7557252,57.2044585 M54.3420605,56.8823203 C54.725808,56.8823203 54.9334092,57.0050019 54.9334092,57.2384927 C54.9334092,57.8590242 53.561085,57.8178665 52.9544584,57.7094318 C53.166553,57.2448247 53.6473607,56.8823203 54.3420605,56.8823203" id="Fill-22" fill="#FEFEFE"></path>
                            <path d="M21.5454588,56.8172102 C20.8480346,56.8172102 20.7438118,57.3804297 20.7438118,57.9452842 C20.7438118,58.5085037 20.8480346,59.0733582 21.5454588,59.0733582 C22.2428831,59.0733582 22.3401577,58.5085037 22.3401577,57.9452842 C22.3401577,57.3804297 22.2428831,56.8172102 21.5454588,56.8172102 M21.4733714,60.8627451 C20.9913409,60.8627451 20.7247043,60.7466679 20.3859801,60.4581099 L20.6925689,60.1760914 C20.9262017,60.3730956 21.0894841,60.4769111 21.4603435,60.4769111 C22.0796007,60.4769111 22.3401577,60.0665537 22.3401577,59.5515634 L22.3401577,59.0790803 C22.0796007,59.3913442 21.7860398,59.4714538 21.441236,59.4714538 C21.1155398,59.4714538 20.8358752,59.3610988 20.6656447,59.201697 C20.3468966,58.9016947 20.2748092,58.4349337 20.2748092,57.9452842 C20.2748092,57.4539998 20.3468966,56.9888736 20.6656447,56.6888713 C20.8358752,56.5286521 21.122488,56.4248366 21.4481842,56.4248366 C21.7990676,56.4248366 22.0856804,56.4975892 22.3462374,56.8172102 L22.3462374,56.4608042 L22.8091603,56.4608042 L22.8091603,59.5695472 C22.8091603,60.3175093 22.314102,60.8627451 21.4733714,60.8627451" id="Fill-24" fill="#FEFEFE"></path>
                            <path d="M25.67035,57.0613697 C25.5142711,56.8899301 25.3975982,56.8322178 25.1773878,56.8322178 C24.7601471,56.8322178 24.4943493,57.1946172 24.4943493,57.6724414 L24.4943493,59.5947712 L24.0763359,59.5947712 L24.0763359,56.4630286 L24.4943493,56.4630286 L24.4943493,56.8449484 C24.6512009,56.5843942 24.9633588,56.4248366 25.2940607,56.4248366 C25.5660398,56.4248366 25.7746602,56.4952796 25.9770992,56.7176418 L25.67035,57.0613697 Z" id="Fill-26" fill="#FEFEFE"></path>
                            <path d="M27.8112466,57.0537919 C27.6666667,56.9087129 27.4649273,56.827368 27.2438545,56.827368 C27.0236223,56.827368 26.827767,56.9087129 26.6831871,57.0537919 C26.4562303,57.2810544 26.4310129,57.6642978 26.4310129,58.009804 C26.4310129,58.3561487 26.4562303,58.7393921 26.6831871,58.965816 C26.827767,59.1100564 27.0236223,59.1922399 27.2438545,59.1922399 C27.4649273,59.1922399 27.6666667,59.1100564 27.8112466,58.965816 C28.039044,58.7393921 28.0575367,58.3561487 28.0575367,58.009804 C28.0575367,57.6642978 28.039044,57.2810544 27.8112466,57.0537919 M28.133189,59.2425563 C27.9188409,59.4564011 27.6221159,59.5947712 27.2438545,59.5947712 C26.8664337,59.5947712 26.5697087,59.4564011 26.3553606,59.2425563 C26.0409834,58.9222084 25.9770992,58.4878099 25.9770992,58.0098039 C25.9770992,57.5317979 26.0409834,57.0982381 26.3553606,56.7770516 C26.5697087,56.5632068 26.8664337,56.4248366 27.2438545,56.4248366 C27.6221159,56.4248366 27.9188409,56.5632068 28.133189,56.7770516 C28.4484068,57.0982381 28.5114504,57.5317979 28.5114504,58.0098039 C28.5114504,58.4878099 28.4484068,58.9222084 28.133189,59.2425563" id="Fill-28" fill="#FEFEFE"></path>
                            <path d="M31.2146272,59.5565793 L31.2146272,59.2060617 C30.9857406,59.4606749 30.6642511,59.5947712 30.3043225,59.5947712 C29.9574982,59.5947712 29.6683323,59.492926 29.4717694,59.3011173 C29.2428828,59.0846961 29.1450382,58.7859499 29.1450382,58.4235504 L29.1450382,56.4248366 L29.6159155,56.4248366 L29.6159155,58.3531074 C29.6159155,58.9064668 29.917312,59.1865414 30.4021672,59.1865414 C30.8870224,59.1865414 31.2076383,58.9013746 31.2076383,58.3531074 L31.2076383,56.4248366 L31.6793893,56.4248366 L31.6793893,59.5565793 L31.2146272,59.5565793 Z" id="Fill-30" fill="#FEFEFE"></path>
                            <path d="M33.583177,56.8204896 C32.8893195,56.8204896 32.7795811,57.3884167 32.7795811,57.9818963 C32.7795811,58.5762001 32.8893195,59.1441271 33.583177,59.1441271 C34.2770344,59.1441271 34.3807242,58.5762001 34.3807242,57.9818963 C34.3807242,57.3884167 34.2770344,56.8204896 33.583177,56.8204896 M34.4584916,59.2743629 C34.2891316,59.435097 34.0039847,59.5406045 33.6808182,59.5406045 C33.3300011,59.5406045 33.0388056,59.4598253 32.7795811,59.1441271 L32.7795811,60.8627451 L32.3129771,60.8627451 L32.3129771,56.4611048 L32.7795811,56.4611048 L32.7795811,56.8204897 C33.0388056,56.4981973 33.3300011,56.4248366 33.6808182,56.4248366 C34.0039847,56.4248366 34.2891316,56.5295198 34.4584916,56.6910781 C34.7825221,56.9993578 34.8473282,57.5062883 34.8473282,57.9818963 C34.8473282,58.4583285 34.7825221,58.9660832 34.4584916,59.2743629" id="Fill-32" fill="#FEFEFE"></path>
                            <path d="M37.468905,57.2741208 C37.3500942,56.9907466 37.0739846,56.8079786 36.7476733,56.8079786 C36.421362,56.8079786 36.1452524,56.9907466 36.0264416,57.2741208 C35.9569959,57.4434747 35.9444454,57.5373738 35.931895,57.7888894 L37.5634516,57.7888894 C37.5509011,57.5373738 37.5383507,57.4434747 37.468905,57.2741208 L37.468905,57.2741208 Z M35.931895,58.1292738 C35.931895,58.8083659 36.2523494,59.198215 36.8413832,59.198215 C37.1994889,59.198215 37.4069894,59.0909017 37.6513046,58.8460932 L37.9592086,59.1160533 C37.644611,59.4304477 37.3567877,59.5947712 36.8288327,59.5947712 C36.0138912,59.5947712 35.480916,59.1043159 35.480916,58.0093847 C35.480916,57.0100295 35.9628527,56.4248366 36.7476733,56.4248366 C37.5450442,56.4248366 38.0152672,57.0041608 38.0152672,57.9213543 L38.0152672,58.1292738 L35.931895,58.1292738 Z" id="Fill-34" fill="#FEFEFE"></path>
                        </g>
                    </g>
                </g>
            </g>
        </g>
    </g>
</svg>