<svg width="20px" height="20px" viewBox="0 0 20 20"  xmlns="http://www.w3.org/2000/svg" xmlns:xlink="http://www.w3.org/1999/xlink">
    <defs>
        <linearGradient x1="103.121065%" y1="1.66794542e-05%" x2="103.121065%" y2="100.001685%" id="linearGradient-1">
            <stop stop-color="#F28A0B" offset="0%"></stop>
            <stop stop-color="#E84919" offset="100%"></stop>
        </linearGradient>
    </defs>
    <g id="amelis-logo-symbol" fill="none" fill-rule="evenodd">
        <path d="M7.98543129,0.752576976 C5.05487986,2.23871635 2.56270807,3.62678053 1.08078711,4.58451479 C0.071195491,5.23768222 0,5.43516696 0,6.46462288 L0,18.7974113 C0,19.6991026 0.252809915,20 1.16384851,20 L5.73815881,20 C8.06717426,20 8.6331125,19.4222237 8.86054254,17.9984655 C9.05237483,16.7928745 8.72705099,16.4432732 7.58495666,15.9198719 C5.65213092,15.0318578 3.12765747,13.5123595 3.12765747,11.0508056 C3.12765747,7.96844247 6.77313029,5.42282417 10.0006592,5.37845682 C13.2275289,5.42282417 16.8739906,7.96844247 16.8739906,11.0508056 C16.8739906,13.5123595 14.3478691,15.0318578 12.4150433,15.9198719 C11.2726194,16.4432732 10.9479548,16.7928745 11.1391279,17.9984655 C11.3668875,19.4222237 11.9331553,20 14.26283,20 L18.8368107,20 C19.7471901,20 20,19.6991026 20,18.7974113 L20,6.46462288 C20,5.43516696 19.9304526,5.23768222 18.9185537,4.58451479 C17.4379512,3.62678053 14.9464386,2.23871635 12.0155575,0.752576976 C11.3052507,0.391299997 10.6641616,0.00300230176 10.0006592,0 C9.33649758,0.00300230176 8.69639738,0.391299997 7.98543129,0.752576976 Z" id="Shape" fill="url(#linearGradient-1)" fill-rule="nonzero"></path>
    </g>
</svg>