<svg width="199px" height="96px" viewBox="0 0 199 96" xmlns="http://www.w3.org/2000/svg" xmlns:xlink="http://www.w3.org/1999/xlink" style="background:0 0" preserveAspectRatio="xMidYMid meet"> <defs> <path id="b" d="M0 0h1366v96H0z"/> <filter x="-.7%" y="-6.2%" width="101.3%" height="118.8%" filterUnits="objectBoundingBox" id="a"> <feOffset dy="1" in="SourceAlpha" result="shadowOffsetOuter1"/> <feGaussianBlur stdDeviation="1.5" in="shadowOffsetOuter1" result="shadowBlurOuter1"/> <feColorMatrix values="0 0 0 0 0 0 0 0 0 0 0 0 0 0 0 0 0 0 0.2 0" in="shadowBlurOuter1" result="shadowMatrixOuter1"/> <feOffset dy="2" in="SourceAlpha" result="shadowOffsetOuter2"/> <feGaussianBlur stdDeviation="1" in="shadowOffsetOuter2" result="shadowBlurOuter2"/> <feColorMatrix values="0 0 0 0 0 0 0 0 0 0 0 0 0 0 0 0 0 0 0.12 0" in="shadowBlurOuter2" result="shadowMatrixOuter2"/> <feOffset in="SourceAlpha" result="shadowOffsetOuter3"/> <feGaussianBlur stdDeviation="1" in="shadowOffsetOuter3" result="shadowBlurOuter3"/> <feColorMatrix values="0 0 0 0 0 0 0 0 0 0 0 0 0 0 0 0 0 0 0.14 0" in="shadowBlurOuter3" result="shadowMatrixOuter3"/> <feMerge> <feMergeNode in="shadowMatrixOuter1"/> <feMergeNode in="shadowMatrixOuter2"/> <feMergeNode in="shadowMatrixOuter3"/> </feMerge> </filter> <linearGradient x1="103.1211%" y1="0%" x2="103.1211%" y2="100.0017%" id="c"> <stop stop-color="#E87400" offset="0%"/> <stop stop-color="#DC3B05" offset="100%"/> </linearGradient> </defs> <g fill="none" fill-rule="evenodd"> <g fill="transparent" transform="translate(-128)"> <use filter="url(#a)" xlink:href="#b"/> <use xlink:href="#b"/> </g> <path fill-opacity="0" fill="#D8D8D8" d="M-52 0h1215v96H-52z"/> <path fill-opacity="0" fill="#D8D8D8" d="M0 0h199v96H0z"/> <g fill-rule="nonzero"> <path d="M17.0174 1.5706C10.7722 4.6721 5.4613 7.5689 2.3032 9.5676.1517 10.9309 0 11.343 0 13.4915v25.738c0 1.8818.5388 2.5097 2.4802 2.5097h9.7481c4.9633 0 6.1693-1.2058 6.654-4.177.4088-2.5161-.2845-3.2457-2.7183-4.338-4.119-1.8533-9.4988-5.0244-9.4988-10.1615 0-6.4328 7.7687-11.7454 14.6467-11.838 6.8767.0926 14.6475 5.4052 14.6475 11.838 0 5.1371-5.3833 8.3082-9.5023 10.1615-2.4345 1.0923-3.1264 1.8219-2.719 4.338.4854 2.9712 1.6921 4.177 6.6568 4.177h9.7474c1.94 0 2.4788-.628 2.4788-2.5097v-25.738c0-2.1484-.1482-2.5606-2.3046-3.9237-3.1553-1.9988-8.4648-4.8956-14.7107-7.9971C24.0921.8166 22.7259.0063 21.3119 0c-1.4153.0063-2.7794.8166-4.2945 1.5706z" fill="url(#c)" transform="translate(16 16)"/> <path d="M150.4025 52.2436c-.0063 2.3956 1.88 3.3151 4.983 3.1863v2.1406c-4.1897.176-7.5407-.9034-7.5443-5.6528V31.3043h2.5613v20.9393zm-15.2743-13.409c8.5141 0 9.1904 5.789 8.2596 10.7894h-14.9702c.3098 4.7352 3.1781 6.7328 14.009 5.6338l.1219 2.1056c-12.3423 1.2453-16.7865-.952-16.7865-9.308 0-6.299 2.7201-9.2208 9.3662-9.2208zm6.0676 8.58c.4013-4.0924-1.074-6.399-6.0676-6.399-4.079 0-6.746 1.3358-6.746 6.399h12.8136zm17.2983 10.004h2.5237V39.1322h-2.5237v18.2866zm0-21.6394h2.5237v-3.4393h-2.5237v3.4393zm-44.763 3.0817c-3.5184 0-5.4105 1.1145-6.817 2.5724-1.408-1.458-3.1568-2.5724-6.8198-2.5724-6.0555 0-7.6683 3.3846-7.6683 6.4771v12.0955h2.6265V45.479c0-3.1188 2.1594-4.46 5.3566-4.46 2.5705 0 5.1247 1.5247 5.1417 4.1146v12.3h2.7251V45.1673c0-.0115-.0007-.0223-.0007-.0338.0206-2.5899 2.572-4.1146 5.1425-4.1146 4.2372 0 5.3502 2.275 5.3502 4.46v11.9545h2.601V45.338c0-4.75-3.6502-6.4771-7.6379-6.4771zM86.364 53.1456c0 2.1021.7542 2.3133 2.1437 2.3133l-.0305 2.0191c-2.3699.226-3.6077-.4897-4.2095-1.951-1.3243 1.3054-3.8686 2.2121-6.4845 2.2121-4.934 0-9.2173-2.565-9.2173-9.4866 0-6.6472 4.0706-9.4226 11.057-9.4226 2.0998 0 4.4271.2604 6.741.6098v13.7059zm-2.5685-11.6638c-7.5627-.9404-12.6732-.1868-12.6732 6.712 0 4.47 2.0161 7.28 7.0374 7.28 2.7321 0 4.771-1.234 5.6358-2.4254V41.4818zm82.3357 15.2818c2.226.5815 5.2325.8494 7.0898.8494 5.6345 0 9.0011-1.493 9.0011-5.3532 0-3.5108-1.8105-4.7157-7.2968-5.1077-5.3857-.3865-6.5689-.3029-6.5689-2.9974 0-2.237 1.4221-3.0216 5.8805-3.0216 2.5145 0 4.311.1443 6.4582.514l.3488-2.0677s-2.9342-.6571-6.7623-.6571c-6.257 0-8.4503 1.8228-8.4503 5.2324 0 4.253 2.5783 4.7602 8.0058 5.0686 4.9893.282 5.8592 1.0402 5.8592 3.048 0 2.3814-1.6788 3.1525-6.449 3.1525-2.2246 0-4.71-.3906-6.7355-.8183l-.3806 2.1581z" fill="#434E59"/> <path d="M154.2638 71.3887l-.5285 2.7357c-.2322 1.1117-.8792 1.85-2.198 1.85-1.517 0-1.9154-.971-1.5837-2.34.4684-1.9399 2.001-2.5157 4.3102-2.2457zm2.3858-3.9104l-1.6112.1055-.5096 2.6803c-.6156-.0264-.8092-.0454-1.534-.0454-2.2647 0-4.2436.9839-4.765 3.2967-.4729 2.0855.6725 3.702 3.1682 3.702 2.557 0 3.6705-1.377 4.0682-3.321l1.1834-6.4181zM137.8236 71.4034c-2.5531-.2199-4.7458-.017-4.7826.8097-.0523 1.2461 4.2053.1583 4.1212 2.449-.1187 3.3648-6.0397 2.5903-7.506 2.1627l.2657-.9978c2.527.385 5.1931.416 5.2518-.9187.0629-1.4173-4.2158-.1427-4.1155-2.4408.0749-1.7088 2.7481-2.6309 7.1222-2.0153l-.3568.9512zM144.7137 73.7408c-.3609 1.3958-1.5025 2.2704-2.8633 2.2704-1.422 0-2.0632-.7993-1.6836-2.2704.3657-1.3977 1.5212-2.3323 2.88-2.3323 1.3574 0 2.0284.9346 1.6669 2.3323m-1.4476-3.48c-2.4907 0-4.4955 1.3998-4.9834 3.48-.4962 2.0829.8446 3.4766 3.3359 3.4766 2.4906 0 4.494-1.3937 4.9854-3.4766.4913-2.0802-.8473-3.48-3.338-3.48M173.698 77.2174h-2.352c-1.4297-1.213-4.1636-4.0042-6.1722-6.9565h1.7278c1.9067 2.383 6.7964 6.9565 6.7964 6.9565M175.538 62.6541l1.114-2.1324.318 2.1717 2.2771-.7341-1.5914 1.8734 1.7251 1.2257-2.3028.1633-.1251 2.2566-1.2797-1.6666-1.8822 1.5902.7044-2.2408-2.2181-.2797 2.1605-1.1265-.887-1.9326 1.9871.8318z" fill="#2D2E87"/> <path d="M178.8113 73.7365c-.3625 1.4-1.5011 2.2769-2.863 2.2769-1.4199 0-2.063-.802-1.6793-2.277.3598-1.3947 1.5189-2.3338 2.8746-2.3338 1.3598 0 2.0288.9391 1.6677 2.3339m-1.4479-3.4756c-2.4896 0-4.4903 1.3954-4.9853 3.4756-.4921 2.0815.8486 3.4809 3.3395 3.4809 2.4875 0 4.4883-1.3994 4.9832-3.481.4915-2.0801-.8465-3.4755-3.3374-3.4755" fill="#2D2E87"/> <path d="M163.753 75.826c4.0035-2.157 7.4785-5.4774 9.945-8.3477-1.7718 5.391-6.042 8.2937-9.945 8.3471" fill="#E30613"/> <path d="M162.004 71.2642c.8597 0 1.325.2694 1.325.7825 0 1.3618-3.0771 1.2727-4.4363 1.0335.4759-1.0197 1.5553-1.816 3.1113-1.816m3.169.7078c0-.9857-.9137-1.7111-2.9835-1.7111-3.3583 0-5.54 1.8782-5.54 4.206 0 1.504 1.4466 2.7505 4.0896 2.7505 1.8228 0 3.039-.7753 3.039-.7753-2.3168.215-5.1643 0-5.1643-2.1345 0-.0858.0038-.1717.0106-.2555 3.1614.5675 6.5494-.1193 6.5494-2.0801M88.3026 80c-1.081 0-1.68-.2558-2.4398-.8878l.6864-.6191c.5262.431.8914.659 1.724.659 1.3882 0 1.9724-.9006 1.9724-2.0306v-1.036c-.5842.6862-1.242.8607-2.0157.8607-.7305 0-1.3588-.2415-1.7388-.592-.7157-.6584-.8767-1.6808-.8767-2.7574 0-1.0759.161-2.0983.8767-2.7567.38-.3505 1.0223-.5792 1.7527-.5792.7893 0 1.4323.1617 2.0165.8614v-.7802h1.037v6.8193c0 1.6416-1.1105 2.8386-2.9947 2.8386m.161-8.8777c-1.5631 0-1.7976 1.2369-1.7976 2.4745 0 1.2376.2345 2.4752 1.7976 2.4752 1.563 0 1.782-1.2376 1.782-2.4752s-.219-2.4745-1.782-2.4745M96.2912 71.6578c-.351-.3773-.6105-.5031-1.1046-.5031-.9353 0-1.5334.7961-1.5334 1.8445v4.2182h-.9353v-6.873h.9353v.8384c.351-.5727 1.053-.922 1.7935-.922.6105 0 1.0785.154 1.5334.6423l-.689.7547zM101.8146 76.4446c-.4807.4694-1.1448.7728-1.9931.7728s-1.5125-.3034-1.9931-.7728c-.7068-.704-.8483-1.6567-.8483-2.7051 0-1.0492.1415-2.001.8483-2.7058.4806-.4694 1.1448-.7728 1.993-.7728.8484 0 1.5125.3034 1.9932.7728.7068.7047.8483 1.6566.8483 2.7058 0 1.0484-.1415 2.001-.8483 2.7051m-.721-4.8034c-.325-.318-.7772-.4971-1.2721-.4971-.495 0-.933.1791-1.258.4971-.509.4971-.5652 1.3387-.5652 2.0983 0 .7589.0562 1.6011.5653 2.0976.325.318.763.4971 1.2579.4971s.9471-.1791 1.272-.4971c.5085-.4965.5511-1.3387.5511-2.0976 0-.7596-.0426-1.6012-.551-2.0983M108.724 77.1338v-.768c-.5133.5586-1.2335.8516-2.041.8516-.7785 0-1.4249-.2235-1.8659-.6423-.5134-.475-.7335-1.132-.7335-1.9281v-4.3861h1.057v4.2322c0 1.2156.6752 1.8305 1.7626 1.8305 1.0859 0 1.8061-.6282 1.8061-1.8305v-4.2322h1.057v6.8729h-1.0422zM115.998 76.5135c-.3787.3534-1.0175.5833-1.7433.5833-.7857 0-1.4399-.176-2.021-.8679V80h-1.0466v-9.658h1.0466v.7868c.5811-.7049 1.2353-.868 2.021-.868.7258 0 1.3646.2307 1.7432.5834.7258.6776.872 1.7904.872 2.835 0 1.0439-.1462 2.1567-.872 2.8343m-1.9625-5.3847c-1.5546 0-1.8017 1.2479-1.8017 2.5504 0 1.3018.247 2.5497 1.8017 2.5497 1.5554 0 1.7878-1.2479 1.7878-2.5497 0-1.3025-.2324-2.5504-1.7878-2.5504M119.3032 74.002c0 1.4907.7168 2.346 2.0386 2.346.8024 0 1.2666-.2346 1.815-.7734l.69.5943c-.7041.6902-1.3509 1.0485-2.5326 1.0485-1.8292 0-3.0236-1.0762-3.0236-3.478 0-2.1947 1.082-3.4785 2.8403-3.4785 1.7868 0 2.8425 1.2699 2.8425 3.2849v.4561h-4.6702zm3.4453-1.8775c-.2667-.6215-.8859-1.0221-1.6176-1.0221-.731 0-1.35.4006-1.6168 1.022-.1543.373-.1833.5791-.211 1.1318h3.6577c-.029-.5527-.0566-.7589-.2123-1.1317z" fill="#2D2E87" /> </g> </g> </svg>