<?xml version="1.0" encoding="UTF-8"?>
<svg width="131px" height="153px" viewBox="0 0 131 153" version="1.1" xmlns="http://www.w3.org/2000/svg" xmlns:xlink="http://www.w3.org/1999/xlink">
    <!-- Generator: sketchtool 56 (101010) - https://sketch.com -->
    <title>4703F2AE-2339-42DD-8B2F-E7D529E6DA65</title>
    <desc>Created with sketchtool.</desc>
    <g id="PAGES" stroke="none" stroke-width="1" fill="none" fill-rule="evenodd">
        <g id="HOMEPAGE" transform="translate(-75.000000, 0.000000)">
            <g id="04-Organisms/Header1">
                <g id="HEADER">
                    <g id="01-Electrons/Logo1" transform="translate(75.000000, 0.000000)">
                        <g id="logo">
                            <path d="M130.205531,0.590713043 L0.000793939394,0.590713043 L0.000793939394,147.18467 C0.000793939394,147.18467 0.000793939394,153.836843 6.55211717,152.912191 L130.205531,135.43693 L130.205531,0.590713043 Z" id="Fill-1" fill="#F26532"></path>
                            <path d="M62.9785068,27.128747 C64.0439911,26.5862587 65.0046306,26.0039791 66.0019658,26 C66.9953694,26.0039791 67.9573195,26.5862587 69.0228037,27.128747 C73.4197283,29.3583871 77.1561312,31.439473 79.3775283,32.8759395 C80.8951553,33.8561323 81,34.1519144 81,35.6958175 L81,54.1948006 C81,55.5477054 80.619938,56 79.2556463,56 L72.3935608,56 C68.8996112,56 68.0490586,55.1325493 67.7083133,52.997082 C67.4226115,51.1892298 67.9088288,50.6639844 69.6217291,49.8787691 C72.520685,48.5470864 76.3108208,46.2683703 76.3108208,42.5757361 C76.3108208,37.9519851 70.8405487,34.1333451 66.0019658,34.0670263 C61.1594513,34.1333451 55.6904897,37.9519851 55.6904897,42.5757361 C55.6904897,46.2683703 59.4780045,48.5470864 62.3782709,49.8787691 C64.0911712,50.6639844 64.5786991,51.1892298 64.2903761,52.997082 C63.9496309,55.1325493 63.1016994,56 59.6077498,56 L52.7456642,56 C51.3787515,56 51,55.5477054 51,54.1948006 L51,35.6958175 C51,34.1519144 51.1061553,33.8561323 52.6224717,32.8759395 C54.8438688,31.439473 58.5828928,29.3583871 62.9785068,27.128747" id="Fill-4" fill="#FEFEFE"></path>
                            <path d="M93.673655,79.2626167 C95.2410635,79.7023407 97.3560729,79.9052902 98.662908,79.9052902 C102.629708,79.9052902 105,78.7755378 105,75.8544175 C105,73.1984846 103.726233,72.2865647 99.8639265,71.9902584 C96.0717238,71.6980111 95.2397407,71.7616019 95.2397407,69.7226356 C95.2397407,68.0300365 96.2397077,67.4360709 99.3784928,67.4360709 C101.148276,67.4360709 102.412784,67.5456636 103.924639,67.825734 L104.170662,66.2616696 C104.170662,66.2616696 102.104593,65.7637667 99.4102378,65.7637667 C95.0069442,65.7637667 93.4620218,67.1424706 93.4620218,69.7226356 C93.4620218,72.9400622 95.2780993,73.3243134 99.0980788,73.5570288 C102.609867,73.7708023 103.222281,74.344473 103.222281,75.8638885 C103.222281,77.6647274 102.03978,78.247869 98.6827486,78.247869 C97.1166628,78.247869 95.3667207,77.9529157 93.9408419,77.6295495 L93.673655,79.2626167 Z M35.720545,67.7012583 C30.3966469,66.9895819 26.7988823,67.5591936 26.7988823,72.7790556 C26.7988823,76.1615478 28.2194703,78.2857529 31.7537449,78.2857529 C33.6769617,78.2857529 35.1120995,77.3521851 35.720545,76.4510892 L35.720545,67.7012583 Z M37.5273635,76.525504 C37.5273635,78.1152753 38.0577693,78.274929 39.0365729,78.274929 L39.0154095,79.8024625 C37.3474753,79.9742931 36.475811,79.4317413 36.0525446,78.3276958 C35.118713,79.3140306 33.3290896,80 31.4878807,80 C28.0144506,80 25,78.0598025 25,72.8237045 C25,67.7932621 27.8649846,65.6934109 32.7828114,65.6934109 C34.2602758,65.6934109 35.8977878,65.8909485 37.5273635,66.1547828 L37.5273635,76.525504 L37.5273635,76.525504 Z M56.789954,65.7177648 C54.3138454,65.7177648 52.9818789,66.5606819 51.9911709,67.6633744 C51.0004629,66.5606819 49.7703449,65.7177648 47.1910651,65.7177648 C42.930624,65.7177648 41.7944182,68.277635 41.7944182,70.6183196 L41.7944182,79.7699905 L43.6435634,79.7699905 L43.6435634,70.7252063 C43.6435634,68.3655798 45.1633544,67.3508321 47.41328,67.3508321 C49.2240667,67.3508321 51.0203036,68.5035854 51.0335306,70.4640779 L51.0335306,70.4884319 L51.0335306,79.7699905 L52.9514566,79.7699905 L52.9514566,70.4884319 C52.9514566,70.4803139 52.9501339,70.4721959 52.9501339,70.4640779 C52.9646837,68.5035854 54.7609206,67.3508321 56.5690619,67.3508321 C59.5517675,67.3508321 60.3361331,69.0718441 60.3361331,70.7252063 L60.3361331,79.7699905 L62.1667604,79.7699905 L62.1667604,70.6183196 C62.1667604,67.0247598 59.5967395,65.7177648 56.789954,65.7177648 L56.789954,65.7177648 Z M88.2981714,63.3865512 L90.0745676,63.3865512 L90.0745676,60.7847382 L88.2981714,60.7847382 L88.2981714,63.3865512 Z M88.2981714,79.7578136 L90.0745676,79.7578136 L90.0745676,65.9220674 L88.2981714,65.9220674 L88.2981714,79.7578136 Z M76.1213254,72.189149 C76.4043848,69.0921391 75.3660593,67.3481261 71.8516253,67.3481261 C68.9800271,67.3481261 67.1031051,68.3588148 67.1031051,72.189149 L76.1213254,72.189149 L76.1213254,72.189149 Z M71.8516253,65.6974699 C77.8434906,65.6974699 78.3209881,70.0771208 77.6649251,73.8601001 L67.1282365,73.8601001 C67.3464833,77.4428359 69.364935,78.9541334 76.9890215,78.1233933 L77.0736748,79.7158707 C68.3874541,80.6589095 65.2592507,78.9960763 65.2592507,72.6735219 C65.2592507,67.9082668 67.1732086,65.6974699 71.8516253,65.6974699 L71.8516253,65.6974699 Z M82.6025925,75.8422406 C82.5986244,77.6552564 83.9266228,78.3506968 86.1090903,78.253281 L86.1090903,79.8728183 C83.1607751,80.005412 80.8023875,79.1895549 80.7997421,75.5959951 L80.7997421,60 L82.6025925,60 L82.6025925,75.8422406 L82.6025925,75.8422406 Z" id="Fill-6" fill="#FEFEFE"></path>
                            <path d="M83,86 L81.6756785,86.0760589 L81.257022,88.0020258 C80.7529254,87.9826888 80.5934372,87.9685083 79.9982045,87.9685083 C78.1384583,87.9685083 76.5122485,88.6762431 76.086472,90.3379374 C75.6962955,91.8372007 76.6375606,93 78.686699,93 C80.7871014,93 81.7013105,92.0086556 82.0274069,90.612523 L83,86 Z M81.0405737,88.8103131 L80.6062532,90.7762431 C80.415437,91.5755064 79.8842844,92.1053407 78.8020431,92.1053407 C77.5560417,92.1053407 77.2285213,91.407919 77.5019296,90.4243094 C77.8849861,89.0307551 79.1438035,88.6156538 81.0405737,88.8103131 L81.0405737,88.8103131 Z" id="Fill-8" fill="#FEFEFE"></path>
                            <path d="M69.7494505,89.8210469 C67.9520879,89.6637919 66.4092308,89.8081572 66.3828571,90.4036639 C66.3459341,91.298213 69.341978,90.5170938 69.283956,92.1631157 C69.2008791,94.581234 65.0325275,94.0256855 64,93.7176204 L64.1859341,93.0009499 C65.9661538,93.2780797 67.8426374,93.2999922 67.8835165,92.3397054 C67.9283516,91.3214146 64.9164835,92.2378763 64.9876923,90.5866985 C65.0404396,89.3583047 66.9208791,88.6944822 70,89.1378898 L69.7494505,89.8210469 Z" id="Fill-10" fill="#FEFEFE"></path>
                            <path d="M73.5801197,89 C71.8267648,89 70.4152752,90.0056367 70.0721149,91.5006405 C69.7224799,92.9982065 70.6664945,94 72.4198494,94 C74.1732044,94 75.583399,92.9982065 75.9291492,91.5006405 C76.2748994,90.0056367 75.3334747,89 73.5801197,89 M74.5979462,91.5006405 C74.345432,92.5037151 73.5412714,93.1339995 72.5830124,93.1339995 C71.5820203,93.1339995 71.1300846,92.5588009 71.3968432,91.5006405 C71.6558321,90.4962849 72.4690573,89.8250064 73.4247264,89.8250064 C74.3803955,89.8250064 74.8530503,90.4962849 74.5979462,91.5006405" id="Fill-12" fill="#FEFEFE"></path>
                            <path d="M94,94 L92.3440507,94 C91.3386529,93.1287386 89.4137526,91.1222367 88,89 L89.2180239,89 C90.5599625,90.7139142 94,94 94,94" id="Fill-14" fill="#FEFEFE"></path>
                            <polygon id="Fill-16" fill="#FEFEFE" points="95.2947491 83.5320827 96.0794894 82 96.3028721 83.5606308 97.9057151 83.0331702 96.7844502 84.3803698 98 85.2599239 96.3783 85.3781947 96.2912678 87 95.3890339 85.8023382 94.0646939 86.9456226 94.5607775 85.3346928 93 85.1334965 94.521613 84.324633 93.8964317 82.9339315"></polygon>
                            <path d="M97.5796723,89 C95.8272327,89 94.4199319,90.0032812 94.0709723,91.497476 C93.7245598,92.9941949 94.6682791,94 96.4207188,94 C98.1718849,94 99.5804592,92.9941949 99.9294188,91.497476 C100.274558,90.0032812 99.332112,89 97.5796723,89 M98.5985326,91.497476 C98.3438175,92.5045432 97.5427387,93.1342756 96.5837364,93.1342756 C95.5839798,93.1342756 95.1318605,92.5575467 95.4018585,91.497476 C95.6553,90.4954568 96.4703882,89.8202928 97.4255697,89.8202928 C98.3820248,89.8202928 98.8532477,90.4954568 98.5985326,91.497476" id="Fill-18" fill="#FEFEFE"></path>
                            <path d="M87,93 C89.8182476,91.450964 92.2639392,89.0632858 94,87 C92.7530775,90.8751048 89.7472846,92.9610226 87,93" id="Fill-20" fill="#FEFEFE"></path>
                            <path d="M88,90.2297129 C88,89.5218477 87.3574468,89 85.8992908,89 C83.5361702,89 82,90.3508115 82,92.0224719 C82,93.1036205 83.0170213,94 84.8780142,94 C86.1617021,94 87.0184397,93.4419476 87.0184397,93.4419476 C85.3858156,93.5967541 83.3815603,93.4419476 83.3815603,91.9088639 C83.3815603,91.8464419 83.3843972,91.78402 83.3900709,91.7240949 C85.6141844,92.1323346 88,91.639201 88,90.2297129 M85.7687943,89.721598 C86.3744681,89.721598 86.7021277,89.9151061 86.7021277,90.2833958 C86.7021277,91.2621723 84.5361702,91.1972534 83.5787234,91.0262172 C83.9134752,90.2933833 84.6723404,89.721598 85.7687943,89.721598" id="Fill-22" fill="#FEFEFE"></path>
                            <path d="M34.0054832,89.6188985 C32.9047293,89.6188985 32.740233,90.5072757 32.740233,91.3982317 C32.740233,92.286609 32.9047293,93.1775649 34.0054832,93.1775649 C35.1062371,93.1775649 35.259767,92.286609 35.259767,91.3982317 C35.259767,90.5072757 35.1062371,89.6188985 34.0054832,89.6188985 M33.8917066,96 C33.1309116,96 32.7100754,95.8169092 32.1754626,95.3617609 L32.6593557,94.9169276 C33.0281014,95.2276662 33.2858122,95.3914165 33.8711446,95.3914165 C34.8485264,95.3914165 35.259767,94.7441518 35.259767,93.9318475 L35.259767,93.1865905 C34.8485264,93.6791306 34.3851953,93.805489 33.840987,93.805489 C33.3269363,93.805489 32.885538,93.6314238 32.6168609,93.3799963 C32.1137766,92.9067968 32,92.1705655 32,91.3982317 C32,90.6233192 32.1137766,89.8896666 32.6168609,89.4164671 C32.885538,89.1637502 33.3379027,89 33.8519534,89 C34.4057574,89 34.858122,89.1147541 35.2693626,89.6188985 L35.2693626,89.0567324 L36,89.0567324 L36,93.9602137 C36,95.1399889 35.2186429,96 33.8917066,96" id="Fill-24" fill="#FEFEFE"></path>
                            <path d="M40.5158537,90.0040161 C40.2695122,89.7336011 40.0853659,89.6425703 39.7378049,89.6425703 C39.0792683,89.6425703 38.6597561,90.2141901 38.6597561,90.9678715 L38.6597561,94 L38,94 L38,89.060241 L38.6597561,89.060241 L38.6597561,89.6626506 C38.9073171,89.2516734 39.4,89 39.9219512,89 C40.3512195,89 40.6804878,89.1111111 41,89.4618474 L40.5158537,90.0040161 Z" id="Fill-26" fill="#FEFEFE"></path>
                            <path d="M43.894859,89.9920635 C43.6666667,89.7632275 43.3482587,89.6349206 42.9993367,89.6349206 C42.6517413,89.6349206 42.3426202,89.7632275 42.1144279,89.9920635 C41.7562189,90.3505291 41.7164179,90.9550265 41.7164179,91.5 C41.7164179,92.0462963 41.7562189,92.6507937 42.1144279,93.0079365 C42.3426202,93.2354497 42.6517413,93.3650794 42.9993367,93.3650794 C43.3482587,93.3650794 43.6666667,93.2354497 43.894859,93.0079365 C44.2543947,92.6507937 44.2835821,92.0462963 44.2835821,91.5 C44.2835821,90.9550265 44.2543947,90.3505291 43.894859,89.9920635 M44.4029851,93.4444444 C44.0646766,93.781746 43.5963516,94 42.9993367,94 C42.4036484,94 41.9353234,93.781746 41.5970149,93.4444444 C41.1008292,92.9391534 41,92.2539683 41,91.5 C41,90.7460317 41.1008292,90.0621693 41.5970149,89.5555556 C41.9353234,89.218254 42.4036484,89 42.9993367,89 C43.5963516,89 44.0646766,89.218254 44.4029851,89.5555556 C44.9004975,90.0621693 45,90.7460317 45,91.5 C45,92.2539683 44.9004975,92.9391534 44.4029851,93.4444444" id="Fill-28" fill="#FEFEFE"></path>
                            <path d="M49.2664598,93.939759 L49.2664598,93.3868809 C48.9052051,93.7884873 48.3977939,94 47.8297139,94 C47.2823164,94 46.8259221,93.8393574 46.5156842,93.5368139 C46.1544295,93.1954485 46,92.7242303 46,92.1526104 L46,89 L46.743192,89 L46.743192,92.0414993 C46.743192,92.914324 47.21889,93.356091 47.9841434,93.356091 C48.7493968,93.356091 49.2554292,92.9062918 49.2554292,92.0414993 L49.2554292,89 L50,89 L50,93.939759 L49.2664598,93.939759 Z" id="Fill-30" fill="#FEFEFE"></path>
                            <path d="M53.0047733,89.6240713 C51.9096488,89.6240713 51.7364473,90.5198737 51.7364473,91.4559807 C51.7364473,92.3933878 51.9096488,93.2891902 53.0047733,93.2891902 C54.0998977,93.2891902 54.2635527,92.3933878 54.2635527,91.4559807 C54.2635527,90.5198737 54.0998977,89.6240713 53.0047733,89.6240713 M54.3862939,93.4946137 C54.1189908,93.7481426 53.6689397,93.9145617 53.1588817,93.9145617 C52.6051824,93.9145617 52.1455847,93.7871471 51.7364473,93.2891902 L51.7364473,96 L51,96 L51,89.0572065 L51.7364473,89.0572065 L51.7364473,89.6240713 C52.1455847,89.1157132 52.6051824,89 53.1588817,89 C53.6689397,89 54.1189908,89.1651189 54.3862939,89.419948 C54.8977156,89.9062036 55,90.7057949 55,91.4559807 C55,92.2074666 54.8977156,93.0083581 54.3862939,93.4946137" id="Fill-32" fill="#FEFEFE"></path>
                            <path d="M59.1376692,90.3395927 C58.9501486,89.892621 58.5143612,89.6043375 57.9993397,89.6043375 C57.4843183,89.6043375 57.0485309,89.892621 56.8610102,90.3395927 C56.7514031,90.6067178 56.7315946,90.7548268 56.7117861,91.1515472 L59.2868934,91.1515472 C59.2670848,90.7548268 59.2472763,90.6067178 59.1376692,90.3395927 L59.1376692,90.3395927 Z M56.7117861,91.6884422 C56.7117861,92.7595874 57.2175636,93.3745041 58.1472433,93.3745041 C58.7124464,93.3745041 59.0399472,93.2052367 59.425553,92.8190955 L59.911522,93.2449088 C59.4149884,93.7408093 58.9607131,94 58.1274348,94 C56.8412017,94 56,93.2263951 56,91.4993388 C56,89.9230362 56.7606471,89 57.9993397,89 C59.2578409,89 60,89.9137794 60,91.3604866 L60,91.6884422 L56.7117861,91.6884422 Z" id="Fill-34" fill="#FEFEFE"></path>
                        </g>
                    </g>
                </g>
            </g>
        </g>
    </g>
</svg>