<svg xmlns="http://www.w3.org/2000/svg" viewBox="0 0 20 20"><defs><style>.a{fill:url(#a)}</style><linearGradient id="a" x1="-484.76" y1="504.47" x2="-484.76" y2="504" gradientTransform="matrix(42.62 0 0 -41.74 20671.01 21056.34)" gradientUnits="userSpaceOnUse"><stop offset="0" stop-color="#e87400"/><stop offset="1" stop-color="#dc3b05"/></linearGradient></defs><path class="a" d="M8 .75C5.05 2.24 2.56 3.63 1.08 4.58.07 5.24 0 5.44 0 6.46V18.8c0 .9.25 1.2 1.16 1.2h4.58c2.33 0 2.89-.58 3.12-2 .19-1.21-.13-1.56-1.28-2.08-1.93-.92-4.45-2.41-4.45-4.87C3.13 8 6.77 5.42 10 5.38s6.87 2.62 6.87 5.67c0 2.46-2.52 4-4.45 4.87-1.15.52-1.47.87-1.28 2.08.23 1.42.79 2 3.12 2h4.58c.91 0 1.16-.3 1.16-1.2V6.46c0-1-.07-1.22-1.08-1.88-1.48-1-4-2.34-6.9-3.83A4.88 4.88 0 0 0 10 0a4.84 4.84 0 0 0-2 .75z"/></svg>