<svg viewBox="0 0 83 97" xmlns="http://www.w3.org/2000/svg" fill-rule="evenodd" clip-rule="evenodd" stroke-linejoin="round" stroke-miterlimit="1.414"><path d="M15.23 44.343l1.334 8.856c-6.687 5.426-10.34 14.38-6.317 23.049 5.565 11.993 23.633 16.067 34.521 7.382 3.85-3.07 6.415-7.631 7.229-12.438h8.186c-1.247 10.043-8.45 19.292-18.094 23.142C25.964 100.772 4.837 91.206 1.1 73.999c-2.493-11.48 3.813-23.461 14.13-29.656zM34.755 6.286c.382-3.049 3.838-5.44 8.04-5.44 4.456 0 8.074 2.689 8.074 6.001 0 .239-.019.474-.055.706.132 1.376.031 3.024-.338 4.753-.054.25-.112.497-.174.739-.352 2.715-1.309 5.36-3.495 6.762-1.406.273-3.385-.478-4.109 0-1.433.947.049 2.153.436 3.544.611 2.191 1.716 7.066 1.716 7.066l1.241 7.108h12.292l.128-.002c1.858 0 3.367 1.449 3.367 3.234 0 1.786-1.508 3.235-3.367 3.235h-11.54c.279 1.223.63 2.183 1.059 2.354 1.333.531 19.267 7.042 21.444 9.447 2.177 2.405 8.659 24.884 9.059 26.234.399 1.35 3.39-.093 3.901 1.4 1.074 3.143-9.446 5.465-9.446 5.465l-1.581-3.777-9.786-21.102s-.671.739-2.257 1.377c-1.585.637-33.859 0-33.859 0s-.866-.17-1.505-2.478c-.64-2.308-5.04-34.72-7.35-38.572-2.037-3.396-6.994-2.837-9.217-2.045a3.669 3.669 0 1 1-2.567-5.77c1.414.027 7.374.16 9.539.498 2.463.385 6.231 3.16 7.768 5.595 1.536 2.434 4.469 9.864 4.452 10.304 1.144.44 1.065-2.133 1.065-2.133s.81-8.603 4.865-9.99c4.054-1.386 2.419-7.471 2.009-9.879-.33-1.94-.124-3.51.191-4.634z" fill="#8594a3"/></svg>