<?xml version="1.0" encoding="UTF-8"?>
<svg width="23px" height="23px" viewBox="0 0 23 23" version="1.1" xmlns="http://www.w3.org/2000/svg" xmlns:xlink="http://www.w3.org/1999/xlink">
    <!-- Generator: Sketch 51 (57462) - http://www.bohemiancoding.com/sketch -->
    <title>Component/Icons/Fi2tone-outlines/Phone-call</title>
    <desc>Created with Sketch.</desc>
    <defs></defs>
    <g id="Symbol-Instance-Sheet-[Current-Document]" stroke="none" stroke-width="1" fill="none" fill-rule="evenodd">
        <g id="Component/Icons/Fi2tone-outlines/Phone-call" transform="translate(-1.000000, -1.000000)" stroke="#434E59">
            <g id="phone-call" transform="translate(2.000000, 2.000000)">
                <path d="M19.6875,18.624375 C19.6897501,19.178721 19.4581878,19.7083278 19.0497017,20.0830857 C18.6412155,20.4578437 18.0936629,20.6430211 17.5415625,20.593125 C14.5124771,20.2639901 11.6028273,19.2289235 9.04640625,17.5710937 C6.66798706,16.0597472 4.65150277,14.0432629 3.14015625,11.6648437 C1.4765409,9.09681017 0.441239205,6.17301027 0.118125,3.1303125 C0.0683876914,2.5799212 0.252267758,2.03396723 0.624847564,1.62581448 C0.99742737,1.21766172 1.52439746,0.984895429 2.07703125,0.984375 L5.03015625,0.984375 C6.01833493,0.97464922 6.86060239,1.69899924 6.99890625,2.6775 C7.12355078,3.62256541 7.35470806,4.55049678 7.68796875,5.44359375 C7.95841102,6.16304886 7.78543671,6.97410617 7.245,7.520625 L5.99484375,8.77078125 C7.39615617,11.2352092 9.43666582,13.2757188 11.9010937,14.6770312 L13.15125,13.426875 C13.6977688,12.8864383 14.5088261,12.713464 15.2282812,12.9839062 C16.1213782,13.3171669 17.0493096,13.5483242 17.994375,13.6729687 C18.9842258,13.8126125 19.7122964,14.6719052 19.6875,15.67125 L19.6875,18.624375 Z" id="Shape" stroke-width="2"></path>
                <path d="M12.8460937,3.9375 C14.8128646,4.32122577 16.3506492,5.85901036 16.734375,7.82578125" id="Path" stroke-width="2" stroke-linecap="round" stroke-linejoin="round"></path>
                <path d="M12.8460937,0 C16.9603366,0.457059331 20.2096376,3.70227319 20.671875,7.8159375" id="Path" stroke-width="2" stroke-linecap="round" stroke-linejoin="round"></path>
            </g>
        </g>
    </g>
</svg>