<?xml version="1.0" encoding="UTF-8"?>
<svg width="44px" height="44px" viewBox="0 0 44 44" version="1.1" xmlns="http://www.w3.org/2000/svg" xmlns:xlink="http://www.w3.org/1999/xlink">
    <!-- Generator: Sketch 52.2 (67145) - http://www.bohemiancoding.com/sketch -->
    <title>question-mark</title>
    <desc>Created with Sketch.</desc>
    <g id="💚-Styles" stroke="none" stroke-width="1" fill="none" fill-rule="evenodd">
        <g id="Components" transform="translate(-1271.000000, -760.000000)" fill="#697A8C">
            <g id="question-mark" transform="translate(1271.000000, 760.000000)">
                <path d="M22,44 C34.1502645,44 44,34.1502645 44,22 C44,9.8497355 34.1502645,-5.68434189e-14 22,-5.68434189e-14 C9.8497355,-5.68434189e-14 4.54747351e-13,9.8497355 4.54747351e-13,22 C4.54747351e-13,34.1502645 9.8497355,44 22,44 Z M13,15.1596752 C13.1808036,10.4912043 16.2946429,7 22.1205357,7 C27.4241071,7 31,10.1867388 31,14.5913396 C31,17.7171854 29.4330357,19.9296346 26.78125,21.5331529 C24.1897321,23.0757781 23.4464286,24.1515562 23.4464286,26.2016238 L23.4464286,27.4194858 L19.2879464,27.4194858 L19.2678571,25.8768606 C19.1674107,22.9539919 20.3928571,21.1271989 23.1450893,19.4627876 C25.5758929,17.9810555 26.4397321,16.8240866 26.4397321,14.7740189 C26.4397321,12.541272 24.6517857,10.917456 21.8995536,10.917456 C19.1272321,10.917456 17.3392857,12.5615697 17.1584821,15.1596752 L13,15.1596752 Z M21.6183036,37 C19.7700893,37 18.5044643,35.7618403 18.5044643,33.9147497 C18.5044643,32.0270636 19.7700893,30.7889039 21.6183036,30.7889039 C23.4665179,30.7889039 24.7120536,32.0270636 24.7120536,33.9147497 C24.7120536,35.7618403 23.4665179,37 21.6183036,37 Z"></path>
            </g>
        </g>
    </g>
</svg>