<svg width="44" height="44" xmlns="http://www.w3.org/2000/svg"><path d="M22 44c12.1503 0 22-9.8497 22-22S34.1503 0 22 0 0 9.8497 0 22s9.8497 22 22 22zm-9-28.8403C13.1808 10.4912 16.2946 7 22.1205 7 27.4241 7 31 10.1867 31 14.5913c0 3.1259-1.567 5.3383-4.2188 6.9419-2.5915 1.5426-3.3348 2.6184-3.3348 4.6684v1.2179H19.288l-.02-1.5426c-.1005-2.923 1.125-4.7497 3.8772-6.4141 2.4308-1.4817 3.2946-2.6387 3.2946-4.6888 0-2.2327-1.788-3.8565-4.5401-3.8565-2.7724 0-4.5603 1.644-4.7411 4.2422H13zM21.6183 37c-1.8482 0-3.1138-1.2382-3.1138-3.0853 0-1.8876 1.2656-3.1258 3.1138-3.1258 1.8482 0 3.0938 1.2382 3.0938 3.1258 0 1.8471-1.2456 3.0853-3.0938 3.0853z" fill="#697A8C" fill-rule="evenodd"/></svg>