<svg width="51" height="51" xmlns="http://www.w3.org/2000/svg"><path d="M25.4195 50.839C11.3807 50.839 0 39.4581 0 25.4194 0 11.3807 11.3807 0 25.4195 0c14.0387 0 25.4194 11.3807 25.4194 25.4195 0 14.0387-11.3807 25.4194-25.4194 25.4194zm0-4c11.8296 0 21.4194-9.5899 21.4194-21.4195C46.839 13.5898 37.2491 4 25.4195 4 13.5898 4 4 13.5898 4 25.4195c0 11.8296 9.5898 21.4194 21.4195 21.4194zm0-2C14.6944 44.839 6 36.1444 6 25.4194 6 14.6944 14.6944 6 25.4195 6c10.725 0 19.4194 8.6944 19.4194 19.4195 0 10.725-8.6944 19.4194-19.4194 19.4194zM23.52 28.576h2.928v-1.968c.544-.096 1.072-.268 1.584-.516s.968-.576 1.368-.984c.4-.408.716-.888.948-1.44.232-.552.348-1.18.348-1.884 0-.72-.128-1.376-.384-1.968-.256-.592-.616-1.1-1.08-1.524-.464-.424-1.024-.752-1.68-.984-.656-.232-1.392-.348-2.208-.348-.8 0-1.504.108-2.112.324-.608.216-1.128.504-1.56.864-.432.36-.784.772-1.056 1.236-.272.464-.48.944-.624 1.44l2.568 1.056c.176-.672.484-1.22.924-1.644.44-.424 1.02-.636 1.74-.636.672 0 1.208.184 1.608.552.4.368.6.888.6 1.56v.336c0 .928-.332 1.612-.996 2.052-.664.44-1.636.684-2.916.732v3.744zm1.488 5.712c.688 0 1.184-.16 1.488-.48.304-.32.456-.728.456-1.224v-.48c0-.496-.152-.904-.456-1.224-.304-.32-.8-.48-1.488-.48-.672 0-1.16.16-1.464.48-.304.32-.456.728-.456 1.224v.48c0 .496.152.904.456 1.224.304.32.792.48 1.464.48z" fill="#697A8C" fill-rule="evenodd"/></svg>