<svg viewBox="0 0 250 342" xmlns="http://www.w3.org/2000/svg" fill-rule="evenodd" clip-rule="evenodd" stroke-linejoin="round" stroke-miterlimit="1.414"><path d="M207.253 259.464c22.204 0 40.231 18.027 40.231 40.231s-18.027 40.231-40.231 40.231-40.23-18.027-40.23-40.231 18.026-40.231 40.23-40.231zM37.848 339.926H.096v-37.195l7.134-5.361S20.751 80.339 20.751 47.03v-.005c.001-24.101 19.54-43.638 43.641-43.638h88.292c24.101 0 43.64 19.537 43.641 43.638v.005c0 21.743 10.928 202.154 10.928 202.154-8.397.18-18.145 2.722-24.76 7.023l-1.454-34.36H35.167l-3.973 75.523 6.654 5.361v37.195zm169.409-53.737c7.373 0 13.358 5.986 13.358 13.358 0 7.373-5.985 13.359-13.358 13.359-7.372 0-13.358-5.986-13.358-13.359 0-7.372 5.986-13.358 13.358-13.358zM39.865 127.744l-3.388 67.853h143.451l-2.828-66.822c-45.115 9.219-92.707 9.029-137.235-1.031zm136.074-26.408l-2.563-60.565c-.35-8.265-7.152-14.786-15.424-14.786H59.623c-8.223 0-15.001 6.449-15.409 14.662l-2.97 59.477c.987.237 1.566.49 2.638.729 43.325 9.44 88.892 10.015 132.057.483z" fill="#8594a3"/></svg>