<svg width="112" height="38" viewBox="0 0 112 38" xmlns="http://www.w3.org/2000/svg"><title>Group</title><g fill="none"><path d="M53.682 24.833l-1.178 6.18c-.517 2.511-1.96 4.18-4.899 4.18-3.381 0-4.27-2.194-3.53-5.287 1.044-4.382 4.46-5.683 9.607-5.073zM59 16l-3.591.238-1.136 6.055c-1.372-.06-1.804-.102-3.42-.102-5.047 0-9.458 2.222-10.62 7.446C39.179 34.348 41.732 38 47.294 38c5.7 0 8.182-3.11 9.068-7.502L59 16zm-40.795 8.628c-5.691-.506-10.579-.04-10.66 1.862-.117 2.866 9.373.364 9.185 5.633C16.466 39.862 3.268 38.08 0 37.097l.592-2.295c5.633.885 11.575.957 11.706-2.113.14-3.26-9.397-.328-9.173-5.614.167-3.93 6.125-6.05 15.875-4.635l-.795 2.188zm15.357 5.376c-.804 3.21-3.349 5.222-6.382 5.222-3.17 0-4.599-1.839-3.752-5.222.815-3.215 3.39-5.364 6.419-5.364 3.025 0 4.521 2.149 3.715 5.364M30.336 22c-5.552 0-10.02 3.22-11.108 8.004C18.122 34.794 21.11 38 26.663 38c5.552 0 10.018-3.206 11.113-7.996C38.87 25.219 35.887 22 30.336 22M97 38h-5.243c-3.186-2.79-9.28-9.21-13.757-16h3.851C86.101 27.48 97 38 97 38m2.885-33.095L102.238 0l.671 4.995 4.809-1.689-3.36 4.31L108 10.433l-4.863.376-.264 5.19-2.702-3.833-3.975 3.657 1.488-5.154L93 10.027l4.562-2.59L95.69 2.99l4.196 1.914z" fill="#2D2E87"/><path d="M107.564 29.994c-.808 3.22-3.346 5.237-6.382 5.237-3.164 0-4.598-1.845-3.743-5.237.802-3.208 3.386-5.368 6.408-5.368 3.03 0 4.522 2.16 3.717 5.368M104.337 22c-5.55 0-10.01 3.21-11.112 7.994C92.128 34.78 95.116 38 100.668 38c5.545 0 10.004-3.219 11.107-8.006 1.096-4.785-1.886-7.994-7.438-7.994" fill="#2D2E87"/><path d="M74 35c8.856-4.91 16.544-12.467 22-19-3.92 12.27-13.366 18.877-22 18.998" fill="#E30613"/><path d="M70.935 24.308c1.916 0 2.953.62 2.953 1.8 0 3.132-6.859 2.927-9.888 2.376 1.06-2.345 3.466-4.176 6.935-4.176m7.063 1.628c0-2.267-2.036-3.936-6.65-3.936C63.863 22 59 26.32 59 31.674 59 35.134 62.224 38 68.115 38c4.063 0 6.774-1.783 6.774-1.783-5.164.494-11.51 0-11.51-4.91 0-.197.008-.394.023-.587C70.448 32.025 78 30.445 78 25.936" fill="#2D2E87"/></g></svg>