<svg width="32" height="26" viewBox="0 0 32 26" xmlns="http://www.w3.org/2000/svg"><title>twitter</title><path d="M15.277 6.916l.068 1.125-1.137-.138c-4.137-.528-7.752-2.318-10.82-5.324L1.886 1.087 1.5 2.189c-.818 2.455-.295 5.049 1.41 6.793.91.964.705 1.102-.864.528-.546-.184-1.023-.321-1.068-.253-.16.161.386 2.25.818 3.076.591 1.147 1.796 2.272 3.114 2.937l1.114.528-1.318.023c-1.273 0-1.319.023-1.182.505.454 1.492 2.25 3.075 4.25 3.764l1.41.482-1.227.734a12.8 12.8 0 0 1-6.093 1.699C.841 23.028 0 23.119 0 23.188c0 .23 2.773 1.515 4.387 2.02 4.843 1.492 10.594.85 14.913-1.698 3.07-1.813 6.138-5.417 7.57-8.905.773-1.86 1.546-5.256 1.546-6.885 0-1.056.069-1.194 1.342-2.456.75-.734 1.455-1.538 1.59-1.767.228-.436.206-.436-.954-.046-1.932.688-2.205.597-1.25-.436C29.849 2.28 30.69.949 30.69.559c0-.069-.341.046-.728.253-.409.23-1.318.573-2 .78l-1.228.39-1.114-.757c-.614-.413-1.477-.872-1.932-1.01-1.16-.321-2.933-.276-3.978.092-2.842 1.032-4.638 3.695-4.433 6.61z" fill="#FFF" fill-rule="evenodd"/></svg>