<svg height="100" viewBox="0 0 50 50" width="100" xmlns="http://www.w3.org/2000/svg"><path d="m40 5c-3.309 0-6 2.691-6 6 0 1.957.946391 3.692109 2.400391 4.787109-2.606 1.203-4.400391 3.661047-4.400391 6.498047v3.535156c0 .333.165406.644079.441406.830079.205.138 2.159594 1.349609 7.558594 1.349609s7.353594-1.211609 7.558594-1.349609c.276-.186.441406-.497079.441406-.830079v-3.535156c0-2.836-1.794391-5.295047-4.400391-6.498047 1.454-1.095 2.400391-2.830109 2.400391-4.787109 0-3.309-2.691-6-6-6zm-37 2c-.55 0-1 .45-1 1v17c0 .55.45 1 1 1h18c.55 0 1-.45 1-1v-17c0-.55-.45-1-1-1zm6 4h6c.55 0 1 .45 1 1s-.45 1-1 1h-6c-.55 0-1-.45-1-1s.45-1 1-1zm2.984375 16.986328a1.0001 1.0001 0 0 0 -.984375 1.013672v14a1.0001 1.0001 0 0 0 1 1h27.832031a1.0001 1.0001 0 0 0 .888672-.292969 1.0001 1.0001 0 0 0 .001953-.001953 1.0001 1.0001 0 0 0 .00586-.005859 1.0001 1.0001 0 0 0 .007812-.007813 1.0001 1.0001 0 0 0 .263672-.849609v-9.427735l2.292969 2.292969a1.0001 1.0001 0 1 0 1.414062-1.414062l-4-4a1.0001 1.0001 0 0 0 -.722656-.292969 1.0001 1.0001 0 0 0 -.691406.292969l-4 4a1.0001 1.0001 0 1 0 1.414062 1.414062l2.292969-2.292969v8.585938h-26v-13a1.0001 1.0001 0 0 0 -1.015625-1.013672z"/></svg>