<svg height="50" viewBox="0 0 50 50" width="50" xmlns="http://www.w3.org/2000/svg"><path d="m12 0c-1.09375 0-2 .90625-2 2v2h-6c-1.160156 0-2 .839844-2 2v7h46v-7c0-1.160156-.839844-2-2-2h-6v-2c0-1.09375-.90625-2-2-2h-2c-1.09375 0-2 .90625-2 2v2h-18v-2c0-1.09375-.90625-2-2-2zm0 2h2v6h-2zm24 0h2v6h-2zm-34 13v31c0 1.105469.894531 2 2 2h30.027344c1.667969 1.25 3.730469 2 5.972656 2 5.515625 0 10-4.484375 10-10 0-2.242187-.75-4.304687-2-5.972656v-19.027344zm10 6h5v5h-5zm7 0h5v5h-5zm7 0h5v5h-5zm7 0h5v5h-5zm-21 7h5v5h-5zm7 0h5v5h-5zm7 0h5v5h-5zm7 0h5v2.203125c-1.925781.390625-3.648437 1.339844-5 2.667969zm7 4c4.410156 0 8 3.589844 8 8s-3.589844 8-8 8-8-3.589844-8-8 3.589844-8 8-8zm-28 3h5v5h-5zm7 0h5v5h-5zm7 0h5v.671875c-.632812 1.308594-1 2.777344-1 4.328125h-4zm10.5.5c-.25 0-.5.101563-.699219.300781-.398437.398438-.398437 1 0 1.398438l2.796875 2.800781-2.796875 2.800781c-.398437.398438-.398437 1 0 1.398438.199219.199219.5.300781.699219.300781s.5-.101562.699219-.300781l2.800781-2.796875 2.800781 2.796875c.199219.199219.5.300781.699219.300781s.5-.101562.699219-.300781c.398437-.398438.398437-1 0-1.398438l-2.796875-2.800781 2.796875-2.800781c.398437-.398438.398437-1 0-1.398438-.398438-.398437-1-.398437-1.398438 0l-2.800781 2.796875-2.800781-2.796875c-.199219-.199218-.449219-.300781-.699219-.300781z"/></svg>