<?xml version="1.0" encoding="UTF-8"?>
<svg xmlns="http://www.w3.org/2000/svg" xmlns:xlink="http://www.w3.org/1999/xlink" viewBox="0 0 50 50" version="1.1" width="50px" height="50px">
<g id="surface1">
<path style=" " d="M 12 0 C 10.90625 0 10 0.90625 10 2 L 10 4 L 4 4 C 2.839844 4 2 4.839844 2 6 L 2 13 L 48 13 L 48 6 C 48 4.839844 47.160156 4 46 4 L 40 4 L 40 2 C 40 0.90625 39.09375 0 38 0 L 36 0 C 34.90625 0 34 0.90625 34 2 L 34 4 L 16 4 L 16 2 C 16 0.90625 15.09375 0 14 0 Z M 12 2 L 14 2 L 14 8 L 12 8 Z M 36 2 L 38 2 L 38 8 L 36 8 Z M 2 15 L 2 46 C 2 47.105469 2.894531 48 4 48 L 34.027344 48 C 35.695313 49.25 37.757813 50 40 50 C 45.515625 50 50 45.515625 50 40 C 50 37.757813 49.25 35.695313 48 34.027344 L 48 15 Z M 12 21 L 17 21 L 17 26 L 12 26 Z M 19 21 L 24 21 L 24 26 L 19 26 Z M 26 21 L 31 21 L 31 26 L 26 26 Z M 33 21 L 38 21 L 38 26 L 33 26 Z M 12 28 L 17 28 L 17 33 L 12 33 Z M 19 28 L 24 28 L 24 33 L 19 33 Z M 26 28 L 31 28 L 31 33 L 26 33 Z M 33 28 L 38 28 L 38 30.203125 C 36.074219 30.59375 34.351563 31.542969 33 32.871094 Z M 40 32 C 44.410156 32 48 35.589844 48 40 C 48 44.410156 44.410156 48 40 48 C 35.589844 48 32 44.410156 32 40 C 32 35.589844 35.589844 32 40 32 Z M 12 35 L 17 35 L 17 40 L 12 40 Z M 19 35 L 24 35 L 24 40 L 19 40 Z M 26 35 L 31 35 L 31 35.671875 C 30.367188 36.980469 30 38.449219 30 40 L 26 40 Z M 36.5 35.5 C 36.25 35.5 36 35.601563 35.800781 35.800781 C 35.402344 36.199219 35.402344 36.800781 35.800781 37.199219 L 38.597656 40 L 35.800781 42.800781 C 35.402344 43.199219 35.402344 43.800781 35.800781 44.199219 C 36 44.398438 36.300781 44.5 36.5 44.5 C 36.699219 44.5 37 44.398438 37.199219 44.199219 L 40 41.402344 L 42.800781 44.199219 C 43 44.398438 43.300781 44.5 43.5 44.5 C 43.699219 44.5 44 44.398438 44.199219 44.199219 C 44.597656 43.800781 44.597656 43.199219 44.199219 42.800781 L 41.402344 40 L 44.199219 37.199219 C 44.597656 36.800781 44.597656 36.199219 44.199219 35.800781 C 43.800781 35.402344 43.199219 35.402344 42.800781 35.800781 L 40 38.597656 L 37.199219 35.800781 C 37 35.601563 36.75 35.5 36.5 35.5 Z "/>
</g>
</svg>
