<svg height="100" viewBox="0 0 50 50" width="100" xmlns="http://www.w3.org/2000/svg"><path d="m5 7c-2.757812 0-5 2.242188-5 5v26c0 2.757813 2.242188 5 5 5h40c2.757813 0 5-2.242187 5-5v-26c0-2.757812-2.242187-5-5-5zm28.09375 5.96875h.0625c.1875.003906.378906.039063.5625.0625.148438.019531.296875.027344.4375.0625.03125.007813.0625.023438.09375.03125.113281.03125.234375.050781.34375.09375.007813.003906.023438-.003906.03125 0 .023438.007813.039063.023438.0625.03125.136719.058594.277344.144531.40625.21875.042969.023438.085938.035156.125.0625.085938.054688.167969.125.25.1875.113281.085938.242188.179688.34375.28125 1.699219 1.800781 1.300781 5.011719-1 7.3125-.171875.171875-.351562.316406-.53125.46875-.066406.058594-.148437.101563-.21875.15625-.242187.191406-.464844.378906-.71875.53125-.007812.003906-.023437-.003906-.03125 0-.050781.03125-.101562.0625-.15625.09375-.378906.214844-.769531.402344-1.15625.53125-.09375.03125-.1875.066406-.28125.09375-.101562.027344-.210937.039063-.3125.0625-.03125.007813-.0625-.007812-.09375 0-.242187.050781-.480469.078125-.71875.09375-.117187.007813-.226562.03125-.34375.03125-.296875 0-.5625-.007812-.84375-.0625-.242187-.046875-.492187-.132812-.71875-.21875l-5.84375 5.84375-8.03125 8.0625c-.101562-.101562-1.707031-1.804687-1.90625-1.90625l12.09375-12.1875 1.6875-1.71875c-.699219-1.800781.011719-4.292969 1.8125-6.09375.273438-.285156.546875-.550781.84375-.78125.015625-.011719.046875-.019531.0625-.03125.007813-.003906.023438.003906.03125 0 .238281-.179687.472656-.328125.71875-.46875.03125-.019531.0625-.042969.09375-.0625.082031-.046875.167969-.082031.25-.125.289063-.144531.582031-.277344.875-.375.246094-.082031.503906-.140625.75-.1875.132813-.023437.246094-.046875.375-.0625.195313-.023437.402344-.03125.59375-.03125zm-18.09375.125h.1875l8.40625 8.40625-4.03125 4.0625-4.46875-4.46875c-2.300781-2.199219-2.292969-5.800781-.09375-8zm13.25 13.28125 8.75 8.71875c-.199219 0-1.804687 1.804688-1.90625 1.90625l-7.09375-7.09375-2.09375 2.09375-1.65625-1.625z"/></svg>