<svg height="78" viewBox="0 0 97 78" width="97" xmlns="http://www.w3.org/2000/svg"><path d="m8.69230769 47.077149v-13.8651141c0-.8665696.6119086-1.7331393 1.63175621-1.7331393h68.5337625l-8.9746594 15.5982534zm7.15567681-2.0763411c.500597 0 .9449978-.0625738 1.3332158-.1877232.3882181-.1251494.7330118-.2938265 1.0343916-.5060363.3013798-.2122099.5618906-.462505.7815403-.7508927.2196497-.2883878.4060937-.5903742.5593377-.9059683l-1.2872429-.9631015c-.2349741.5550104-.5516735.9903062-.9501078 1.3059003s-.8888076.4733888-1.4711347.4733888c-.6844897 0-1.2489298-.2122066-1.6933373-.6366263-.4444075-.4244198-.7381207-1.012069-.8811484-1.7629654h3.739134v-1.256929h-3.8157556v-1.4038428h3.8157556v-1.2569291h-3.739134c.1430277-.7291313.4367409-1.3113393.8811484-1.7466416s1.0088476-.6529501 1.6933373-.6529501c.5618945 0 1.0343897.1469123 1.4174996.4407413s.6819311.7019188.8964727 1.2242815l1.2872428-.9304539c-.3371367-.663836-.7866456-1.2079557-1.3485401-1.6323754s-1.3127787-.6366264-2.252675-.6366264c-.6844897 0-1.3025644.1305888-1.8542426.3917701-.5516783.2611814-1.0216194.6420652-1.4098374 1.1426628-.3882181.5005976-.6870393 1.1154528-.8964727 1.8445841-.2094335.7291313-.3141486 1.5670756-.3141486 2.5138581 0 .9467824.1047151 1.7847267.3141486 2.513858.2094334.7291313.5082546 1.3439865.8964727 1.8445841.388218.5005977.8581591.8814814 1.4098374 1.1426628.5516782.2611814 1.1697529.3917701 1.8542426.3917701zm85.5629185-19.4019913c-.006479.0110875-.013171.0220491-.020073.0328787-.296811.4657482-.914988.6026986-1.380736.3058871l-8.5224092-5.43115c-.4483331-.2857131-.5947394-.8722777-.3332558-1.3351609l2.6785273-4.7415791c.011171-.0197751.0230124-.0391639.0355037-.0581326.3037465-.4612554.9239031-.5889415 1.3851584-.285195l8.5127096 5.6058009c.443905.2923212.581575.8808242.313403 1.3397227zm-13.6949657-.7885526c.0086705-.0151072.0177342-.0299852.0271818-.0446189.2995552-.4639884.9185294-.5972878 1.3825178-.2977327l8.7160281 5.6271477c.4485072.2895604.5904733.8803609.3224965 1.3420884l-17.4677024 30.0970762c-.2689818.4634591-.6571901.8464133-1.1242712 1.1090553l-6.6524779 3.74072c-.3088942.1736927-.6583927.2621919-1.0127253.2564401-1.104424-.0179279-1.9852031-.9277739-1.9672752-2.0321979l.1348694-8.3084438c.008237-.5074286.1450659-1.0044743.3976838-1.4446287zm-8.6094347 43.5789577c2.9050055-1.6113151 5.3074458-3.9951087 6.941347-6.8874712l2.3965447-4.2424083v31.6297916c0 .8665696-.6119085 1.7331392-1.6317562 1.7331392h-76.4885742c-.81587808 0-1.63175621-.6499272-1.63175621-1.7331392v-37.2624942h58.33528591c-.9378083 1.7075579-1.4467598 3.6173789-1.4830738 5.5651776l-.1909484 10.2420179c-.0164066.8800113.1997756 1.7487607.6266994 2.5184523 1.3394288 2.4148275 4.3828548 3.2866104 6.7976822 1.9471816zm-18.1979949 15.9504215c1.0198476 0 2.0396953-.8665696 1.8357257-2.1664241.2039696-1.2998544-.6119086-2.5997089-1.8357257-2.8163513l-10.6064157-1.7331392c-1.2238172-.2166425-2.6516039-.4332849-3.6714515-.8665697l-.2039696-.2166424c-.407939-.2166424-.6119085-.2166424-1.0198476-.4332848-.8158781-.2166424-1.4277867-.4332848-2.0396953-.4332848-.4079391 0-.6119086-.2166424-1.0198477-.2166424h-.2039695c-.2039695-.6499272-.4079391-1.0832121-1.0198477-1.5164969s-1.4277867-.4332848-2.0396953-.2166424c-1.4277867.6499272-2.8555734 1.2998545-4.4873297 1.9497817-.407939-1.5164969-.6119086-3.0329937-.6119086-4.766133 0-1.083212-1.0198476-2.1664241-2.2436648-2.1664241s-2.2436648.8665697-2.2436648 2.1664241c0 1.5164969-.6119086 3.2496361-1.4277868 4.3328482-.407939.4332848-.8158781.8665696-1.4277867 1.2998544l-.6119086-4.5494906c0-.8665696-.2039695-2.3830664-1.4277867-3.4662785-1.2238172-1.7331392-3.2635125-2.5997089-4.8952687-1.7331392-1.2238172.6499272-1.8357258 1.9497816-2.2436649 2.5997089-1.4277867 3.0329937-2.8555734 6.2826298-3.8754211 9.5322659-.407939 1.2998545.2039696 2.5997089 1.4277868 3.0329937 1.2238171.4332848 2.4476343-.2166424 2.8555734-1.5164968 1.0198476-2.8163513 2.0396953-5.6327026 3.467482-8.449054.2039696.2166425.2039696.6499273.2039696.8665697l1.0198476 7.3658419c.2039695 1.083212 1.2238172 1.9497816 2.4476344 1.9497816 2.2436648-.2166424 4.2833601-1.2998544 5.9151164-3.0329937.2039695.2166424.2039695.2166424.2039695.4332848 0 .4332848.4079391 1.0832121 1.0198477 1.2998545.407939.4332848 1.0198476.4332848 1.6317562.2166424 1.8357258-.6499272 3.467482-1.2998545 5.3032078-1.9497817.6119086.6499272 1.4277867 1.0832121 2.2436649 1.2998545.6119086 0 1.0198476.2166424 1.6317562.2166424.4079391 0 .8158781.2166424 1.0198477.2166424.2039695 0 .407939.2166424.6119086.2166424l.407939.2166424c1.6317563.8665696 3.4674821 1.083212 4.8952688 1.2998544l10.6064156 1.7331393z" fill="#8594a3" transform="translate(-9 -13)"/></svg>