<?xml version="1.0"?>
<svg width="110" height="100" viewbox="0 0 110 100" xmlns="http://www.w3.org/2000/svg" xmlns:xlink="http://www.w3.org/1999/xlink">
    <path d="M8.6923 47.0771v-13.865c0-.8666.612-1.7332 1.6318-1.7332h68.5337l-8.9746 15.5982H8.6923zm7.1557-2.0763c.5006 0 .945-.0626 1.3332-.1877.3882-.1252.733-.2938 1.0344-.506a3.5307 3.5307 0 0 0 .7815-.751 5.3504 5.3504 0 0 0 .5594-.906l-1.2873-.963c-.235.555-.5516.9903-.95 1.3059-.3985.3156-.8889.4734-1.4712.4734-.6845 0-1.249-.2122-1.6934-.6367-.4444-.4244-.738-1.012-.8811-1.763h3.7391V39.81H13.197V38.406h3.8157v-1.257h-3.7391c.143-.729.4367-1.3113.8811-1.7466.4445-.4353 1.0089-.653 1.6934-.653.5619 0 1.0344.147 1.4175.4408.383.2939.682.702.8965 1.2243l1.2872-.9304c-.3371-.6639-.7866-1.208-1.3485-1.6324-.562-.4244-1.3128-.6366-2.2527-.6366-.6845 0-1.3026.1305-1.8543.3917-.5516.2612-1.0216.642-1.4098 1.1427-.3882.5006-.687 1.1154-.8965 1.8446-.2094.7291-.3141 1.567-.3141 2.5138 0 .9468.1047 1.7848.3141 2.5139.2095.7291.5083 1.344.8965 1.8446.3882.5006.8582.8815 1.4098 1.1426.5517.2612 1.1698.3918 1.8543.3918zm85.5629-19.402a.9985.9985 0 0 1-.02.0329c-.2969.4657-.915.6027-1.3808.3059l-8.5224-5.4312a1 1 0 0 1-.3333-1.3351l2.6786-4.7416a1 1 0 0 1 .0355-.0581c.3037-.4613.9239-.589 1.3851-.2852l8.5127 5.6058a1 1 0 0 1 .3134 1.3397l-2.6688 4.567zm-13.695-.7885a1 1 0 0 1 .0272-.0447c.2996-.464.9185-.5972 1.3825-.2977l8.716 5.6272a1 1 0 0 1 .3226 1.342L80.6965 61.5342a3 3 0 0 1-1.1243 1.109l-6.6525 3.7408a2 2 0 0 1-1.0127.2564c-1.1044-.0179-1.9852-.9277-1.9673-2.0322l.1349-8.3084a3 3 0 0 1 .3977-1.4446l17.2436-30.045zm-8.6094 43.579a18 18 0 0 0 6.9413-6.8875l2.3966-4.2425v31.6298c0 .8666-.612 1.7332-1.6318 1.7332H10.3241c-.816 0-1.6318-.65-1.6318-1.7332V51.6266h58.3353a12.0264 12.0264 0 0 0-1.483 5.5652l-.191 10.242a5 5 0 0 0 .6267 2.5185c1.3394 2.4148 4.3828 3.2866 6.7977 1.9472l6.3285-3.5103zm-18.198 15.9503c1.0199 0 2.0397-.8665 1.8357-2.1664.204-1.2998-.6119-2.5997-1.8357-2.8163l-10.6064-1.7332c-1.2238-.2166-2.6516-.4333-3.6715-.8665l-.204-.2167c-.4079-.2166-.6118-.2166-1.0198-.4333-.8159-.2166-1.4278-.4333-2.0397-.4333-.408 0-.6119-.2166-1.0198-.2166h-.204c-.204-.65-.408-1.0832-1.0198-1.5165-.612-.4333-1.4278-.4333-2.0397-.2166-1.4278.6499-2.8556 1.2998-4.4874 1.9497-.4079-1.5165-.6119-3.033-.6119-4.766 0-1.0833-1.0198-2.1665-2.2436-2.1665-1.2239 0-2.2437.8666-2.2437 2.1664 0 1.5165-.612 3.2497-1.4278 4.3329-.408.4332-.8159.8665-1.4278 1.2998l-.6119-4.5495c0-.8665-.204-2.383-1.4278-3.4663-1.2238-1.733-3.2635-2.5997-4.8952-1.733-1.2239.6498-1.8358 1.9497-2.2437 2.5996-1.4278 3.033-2.8556 6.2826-3.8754 9.5323-.408 1.2998.204 2.5997 1.4278 3.033s2.4476-.2167 2.8555-1.5165c1.0199-2.8164 2.0397-5.6327 3.4675-8.449.204.2166.204.6499.204.8665l1.0198 7.3658c.204 1.0832 1.2239 1.9498 2.4477 1.9498 2.2436-.2166 4.2833-1.2998 5.915-3.033.204.2167.204.2167.204.4333 0 .4333.408 1.0832 1.0199 1.2999.408.4332 1.0199.4332 1.6318.2166 1.8357-.65 3.4674-1.2998 5.3032-1.9498.6119.65 1.4278 1.0832 2.2436 1.2999.612 0 1.0199.2166 1.6318.2166.408 0 .8159.2167 1.0198.2167.204 0 .408.2166.612.2166l.4079.2166c1.6317.8666 3.4675 1.0833 4.8953 1.2999l10.6064 1.7331h.408z"/></svg>