<svg height="50" viewBox="0 0 50 50" width="50" xmlns="http://www.w3.org/2000/svg"><path d="m47.996094 20.378906.003906-14.878906c0-1.929687-1.570312-3.5-3.5-3.5l-14.875.003906-.628906-.003906c-1.296875 0-2.53125.074219-3.421875.964844l-22.726563 22.722656c-.546875.546875-.847656 1.273438-.847656 2.046875 0 .769531.300781 1.496094.847656 2.042969l17.375 17.375c.542969.546875 1.269532.847656 2.042969.847656.769531 0 1.5-.300781 2.042969-.847656l22.726562-22.730469c.976563-.972656.96875-2.371094.964844-3.722656zm-16 4.597657c-.011719-1.527344-.417969-2.6875-1.21875-3.488282-.820313-.820312-1.851563-1.148437-3.089844-.984375-.988281.128907-2.027344.558594-3.125 1.28125l4.652344 4.652344-1.445313.558594-4.324218-4.324219c-.097657.078125-.191407.160156-.277344.25-.089844.085938-.171875.167969-.246094.246094-.066406.066406-.128906.125-.183594.179687-.054687.054688-.105468.113282-.148437.179688l4.09375 4.09375-1.429688.578125-3.582031-3.585938c-1.996094 2.71875-2.132812 4.9375-.414062 6.660157.527343.523437 1.097656.886718 1.710937 1.082031.449219.148437 1.117188.230469 2.007813.265625l-1.730469 1.726562c-1.203125-.261718-2.28125-.871093-3.238281-1.824218-2.683594-2.683594-2.660157-5.851563.066406-9.503907l-1.265625-1.265625 1.445312-.558593.757813.757812c.042969-.066406.09375-.128906.148437-.183594.054688-.054687.109375-.109375.164063-.164062l.277344-.277344c.089843-.089844.175781-.164062.265625-.230469l-1.203125-1.199218 1.433593-.578125.886719.890625c1.613281-1.085938 3.171875-1.648438 4.6875-1.695313 1.710938-.0625 3.210938.550781 4.503906 1.84375 1 .996094 1.644532 2.332031 1.941407 4.011719zm7.003906-10.976563c-1.65625 0-3-1.34375-3-3s1.34375-3 3-3 3 1.34375 3 3-1.34375 3-3 3z"/></svg>