<?xml version="1.0"?>
<svg width="110" height="100" viewbox="0 0 110 100" xmlns="http://www.w3.org/2000/svg" xmlns:xlink="http://www.w3.org/1999/xlink">
    <path d="M103.1417 67.952c-1.947-.1087-5.9436 2.1713-6.9683 2.7141-3.894 2.0628-9.3252 5.3198-12.8094 7.9254-.205.2172-.6148.4343-.8198.5429-1.6396 1.0856-3.2791 1.8456-5.1237 2.2799-10.35 2.2799-25.3112 2.6056-25.3112 2.6056h-.9223c-.6149 0-1.2297-.4343-1.3322-1.0857-.1025-.76.41-1.4114 1.1272-1.52l22.3395-2.2798c2.4594-.3257 4.4064-2.7142 4.2015-5.4284-.3074-2.7142-2.6644-4.777-5.1238-4.4513l-19.88-.2171c-1.3322 0-3.4842-.3257-4.8164-.76-12.8093-4.017-19.9825-.2171-23.8766 1.52-.8198-1.52-2.4594-2.497-4.3039-2.3885l-8.6079.6514c-2.8693.2171-5.0212 2.7142-4.8163 5.6455l1.3322 20.1935c.205 2.9313 2.6643 5.1027 5.5336 4.8855l8.6079-.6514c1.8445-.1085 3.2792-1.3028 3.894-2.9313l37.6083 1.737c4.2014.4344 8.0955-.1085 11.7845-2.1713l1.0248-.5428 28.488-17.5879c1.4346-.8685 2.3569-2.3885 2.4593-4.017.1025-2.2799-.9222-4.4512-3.689-4.6684zm-87.001 25.839c-1.6397 0-2.8694-1.3029-2.8694-2.9314s1.3322-2.9313 2.8693-2.9313c1.6396 0 2.8693 1.3028 2.8693 2.9313.1025 1.6285-1.2297 2.9313-2.8693 2.9313zm65.8912-18.8908v-1.737c-.1025-.76-.205-1.4114-.41-2.0628v-.1086c2.9718-1.737 8.9154-4.777 12.092-6.0798 1.6397-.6514 3.1768-.6514 4.6114.4343-1.1272.4343-2.2544.9771-3.2791 1.52-3.3817 1.8456-9.3252 5.2112-12.1945 7.3825-.205.2172-.5124.4343-.8198.6514zm8.6078-11.9424c-2.3569 1.0857-6.7633 2.7142-8.9153 4.017l-1.4346.8685c-.1025.1086-.3074.2172-.4099.3258-.6148-.76-1.4346-1.52-2.2544-2.0628 1.947-1.0857 6.3534-2.6056 8.3004-3.4742 1.6396-.76 3.1767-.6514 4.7138.3257zm-60.9724-13.788c0-1.3028.9223-2.28 2.152-2.28h53.7992c1.2297 0 2.152.9772 2.152 2.28s-.9223 2.2799-2.152 2.2799H31.8193c-1.1273 0-2.152-.9771-2.152-2.28zm0 8.251c0-1.3027.9223-2.2798 2.152-2.2798h53.7992c1.2297 0 2.152.977 2.152 2.2799 0 1.3028-.9223 2.2799-2.152 2.2799H31.8193c-1.1273 0-2.152-.9771-2.152-2.28zm48.1631-33.2215c0 1.737-1.3322 3.257-3.0742 3.257-1.6396 0-3.0743-1.4114-3.0743-3.257 0-1.737 1.3322-3.257 3.0743-3.257 1.742 0 3.0742 1.52 3.0742 3.257zm-32.0746 0c0 1.737-1.3321 3.257-3.0742 3.257-1.6396 0-3.0743-1.4114-3.0743-3.257 0-1.737 1.3322-3.257 3.0743-3.257 1.6396 0 3.0742 1.52 3.0742 3.257zM82.7492 5.2H34.6886c-2.7669 0-5.0213 2.3885-5.0213 5.3198v27.4675c0 2.9314 2.2544 5.3198 5.0213 5.3198h48.0606c2.7668 0 5.0213-2.3884 5.0213-5.3198V10.5198c0-2.9313-2.2545-5.3198-5.0213-5.3198zm.7173 27.6847c-.4099-.1086-.8198-.2172-1.2297-.2172-2.7668 0-5.1237 2.3885-5.1237 5.4284v.6514H39.9148c.1024-.3257.1024-.6514.1024-.9771 0-2.9313-2.2544-5.4284-5.1237-5.4284-.3074 0-.6148 0-.9223.1086V16.0567c.3075.1086.6149.1086.9223.1086 2.7668 0 5.1237-2.3885 5.1237-5.4284 0-.3257 0-.6514-.1024-.977H77.318c-.1024.4342-.205.8685-.205 1.3027 0 2.9314 2.2545 5.4284 5.1238 5.4284.41 0 .8198-.1086 1.2297-.2171v16.6108zM58.7701 12.5826c-6.046 0-11.0673 5.2112-11.0673 11.7253 0 6.4054 4.9188 11.7252 11.0673 11.7252 6.046 0 11.0673-5.2112 11.0673-11.7252-.1025-6.514-5.0213-11.7253-11.0673-11.7253zm0 18.4564c-3.4841 0-6.3534-3.0399-6.3534-6.7311 0-3.6913 2.8693-6.7312 6.3534-6.7312 3.4842 0 6.3534 3.0399 6.3534 6.7312 0 3.6912-2.8692 6.7311-6.3534 6.7311z" /></svg>