<svg height="94" viewBox="0 0 101 94" width="101" xmlns="http://www.w3.org/2000/svg"><path d="m103.141659 67.9519169c-1.94702-.1085673-5.9435329 2.1713466-6.9682799 2.7141833-3.8940385 2.0627793-9.3251975 5.3197992-12.8093372 7.9254151-.2049494.2171347-.6148482.4342693-.8197976.5428367-1.6395952 1.0856733-3.2791904 1.8456446-5.1237349 2.2799139-10.3499445 2.2799139-25.3112504 2.6056159-25.3112504 2.6056159h-.9222723c-.6148482 0-1.2296964-.4342693-1.3321711-1.0856733-.1024747-.7599713.4098988-1.4113753 1.1272217-1.5199426l22.3394842-2.2799139c2.4593927-.325702 4.406412-2.7141833 4.2014626-5.4283666-.3074241-2.7141832-2.6643422-4.7769625-5.1237349-4.4512605l-19.8800914-.2171347c-1.3321711 0-3.4841398-.325702-4.8163109-.7599713-12.8093372-4.0169912-19.9825661-.2171346-23.8766046 1.5199427-.8197976-1.5199427-2.4593927-2.4970486-4.3039373-2.3884813l-8.6078746.651404c-2.86929158.2171346-5.02126024 2.7141832-4.81631084 5.6455011l1.33217107 20.1935235c.2049494 2.9313179 2.66434217 5.1026645 5.53363367 4.8855299l8.6078747-.651404c1.8445445-.1085674 3.2791903-1.302808 3.8940385-2.9313179l37.6082142 1.7370772c4.2014626.4342694 8.0955011-.1085673 11.7845902-2.1713466l1.024747-.5428366 28.4879661-17.5879075c1.434646-.8685387 2.356918-2.3884813 2.459393-4.0169913.102474-2.2799139-.922273-4.4512605-3.689089-4.6683952zm-87.001019 25.8390247c-1.6395952 0-2.8692916-1.302808-2.8692916-2.931318 0-1.6285099 1.3321711-2.9313179 2.8692916-2.9313179 1.6395951 0 2.8692915 1.302808 2.8692915 2.9313179.1024747 1.62851-1.2296964 2.931318-2.8692915 2.931318zm65.8912308-18.8907155c0-.5428367 0-1.0856733 0-1.7370773-.1024747-.7599713-.2049494-1.4113753-.4098988-2.0627793v-.1085673c2.9717662-1.7370773 8.9152987-4.7769625 12.0920144-6.0797705 1.6395951-.651404 3.1767156-.651404 4.6113614.4342693-1.1272217.4342693-2.2544434.977106-3.2791904 1.5199426-3.381665 1.8456446-9.3251975 5.2112319-12.194489 7.3825785-.2049494.2171347-.5123735.4342693-.8197976.651404zm8.6078746-11.9424064c-2.356918 1.0856733-6.7633301 2.7141833-8.9152987 4.0169913l-1.4346458.8685386c-.1024747.1085673-.3074241.2171347-.4098988.325702-.6148482-.7599713-1.4346457-1.5199426-2.2544433-2.0627793 1.9470192-1.0856733 6.3534312-2.6056159 8.3004505-3.4741545 1.6395952-.7599714 3.1767156-.651404 4.7138361.3257019zm-60.9724453-13.7880509c0-1.302808.9222723-2.2799139 2.1519687-2.2799139h53.7992164c1.2296964 0 2.1519687.9771059 2.1519687 2.2799139s-.9222723 2.2799139-2.1519687 2.2799139h-53.7992164c-1.1272217 0-2.1519687-.9771059-2.1519687-2.2799139zm0 8.2511171c0-1.302808.9222723-2.2799139 2.1519687-2.2799139h53.7992164c1.2296964 0 2.1519687.9771059 2.1519687 2.2799139s-.9222723 2.2799139-2.1519687 2.2799139h-53.7992164c-1.1272217 0-2.1519687-.9771059-2.1519687-2.2799139zm48.1631081-33.2216031c0 1.7370773-1.3321711 3.2570199-3.074241 3.2570199-1.6395951 0-3.0742409-1.4113753-3.0742409-3.2570199 0-1.7370773 1.3321711-3.2570199 3.0742409-3.2570199 1.7420699 0 3.074241 1.5199426 3.074241 3.2570199zm-32.0745805 0c0 1.7370773-1.3321711 3.2570199-3.074241 3.2570199-1.6395951 0-3.0742409-1.4113753-3.0742409-3.2570199 0-1.7370773 1.3321711-3.2570199 3.0742409-3.2570199 1.6395952 0 3.074241 1.5199426 3.074241 3.2570199zm36.993366-18.9992828h-48.0606334c-2.7668168 0-5.0212602 2.38848127-5.0212602 5.3197992v27.4675346c0 2.9313179 2.2544434 5.3197991 5.0212602 5.3197991h48.0606334c2.7668168 0 5.0212602-2.3884812 5.0212602-5.3197991v-27.4675346c0-2.93131793-2.2544434-5.3197992-5.0212602-5.3197992zm.7173229 27.6846692c-.4098988-.1085673-.8197976-.2171346-1.2296964-.2171346-2.7668169 0-5.1237349 2.3884812-5.1237349 5.4283665v.651404h-37.1983154c.1024747-.325702.1024747-.651404.1024747-.977106 0-2.9313179-2.2544434-5.4283665-5.1237349-5.4283665-.3074241 0-.6148482 0-.9222723.1085673v-16.3936669c.3074241.1085674.6148482.1085674.9222723.1085674 2.7668168 0 5.1237349-2.3884813 5.1237349-5.4283666 0-.3257019 0-.6514039-.1024747-.97710593h37.4032648c-.1024747.43426933-.2049494.86853863-.2049494 1.30280793 0 2.931318 2.2544433 5.4283666 5.1237349 5.4283666.4098988 0 .8197976-.1085674 1.2296964-.2171347zm-24.6964023-20.3020907c-6.0460071 0-11.0672674 5.2112318-11.0672674 11.7252716 0 6.4054725 4.9187856 11.7252717 11.0672674 11.7252717 6.0460072 0 11.0672674-5.2112318 11.0672674-11.7252717-.1024747-6.5140398-5.0212602-11.7252716-11.0672674-11.7252716zm0 18.4564461c-3.4841397 0-6.3534312-3.0398852-6.3534312-6.7311745 0-3.6912892 2.8692915-6.7311744 6.3534312-6.7311744 3.4841398 0 6.3534313 3.0398852 6.3534313 6.7311744 0 3.6912893-2.8692915 6.7311745-6.3534313 6.7311745z" fill="#8594a3" transform="translate(-6 -5)"/></svg>