<svg height="100" viewBox="0 0 50 50" width="100" xmlns="http://www.w3.org/2000/svg"><path d="m11.09375 3c-.257812-.007812-.519531.089844-.71875.28125-.300781.285156-7.375 7.128906-7.375 15.15625 0 5.074219 2.132813 9.019531 6.15625 11.5.003906.003906-.003906.027344 0 .03125.476563 1.917969.800781 3.65625.53125 5.28125-.089844.546875.265625 1.035156.8125 1.125.054688.011719.132813.03125.1875.03125.480469 0 .886719-.355469.96875-.84375.320313-1.9375-.035156-3.878906-.53125-5.90625-.253906-.878906-.605469-1.742187-.90625-2.65625-1.421875-4.324219-3.058594-9.203125-.8125-14.25.226563-.503906.835938-.726562 1.34375-.5.503906.226563.722656.808594.5 1.3125-1.933594 4.339844-.527344 8.636719.84375 12.8125.097656.292969.1875.585938.28125.875.269531-.28125.609375-.5625.9375-.8125 1.222656-.914062 5.566406-5.65625 4.5-12.125-.921875-5.589844-5.820312-10.78125-6.03125-11-.191406-.199219-.429687-.304687-.6875-.3125zm17.8125 17.09375c-.695312 0-1.402344.019531-2.09375.09375-4.65625.503906-8.203125 2.292969-10.5 5.28125-3.714844 4.832031-2.789062 11.050781-2.75 11.3125v.03125c-2.984375 3.109375-4.34375 5.839844-4.4375 6.03125-.242187.496094-.058594 1.101563.4375 1.34375.140625.066406.289063.09375.4375.09375.371094 0 .734375-.207031.90625-.5625.019531-.039062 1.121094-2.234375 3.5-4.875 2.25-2.761719 5.238281-5.835937 9.03125-7.625 6.417969-3.027344 13.128906-2.828125 13.40625-2.8125.550781.019531.988281.480469.96875 1.03125-.019531.539063-.464844.96875-1 .96875-.019531 0 .089844-.03125-.3125-.03125-1.28125 0-6.910156.167969-12.1875 2.65625-3.558594 1.675781-6.410156 4.4375-8.53125 7.09375.316406.242188.574219.390625.65625.4375.179688.097656 4.417969 2.375 9.8125 2.375.679688 0 1.375-.054687 2.03125-.125 12.234375-1.347656 18.339844-13.035156 18.59375-13.53125.191406-.378906.132813-.816406-.15625-1.125-.3125-.328125-7.695312-8.0625-17.8125-8.0625z"/></svg>