<?xml version="1.0"?>
<svg width="110" height="100" viewbox="0 0 110 100" xmlns="http://www.w3.org/2000/svg" xmlns:xlink="http://www.w3.org/1999/xlink">
    <path d="M43.54 96.04c5.571-4.313 7.163-12.349 3.661-18.692a8.457 8.457 0 0 0-.875-1.438c-1.034-1.522-1.194-2.876-.318-4.567 5.331-10.488 9.708-19.539 14.005-28.25 4.058-8.29 8.196-16.832 13.13-26.644 0 0 0-.084.08-.084 1.352-2.707 2.705-5.413 3.899-8.035a2.6 2.6 0 0 1 .318-.677c.239-.423.159-1.1 0-1.523-.08-.338-.239-.592-.557-.676l-.716-.254c-.319 0-.717 0-1.035.17l-.557.337c-2.865 1.777-5.65 3.637-8.594 5.583-.239.169-.477.423-.716.592-.398.423-.875.761-1.273 1.184-1.99 1.86-3.66 4.06-5.173 6.428-1.591 2.453-3.103 4.906-4.695 7.443-2.864 4.568-5.809 9.135-8.673 13.703-.398.592-.716 1.184-1.114 1.691a747.75 747.75 0 0 1-5.173 8.12c-1.91 3.045-2.864 6.259-2.864 9.896 0 2.368-.398 4.906-.717 7.02-.238 1.692-1.193 2.622-3.023 3.13-4.218 1.015-7.64 3.975-9.39 8.204-1.75 4.23-1.512 8.881.636 12.941l.08.085c1.91 3.468 5.172 5.92 8.833 6.766 3.82.846 7.719-.084 10.822-2.453zm-2.705-36.116c-1.193-2.114-.477-4.906 1.512-6.09 1.91-1.184 4.616-.507 5.81 1.607 1.193 2.03.477 4.906-1.433 6.175-2.069 1.184-4.695.423-5.889-1.692zm-7.48 33.325c-2.228-.592-4.058-2.114-5.172-4.229v-.084c-2.387-4.399-1.034-9.897 3.103-12.434 4.138-2.537 9.31-1.1 11.698 3.299v.084c2.387 4.399.955 9.812-3.183 12.434-1.99 1.268-4.297 1.607-6.446.93zm3.024-44.828c-1.75 2.791-2.785 5.752-3.262 8.966-.557-.592-1.194-1.015-1.751-1.523-1.353-1.1-2.546-1.1-4.217-.084-3.74 2.283-8.197 2.537-12.175.676-3.98-1.86-6.764-5.498-7.72-9.98v-.085c-.795-3.89 0-8.035 2.229-11.334 2.228-3.383 5.73-5.498 9.47-5.92 6.922-.846 13.209 3.89 14.641 11.08.08.507.16 1.1.239 1.691.159 1.861.955 2.96 2.626 3.553l1.432.507a40.862 40.862 0 0 1-1.512 2.453zm-14.085 3.806c4.695-1.1 7.56-5.92 6.526-10.91v-.085c-1.114-4.99-5.57-7.951-10.266-6.851-2.228.507-4.137 1.945-5.331 3.975-1.194 2.03-1.592 4.483-1.114 6.851v.085c1.034 4.99 5.57 8.035 10.185 6.935zm82.679 19.031c1.67 4.314-.319 9.22-4.218 11.08L70.835 95.28c-4.138 1.692-8.753-.423-10.424-4.736l-8.117-21.569c1.035-2.03 2.07-4.06 3.024-6.005l9.629 25.713c.397 1.86 2.228 2.622 3.74 1.776l15.04-6.259 14.88-6.767c1.67-.507 2.467-2.452 1.512-4.06L89.217 44.87 78.315 16.365v-.17c.875-1.776 1.75-3.552 2.547-5.243a7.892 7.892 0 0 1 2.228 3.298L93.832 42.84l11.14 28.419zM42.825 22.455L54.68 17.21c-1.432 2.283-2.944 4.652-4.376 6.935-.16.339-.398.677-.637 1.015l-4.933 2.284c-1.672.507-2.467 2.453-1.512 4.06l.955 2.453c-.796 1.353-1.672 2.622-2.467 3.975l-.955 1.438-2.228-5.752c-1.671-4.398.318-9.304 4.297-11.164zm49.814 41.867s-5.491 7.443-5.014 12.518l-11.22 4.906c-2.944-4.06-11.777-5.244-11.777-5.244l-7.002-18.016-.08-.254c2.228-4.482 4.297-8.711 6.287-12.856l.08-.169c2.705-5.582 5.649-11.672 8.991-18.354a38.6 38.6 0 0 0 5.889 1.438l6.923 18.016 6.923 18.015zm-17.666-3.467c3.74-1.861 5.65-6.175 4.854-10.404a8.7 8.7 0 0 0-.398-1.353c-.159-.423-.398-.93-.636-1.269-2.149-3.552-6.366-5.244-10.266-3.806-3.74 1.945-5.65 6.259-4.854 10.403.08.423.24.93.398 1.354.16.423.398.845.637 1.268 2.148 3.553 6.366 5.244 10.265 3.807z"/>
</svg>