<svg height="50" viewBox="0 0 50 50" width="50" xmlns="http://www.w3.org/2000/svg"><path d="m.00390625 3v32h1.99609375v-30h43v-2zm3.99609375 4v2.609375c2.652344 2.304688 17.863281 15.546875 19.066406 16.59375 1.238282 1.078125 2.464844 1.199219 2.933594 1.199219s1.695313-.121094 2.933594-1.199219c1.246094-1.085937 17.347656-15.09375 19.066406-16.59375v-2.609375zm0 4.9375v22.082031l13.300781-10.5c-4.3125-3.753906-10.457031-9.105468-13.300781-11.582031zm44 .003906c-2.421875 2.109375-14.652344 12.757813-14.652344 12.757813-1.703125 1.480469-2.945312 2.558594-3.257812 2.832031-1.6875 1.46875-3.421875 1.628906-4.089844 1.628906s-2.402344-.160156-4.089844-1.628906c-.308593-.269531-1.550781-1.347656-3.257812-2.835937l-14.652344 11.570312v2.734375h26.050781c.503907 5.035156 4.785157 9 9.949219 9 5.5 0 10-4.5 10-10 0-2.234375-.75-4.292969-2-5.964844zm-8 18.058594c1.921875 0 3.695313.6875 5.078125 1.828125 0 .003906.003906.003906.003906.003906.011719.011719.027344.023438.039063.035157.378906.316406.730469.667968 1.046875 1.050781 1.144531 1.382812 1.832031 3.15625 1.832031 5.082031 0 4.398438-3.601562 8-8 8-4.398437 0-8-3.601562-8-8 0-1.980469.734375-3.792969 1.9375-5.195312.78125-.824219 1.652344-1.515625 2.53125-1.96875.03125-.015625.066406-.03125.097656-.046875.144532-.070313.289063-.136719.433594-.195313.925781-.378906 1.9375-.59375 3-.59375zm-3.375 3.476563c-.074219-.007813-.148437 0-.222656.023437h-.101563c-.5.101563-.902343.597656-.800781 1.199219 0 .199219.101563.402344.300781.601562l2.796875 2.796875-2.796875 2.804688c-.398437.398437-.398437 1 0 1.398437.398438.398438 1 .398438 1.398438 0l2.800781-2.800781 2.800781 2.800781c.398438.398438 1 .398438 1.398438 0 .398437-.398437.398437-1 0-1.398437l-2.796875-2.902344 2.796875-2.800781c.398437-.398438.402344-1 .101562-1.398438-.199218-.199218-.601562-.402343-.898437-.300781-.203125 0-.402344.101563-.601563.300781l-2.800781 2.796875-2.800781-2.796875c-.148438-.148437-.355469-.300781-.574219-.324218z"/></svg>