<svg height="50" viewBox="0 0 50 50" width="50" xmlns="http://www.w3.org/2000/svg"><path d="m25 3c-5.816 0-9.662516 3.586-9.978516 9.25-.014.246-.021484.496-.021484.75-.002 1.647.403516 3.298797.853516 4.716797-.218.255-.452094.599203-.621094 1.033203-.137.356-.229422.773-.232422 1.25 0 .103.005531.337047.019531.498047.273 2.107 1.226453 3.113484 2.064453 3.521484.277 1.897.965016 3.487594 1.916016 4.433594v3.775391c-.577 1.386-2.590203 2.187281-4.908203 3.113281-3.901 1.558-8.7568439 3.495516-9.0898439 9.603515l-.0019531 1.054688h27.021484c1.827205 2.422612 4.719584 4 7.978516 4 5.511003 0 10-4.488997 10-10s-4.488997-10-10-10c-3.069706 0-5.8199 1.395649-7.65625 3.582031-.611567-.40878-1.089954-.859719-1.34375-1.40625v-3.726562c1.106-1.121 1.636766-3.002719 1.884766-4.386719.908-.378 1.909515-1.394188 2.103515-3.617188.009-.111.014672-.353125.013672-.453124-.007-.982-.384469-1.789219-.855469-2.324219.343-1.17.808563-2.986969.851563-4.917969.001-.125.002953-.25.001953-.375-.028-4.009-1.848578-6.6032656-5.017578-7.1972656-.961-1.355-2.815422-2.1777344-4.982422-2.1777344zm15 29c4.430123 0 8 3.569877 8 8s-3.569877 8-8 8-8-3.569877-8-8 3.569877-8 8-8zm-3.509766 3.490234a1.0001 1.0001 0 0 0 -.697265 1.716797l2.792969 2.792969-2.792969 2.792969a1.0001 1.0001 0 1 0 1.414062 1.414062l2.792969-2.792969 2.792969 2.792969a1.0001 1.0001 0 1 0 1.414062-1.414062l-2.792969-2.792969 2.792969-2.792969a1.0001 1.0001 0 0 0 -.726562-1.716797 1.0001 1.0001 0 0 0 -.6875.302735l-2.792969 2.792969-2.792969-2.792969a1.0001 1.0001 0 0 0 -.716797-.302735z"/></svg>