<svg height="50" viewBox="0 0 50 50" width="50" xmlns="http://www.w3.org/2000/svg"><path d="m5 3c-1.654 0-3 1.346-3 3v6h1 44 1v-2c0-1.654-1.346-3-3-3l-26.955078.0058594c-.279-.101-.856016-1.0196719-1.166016-1.5136719-.767-1.224-1.561906-2.4921875-2.878906-2.4921875zm-2 11c-.551 0-1 .448-1 1v27c0 1.654 1.346 3 3 3h26.359375c1.736327 2.980427 4.960869 5 8.640625 5 5.5 0 10-4.5 10-10 0-2.232629-.751084-4.293939-2-5.962891v-19.037109c0-.552-.449-1-1-1zm37 18c4.4 0 8 3.6 8 8s-3.6 8-8 8-8-3.6-8-8 3.6-8 8-8zm-3.5 3.5c-.25 0-.499219.100781-.699219.300781-.4.4-.4.998438 0 1.398438l2.798828 2.800781-2.798828 2.800781c-.4.4-.4.998438 0 1.398438.2.2.499219.300781.699219.300781s.499219-.100781.699219-.300781l2.800781-2.798828 2.800781 2.798828c.2.2.499219.300781.699219.300781s.499219-.100781.699219-.300781c.4-.4.4-.998438 0-1.398438l-2.798828-2.800781 2.798828-2.800781c.4-.4.4-.998438 0-1.398438s-.998438-.4-1.398438 0l-2.800781 2.798828-2.800781-2.798828c-.2-.2-.449219-.300781-.699219-.300781z"/></svg>