<svg xmlns="http://www.w3.org/2000/svg" xmlns:xlink="http://www.w3.org/1999/xlink" width="60" height="46">
  <defs>
    <path id="icon-other" d="M64.1268 62.5443H10v-.5012a12.9096 12.9096 0 0 1 11.9245-12.8719v-.0376h30.2778v.0376a12.909 12.909 0 0 1 8.1433 3.7435 12.9088 12.9088 0 0 1 3.7812 9.1284v.5012zM37.2708 20.1c7.0964 0 12.8577 5.7615 12.8577 12.8577 0 7.0964-5.7613 12.8578-12.8577 12.8578-7.0964 0-12.8577-5.7614-12.8577-12.8578 0-7.0962 5.7613-12.8577 12.8577-12.8577zm23.1121 25.7155h-.035a1.9638 1.9638 0 0 1-1.9635-1.9634v-.0351c0-.5208.207-1.0202.575-1.3884a1.9638 1.9638 0 0 1 1.3885-.575h.035a1.963 1.963 0 0 1 1.9633 1.9634v.035a1.9632 1.9632 0 0 1-1.9633 1.9634zm-.7617-6.9769a1.0437 1.0437 0 0 1-1.0435-1.0435c0-1.3656.1933-2.5446.5798-3.5367.2835-.7472.7408-1.501 1.372-2.2611.464-.5542 1.2983-1.3625 2.503-2.4256 1.2046-1.0628 1.9873-1.91 2.348-2.5412.3608-.6315.5412-1.3206.5412-2.068 0-1.3528-.5284-2.5413-1.5848-3.5658-1.0564-1.0242-2.3513-1.5363-3.8845-1.5363-1.4817 0-2.7186.4637-3.7107 1.3914-.7298.6825-1.2748 1.6472-1.635 2.8942a1.7805 1.7805 0 0 1-1.9174 1.2625c-.0002.0015-.0002.0015-.0005.0015a1.8375 1.8375 0 0 1-1.5392-2.3652c.4911-1.6257 1.3022-2.9386 2.4347-3.9382C55.6756 17.7022 57.7788 17 60.3943 17c2.77 0 4.9797.7538 6.629 2.2613 1.6491 1.5075 2.4737 3.3306 2.4737 5.4693 0 1.2368-.29 2.377-.8698 3.4208-.5796 1.0435-1.7134 2.3127-3.4013 3.8071-1.1337 1.005-1.8747 1.746-2.2225 2.2225-.348.4768-.6055 1.0243-.7731 1.6429-.0873.3225-.1553.7499-.2043 1.2827-.117.9844-.9519 1.7256-1.9431 1.7256-.158.0064-.3138.0064-.4617.0064z"/>
  </defs>
  <use fill="#697A8C" fill-rule="evenodd" transform="translate(-10 -17)" xlink:href="#icon-other"/>
</svg>