<svg xmlns="http://www.w3.org/2000/svg" xmlns:xlink="http://www.w3.org/1999/xlink" width="70" height="46">
  <defs>
    <path id="icon-night" d="M55.5383 63H22.0676v-.1707c-3.6975-.7657-6.4782-4.0166-6.4782-7.906 0-3.8894 2.7807-7.1404 6.4782-7.906l.429-.1708a6.9278 6.9278 0 0 1-.429-2.407c0-3.8672 3.1689-7.007 7.072-7.007 1.5785 0 3.0368.5135 4.214 1.381 1.6125-4.9576 6.3096-8.5484 11.8466-8.5484 6.4262 0 11.721 4.8366 12.3755 11.033 4.4195 1.5054 7.599 5.6625 7.599 10.5496 0 5.6103-4.1901 10.2585-9.6364 11.0374V63zM9.022 36.7105l1.0863 2.9087 2.9356 1.0761-2.9356 1.0763-1.0863 2.9086-1.0863-2.9086L5 40.6953l2.9356-1.0761 1.0863-2.9087zm42.3261-7.1658a11.8411 11.8411 0 0 1-.0205-.697C51.3275 22.3088 56.6856 17 63.2852 17c.6833 0 1.3531.057 2.005.1662-4.3276.8223-7.6022 4.5966-7.6022 9.1228 0 5.127 4.201 9.2892 9.3753 9.2892A9.3923 9.3923 0 0 0 75 31.2332c-1.1153 5.3972-5.9397 9.4621-11.7148 9.4621-.8568 0-1.6927-.0894-2.4989-.2597a12.7855 12.7855 0 0 0-.8924-.4897 16.1162 16.1162 0 0 0-.3695-.1757s-.0538-.2623-.0978-.4506c-1.026-4.3867-4.1655-7.9203-8.0786-9.7749zM20.0701 19.4605l2.4496 6.559 6.6199 2.427-6.6199 2.4271-2.4496 6.559-2.4496-6.559-6.6199-2.427 6.62-2.4272 2.4495-6.559z"/>
  </defs>
  <use fill="#697A8C" fill-rule="evenodd" transform="translate(-5 -17)" xlink:href="#icon-night"/>
</svg>