<svg xmlns="http://www.w3.org/2000/svg" xmlns:xlink="http://www.w3.org/1999/xlink" width="65" height="48">
  <defs>
    <path id="icon-meals" d="M65.971 60.8489l1.1106-23.1038a1.6806 1.6806 0 0 0-.2352-.9412c-.4-.6713-1.1688-1.9606-1.6207-2.72a2.6808 2.6808 0 0 1-.3777-1.314c-.1092-5.3984.6744-10.4372 3.0092-14.8522a1.7417 1.7417 0 0 1 2.5263-.6076l.1224.0847a1.366 1.366 0 0 1 .5865 1.0617L72.986 60.873a3.567 3.567 0 0 1 .0141.318c0 1.9443-1.5784 3.5228-3.5228 3.5228-1.9442 0-3.5227-1.5785-3.5227-3.5228 0-.1154.0056-.2295.0165-.3421zm-55.453-.1808l1.1106-23.1038a1.6644 1.6644 0 0 0 .0018-.0594C9.488 36.6698 8 34.8427 8 32.7251c0-.309.8778-15.588 2.1414-15.5443.4014.014.8029 1.7753.9255 3.8644.1791 3.0517.0431 8.16.7546 8.186 1.1472.0416.8362-6.078 1.32-9.2178.1717-1.1137.4177-1.905.6567-2.363 0 0 .1507-.339.2261-.339s.2262.339.2262.339c.239.458.485 1.2493.6566 2.363.4839 3.1397.1729 9.2594 1.32 9.2178.7115-.026.5755-5.1343.7547-8.186.1226-2.0891.524-3.8504.9254-3.8644 1.2636-.0438 2.1414 15.2354 2.1414 15.5443 0 2.0916-1.4517 3.9-3.5521 4.7487l1.0364 23.2185c.0094.1048.0142.2108.0142.318 0 1.9443-1.5785 3.5227-3.5228 3.5227-1.9442 0-3.5227-1.5784-3.5227-3.5227 0-.1154.0055-.2296.0164-.3422zm31.3452-39.714c10.9847 0 19.9029 8.9181 19.9029 19.9029 0 10.9846-8.9182 19.9028-19.903 19.9028-10.9847 0-19.9028-8.9182-19.9028-19.9028 0-10.9848 8.9181-19.9029 19.9029-19.9029zm.0806 6.492c3.453.0333 6.8326 1.4275 9.277 3.8149 2.9953 2.9254 4.4938 7.306 3.912 11.4614-.7598 5.4282-5.152 10.1865-10.659 11.2786-.8611.1708-1.7388.256-2.6165.256-4.7976 0-9.4912-2.7936-11.7855-7.0156-1.948-3.585-2.138-8.0788-.4675-11.8322 2.0813-4.6765 6.961-7.9128 12.1664-7.9631.0576-.0004.1153-.0004.173 0zm-.0084 2.3082c4.0544.0434 7.894 2.408 9.7536 5.9306 1.6006 3.0318 1.6815 6.8248.211 9.923-1.4898 3.1383-4.524 5.4985-7.9357 6.153-4.9418.9479-10.0628-1.783-12.1371-6.153-1.474-3.1054-1.3881-6.894.211-9.923 1.864-3.5307 5.7347-5.8875 9.7536-5.9306h.1436z"/>
  </defs>
  <use fill="#697A8C" fill-rule="evenodd" transform="translate(-8 -17)" xlink:href="#icon-meals"/>
</svg>