<svg xmlns="http://www.w3.org/2000/svg" xmlns:xlink="http://www.w3.org/1999/xlink" width="65" height="62">
  <defs>
    <path id="icon-menagere" d="M17.4297 26.9974c.4776-2.4528 2.6397-4.3065 5.2314-4.3065 2.6069 0 4.7792 1.8756 5.2395 4.35l4.9415 9.304a1.385 1.385 0 0 0 .5519.5617l10.4402 5.7838c.7763.154 1.4599.5672 1.9565 1.1456.2646.0813.712.2505.9898.5253l18.1539 19.3729 6.7934 4.5888a1.4115 1.4115 0 1 1-.7902 2.5812H59.0203a1.4114 1.4114 0 0 1-1.0158-2.3916l3.2034-3.3204-15.5962-16.6434c-.6284.6292-1.4968 1.0186-2.4555 1.0186-1.163 0-2.1931-.5731-2.8233-1.452a3.8388 3.8388 0 0 0-.9306.8437c-1.3622 1.7204-1.1698 4.1653-.7882 6.1572.1608.8392.3714 1.6798.6501 2.4896a1.7038 1.7038 0 0 1 1.321-.4452l3.3662.3235c6.2239.5982 11.3761 5.0927 12.8135 11.1777v.0004a1.8231 1.8231 0 0 1-.3445 1.5502 1.823 1.823 0 0 1-1.4295.6917h-9.0354a3.475 3.475 0 0 0 .0855-.768c0-1.916-1.5557-3.4716-3.4716-3.4716-1.916 0-3.4716 1.5555-3.4716 3.4716 0 .2638.0295.5209.0855.768h-.6496a2.1103 2.1103 0 0 1-2.0558-2.587l1.28-5.5202c-.2944-.415-.5493-.8571-.7816-1.2797-1.4731-2.6804-2.2999-5.746-2.3257-8.7227-.0201-2.32.6228-4.7727 2.1774-6.5215l-8.3398-4.3415a1.584 1.584 0 0 1-.7212-.7732l-1.8825-4.328-1.6294 6.1575a5.2907 5.2907 0 0 1-.1755.6977l7.063 8.5805a3.461 3.461 0 0 1 .6977 1.411c.6753 2.888 2.9785 12.7358 2.9785 12.7358.0272.1886.0413.3815.0413.5776 0 2.213-1.7965 4.0095-4.0095 4.0095-1.8181 0-3.3554-1.213-3.8458-2.8733l-2.14-11.0283-9.4767-11.1529c-1.05-.9736-1.7076-2.3648-1.7076-3.9081 0-.692.1321-1.3532.3725-1.96.8252-4.2703 3.3767-13.08 3.3767-13.08zM8 65.1651c0-.183 6.4466-15.4094 6.4466-15.4094l5.7697 5.8511-4.3181 10.538c-.4377 1.74-2.0138 3.0298-3.8887 3.0298C9.7965 69.1746 8 67.378 8 65.165zM28.496 9c3.2922 0 5.9653 2.673 5.9653 5.9653s-2.673 5.9653-5.9653 5.9653c-3.2924 0-5.9653-2.673-5.9653-5.9653S25.2037 9 28.496 9z"/>
  </defs>
  <use fill="#697A8C" fill-rule="evenodd" transform="translate(-8 -9)" xlink:href="#icon-menagere"/>
</svg>