<svg xmlns="http://www.w3.org/2000/svg" xmlns:xlink="http://www.w3.org/1999/xlink" width="57" height="62">
  <defs>
    <path id="icon-company" d="M62.9433 22.3538h.453v.0174a5.9375 5.9375 0 0 1 5.4846 5.9203v15.1181c0 1.225-.993 2.218-2.218 2.218h-.0946c-1.225 0-2.218-.993-2.218-2.218V30.6521a.4767.4767 0 0 0-.4768-.4767h-.0004a.4768.4768 0 0 0-.4767.4767v37.343c0 1.6595-1.3453 3.005-3.005 3.0049h-.2347c-1.6596 0-3.005-1.3454-3.005-3.005V53.427a.5497.5497 0 0 0-.55-.55h-.2263a.5497.5497 0 0 0-.55.55v14.568c0 1.6596-1.3453 3.005-3.005 3.005h-.3452c-1.6596 0-3.005-1.3454-3.005-3.005V30.6521a.4767.4767 0 0 0-.4767-.4767h-.0004a.4768.4768 0 0 0-.4767.4767v12.7575c0 1.225-.993 2.218-2.2181 2.218h-.0946c-1.225 0-2.218-.993-2.218-2.218v-15.118a5.9376 5.9376 0 0 1 5.4845-5.9204v-.0174h13.4731zm-31.5325.0191c1.5715.1002 2.4895.8134 3.53 1.9955l4.858 5.519.001.0009.0015-.003 3.2305 1.5075v4.9998l-5.1421-2.3996-.002.0005-1.484-1.1176-.0057.005-3.2984-3.747a.4767.4767 0 0 0-.6728-.0428l-.0003.0001c-.5921.2203-.8898 2.1818-1.0157 4.0623V67.995c0 1.6595-1.3454 3.005-3.005 3.0049h-.2347c-1.6596 0-3.005-1.3454-3.005-3.005V53.427a.55.55 0 0 0-.55-.55h-.2263a.5497.5497 0 0 0-.55.55v14.568c0 1.6596-1.3454 3.005-3.005 3.005h-.3452c-1.6596 0-3.005-1.3454-3.005-3.005V30.6521a.4767.4767 0 0 0-.4767-.4767h-.0004a.4768.4768 0 0 0-.4767.4767v12.7575c0 1.225-.993 2.218-2.2181 2.218h-.0946c-1.225 0-2.2181-.993-2.2181-2.218v-15.118c0-1.5749.6256-3.085 1.7391-4.1986a5.9259 5.9259 0 0 1 3.7455-1.72v-.0192h13.9262v.0191zM56.5287 9c3.264 0 5.9138 2.6499 5.9138 5.9138 0 3.264-2.6498 5.9139-5.9138 5.9139-3.2639 0-5.9139-2.6499-5.9139-5.9139S53.2648 9 56.5287 9zM24.543 9c3.264 0 5.9138 2.6499 5.9138 5.9138 0 3.264-2.6499 5.9139-5.9138 5.9139-3.264 0-5.9139-2.6499-5.9139-5.9139S21.2792 9 24.5431 9z"/>
  </defs>
  <use fill="#697A8C" fill-rule="evenodd" transform="translate(-12 -9)" xlink:href="#icon-company"/>
</svg>