<?xml version="1.0" encoding="UTF-8"?>
<svg xmlns="http://www.w3.org/2000/svg" xmlns:xlink="http://www.w3.org/1999/xlink" viewBox="0 0 50 50" version="1.1" width="50px" height="50px">
<g id="surface1">
<path style=" " d="M 10 9 C 6.132813 9 3 12.132813 3 16 L 3 34 C 3 37.867188 6.132813 41 10 41 L 40 41 C 43.867188 41 47 37.867188 47 34 L 47 16 C 47 12.132813 43.867188 9 40 9 Z M 22.78125 16.75 C 28.25 16.75 28.25 22.550781 28.25 25.03125 C 28.25 27.488281 28.25 33.25 22.78125 33.25 C 21.214844 33.25 19.957031 32.804688 19.0625 31.90625 C 17.292969 30.132813 17.308594 27.070313 17.3125 25.25 L 17.3125 25.03125 C 17.3125 22.339844 17.3125 16.75 22.78125 16.75 Z M 35.21875 16.75 C 40.6875 16.75 40.6875 22.550781 40.6875 25.03125 C 40.6875 27.488281 40.6875 33.25 35.21875 33.25 C 29.75 33.25 29.75 27.46875 29.75 25 C 29.75 22.320313 29.75 16.75 35.21875 16.75 Z M 13.34375 16.8125 L 15.25 16.8125 L 15.25 33.09375 L 13.125 33.09375 L 13.125 32.9375 L 12.875 32.9375 L 12.875 21.875 L 8.75 21.875 L 8.75 19.84375 L 9 19.8125 C 11.363281 19.726563 12.917969 19.242188 13.3125 17.03125 Z M 22.78125 18.96875 C 22.023438 18.96875 21.410156 19.21875 20.9375 19.71875 C 20.316406 20.375 19.609375 21.816406 19.78125 24.90625 C 19.785156 24.980469 19.78125 25.007813 19.78125 25.03125 L 19.78125 25.21875 C 19.707031 27.738281 20.109375 29.488281 21 30.40625 C 21.46875 30.886719 22.054688 31.125 22.78125 31.125 C 24.855469 31.125 25.78125 29.238281 25.78125 25.03125 C 25.78125 25 25.777344 24.960938 25.78125 24.875 C 25.941406 21.789063 25.265625 20.363281 24.65625 19.71875 C 24.179688 19.21875 23.542969 18.96875 22.78125 18.96875 Z M 35.21875 18.96875 C 34.460938 18.96875 33.847656 19.21875 33.375 19.71875 C 32.753906 20.375 32.046875 21.816406 32.21875 24.90625 C 32.222656 24.980469 32.21875 25.007813 32.21875 25.03125 L 32.21875 25.21875 C 32.144531 27.738281 32.546875 29.488281 33.4375 30.40625 C 33.90625 30.886719 34.492188 31.125 35.21875 31.125 C 37.292969 31.125 38.21875 29.238281 38.21875 25.03125 C 38.21875 25 38.214844 24.960938 38.21875 24.875 C 38.378906 21.789063 37.703125 20.363281 37.09375 19.71875 C 36.617188 19.21875 35.980469 18.96875 35.21875 18.96875 Z "/>
</g>
</svg>
