<?xml version="1.0" encoding="UTF-8"?>
<svg xmlns="http://www.w3.org/2000/svg" viewBox="0 0 252 252" width="50" height="50" fill="none">
    <g stroke-miterlimit="10" font-family="none" font-weight="none" font-size="none" text-anchor="none" style="mix-blend-mode:normal">
    <path d="M0 252V0h252v252z"/>
    <path fill="#697A8C" d="M236.88 80.64v71.9129c-9.947-7.1872-22.1417-11.4329-35.28-11.4329-5.5846 0-10.9986.7671-16.1421 2.2011.1036-1.1004.157-2.247.1558-3.4414 0-10.6116-5.729-28.5666-27.2671-28.5666-5.6504 0-10.1588 1.2797-13.3875 3.7997l3.6815-19.4906h32.2088V84.42h-41.7572l-7.7963 44.0606 10.2966.5513.4134-.5119c2.52-3.15 6.9497-6.8906 13.742-6.8906 1.7324 0 16.9509.4725 16.9509 16.9312 0 2.3433-.3504 7.631-3.1947 11.841a61.0645 61.0645 0 0 0-7.108 5.238c-1.5426.471-3.3143.7382-5.349.7382-6.4968 0-15.6318-4.036-15.6318-13.0331v-1.26H129.78v1.26c0 7.7231 4.758 21.7735 22.0836 23.949-6.7685 9.7644-10.7436 21.5937-10.7436 34.3063 0 1.6967.0708 3.3776.2096 5.04H50.4c-19.4906 0-35.28-15.7894-35.28-35.28V80.64c0-19.4906 15.7894-35.28 35.28-35.28h151.2c19.4906 0 35.28 15.7894 35.28 35.28zm-116.7862 59.2397c0-10.6116-5.7291-28.5666-27.2672-28.5666-5.6503 0-10.1588 1.2797-13.3875 3.7997l3.6815-19.4906h32.2088V84.42H73.5722l-7.7963 44.0606 10.2966.5513.4134-.5119c2.52-3.15 6.9497-6.8906 13.742-6.8906 1.7324 0 16.9508.4725 16.9508 16.9312 0 4.1935-1.1221 17.8172-15.6515 17.8172-6.4969 0-15.6319-4.036-15.6319-13.0331v-1.26H64.26v1.26c0 8.3869 5.611 24.2353 26.834 24.2353 10.7888 0 29.0194-5.8275 28.9998-27.7003z"/>
    <path fill="none" d="M126 252C56.4121 252 0 195.5879 0 126 0 56.4121 56.4121 0 126 0c69.5879 0 126 56.4121 126 126 0 69.5879-56.4121 126-126 126z"/>
    <path fill="none" d="M126 246.96C59.1956 246.96 5.04 192.8044 5.04 126 5.04 59.1956 59.1956 5.04 126 5.04c66.8044 0 120.96 54.1556 120.96 120.96 0 66.8044-54.1556 120.96-120.96 120.96z"/>
    <path fill="#697A8C" d="M201.6 151.2c-27.72 0-50.4 22.68-50.4 50.4s22.68 50.4 50.4 50.4 50.4-22.68 50.4-50.4-22.68-50.4-50.4-50.4zm24.696 55.44H206.64v19.656c0 3.024-2.016 5.04-5.04 5.04s-5.04-2.016-5.04-5.04V206.64h-19.656c-3.024 0-5.04-2.016-5.04-5.04s2.016-5.04 5.04-5.04h19.656V176.4c0-3.024 2.016-5.04 5.04-5.04s5.04 2.016 5.04 5.04v20.16h19.656c3.024 0 5.04 2.016 5.04 5.04s-2.016 5.04-5.04 5.04z" /></g>
</svg>