<?xml version="1.0" encoding="UTF-8"?>
<svg xmlns="http://www.w3.org/2000/svg" xmlns:xlink="http://www.w3.org/1999/xlink" viewBox="0 0 50 50" version="1.1" width="50px" height="50px">
<g id="surface1">
<path style=" " d="M 10 9 C 6.132813 9 3 12.132813 3 16 L 3 34 C 3 37.867188 6.132813 41 10 41 L 40 41 C 43.867188 41 47 37.867188 47 34 L 47 16 C 47 12.132813 43.867188 9 40 9 Z M 18.96875 16.75 C 23.046875 16.75 23.585938 19.976563 23.65625 20.96875 L 23.6875 21.25 L 21.3125 21.25 L 21.28125 21.03125 C 21.175781 20.011719 20.664063 18.78125 18.875 18.78125 C 15.929688 18.78125 15.402344 22.207031 15.3125 23.9375 C 16.207031 22.859375 17.460938 22.3125 19.0625 22.3125 C 23.960938 22.3125 24.09375 27.136719 24.09375 27.6875 C 24.09375 29.75 22.917969 33.25 18.53125 33.25 C 14.789063 33.25 12.90625 30.628906 12.90625 25.46875 C 12.902344 23.578125 13.164063 21.976563 13.65625 20.65625 C 14.609375 18.101563 16.433594 16.75 18.96875 16.75 Z M 31.5 16.75 C 36.96875 16.75 36.96875 22.550781 36.96875 25.03125 C 36.96875 27.488281 36.96875 33.25 31.5 33.25 C 29.933594 33.25 28.675781 32.804688 27.78125 31.90625 C 26.011719 30.136719 26.027344 27.070313 26.03125 25.25 L 26.03125 25.03125 C 26.03125 22.339844 26.03125 16.75 31.5 16.75 Z M 31.5 18.96875 C 30.742188 18.96875 30.128906 19.21875 29.65625 19.71875 C 29.035156 20.375 28.328125 21.816406 28.5 24.90625 C 28.503906 24.980469 28.5 25.007813 28.5 25.03125 L 28.5 25.21875 C 28.425781 27.738281 28.828125 29.488281 29.71875 30.40625 C 30.1875 30.886719 30.773438 31.125 31.5 31.125 C 33.574219 31.125 34.5 29.238281 34.5 25.03125 C 34.5 25 34.496094 24.960938 34.5 24.875 C 34.660156 21.789063 33.984375 20.363281 33.375 19.71875 C 32.898438 19.21875 32.261719 18.96875 31.5 18.96875 Z M 18.71875 24.34375 C 15.75 24.425781 15.71875 27.554688 15.71875 27.6875 C 15.71875 30.257813 17.605469 30.96875 18.71875 30.96875 C 21.554688 30.96875 21.625 28.019531 21.625 27.6875 C 21.625 27.34375 21.554688 24.34375 18.71875 24.34375 Z "/>
</g>
</svg>
