<?xml version="1.0" encoding="UTF-8"?>
<svg xmlns="http://www.w3.org/2000/svg" xmlns:xlink="http://www.w3.org/1999/xlink" viewBox="0 0 50 50" version="1.1" width="50px" height="50px">
<g id="surface1">
<path style=" " d="M 25 0 C 21.691406 0 19 2.691406 19 6 C 19 9.308594 21.691406 12 25 12 C 28.308594 12 31 9.308594 31 6 C 31 2.691406 28.308594 0 25 0 Z M 22 13 C 18.140625 13 15 16.140625 15 20 L 15 22 L 35 22 L 35 20 C 35 16.140625 31.859375 13 28 13 Z M 42 19 L 42 20 L 44 20 L 44 19 Z M 43 20 C 40.585938 20 38.5625 21.722656 38.09375 24 L 1 24 C 0.449219 24 0 24.449219 0 25 L 0 29 C 0 29.554688 0.449219 30 1 30 L 49 30 C 49.554688 30 50 29.554688 50 29 L 50 25 C 50 24.449219 49.554688 24 49 24 L 47.90625 24 C 47.4375 21.722656 45.414063 20 43 20 Z M 43 22 C 44.300781 22 45.394531 22.84375 45.8125 24 L 40.1875 24 C 40.605469 22.84375 41.699219 22 43 22 Z M 2 32 L 2 49 C 2 49.554688 2.449219 50 3 50 L 47 50 C 47.554688 50 48 49.554688 48 49 L 48 32 Z "/>
</g>
</svg>
