<?xml version="1.0" encoding="UTF-8"?>
<svg xmlns="http://www.w3.org/2000/svg" xmlns:xlink="http://www.w3.org/1999/xlink" viewBox="0 0 50 50" version="1.1" width="50px" height="50px">
<g id="surface1">
<path style=" " d="M 27.8125 1 C 27.609375 1.035156 27.425781 1.136719 27.28125 1.28125 C 26.417969 2.144531 24.488281 2.710938 22.4375 2.90625 C 20.386719 3.101563 18.289063 3 17 3 C 16.640625 2.996094 16.304688 3.183594 16.121094 3.496094 C 15.941406 3.808594 15.941406 4.191406 16.121094 4.503906 C 16.304688 4.816406 16.640625 5.003906 17 5 C 18.191406 5 20.390625 5.085938 22.625 4.875 C 24.449219 4.703125 26.234375 4.21875 27.6875 3.28125 C 29.914063 7.375 35.433594 9.773438 42.71875 9.0625 C 42.179688 10.996094 41.820313 13.023438 42.125 15.125 C 42.46875 17.507813 43.679688 19.890625 45.8125 22.09375 C 42.304688 27.84375 45.09375 34.375 45.09375 34.375 C 45.171875 34.773438 45.480469 35.082031 45.878906 35.160156 C 46.277344 35.242188 46.679688 35.074219 46.90625 34.738281 C 47.132813 34.398438 47.132813 33.960938 46.90625 33.625 C 46.90625 33.625 44.367188 27.449219 47.8125 22.5625 C 48.085938 22.160156 48.035156 21.621094 47.6875 21.28125 C 45.433594 19.191406 44.410156 17.019531 44.09375 14.84375 C 43.777344 12.667969 44.191406 10.457031 44.9375 8.34375 C 45.066406 8.011719 45.003906 7.632813 44.777344 7.355469 C 44.554688 7.078125 44.195313 6.941406 43.84375 7 C 35.824219 8.226563 30.40625 5.40625 28.9375 1.625 C 28.773438 1.210938 28.351563 0.953125 27.90625 1 C 27.875 1 27.84375 1 27.8125 1 Z M 23.9375 7.9375 C 22.976563 7.9375 22.066406 8.21875 21.3125 8.8125 L 18.71875 10.84375 C 18.800781 10.859375 18.921875 10.859375 19 10.875 L 19.03125 10.875 L 19.0625 10.90625 C 19.292969 10.949219 19.503906 10.988281 19.6875 11.03125 C 19.929688 11.085938 20.160156 11.128906 20.34375 11.1875 C 20.613281 11.269531 20.839844 11.367188 21.03125 11.46875 C 21.171875 11.542969 21.3125 11.625 21.4375 11.71875 L 26.5625 15.5625 L 26.59375 15.5625 C 28.449219 14.113281 28.765625 11.417969 27.3125 9.5625 C 26.5 8.519531 25.265625 7.9375 23.9375 7.9375 Z M 30.1875 11.6875 C 30.339844 13.578125 29.640625 15.496094 28.15625 16.84375 L 28.1875 16.875 L 28.25 16.90625 L 28.28125 16.9375 C 28.585938 17.191406 28.867188 17.394531 29.125 17.59375 C 29.847656 18.148438 31.121094 19.121094 31.28125 20.53125 L 32.59375 19.5 C 34.503906 18.007813 34.835938 15.253906 33.34375 13.34375 C 32.570313 12.355469 31.429688 11.773438 30.1875 11.6875 Z M 14.09375 12.46875 C 13.519531 12.46875 12.96875 12.484375 12.4375 12.53125 C 12.261719 12.546875 12.074219 12.574219 11.90625 12.59375 C 11.816406 12.605469 11.746094 12.613281 11.65625 12.625 C 11.535156 12.640625 11.425781 12.667969 11.3125 12.6875 C 11.230469 12.703125 11.140625 12.703125 11.0625 12.71875 C 10.921875 12.746094 10.785156 12.808594 10.65625 12.84375 C 10.617188 12.855469 10.570313 12.863281 10.53125 12.875 C 10.371094 12.921875 10.234375 12.972656 10.09375 13.03125 C 10.046875 13.050781 10.011719 13.074219 9.96875 13.09375 C 9.871094 13.140625 9.773438 13.167969 9.6875 13.21875 C 9.652344 13.242188 9.625 13.289063 9.59375 13.3125 C 9.488281 13.390625 9.386719 13.441406 9.3125 13.53125 C 9.023438 13.878906 8.753906 14.273438 8.5 14.65625 C 8.421875 14.777344 8.328125 14.875 8.25 15 C 8.050781 15.320313 7.867188 15.660156 7.6875 16 C 7.535156 16.289063 7.394531 16.574219 7.25 16.875 C 6.867188 17.652344 6.492188 18.449219 6.125 19.28125 C 5.835938 19.9375 5.539063 20.625 5.21875 21.3125 C 4.519531 22.816406 4.214844 25.128906 3.875 27.5625 C 3.40625 30.925781 2.851563 34.710938 1.28125 36.28125 C 1.082031 36.476563 0.988281 36.75 1 37.03125 C 1.011719 37.308594 1.128906 37.601563 1.34375 37.78125 L 14.34375 48.78125 C 14.53125 48.933594 14.769531 49 15 49 C 15.214844 49 15.445313 48.921875 15.625 48.78125 C 17.886719 47.03125 19.324219 46.652344 21.15625 46.15625 C 23.59375 45.492188 26.347656 44.75 31.59375 40.8125 C 34.277344 38.800781 36.082031 36.699219 37.28125 34.9375 L 33.84375 37.625 C 32.730469 38.5 31.414063 38.96875 30 38.96875 C 28.0625 38.96875 26.246094 38.097656 25.03125 36.5625 C 23.960938 35.183594 23.570313 33.484375 23.78125 31.875 L 23.125 31.3125 C 22.769531 31.007813 22.492188 30.714844 22.25 30.40625 C 20.765625 28.503906 20.566406 26.03125 21.5 23.96875 C 20.992188 23.53125 20.496094 22.976563 20.03125 22.3125 L 19.53125 22.21875 C 20.355469 24.515625 21.871094 30.417969 17.6875 35.25 C 17.488281 35.480469 17.1875 35.59375 16.90625 35.59375 C 16.675781 35.59375 16.4375 35.507813 16.25 35.34375 C 15.832031 34.984375 15.796875 34.355469 16.15625 33.9375 C 20.511719 28.90625 17.375 22.160156 17.34375 22.09375 C 17.277344 21.957031 17.25 21.832031 17.25 21.6875 L 16.84375 21.5625 L 15.09375 24.4375 C 14.90625 24.746094 14.585938 24.90625 14.25 24.90625 C 14.070313 24.90625 13.882813 24.851563 13.71875 24.75 C 13.246094 24.460938 13.117188 23.847656 13.40625 23.375 L 15.53125 19.90625 C 15.757813 19.539063 16.171875 19.371094 16.59375 19.46875 L 20.78125 20.4375 C 20.984375 20.484375 21.199219 20.574219 21.3125 20.75 C 21.464844 20.984375 21.640625 21.203125 21.8125 21.40625 L 21.8125 21.4375 C 25.320313 25.441406 28.328125 22.742188 29.0625 21.5 C 29.796875 20.261719 28.625 19.832031 27 18.46875 L 20.65625 13.65625 C 20.605469 13.617188 20.21875 13.3125 20.21875 13.3125 C 20.175781 13.28125 20.140625 13.273438 20.09375 13.25 C 20.007813 13.203125 19.894531 13.140625 19.75 13.09375 C 19.613281 13.050781 19.433594 13.007813 19.25 12.96875 C 19.085938 12.929688 18.886719 12.910156 18.6875 12.875 C 18.671875 12.871094 18.671875 12.847656 18.65625 12.84375 C 17.457031 12.628906 15.742188 12.46875 14.09375 12.46875 Z M 35.84375 18.3125 C 35.445313 19.375 34.769531 20.34375 33.8125 21.09375 L 29.90625 24.125 C 29.90625 24.125 29.488281 24.539063 28.375 24.8125 C 27.601563 25.242188 26.683594 25.5625 25.625 25.5625 C 24.847656 25.5625 24.082031 25.378906 23.34375 25.0625 C 23.304688 25.046875 23.25 25.046875 23.21875 25.03125 C 23.207031 25.0625 23.199219 25.09375 23.1875 25.125 C 23.15625 25.214844 23.117188 25.285156 23.09375 25.375 C 23.046875 25.539063 23.027344 25.734375 23 25.90625 C 22.988281 25.96875 22.976563 26.03125 22.96875 26.09375 C 22.945313 26.320313 22.925781 26.550781 22.9375 26.78125 C 22.941406 26.847656 22.960938 26.902344 22.96875 26.96875 C 22.988281 27.179688 23.011719 27.386719 23.0625 27.59375 C 23.070313 27.625 23.085938 27.652344 23.09375 27.6875 C 23.15625 27.921875 23.238281 28.152344 23.34375 28.375 C 23.367188 28.429688 23.378906 28.476563 23.40625 28.53125 C 23.523438 28.757813 23.652344 28.980469 23.8125 29.1875 C 23.8125 29.1875 23.84375 29.183594 23.84375 29.1875 C 24.019531 29.410156 24.195313 29.597656 24.40625 29.78125 C 24.410156 29.78125 24.433594 29.808594 24.4375 29.8125 L 24.5625 29.9375 C 25.300781 30.511719 26.222656 30.84375 27.1875 30.84375 C 28.152344 30.84375 29.058594 30.5 29.8125 29.90625 L 35.96875 25.125 C 37.824219 23.675781 38.167969 20.984375 36.71875 19.125 C 36.46875 18.808594 36.160156 18.542969 35.84375 18.3125 Z M 38.90625 24.65625 C 38.503906 25.429688 37.949219 26.113281 37.21875 26.6875 L 31.0625 31.5 C 29.949219 32.375 28.605469 32.84375 27.1875 32.84375 C 26.6875 32.84375 26.222656 32.769531 25.75 32.65625 C 25.742188 33.589844 26.011719 34.519531 26.625 35.3125 C 27.445313 36.351563 28.675781 36.96875 30 36.96875 C 30.964844 36.96875 31.867188 36.65625 32.625 36.0625 L 38.78125 31.25 C 40.636719 29.796875 40.949219 27.097656 39.5 25.25 C 39.320313 25.019531 39.121094 24.839844 38.90625 24.65625 Z "/>
</g>
</svg>
