<?xml version="1.0" encoding="UTF-8"?>
<svg xmlns="http://www.w3.org/2000/svg" xmlns:xlink="http://www.w3.org/1999/xlink" viewBox="0 0 50 50" version="1.1" width="50px" height="50px">
<g id="surface1">
<path style=" " d="M 42.71875 0.84375 L 32.65625 3.53125 C 32.644531 3.535156 32.636719 3.527344 32.625 3.53125 L 10.28125 9.53125 C 10.273438 9.535156 10.257813 9.527344 10.25 9.53125 L 0.21875 12.21875 L 2.5625 20.90625 C 2.578125 20.992188 2.601563 21.097656 2.625 21.1875 L 6 33.65625 L 6 39.25 C 6 39.253906 6 39.277344 6 39.28125 L 6 46 L 13.53125 46 C 13.535156 46 13.558594 46 13.5625 46 L 42.4375 46 C 42.441406 46 42.464844 46 42.46875 46 L 50 46 L 50 39.28125 C 50 39.277344 50 39.253906 50 39.25 L 50 20 L 47.875 20 Z M 33.75 5.34375 C 35.0625 5.230469 35.839844 6.074219 36.8125 7.3125 C 37.261719 7.886719 37.648438 8.394531 38.15625 8.6875 C 38.742188 9.027344 39.523438 9.09375 40.40625 9.1875 C 41.902344 9.34375 42.976563 9.503906 43.1875 10.28125 L 45.78125 20 L 39.59375 20 C 39.582031 20 39.574219 20 39.5625 20 L 32.90625 20 C 32.945313 19.023438 32.832031 18.011719 32.5625 17 C 31.277344 12.199219 26.769531 9.261719 22.5 10.40625 C 18.574219 11.457031 16.226563 15.605469 16.875 20 L 16.4375 20 C 16.425781 20 16.417969 20 16.40625 20 L 6 20 L 6 26 L 4.53125 20.5625 C 4.414063 19.824219 5.238281 19.164063 6.40625 18.3125 C 7.125 17.789063 7.722656 17.339844 8.0625 16.75 C 8.355469 16.242188 8.460938 15.625 8.5625 14.90625 C 8.816406 13.128906 9.125 11.921875 10.8125 11.46875 L 33.15625 5.46875 C 33.367188 5.410156 33.5625 5.359375 33.75 5.34375 Z M 38.96875 13.3125 C 37.589844 13.3125 36.46875 14.433594 36.46875 15.8125 C 36.46875 17.191406 37.589844 18.3125 38.96875 18.3125 C 40.347656 18.3125 41.46875 17.191406 41.46875 15.8125 C 41.46875 14.433594 40.347656 13.3125 38.96875 13.3125 Z M 16.4375 22 L 39.5625 22 C 41.308594 22 41.917969 23.097656 42.625 24.75 C 42.910156 25.417969 43.148438 25.992188 43.5625 26.40625 C 44.042969 26.886719 44.765625 27.152344 45.59375 27.46875 C 47 28.007813 48 28.441406 48 29.25 L 48 39.25 C 48 39.613281 47.339844 39.910156 46.53125 40.21875 C 45.949219 40.441406 45.378906 40.652344 45 41.03125 C 44.671875 41.359375 44.484375 41.808594 44.28125 42.28125 C 43.785156 43.449219 43.433594 44 42.4375 44 L 13.5625 44 C 12.566406 44 12.21875 43.445313 11.71875 42.28125 C 11.515625 41.808594 11.328125 41.359375 11 41.03125 C 10.621094 40.652344 10.050781 40.441406 9.46875 40.21875 C 8.660156 39.910156 8 39.613281 8 39.25 L 8 33.5 L 8.03125 33.5 L 8 33.375 L 8 29.25 C 8 28.441406 9 28.007813 10.40625 27.46875 C 11.234375 27.152344 11.957031 26.882813 12.4375 26.40625 C 12.851563 25.992188 13.089844 25.421875 13.375 24.75 C 14.082031 23.097656 14.691406 22 16.4375 22 Z M 28 24 C 23.582031 24 20 28.03125 20 33 C 20 37.96875 23.582031 42 28 42 C 32.417969 42 36 37.96875 36 33 C 36 28.03125 32.417969 24 28 24 Z M 13.5 31 C 12.121094 31 11 32.121094 11 33.5 C 11 34.878906 12.121094 36 13.5 36 C 14.878906 36 16 34.878906 16 33.5 C 16 32.121094 14.878906 31 13.5 31 Z M 42.5 31 C 41.121094 31 40 32.121094 40 33.5 C 40 34.878906 41.121094 36 42.5 36 C 43.878906 36 45 34.878906 45 33.5 C 45 32.121094 43.878906 31 42.5 31 Z "/>
</g>
</svg>
