<?xml version="1.0" encoding="UTF-8"?>
<svg xmlns="http://www.w3.org/2000/svg" xmlns:xlink="http://www.w3.org/1999/xlink" viewBox="0 0 50 50" version="1.1" width="50px" height="50px">
<g id="surface1">
<path style=" " d="M 14 6 C 9.589844 6 6 9.589844 6 14 C 6 18.410156 9.589844 22 14 22 C 18.410156 22 22 18.410156 22 14 C 22 9.589844 18.410156 6 14 6 Z M 14 23 C 12.328125 23 8.292969 23.269531 4.96875 24.34375 C 1.996094 25.375 0 28.1875 0 31.3125 L 0 44 C 0 44.554688 0.449219 45 1 45 L 27 45 C 27.554688 45 28 44.554688 28 44 L 28 31.3125 C 28 28.230469 25.917969 25.417969 22.8125 24.34375 C 19.613281 23.277344 15.769531 23 14 23 Z M 40 25 C 39.78125 25 39.554688 25.078125 39.375 25.21875 L 30.375 32.21875 C 30.132813 32.40625 30 32.691406 30 33 L 30 44 C 30 44.554688 30.445313 45 31 45 L 49 45 C 49.554688 45 50 44.554688 50 44 L 50 33 C 50 32.691406 49.867188 32.40625 49.625 32.21875 L 40.625 25.21875 C 40.445313 25.078125 40.21875 25 40 25 Z M 37 35 L 43 35 L 43 43 L 37 43 Z "/>
</g>
</svg>
