<?xml version="1.0"?>
<svg xmlns="http://www.w3.org/2000/svg" viewBox="0 0 50 50" width="50px" height="50px">
    <path d="M 25.578125 0.99804688 C 24.849313 1.0167031 24.072937 1.3878594 23.367188 1.7246094 C 23.190188 1.8096094 23.024906 1.8891719 22.878906 1.9511719 C 21.573906 2.5081719 21.672563 3.8425469 21.726562 4.5605469 C 21.739563 4.7285469 21.753906 4.9003594 21.753906 5.0683594 L 21.753906 5.1992188 C 21.755906 6.2192187 21.736469 6.5000937 21.230469 6.8710938 C 20.902469 7.1100938 20.661609 7.1629062 20.224609 7.2539062 C 20.005609 7.2999063 19.770813 7.3488281 19.507812 7.4238281 C 19.176813 7.5178281 17.406938 8.2306094 16.960938 9.3496094 C 16.874938 9.5666094 16.838562 9.7879063 16.851562 10.003906 C 16.736563 10.012906 16.592969 10.019531 16.417969 10.019531 C 15.393969 10.019531 14.960828 9.8071719 14.923828 9.8261719 C 14.893828 9.3641719 14.702141 8.9677812 14.369141 8.6757812 C 13.815141 8.1907812 12.946188 8.035625 11.367188 8.140625 C 10.965188 8.167625 10.611828 8.3894219 10.423828 8.7324219 C 10.033828 9.4414219 10.457969 10.217016 11.042969 11.291016 C 11.190969 11.563016 11.414266 11.975125 11.447266 12.078125 C 11.490266 12.310125 11.554141 12.564266 11.619141 12.822266 C 11.654141 12.961266 11.689703 13.101328 11.720703 13.236328 C 11.373703 13.119328 11.0215 13.027344 10.6875 13.027344 C 10.0165 13.027344 9.498 13.274906 9.125 13.503906 C 8.624 12.760906 7.8420781 11.765688 6.7050781 12.054688 C 6.0790781 12.212688 5.698875 12.672766 5.421875 13.009766 C 5.359875 13.084766 5.2768906 13.185953 5.2128906 13.251953 C 4.4718906 13.018953 3.7385781 13.081766 1.8925781 14.009766 C 1.5165781 14.197766 1.2239375 14.553375 1.0859375 14.984375 C 0.9369375 15.448375 0.97803125 15.941047 1.2070312 16.373047 C 1.3760312 16.693047 1.6415469 16.889391 1.9355469 17.025391 C 1.8865469 17.108391 1.8445 17.199781 1.8125 17.300781 C 1.7195 17.594781 1.6865781 18.052063 2.0175781 18.539062 C 2.1305781 18.876063 2.3981719 19.665078 3.2011719 19.955078 C 3.7771719 20.163078 4.4313906 20.043609 5.1503906 19.599609 C 5.3333906 19.480609 5.815125 19.767359 6.578125 20.443359 C 6.920125 20.747359 7.147375 20.947484 7.484375 21.021484 C 7.726375 21.075484 7.9828125 21.072406 8.2578125 21.066406 C 8.3038125 21.065406 8.3570625 21.064453 8.4140625 21.064453 C 8.5830625 21.564453 8.9712188 21.905938 9.5742188 22.085938 C 9.6562187 22.255937 9.7658594 22.398531 9.8808594 22.519531 C 9.8218594 22.672531 9.7854375 22.831094 9.7734375 22.996094 C 9.7114375 23.864094 10.314656 24.496734 10.847656 25.052734 C 11.031656 25.244734 11.224 25.440438 11.375 25.648438 C 11.652 26.027438 12.070609 26.175359 12.474609 26.318359 C 12.637609 26.376359 12.94 26.48225 13 26.53125 C 13.004 26.53825 13.035859 26.608531 13.005859 26.894531 C 12.996859 26.977531 12.985609 27.261406 12.974609 27.691406 C 12.929609 29.419406 12.790688 34.678875 12.054688 36.796875 C 11.861688 37.351875 11.646656 37.771375 11.472656 38.109375 C 11.160656 38.718375 10.687609 39.637687 11.474609 40.429688 C 12.572609 41.534687 13.557344 41.729094 14.277344 41.871094 C 14.530344 41.921094 14.7475 41.964156 14.9375 42.035156 C 15.0305 42.077156 15.133812 42.156234 15.257812 42.240234 C 15.877812 42.658234 16.919187 43.363516 18.492188 43.228516 C 18.759188 43.207516 18.939172 43.210891 19.076172 43.212891 C 19.702172 43.219891 20.017797 43.120016 20.591797 42.666016 C 21.119797 42.823016 22.300484 43.573172 22.896484 43.951172 C 23.899484 44.588172 24.400609 44.897656 24.849609 44.972656 C 24.921609 44.984656 25.031969 44.992188 25.167969 44.992188 C 26.081969 44.992188 28.215109 44.680891 28.787109 43.587891 C 29.100109 42.994891 29.004734 42.382625 28.927734 41.890625 C 28.895734 41.687625 28.855906 41.435078 28.878906 41.330078 C 28.939906 41.055078 29.169422 40.916734 29.982422 40.552734 C 30.343422 40.390734 30.734813 40.215328 31.132812 39.986328 C 31.364813 39.872328 32.290375 40.199422 32.734375 40.357422 C 33.127375 40.496422 33.532109 40.640656 33.912109 40.722656 C 34.297109 40.805656 34.887984 41.036766 35.458984 41.259766 C 36.069984 41.498766 36.647672 41.72575 37.138672 41.84375 C 38.697672 42.22175 40.015578 40.715656 40.892578 39.722656 L 41.068359 39.523438 C 41.175359 39.421438 41.592797 39.183016 41.841797 39.041016 C 42.195797 38.839016 42.501797 38.663375 42.716797 38.484375 C 43.013797 38.238375 43.951172 37.085938 43.951172 36.210938 C 43.951172 34.809938 42.463125 34.619109 41.828125 34.537109 C 41.703125 34.521109 41.524719 34.498656 41.386719 34.472656 C 41.133719 32.994656 40.913969 30.260766 41.042969 29.759766 C 41.064969 29.706766 41.208969 29.583766 41.292969 29.509766 C 42.348969 28.584766 41.972297 27.775 41.654297 27.375 C 41.374297 27.022 41.294125 26.754359 41.203125 26.443359 C 41.123125 26.169359 41.031453 25.858828 40.814453 25.548828 C 40.449453 25.027828 39.986187 24.918437 39.742188 24.898438 C 39.413187 24.874437 39.126953 24.962422 38.876953 25.107422 C 39.055953 24.786422 39.334578 24.354484 39.767578 23.771484 C 40.151578 23.254484 41.239281 21.898781 41.488281 21.675781 C 41.569281 21.611781 41.713141 21.529547 41.869141 21.435547 C 42.605141 20.990547 43.240266 20.605203 43.322266 19.908203 C 43.350266 19.671203 43.340313 19.354422 43.320312 18.857422 C 43.309313 18.581422 43.291922 18.120781 43.294922 18.050781 C 43.729922 16.465781 44.559063 15.421156 45.164062 14.660156 C 45.718063 13.964156 46.195781 13.364375 45.925781 12.609375 C 45.667781 11.888375 44.908203 11.723922 44.658203 11.669922 C 44.506203 11.636922 44.359125 11.612891 44.203125 11.587891 C 43.744125 11.514891 43.268328 11.438469 42.236328 10.980469 C 41.710328 10.747469 41.252922 10.718266 40.919922 10.697266 C 40.486922 10.669266 40.470328 10.668266 40.236328 10.197266 C 39.687328 9.0912656 38.501797 9.1331563 37.716797 9.1601562 C 37.444797 9.1711562 37.184281 9.1783906 36.988281 9.1503906 C 36.446281 9.0733906 36.376188 9.0198906 35.992188 8.7128906 C 35.810188 8.5678906 35.596781 8.3964063 35.300781 8.1914062 C 34.928781 7.9344062 34.765219 7.7675469 34.699219 7.6855469 C 34.937219 6.7845469 34.444375 6.280625 33.984375 6.015625 C 33.623375 5.807625 33.085906 5.7171875 32.503906 6.3671875 C 32.405906 6.0151875 32.199484 5.6170469 31.771484 5.2480469 C 31.351484 4.8850469 30.861609 4.9098281 30.599609 4.9238281 C 30.537609 4.9268281 30.441453 4.9295469 30.439453 4.9355469 C 30.438453 4.9345469 30.372484 4.8865938 30.271484 4.6835938 C 30.072484 4.2845937 29.76575 4.0410312 29.34375 3.9570312 C 29.30875 3.8760312 29.263938 3.7560312 29.210938 3.5820312 C 29.086938 3.1750312 28.856297 2.8912813 28.529297 2.7382812 C 28.161297 2.5652812 27.821359 2.63075 27.568359 2.71875 C 27.482359 2.59875 27.349688 2.3765156 27.179688 1.9785156 C 27.006687 1.5715156 26.690109 1.2633281 26.287109 1.1113281 C 26.059359 1.0250781 25.821063 0.99182813 25.578125 0.99804688 z M 48.453125 42.009766 C 48.09551 41.876588 47.764375 43.192969 47.484375 43.324219 C 47.476375 43.382219 47.079437 43.575297 46.898438 43.654297 C 46.457437 43.851297 46.364953 44.229781 46.126953 44.550781 C 46.064953 44.634781 45.972812 44.951516 46.007812 45.103516 C 46.100813 45.511516 46.190625 46.172172 46.265625 46.451172 C 46.304625 46.597172 46.435469 46.727828 46.480469 46.798828 C 46.665469 47.087828 46.633156 47.828344 46.785156 48.277344 C 46.865156 48.514344 47.23 48.623406 47.5 48.691406 C 47.571 48.709406 47.623094 48.830234 47.621094 48.865234 C 47.607094 49.088234 48.332188 49.012891 48.117188 48.837891 C 48.098188 48.821891 48.089859 48.740453 48.130859 48.689453 C 48.213859 48.586453 48.326109 48.423922 48.412109 48.294922 C 48.469109 48.207922 48.481469 47.931656 48.480469 47.722656 C 48.478469 47.382656 48.515984 46.895844 48.583984 46.589844 C 48.701984 46.065844 49.044141 45.737063 48.994141 45.164062 C 48.946141 44.602063 48.793516 44.060953 48.728516 43.501953 C 48.687516 43.149953 48.799422 42.480063 48.607422 42.164062 C 48.555297 42.078187 48.504213 42.028791 48.453125 42.009766 z"/>
</svg>
