<?xml version="1.0" encoding="UTF-8"?>
<svg xmlns="http://www.w3.org/2000/svg" xmlns:xlink="http://www.w3.org/1999/xlink" viewBox="0 0 50 50" version="1.1" width="50px" height="50px">
<g id="surface1">
<path style=" " d="M 3 10 C 2.449219 10 2 10.445313 2 11 L 2 39 C 2 39.554688 2.449219 40 3 40 L 47 40 C 47.550781 40 48 39.554688 48 39 L 48 11 C 48 10.445313 47.550781 10 47 10 Z M 25 15.875 L 27.25 17.03125 L 29.78125 17.4375 L 30.90625 19.6875 L 32.71875 21.5 L 32.3125 24 L 32.71875 26.5 L 30.90625 28.3125 L 30.5 29.125 L 34 33.9375 L 31.78125 34.125 L 30.5625 36 L 28 30.84375 L 27.25 30.96875 L 25 32.125 L 22.75 30.96875 L 22 30.84375 L 19.4375 36 L 18.21875 34.125 L 16 33.9375 L 19.5 29.125 L 19.09375 28.3125 L 17.28125 26.5 L 17.6875 24 L 17.28125 21.5 L 19.09375 19.6875 L 20.21875 17.4375 L 22.75 17.03125 Z M 25 18.125 L 23.375 18.96875 L 21.5625 19.25 L 20.71875 20.90625 L 19.40625 22.1875 L 19.71875 24 L 19.40625 25.8125 L 20.71875 27.09375 L 21.5625 28.75 L 23.375 29.03125 L 25 29.875 L 26.625 29.03125 L 28.4375 28.75 L 29.28125 27.09375 L 30.59375 25.8125 L 30.28125 24 L 30.59375 22.1875 L 29.28125 20.90625 L 28.4375 19.25 L 26.625 18.96875 Z "/>
</g>
</svg>
