<?xml version="1.0" encoding="UTF-8"?>
<svg xmlns="http://www.w3.org/2000/svg" xmlns:xlink="http://www.w3.org/1999/xlink" viewBox="0 0 50 50" version="1.1" width="50px" height="50px">
<g id="surface1">
<path style=" " d="M 20.003906 5.996094 C 20.003906 3.238281 22.242188 1 25 1 C 27.757813 1 29.996094 3.238281 29.996094 5.996094 C 29.996094 8.753906 27.757813 10.992188 25 10.992188 C 22.242188 10.992188 20.003906 8.753906 20.003906 5.996094 Z M 46.984375 36.976563 L 46.984375 47.667969 C 46.984375 48.914063 45.933594 49.96875 44.6875 49.96875 L 43.289063 49.96875 C 42.144531 49.96875 41.164063 49.078125 41.011719 47.96875 L 40.988281 47.96875 C 40.988281 47.417969 40.542969 46.96875 39.988281 46.96875 L 34.976563 46.96875 L 34.878906 47.535156 C 34.617188 48.988281 33.417969 50 31.96875 50 C 31.789063 50 31.605469 49.980469 31.417969 49.949219 C 30.625 49.804688 29.9375 49.371094 29.488281 48.722656 C 29.128906 48.207031 28.957031 47.597656 28.972656 46.96875 L 20.929688 46.96875 C 20.949219 47.570313 20.78125 48.195313 20.410156 48.722656 C 19.960938 49.371094 19.277344 49.804688 18.484375 49.949219 C 16.808594 50.253906 15.320313 49.171875 15.023438 47.546875 L 14.925781 46.96875 L 11.007813 46.96875 C 10.457031 46.96875 10.011719 47.417969 10.011719 47.96875 L 9.988281 47.96875 C 9.835938 49.078125 8.855469 49.96875 7.710938 49.96875 L 6.3125 49.96875 C 5.066406 49.96875 4.015625 48.914063 4.015625 47.667969 L 4.015625 36.976563 C 4.015625 34.21875 6.253906 31.980469 9.011719 31.980469 L 12.675781 31.980469 C 12.714844 31.847656 12.761719 31.714844 12.816406 31.589844 C 12.84375 31.613281 12.867188 31.640625 12.894531 31.664063 L 13.0625 31.808594 L 13.257813 31.910156 C 14.328125 32.464844 15.171875 32.789063 16.078125 32.996094 L 24.683594 34.75 C 25.007813 34.835938 25.34375 34.878906 25.679688 34.878906 C 26.40625 34.878906 27.097656 34.675781 27.691406 34.3125 L 29.863281 33.894531 L 32.789063 33.332031 C 34.019531 33.066406 35.570313 32.535156 35.632813 32.515625 L 35.78125 32.464844 L 35.917969 32.390625 C 36.167969 32.257813 36.398438 32.117188 36.617188 31.957031 C 36.644531 31.992188 36.664063 32.03125 36.6875 32.066406 C 36.8125 32.011719 36.949219 31.980469 37.09375 31.980469 L 41.988281 31.980469 C 44.742188 31.980469 46.984375 34.21875 46.984375 36.976563 Z M 14.585938 44.96875 L 12.730469 33.976563 L 9.011719 33.976563 C 7.359375 33.976563 6.011719 35.324219 6.011719 36.976563 L 6.011719 47.667969 C 6.011719 47.816406 6.164063 47.96875 6.3125 47.96875 L 7.710938 47.96875 C 7.859375 47.96875 8.011719 47.816406 8.011719 47.667969 L 8.027344 47.667969 C 8.175781 46.15625 9.457031 44.96875 11.007813 44.96875 Z M 19.886719 36.738281 L 20.734375 44.96875 L 29.160156 44.96875 L 29.921875 36.996094 L 24.972656 35.507813 Z M 44.988281 36.976563 C 44.988281 35.324219 43.640625 33.976563 41.988281 33.976563 L 37.191406 33.976563 C 37.179688 34.042969 37.1875 34.101563 37.175781 34.171875 L 35.320313 44.96875 L 39.988281 44.96875 C 41.542969 44.96875 42.820313 46.15625 42.972656 47.667969 L 42.988281 47.667969 C 42.988281 47.816406 43.140625 47.96875 43.289063 47.96875 L 44.6875 47.96875 C 44.835938 47.96875 44.988281 47.816406 44.988281 47.667969 Z M 14.179688 30.136719 C 14.992188 30.558594 15.710938 30.863281 16.519531 31.046875 L 25.15625 32.804688 C 25.328125 32.859375 25.503906 32.882813 25.679688 32.882813 C 26.511719 32.882813 27.304688 32.316406 27.554688 31.40625 L 27.589844 31.265625 C 27.773438 30.183594 27.085938 29.222656 26.117188 29.019531 C 24.800781 28.722656 18.878906 27.355469 18.878906 27.355469 C 18.355469 27.234375 18.023438 26.726563 18.121094 26.199219 L 18.820313 22.402344 C 18.921875 21.859375 19.4375 21.5 19.984375 21.601563 C 20.527344 21.699219 20.886719 22.222656 20.785156 22.765625 L 20.261719 25.621094 C 21.675781 25.949219 24.351563 26.566406 25.808594 26.898438 L 29.863281 25.945313 L 29.035156 22.84375 C 28.890625 22.308594 29.207031 21.761719 29.738281 21.617188 C 30.273438 21.476563 30.820313 21.789063 30.964844 22.324219 L 32.0625 26.421875 C 32.132813 26.683594 32.09375 26.964844 31.957031 27.191406 C 31.820313 27.425781 31.59375 27.589844 31.328125 27.652344 L 28.628906 28.289063 C 28.707031 28.378906 28.785156 28.464844 28.855469 28.558594 C 29.496094 29.433594 29.75 30.511719 29.570313 31.597656 L 29.554688 31.6875 L 29.53125 31.777344 L 29.488281 31.933594 L 32.410156 31.371094 C 33.496094 31.136719 34.984375 30.625 34.984375 30.625 C 35.574219 30.3125 36.042969 29.914063 36.351563 29.40625 C 36.847656 28.605469 36.953125 27.636719 36.671875 26.578125 C 36.292969 24.78125 34.664063 17.746094 34.136719 16.152344 C 33.417969 14.144531 31.835938 12.992188 29.796875 12.992188 L 20.003906 12.992188 C 18.578125 12.992188 16.683594 13.539063 15.765625 16.148438 C 15.582031 16.652344 15.300781 17.878906 14.820313 20 C 14.300781 22.28125 13.65625 25.125 13.152344 26.6875 C 12.882813 27.566406 12.984375 28.488281 13.4375 29.277344 C 13.628906 29.609375 13.886719 29.890625 14.179688 30.136719 Z "/>
</g>
</svg>
