<?xml version="1.0"?>
<svg xmlns="http://www.w3.org/2000/svg" viewBox="0 0 50 50" width="50px" height="50px">
    <path style="line-height:normal;text-indent:0;text-align:start;text-decoration-line:none;text-decoration-style:solid;text-decoration-color:#000;text-transform:none;block-progression:tb;isolation:auto;mix-blend-mode:normal" d="M 25 2 C 15.664827 2 7.6159718 7.5252639 4 15.574219 L 4 10.332031 A 1.0001 1.0001 0 0 0 2.984375 9.3183594 A 1.0001 1.0001 0 0 0 2 10.332031 L 2 20.025391 L 10.683594 16.769531 A 1.0001 1.0001 0 1 0 9.9824219 14.896484 L 5.7890625 16.46875 C 9.0710511 9.0776655 16.422449 4 25 4 C 36.655692 4 46 13.344308 46 25 A 1.0001 1.0001 0 1 0 48 25 C 48 12.271692 37.728308 2 25 2 z M 24.978516 8 C 19.225516 8.129 15.936031 11.365906 15.957031 16.878906 C 15.962031 18.279906 16.171172 19.861844 16.576172 21.589844 C 16.192172 22.124844 15.928766 22.915766 16.009766 23.884766 C 16.271766 25.801766 16.985891 26.626469 17.587891 26.980469 C 17.967891 28.633469 19.136 30.289891 20 31.087891 L 20 34.140625 C 19.413 35.324625 17.414687 36.061844 15.304688 36.839844 C 13.481687 37.511844 11.445422 38.285719 9.8574219 39.511719 C 6.2384219 35.737719 4 30.629 4 25 C 4 24.448 3.553 24 3 24 C 2.447 24 2 24.448 2 25 C 2 37.682 12.317 48 25 48 C 34.132595 48 42.300775 42.62022 46 34.410156 L 46 39.667969 A 1.0001 1.0001 0 1 0 48 39.667969 L 48 29.974609 L 39.316406 33.230469 A 1.0001 1.0001 0 1 0 40.017578 35.103516 L 44.207031 33.53125 C 43.162697 35.861093 41.726689 37.942863 39.990234 39.707031 C 38.405234 38.362031 36.334187 37.545031 34.492188 36.832031 C 32.481187 36.054031 30.578 35.317578 30 34.142578 L 30 31.078125 C 30.831 30.274125 31.879922 28.638922 32.294922 27.044922 C 33.087922 26.658922 33.829094 25.685938 33.996094 23.835938 C 34.083094 22.793937 33.662594 22.022344 33.183594 21.527344 C 33.511594 20.461344 33.993047 18.559938 33.998047 16.585938 C 34.010047 12.043938 31.704844 10.524891 29.589844 10.087891 C 28.777844 9.0168906 27.228516 8 24.978516 8 z" font-weight="400" font-family="sans-serif" white-space="normal" overflow="visible"/>
</svg>
