<?xml version="1.0" encoding="UTF-8"?>
<svg xmlns="http://www.w3.org/2000/svg" xmlns:xlink="http://www.w3.org/1999/xlink" viewBox="0 0 50 50" version="1.1" width="50px" height="50px">
<g id="surface1">
<path style=" " d="M 0 8 L 0 10.542969 C 6.472656 16.089844 19.710938 27.429688 20.824219 28.316406 C 22.214844 29.507813 23.605469 29.597656 24 29.597656 C 24.394531 29.597656 25.789063 29.507813 27.148438 28.339844 C 28.207031 27.496094 40.675781 16.773438 48 10.472656 L 48 8 Z M 48 13.109375 C 43.515625 16.96875 37.675781 21.988281 33.53125 25.539063 L 31.984375 26.863281 C 30.082031 28.492188 28.746094 29.625 28.421875 29.878906 C 26.617188 31.429688 24.726563 31.597656 24 31.597656 C 23.273438 31.597656 21.382813 31.429688 19.546875 29.859375 C 19.222656 29.597656 4.175781 16.753906 0 13.175781 L 0 42 L 30.203125 42 C 31.128906 46.558594 35.171875 50 40 50 C 45.515625 50 50 45.515625 50 40 C 50 37.757813 49.25 35.695313 48 34.027344 Z M 40 32 C 41.273438 32.015625 42.433594 32.304688 43.449219 32.792969 C 43.449219 32.792969 43.449219 32.792969 43.453125 32.796875 C 45.679688 33.867188 47.214844 35.894531 47.753906 38.078125 C 47.910156 38.695313 48 39.335938 48 40 C 48 44.410156 44.410156 48 40 48 C 36.28125 48 33.15625 45.445313 32.265625 42 C 32.1875 41.699219 32.125 41.386719 32.078125 41.074219 C 32.074219 41.046875 32.070313 41.019531 32.066406 40.988281 C 32.023438 40.664063 32 40.335938 32 40 C 32 39.746094 32.015625 39.492188 32.035156 39.246094 C 32.402344 35.566406 35.40625 32.089844 40 32 Z M 36.488281 35.488281 C 36.082031 35.492188 35.71875 35.738281 35.5625 36.113281 C 35.410156 36.492188 35.5 36.921875 35.792969 37.207031 L 38.585938 40 L 35.792969 42.792969 C 35.53125 43.042969 35.425781 43.417969 35.519531 43.765625 C 35.609375 44.117188 35.882813 44.390625 36.234375 44.480469 C 36.582031 44.574219 36.957031 44.46875 37.207031 44.207031 L 40 41.414063 L 42.792969 44.207031 C 43.042969 44.46875 43.417969 44.574219 43.765625 44.480469 C 44.117188 44.390625 44.390625 44.117188 44.480469 43.765625 C 44.574219 43.417969 44.46875 43.042969 44.207031 42.792969 L 41.414063 40 L 44.207031 37.207031 C 44.503906 36.917969 44.589844 36.480469 44.429688 36.101563 C 44.269531 35.71875 43.894531 35.476563 43.480469 35.488281 C 43.21875 35.496094 42.972656 35.605469 42.792969 35.792969 L 40 38.585938 L 37.207031 35.792969 C 37.019531 35.597656 36.761719 35.492188 36.488281 35.488281 Z "/>
</g>
</svg>
