<?xml version="1.0" encoding="UTF-8"?>
<svg xmlns="http://www.w3.org/2000/svg" xmlns:xlink="http://www.w3.org/1999/xlink" viewBox="0 0 50 50" version="1.1" width="50px" height="50px">
<g id="surface1">
<path style=" " d="M 22.4375 0 L 19.53125 2.75 L 20.71875 4 L 13.59375 4 C 8.3125 4 4 8.3125 4 13.59375 L 4 17.40625 L 8 17.40625 L 8 13.59375 C 8 10.472656 10.472656 8 13.59375 8 L 20.71875 8 L 19.5625 9.21875 L 22.46875 11.96875 L 26.78125 7.375 L 28.0625 6 L 26.78125 4.625 Z M 32.59375 4 L 32.59375 8 L 36.40625 8 C 39.527344 8 42 10.472656 42 13.59375 L 42 20.71875 L 40.78125 19.5625 L 38.03125 22.46875 L 42.625 26.78125 L 44 28.09375 L 45.375 26.78125 L 49.9375 22.5 L 47.1875 19.59375 L 46 20.71875 L 46 13.59375 C 46 8.3125 41.6875 4 36.40625 4 Z M 6 21.90625 L 4.625 23.21875 L 0 27.5625 L 2.71875 30.46875 L 4 29.28125 L 4 36.40625 C 4 41.6875 8.3125 46 13.59375 46 L 17.40625 46 L 17.40625 42 L 13.59375 42 C 10.472656 42 8 39.527344 8 36.40625 L 8 29.28125 L 9.25 30.46875 L 11.96875 27.53125 L 7.375 23.21875 Z M 42 32.59375 L 42 36.40625 C 42 39.527344 39.527344 42 36.40625 42 L 29.28125 42 L 30.4375 40.78125 L 27.53125 38.03125 L 23.21875 42.625 L 21.9375 44 L 23.21875 45.375 L 27.5625 49.96875 L 30.46875 47.25 L 29.28125 46 L 36.40625 46 C 41.6875 46 46 41.683594 46 36.40625 L 46 32.59375 Z "/>
</g>
</svg>
