<?xml version="1.0"?>
<svg xmlns="http://www.w3.org/2000/svg" viewBox="0 0 50 50" width="50px" height="50px">
    <path style="line-height:normal;text-indent:0;text-align:start;text-decoration-line:none;text-decoration-style:solid;text-decoration-color:#000;text-transform:none;block-progression:tb;isolation:auto;mix-blend-mode:normal" d="M 25 2 C 12.309295 2 2 12.309295 2 25 C 2 37.690705 12.309295 48 25 48 C 37.690705 48 48 37.690705 48 25 C 48 12.309295 37.690705 2 25 2 z M 16.089844 6 L 17 6 L 17 8 L 19 7 L 20 9 L 18 12 L 16 12 L 12.480469 13.759766 L 14.851562 6.6113281 C 15.253625 6.3892109 15.672157 6.1959707 16.089844 6 z M 36.613281 7.5039062 C 42.270987 11.26371 46 17.688303 46 25 C 46 25.972647 45.928379 26.927962 45.800781 27.865234 L 45 27 L 41 28 L 41 29 L 43 30 L 41.25 32.5 L 40.25 33 L 37.144531 26.787109 L 32.833984 27.5 L 32.126953 25.625 L 37.126953 23.625 L 35 21 L 34 23 L 31 24 L 30 27 L 28 24 L 25 25 L 23 27 L 21 27 L 21 24 L 23 24 L 26.25 20.6875 L 29.5 20.375 L 32.980469 16.677734 L 30.732422 14.255859 L 29.267578 15.617188 L 30.267578 16.695312 L 28.982422 18.0625 L 26.4375 15.435547 L 29.935547 12 L 33.03125 12 L 34 13.9375 L 35 11.9375 L 37 11 L 36 9 L 36.613281 7.5039062 z M 12.128906 8.4238281 L 10.787109 12.404297 L 9 13 L 8 20 L 6 19 L 4.7226562 19.525391 C 5.9249563 15.051962 8.5748779 11.18608 12.128906 8.4238281 z M 22 16 L 22.75 16 L 24 19.625 L 23 20 L 21 20 L 21 19 L 22 18 L 22 16 z M 25 28 L 30 30 L 36 29 L 39 35 L 40.400391 35 L 38 39 L 35.667969 43.072266 C 33.782237 44.186795 31.717826 45.029798 29.511719 45.511719 L 28 44 L 28 40 L 25 38 L 22 39 L 19 38 L 18 34 L 20 30 L 25 28 z" font-weight="400" font-family="sans-serif" white-space="normal" overflow="visible"/>
</svg>
