<?xml version="1.0" encoding="UTF-8"?>
<svg xmlns="http://www.w3.org/2000/svg" xmlns:xlink="http://www.w3.org/1999/xlink" viewBox="0 0 26 26" version="1.1" width="50px" height="50px">
<g id="surface1">
<path style=" " d="M 14.5 0 C 13.121094 0 12 1.121094 12 2.5 C 12 3.878906 13.121094 5 14.5 5 C 15.878906 5 17 3.878906 17 2.5 C 17 1.121094 15.878906 0 14.5 0 Z M 12.25 6 C 10.84375 6 10.203125 6.359375 9.71875 7.8125 C 9.417969 8.71875 9 10.179688 9 11.125 C 9 11.242188 9 11.324219 9 11.4375 C 6.097656 12.472656 4 15.25 4 18.5 C 4 22.628906 7.371094 26 11.5 26 C 15.628906 26 19 22.628906 19 18.5 C 19 18.394531 19.003906 18.292969 19 18.1875 C 19.222656 18.332031 19.390625 18.546875 19.53125 18.8125 C 19.699219 19.132813 21.085938 21.957031 21.96875 23.34375 C 22.304688 23.875 22.878906 23.96875 23.34375 23.8125 C 23.8125 23.65625 24.144531 22.953125 23.90625 22.40625 C 23.15625 20.699219 21.503906 16.902344 21.1875 16.25 C 20.878906 15.609375 20.371094 15 19.53125 15 L 16.75 15 C 15.722656 15 15.304688 14.757813 15.03125 13.8125 C 14.757813 12.867188 14.59375 12.042969 14.59375 11.3125 C 14.59375 10.375 15 9.332031 15 8.21875 C 15 7.132813 13.957031 6 12.25 6 Z M 9.1875 13.5 C 9.324219 14.296875 9.53125 14.953125 9.78125 15.6875 C 10.175781 16.835938 10.644531 18 12.625 18 L 16.96875 18 C 16.988281 18.160156 17 18.328125 17 18.5 C 17 21.550781 14.550781 24 11.5 24 C 8.449219 24 6 21.550781 6 18.5 C 6 16.273438 7.296875 14.367188 9.1875 13.5 Z "/>
</g>
</svg>
