<?xml version="1.0" encoding="UTF-8"?>
<svg xmlns="http://www.w3.org/2000/svg" xmlns:xlink="http://www.w3.org/1999/xlink" viewBox="0 0 50 50" version="1.1" width="50px" height="50px">
<g id="surface1">
<path style=" " d="M 26 1 C 23.238281 1 21 3.238281 21 6 C 21 8.761719 23.238281 11 26 11 C 28.761719 11 31 8.761719 31 6 C 31 3.238281 28.761719 1 26 1 Z M 21.1875 13 C 20.789063 13 20.398438 13.113281 20 13.3125 L 11.28125 17.1875 C 10.582031 17.488281 10.199219 18.113281 10 18.8125 L 7.5625 27.59375 C 7.390625 28.21875 7.589844 28.886719 8 29.375 C 9.191406 27.863281 10.671875 26.574219 12.375 25.65625 L 13.65625 21.1875 L 20.40625 18.5 L 19.625 24.03125 C 22.742188 24.167969 25.578125 25.300781 27.84375 27.15625 L 29.09375 18.3125 C 29.492188 15.511719 27.402344 13 24.5 13 Z M 19 26 C 12.382813 26 7 31.382813 7 38 C 7 44.617188 12.382813 50 19 50 C 25.617188 50 31 44.617188 31 38 C 31 31.382813 25.617188 26 19 26 Z M 29.71875 29 C 31.152344 30.703125 32.164063 32.75 32.65625 35 L 33.59375 35 L 37.46875 44.21875 C 37.867188 45.320313 39.050781 46.105469 40.25 45.90625 C 41.847656 45.605469 42.757813 44 42.15625 42.5 L 37.59375 30.59375 C 37.195313 29.695313 36.3125 29 35.3125 29 Z M 19 36 C 20.105469 36 21 36.894531 21 38 C 21 39.105469 20.105469 40 19 40 C 17.894531 40 17 39.105469 17 38 C 17 36.894531 17.894531 36 19 36 Z M 32.40625 42 C 32.195313 42.703125 31.9375 43.378906 31.625 44.03125 L 36.28125 48.71875 C 36.46875 48.90625 36.734375 49 37 49 L 42 49 C 42.554688 49 43 48.554688 43 48 C 43 47.445313 42.554688 47 42 47 L 37.40625 47 Z "/>
</g>
</svg>
