<?xml version="1.0" encoding="UTF-8"?>
<svg xmlns="http://www.w3.org/2000/svg" xmlns:xlink="http://www.w3.org/1999/xlink" viewBox="0 0 50 50" version="1.1" width="50px" height="50px">
<g id="surface1">
<path style=" " d="M 37 2 L 37 6 L 43.1875 6 L 37.9375 11.25 C 35.976563 9.851563 33.585938 9 31 9 C 24.382813 9 19 14.382813 19 21 C 19 25.121094 21.136719 28.925781 24.59375 31.125 C 24.847656 30.457031 25 29.730469 25 29 C 25 27.578125 24.601563 26.191406 24.0625 25 L 24.09375 25 C 23.386719 23.808594 23 22.4375 23 21 C 23 16.589844 26.589844 13 31 13 C 35.410156 13 39 16.589844 39 21 C 39 24.703125 36.480469 27.808594 33 28.71875 C 33.003906 28.8125 33 28.90625 33 29 C 33 30.339844 32.78125 31.648438 32.40625 32.90625 C 38.363281 32.207031 43 27.140625 43 21 C 43 18.414063 42.148438 16.023438 40.75 14.0625 L 46 8.8125 L 46 15 L 50 15 L 50 2 Z M 17.5625 17.09375 C 11.617188 17.800781 7 22.867188 7 29 C 7 31.578125 7.828125 33.980469 9.21875 35.9375 L 5.96875 39.1875 L 2.84375 36.15625 L 0.0625 39.03125 L 3.15625 42.03125 L 0.0625 45.09375 L 2.90625 47.9375 L 6.03125 44.8125 L 9.15625 47.84375 L 11.9375 44.96875 L 8.84375 41.96875 L 12.0625 38.75 C 14.023438 40.148438 16.414063 41 19 41 C 25.617188 41 31 35.617188 31 29 C 31 24.882813 28.859375 21.105469 25.40625 18.90625 C 25.148438 19.574219 25 20.273438 25 21 C 25 22.039063 25.929688 25.152344 26.46875 26.0625 L 26.4375 26.125 C 26.792969 27.027344 27 27.992188 27 29 C 27 33.410156 23.410156 37 19 37 C 14.589844 37 11 33.410156 11 29 C 11 25.273438 13.546875 22.136719 17 21.25 C 16.996094 21.160156 17 21.085938 17 21 C 17 19.664063 17.1875 18.351563 17.5625 17.09375 Z "/>
</g>
</svg>
