<?xml version="1.0"?>
<svg xmlns="http://www.w3.org/2000/svg" viewBox="0 0 50 50" width="50px" height="50px">
    <path d="M 11 4 C 9.346 4 8 5.346 8 7 L 8 43 C 8 44.654 9.346 46 11 46 L 32.027344 46 C 33.856756 48.421534 36.749111 50 40 50 C 45.5 50 50 45.5 50 40 C 50 35.184743 46.549764 31.134665 42 30.201172 L 42 7 C 42 5.346 40.654 4 39 4 L 11 4 z M 14 9 L 36 9 L 36 17 L 14 17 L 14 9 z M 24 12 L 24 14 L 26 14 L 26 12 L 24 12 z M 28 12 L 28 14 L 30 14 L 30 12 L 28 12 z M 32 12 L 32 14 L 34 14 L 34 12 L 32 12 z M 14 24 L 18 24 L 18 28 L 14 28 L 14 24 z M 20 24 L 24 24 L 24 28 L 20 28 L 20 24 z M 26 24 L 30 24 L 30 28 L 26 28 L 26 24 z M 32 24 L 36 24 L 36 28 L 32 28 L 32 24 z M 14 30 L 18 30 L 18 34 L 14 34 L 14 30 z M 20 30 L 24 30 L 24 34 L 20 34 L 20 30 z M 26 30 L 30 30 L 30 34 L 26 34 L 26 30 z M 32 30 L 36 30 L 36 30.845703 C 34.419917 31.541615 33.057019 32.637052 32.027344 34 L 32 34 L 32 30 z M 40 32 C 44.4 32 48 35.6 48 40 C 48 44.4 44.4 48 40 48 C 35.6 48 32 44.4 32 40 C 32 35.6 35.6 32 40 32 z M 39.699219 33.400391 L 39.699219 34.900391 C 38.799219 34.900391 36.900391 35.599219 36.900391 37.699219 C 36.900391 41.199219 41.400391 40.3 41.400391 42.5 C 41.400391 42.7 41.399609 43.699219 40.099609 43.699219 C 38.599609 43.699219 38.599609 42.3 38.599609 42 L 36.599609 42 C 36.599609 45 39.199609 45.300781 39.599609 45.300781 L 39.599609 46.699219 L 40.699219 46.699219 L 40.699219 45.300781 C 41.099219 45.300781 43.5 45 43.5 42.5 C 43.5 39 39 39.799219 39 37.699219 C 39 37.499219 38.999609 36.500391 40.099609 36.400391 C 41.299609 36.400391 41.400391 37.499609 41.400391 38.099609 L 43.400391 38.099609 C 43.400391 35.499609 41.500781 35.000391 40.800781 34.900391 L 40.800781 33.400391 L 39.699219 33.400391 z M 14 36 L 18 36 L 18 40 L 14 40 L 14 36 z M 20 36 L 24 36 L 24 40 L 20 40 L 20 36 z M 26 36 L 30 36 L 30 40 L 26 40 L 26 36 z"/>
</svg>
