<?xml version="1.0" encoding="UTF-8"?>
<svg xmlns="http://www.w3.org/2000/svg" xmlns:xlink="http://www.w3.org/1999/xlink" viewBox="0 0 26 26" version="1.1" width="50px" height="50px">
<g id="surface1">
<path style=" " d="M 13 0 C 10.800781 0 9 1.800781 9 4 C 9 5.375 9.714844 6.589844 10.78125 7.3125 C 10.066406 7.515625 9.441406 7.816406 8.90625 8.15625 C 8.519531 6.355469 6.910156 5 5 5 C 2.800781 5 1 6.800781 1 9 C 1 10.121094 1.464844 11.144531 2.21875 11.875 C 0.886719 12.789063 0 14.332031 0 16.09375 L 0 21.09375 C 0 21.863281 0.28125 22.679688 0.84375 23.3125 C 1.40625 23.945313 2.214844 24.421875 3.25 24.8125 C 5.152344 25.527344 7.957031 25.90625 11.96875 25.96875 C 12.296875 25.996094 12.648438 26 13 26 C 13.351563 26 13.703125 25.996094 14.03125 25.96875 C 18.042969 25.90625 20.847656 25.527344 22.75 24.8125 C 23.785156 24.421875 24.59375 23.945313 25.15625 23.3125 C 25.71875 22.679688 26 21.863281 26 21.09375 L 26 16.09375 C 26 14.332031 25.113281 12.789063 23.78125 11.875 C 24.535156 11.144531 25 10.121094 25 9 C 25 6.800781 23.199219 5 21 5 C 19.089844 5 17.480469 6.355469 17.09375 8.15625 C 16.558594 7.816406 15.933594 7.515625 15.21875 7.3125 C 16.285156 6.589844 17 5.375 17 4 C 17 1.800781 15.199219 0 13 0 Z M 13 2 C 14.117188 2 15 2.882813 15 4 C 15 5.117188 14.117188 6 13 6 C 11.882813 6 11 5.117188 11 4 C 11 2.882813 11.882813 2 13 2 Z M 5 7 C 6.117188 7 7 7.882813 7 9 C 7 10.117188 6.117188 11 5 11 C 3.882813 11 3 10.117188 3 9 C 3 7.882813 3.882813 7 5 7 Z M 21 7 C 22.117188 7 23 7.882813 23 9 C 23 10.117188 22.117188 11 21 11 C 19.882813 11 19 10.117188 19 9 C 19 7.882813 19.882813 7 21 7 Z M 13 9 C 15.121094 9 16.308594 9.820313 17.0625 10.65625 C 17.746094 11.414063 17.960938 12.0625 18 12.1875 C 18.007813 12.21875 18.019531 12.25 18.03125 12.28125 C 18.03125 12.292969 18.03125 12.300781 18.03125 12.3125 C 18.039063 12.332031 18.050781 12.355469 18.0625 12.375 C 18.0625 12.386719 18.0625 12.394531 18.0625 12.40625 C 18.074219 12.417969 18.082031 12.425781 18.09375 12.4375 C 18.113281 12.480469 18.132813 12.523438 18.15625 12.5625 C 18.175781 12.585938 18.195313 12.605469 18.21875 12.625 C 18.21875 12.636719 18.21875 12.644531 18.21875 12.65625 C 18.230469 12.667969 18.238281 12.675781 18.25 12.6875 C 18.261719 12.699219 18.269531 12.707031 18.28125 12.71875 C 18.292969 12.71875 18.300781 12.71875 18.3125 12.71875 C 18.320313 12.738281 18.332031 12.761719 18.34375 12.78125 C 18.355469 12.78125 18.363281 12.78125 18.375 12.78125 C 18.5 12.890625 18.652344 12.964844 18.8125 13 C 18.824219 13 18.832031 13 18.84375 13 C 18.863281 13 18.886719 13 18.90625 13 C 18.917969 13 18.925781 13 18.9375 13 C 18.957031 13 18.980469 13 19 13 L 21 13 C 22.65625 13 24 14.316406 24 16.09375 L 24 21.09375 C 24 21.425781 23.921875 21.664063 23.65625 21.96875 C 23.390625 22.273438 22.890625 22.625 22.0625 22.9375 C 21.132813 23.289063 19.75 23.5625 17.96875 23.75 C 17.828125 21.523438 16.328125 19 13 19 C 9.671875 19 8.171875 21.523438 8.03125 23.75 C 6.25 23.5625 4.867188 23.289063 3.9375 22.9375 C 3.109375 22.625 2.609375 22.273438 2.34375 21.96875 C 2.078125 21.664063 2 21.425781 2 21.09375 L 2 16.09375 C 2 14.316406 3.34375 13 5 13 L 7 13 C 7.011719 13 7.019531 13 7.03125 13 C 7.105469 12.996094 7.179688 12.988281 7.25 12.96875 C 7.304688 12.953125 7.355469 12.929688 7.40625 12.90625 C 7.460938 12.890625 7.511719 12.867188 7.5625 12.84375 C 7.59375 12.824219 7.625 12.804688 7.65625 12.78125 C 7.667969 12.769531 7.675781 12.761719 7.6875 12.75 C 7.699219 12.738281 7.707031 12.730469 7.71875 12.71875 C 7.730469 12.699219 7.742188 12.675781 7.75 12.65625 C 7.761719 12.644531 7.769531 12.636719 7.78125 12.625 C 7.792969 12.613281 7.800781 12.605469 7.8125 12.59375 C 7.824219 12.582031 7.832031 12.574219 7.84375 12.5625 C 7.855469 12.542969 7.867188 12.519531 7.875 12.5 C 7.886719 12.488281 7.894531 12.480469 7.90625 12.46875 C 7.90625 12.449219 7.90625 12.425781 7.90625 12.40625 C 7.917969 12.394531 7.925781 12.386719 7.9375 12.375 C 7.964844 12.316406 7.984375 12.25 8 12.1875 C 8.039063 12.0625 8.253906 11.414063 8.9375 10.65625 C 9.691406 9.820313 10.878906 9 13 9 Z M 13 19 C 14.65625 19 16 17.65625 16 16 C 16 14.34375 14.65625 13 13 13 C 11.34375 13 10 14.34375 10 16 C 10 17.65625 11.34375 19 13 19 Z "/>
</g>
</svg>
