<?xml version="1.0" encoding="UTF-8"?>
<svg xmlns="http://www.w3.org/2000/svg" xmlns:xlink="http://www.w3.org/1999/xlink" viewBox="0 0 50 50" version="1.1" width="50px" height="50px">
<g id="surface1">
<path style=" " d="M 13 0 C 10.242188 0 8 2.242188 8 5 C 8 7.757813 10.242188 10 13 10 C 15.757813 10 18 7.757813 18 5 C 18 2.242188 15.757813 0 13 0 Z M 38 0 C 33.515625 0 30 3.515625 30 8 C 30 12.484375 33.515625 16 38 16 C 42.484375 16 46 12.484375 46 8 C 46 3.515625 42.484375 0 38 0 Z M 38 3 C 38.554688 3 39 3.449219 39 4 L 39 7.59375 L 40.71875 9.28125 C 41.109375 9.671875 41.109375 10.328125 40.71875 10.71875 C 40.523438 10.914063 40.257813 11 40 11 C 39.742188 11 39.476563 10.914063 39.28125 10.71875 L 37.28125 8.71875 C 37.09375 8.53125 37 8.265625 37 8 L 37 4 C 37 3.449219 37.445313 3 38 3 Z M 15.34375 11.15625 C 15.121094 11.15625 14.898438 11.1875 14.6875 11.21875 C 13.273438 11.394531 12.007813 12.152344 11.21875 13.3125 C 10.421875 14.488281 10.171875 15.96875 10.53125 17.34375 L 13.53125 29.65625 C 14.347656 32.804688 17.144531 35 20.3125 35 L 29.1875 35 L 31.625 47.1875 C 31.917969 48.796875 33.363281 50 35 50 C 36.054688 50 37.035156 49.542969 37.6875 48.75 C 38.335938 47.957031 38.578125 46.921875 38.375 45.90625 L 35.46875 31.1875 C 35.066406 29.308594 33.4375 28 31.5 28 L 23.375 28 L 20.28125 15.15625 C 19.703125 12.839844 17.625 11.15625 15.34375 11.15625 Z M 6.5625 13 C 6.28125 13.035156 6.03125 13.191406 5.871094 13.421875 C 5.710938 13.65625 5.65625 13.945313 5.71875 14.21875 L 9.53125 30.40625 C 9.535156 30.417969 9.527344 30.429688 9.53125 30.4375 C 10.640625 35.46875 15.042969 39 20.1875 39 L 27 39 C 27.359375 39.003906 27.695313 38.816406 27.878906 38.503906 C 28.058594 38.191406 28.058594 37.808594 27.878906 37.496094 C 27.695313 37.183594 27.359375 36.996094 27 37 L 20.1875 37 C 15.941406 37 12.371094 34.152344 11.46875 30 C 11.46875 29.988281 11.46875 29.980469 11.46875 29.96875 L 7.6875 13.78125 C 7.578125 13.265625 7.085938 12.921875 6.5625 13 Z "/>
</g>
</svg>
